G04 #@! TF.GenerationSoftware,KiCad,Pcbnew,6.0.2+dfsg-1*
G04 #@! TF.CreationDate,2022-09-13T11:12:48+08:00*
G04 #@! TF.ProjectId,epaper-102,65706170-6572-42d3-9130-322e6b696361,rev?*
G04 #@! TF.SameCoordinates,Original*
G04 #@! TF.FileFunction,Copper,L2,Bot*
G04 #@! TF.FilePolarity,Positive*
%FSLAX46Y46*%
G04 Gerber Fmt 4.6, Leading zero omitted, Abs format (unit mm)*
G04 Created by KiCad (PCBNEW 6.0.2+dfsg-1) date 2022-09-13 11:12:48*
%MOMM*%
%LPD*%
G01*
G04 APERTURE LIST*
G04 Aperture macros list*
%AMRoundRect*
0 Rectangle with rounded corners*
0 $1 Rounding radius*
0 $2 $3 $4 $5 $6 $7 $8 $9 X,Y pos of 4 corners*
0 Add a 4 corners polygon primitive as box body*
4,1,4,$2,$3,$4,$5,$6,$7,$8,$9,$2,$3,0*
0 Add four circle primitives for the rounded corners*
1,1,$1+$1,$2,$3*
1,1,$1+$1,$4,$5*
1,1,$1+$1,$6,$7*
1,1,$1+$1,$8,$9*
0 Add four rect primitives between the rounded corners*
20,1,$1+$1,$2,$3,$4,$5,0*
20,1,$1+$1,$4,$5,$6,$7,0*
20,1,$1+$1,$6,$7,$8,$9,0*
20,1,$1+$1,$8,$9,$2,$3,0*%
G04 Aperture macros list end*
G04 #@! TA.AperFunction,ComponentPad*
%ADD10C,1.000000*%
G04 #@! TD*
G04 #@! TA.AperFunction,SMDPad,CuDef*
%ADD11RoundRect,0.140000X-0.170000X0.140000X-0.170000X-0.140000X0.170000X-0.140000X0.170000X0.140000X0*%
G04 #@! TD*
G04 #@! TA.AperFunction,ComponentPad*
%ADD12R,1.200000X1.000000*%
G04 #@! TD*
G04 #@! TA.AperFunction,SMDPad,CuDef*
%ADD13RoundRect,0.218750X0.256250X-0.218750X0.256250X0.218750X-0.256250X0.218750X-0.256250X-0.218750X0*%
G04 #@! TD*
G04 #@! TA.AperFunction,SMDPad,CuDef*
%ADD14RoundRect,0.218750X-0.256250X0.218750X-0.256250X-0.218750X0.256250X-0.218750X0.256250X0.218750X0*%
G04 #@! TD*
G04 #@! TA.AperFunction,SMDPad,CuDef*
%ADD15R,0.900000X1.200000*%
G04 #@! TD*
G04 #@! TA.AperFunction,SMDPad,CuDef*
%ADD16R,0.300000X1.300000*%
G04 #@! TD*
G04 #@! TA.AperFunction,SMDPad,CuDef*
%ADD17R,1.000000X1.500000*%
G04 #@! TD*
G04 #@! TA.AperFunction,ViaPad*
%ADD18C,0.800000*%
G04 #@! TD*
G04 #@! TA.AperFunction,Conductor*
%ADD19C,0.250000*%
G04 #@! TD*
G04 APERTURE END LIST*
D10*
X24550000Y-101650000D03*
X42150000Y-101650000D03*
D11*
X26825000Y-85295000D03*
X26825000Y-86255000D03*
X25150000Y-81145000D03*
X25150000Y-82105000D03*
X41975000Y-85095000D03*
X41975000Y-86055000D03*
X40150000Y-85070000D03*
X40150000Y-86030000D03*
X36425000Y-77570000D03*
X36425000Y-78530000D03*
X36200000Y-82845000D03*
X36200000Y-83805000D03*
X33750000Y-77745000D03*
X33750000Y-78705000D03*
X33375000Y-82745000D03*
X33375000Y-83705000D03*
X30625000Y-83845000D03*
X30625000Y-84805000D03*
X31175000Y-77695000D03*
X31175000Y-78655000D03*
X28625000Y-77570000D03*
X28625000Y-78530000D03*
X26400000Y-77595000D03*
X26400000Y-78555000D03*
X28375000Y-85295000D03*
X28375000Y-86255000D03*
X25275000Y-85270000D03*
X25275000Y-86230000D03*
X26700000Y-81170000D03*
X26700000Y-82130000D03*
D10*
X25729800Y-65800000D03*
D12*
X28269800Y-65800000D03*
D10*
X30809800Y-65800000D03*
X33349800Y-65800000D03*
X35889800Y-65800000D03*
X38429800Y-65800000D03*
X40969800Y-65800000D03*
D13*
X39450000Y-78887500D03*
X39450000Y-77312500D03*
D14*
X41325000Y-77275000D03*
X41325000Y-78850000D03*
D15*
X31700000Y-72550000D03*
X35000000Y-72550000D03*
D16*
X40600000Y-90450000D03*
D17*
X24600000Y-93650000D03*
D16*
X40100000Y-90450000D03*
X39600000Y-90450000D03*
X39100000Y-90450000D03*
X38600000Y-90450000D03*
X38100000Y-90450000D03*
X37600000Y-90450000D03*
X37100000Y-90450000D03*
X36600000Y-90450000D03*
X36100000Y-90450000D03*
X35600000Y-90450000D03*
X35100000Y-90450000D03*
X34600000Y-90450000D03*
X34100000Y-90450000D03*
X33600000Y-90450000D03*
X33100000Y-90450000D03*
X32600000Y-90450000D03*
X32100000Y-90450000D03*
X31600000Y-90450000D03*
X31100000Y-90450000D03*
X30600000Y-90450000D03*
X30100000Y-90450000D03*
X29600000Y-90450000D03*
X29100000Y-90450000D03*
X28600000Y-90450000D03*
X28100000Y-90450000D03*
X27600000Y-90450000D03*
X27100000Y-90450000D03*
X26600000Y-90450000D03*
X26100000Y-90450000D03*
D17*
X42100000Y-93650000D03*
D18*
X26000000Y-83700000D03*
X33800000Y-80625000D03*
X34700000Y-92500000D03*
X36275000Y-80600000D03*
X39400000Y-92500000D03*
X40150000Y-70850000D03*
X24425000Y-77025000D03*
X37000000Y-94200000D03*
X42225000Y-81100000D03*
X31300000Y-69000000D03*
X40125000Y-81075000D03*
X26000000Y-69300000D03*
X26400000Y-74975000D03*
X25625000Y-73675000D03*
X32600015Y-94400000D03*
X30600009Y-94400000D03*
X30600000Y-74500000D03*
X29600006Y-94400000D03*
X29600000Y-75700000D03*
X28600003Y-94400000D03*
X34700000Y-69200000D03*
X27600000Y-94400000D03*
D19*
X29600000Y-75700000D02*
X29600000Y-74524614D01*
X30900103Y-71564179D02*
X33349800Y-69114482D01*
X33349800Y-69114482D02*
X33349800Y-65800000D01*
X29600000Y-74524614D02*
X30299897Y-75224511D01*
X30299897Y-75224511D02*
X30900103Y-75224511D01*
X30900103Y-75224511D02*
X31324511Y-74800103D01*
X31324511Y-74800103D02*
X31324511Y-74199897D01*
X31324511Y-74199897D02*
X30900103Y-73775489D01*
X30900103Y-73775489D02*
X30900103Y-71564179D01*
X34700000Y-69200000D02*
X38100000Y-65800000D01*
X38100000Y-65800000D02*
X38429800Y-65800000D01*
X30600000Y-74500000D02*
X26999800Y-70899800D01*
X26999800Y-70899800D02*
X26999800Y-67070000D01*
X26999800Y-67070000D02*
X25729800Y-65800000D01*
X29750000Y-78400000D02*
X28625000Y-77275000D01*
X26600000Y-90450000D02*
X26600000Y-91500000D01*
X29750000Y-80175000D02*
X29750000Y-78400000D01*
X30600000Y-91600000D02*
X30900000Y-91900000D01*
X26700000Y-82425000D02*
X25175000Y-82425000D01*
X30600000Y-90450000D02*
X30600000Y-91600000D01*
X26825000Y-85000000D02*
X26825000Y-82550000D01*
X26825000Y-82550000D02*
X26700000Y-82425000D01*
X30625000Y-81050000D02*
X29750000Y-80175000D01*
X26825000Y-85000000D02*
X28375000Y-85000000D01*
X25175000Y-82425000D02*
X25175000Y-84875000D01*
X25175000Y-84875000D02*
X25275000Y-84975000D01*
X30625000Y-83550000D02*
X30625000Y-81050000D01*
X25275000Y-74025000D02*
X25625000Y-73675000D01*
X25150000Y-80850000D02*
X24350000Y-81650000D01*
X24350000Y-81650000D02*
X24350000Y-87225000D01*
X26675000Y-80850000D02*
X26675000Y-80875000D01*
X26325000Y-88300000D02*
X27100000Y-89075000D01*
X27100000Y-89075000D02*
X27100000Y-90450000D01*
X24350000Y-87225000D02*
X25425000Y-88300000D01*
X25150000Y-80850000D02*
X26675000Y-80850000D01*
X26675000Y-80850000D02*
X25275000Y-79450000D01*
X25425000Y-88300000D02*
X26325000Y-88300000D01*
X25275000Y-79450000D02*
X25275000Y-74025000D01*
X26675000Y-80850000D02*
X26700000Y-80875000D01*
X29434002Y-88034002D02*
X30389805Y-88034002D01*
X31600000Y-89244197D02*
X31600000Y-90450000D01*
X28375000Y-86975000D02*
X29434002Y-88034002D01*
X28375000Y-86550000D02*
X28375000Y-86975000D01*
X30389805Y-88034002D02*
X31600000Y-89244197D01*
X29250499Y-82025499D02*
X26400000Y-79175000D01*
X32100000Y-90450000D02*
X32100000Y-89108507D01*
X26400000Y-79175000D02*
X26400000Y-78850000D01*
X32100000Y-89108507D02*
X29250499Y-86259006D01*
X29250499Y-86259006D02*
X29250499Y-82025499D01*
X32600000Y-90450000D02*
X32600000Y-88972817D01*
X29700000Y-86072817D02*
X29700000Y-81650000D01*
X29700000Y-81650000D02*
X28625000Y-80575000D01*
X32600000Y-88972817D02*
X29700000Y-86072817D01*
X28625000Y-80575000D02*
X28625000Y-78825000D01*
X31925000Y-86376973D02*
X31925000Y-79700000D01*
X33600000Y-88051973D02*
X31925000Y-86376973D01*
X33600000Y-90450000D02*
X33600000Y-88051973D01*
X31925000Y-79700000D02*
X31175000Y-78950000D01*
X33075998Y-86891575D02*
X33075998Y-86892281D01*
X32425000Y-86240577D02*
X33075998Y-86891575D01*
X31175000Y-77400000D02*
X32425000Y-78650000D01*
X33075998Y-86892281D02*
X34100000Y-87916283D01*
X34100000Y-87916283D02*
X34100000Y-90450000D01*
X32425000Y-78650000D02*
X32425000Y-86240577D01*
X34300000Y-72550000D02*
X35000000Y-72550000D01*
X30625000Y-85712663D02*
X30625000Y-85100000D01*
X30625000Y-85100000D02*
X31425000Y-84300000D01*
X30350000Y-76500000D02*
X34300000Y-72550000D01*
X33100000Y-90450000D02*
X33100000Y-88187663D01*
X30350000Y-79377817D02*
X30350000Y-76500000D01*
X31425000Y-84300000D02*
X31425000Y-80452817D01*
X31425000Y-80452817D02*
X30350000Y-79377817D01*
X33100000Y-88187663D02*
X30625000Y-85712663D01*
X33375000Y-84000000D02*
X33375000Y-86554887D01*
X33375000Y-86554887D02*
X33525499Y-86705386D01*
X34600000Y-87780593D02*
X34600000Y-90450000D01*
X33525499Y-86705386D02*
X33525499Y-86706092D01*
X33525499Y-86706092D02*
X34600000Y-87780593D01*
X34325000Y-86869903D02*
X35100000Y-87644903D01*
X34325000Y-83400000D02*
X34325000Y-86869903D01*
X35100000Y-87644903D02*
X35100000Y-90450000D01*
X33375000Y-82450000D02*
X34325000Y-83400000D01*
X34800000Y-80050000D02*
X33750000Y-79000000D01*
X35600000Y-90450000D02*
X35600000Y-87509213D01*
X34800000Y-86709213D02*
X34800000Y-80050000D01*
X35600000Y-87509213D02*
X34800000Y-86709213D01*
X36100000Y-87372817D02*
X36100000Y-90450000D01*
X35275000Y-78975000D02*
X35275000Y-86547817D01*
X33750000Y-77450000D02*
X35275000Y-78975000D01*
X35275000Y-86547817D02*
X36100000Y-87372817D01*
X36200000Y-86836421D02*
X36600000Y-87236421D01*
X36600000Y-87236421D02*
X36600000Y-90450000D01*
X36200000Y-84100000D02*
X36200000Y-86836421D01*
X36200000Y-82550000D02*
X37100000Y-83450000D01*
X37100000Y-83450000D02*
X37100000Y-90450000D01*
X37600000Y-90450000D02*
X37600000Y-80000000D01*
X37600000Y-80000000D02*
X36425000Y-78825000D01*
X38100000Y-78950000D02*
X36425000Y-77275000D01*
X38100000Y-90450000D02*
X38100000Y-78950000D01*
X38600000Y-78162500D02*
X39450000Y-77312500D01*
X38600000Y-90450000D02*
X38600000Y-78162500D01*
X39100000Y-79237500D02*
X39450000Y-78887500D01*
X39100000Y-90450000D02*
X39100000Y-79237500D01*
X39600000Y-86300000D02*
X39600000Y-90450000D01*
X39800000Y-86100000D02*
X39600000Y-86300000D01*
X40100000Y-90450000D02*
X40100000Y-88800000D01*
X41054990Y-87845010D02*
X41054990Y-79120010D01*
X41054990Y-79120010D02*
X41325000Y-78850000D01*
X40100000Y-88800000D02*
X41054990Y-87845010D01*
X40600000Y-90450000D02*
X40600000Y-89000000D01*
X41700000Y-87900000D02*
X41700000Y-86100000D01*
X40600000Y-89000000D02*
X41700000Y-87900000D01*
X30100000Y-90450000D02*
X30100000Y-91826986D01*
X32600015Y-94327001D02*
X32600015Y-94400000D01*
X30100000Y-91826986D02*
X32600015Y-94327001D01*
X29100000Y-90450000D02*
X29100000Y-92826992D01*
X30600009Y-94327001D02*
X30600009Y-94400000D01*
X29100000Y-92826992D02*
X30600009Y-94327001D01*
X29600006Y-94327001D02*
X29600006Y-94400000D01*
X28600000Y-90450000D02*
X28600000Y-93326995D01*
X28600000Y-93326995D02*
X29600006Y-94327001D01*
X28100000Y-90450000D02*
X28100000Y-93826998D01*
X28100000Y-93826998D02*
X28600003Y-94327001D01*
X28600003Y-94327001D02*
X28600003Y-94400000D01*
X27600000Y-90450000D02*
X27600000Y-94400000D01*
X25275000Y-86525000D02*
X26800000Y-86525000D01*
X30150000Y-88525000D02*
X31100000Y-89475000D01*
X26800000Y-86525000D02*
X26825000Y-86550000D01*
X28450000Y-88525000D02*
X30150000Y-88525000D01*
X26825000Y-86550000D02*
X26825000Y-86900000D01*
X26825000Y-86900000D02*
X28450000Y-88525000D01*
X31100000Y-89475000D02*
X31100000Y-90450000D01*
G04 #@! TA.AperFunction,Conductor*
G36*
X42853669Y-85587951D02*
G01*
X42893599Y-85645287D01*
X42900000Y-85684613D01*
X42900000Y-92567192D01*
X42880315Y-92634231D01*
X42827511Y-92679986D01*
X42758353Y-92689930D01*
X42719383Y-92674997D01*
X42719178Y-92675493D01*
X42707897Y-92670820D01*
X42697740Y-92664034D01*
X42663687Y-92657260D01*
X42630653Y-92650689D01*
X42630650Y-92650689D01*
X42624674Y-92649500D01*
X41575326Y-92649500D01*
X41569350Y-92650689D01*
X41569347Y-92650689D01*
X41536313Y-92657260D01*
X41502260Y-92664034D01*
X41419399Y-92719399D01*
X41364034Y-92802260D01*
X41349500Y-92875326D01*
X41349500Y-94424674D01*
X41364034Y-94497740D01*
X41419399Y-94580601D01*
X41502260Y-94635966D01*
X41536313Y-94642740D01*
X41569347Y-94649311D01*
X41569350Y-94649311D01*
X41575326Y-94650500D01*
X42624674Y-94650500D01*
X42630650Y-94649311D01*
X42630653Y-94649311D01*
X42663687Y-94642740D01*
X42697740Y-94635966D01*
X42707897Y-94629180D01*
X42719178Y-94624507D01*
X42719699Y-94625764D01*
X42773785Y-94608828D01*
X42841166Y-94627312D01*
X42887856Y-94679290D01*
X42900000Y-94732808D01*
X42900000Y-101039256D01*
X42880315Y-101106295D01*
X42827511Y-101152050D01*
X42758353Y-101161994D01*
X42694797Y-101132969D01*
X42688013Y-101126630D01*
X42628128Y-101066325D01*
X42628122Y-101066320D01*
X42623242Y-101061406D01*
X42617395Y-101057695D01*
X42617392Y-101057693D01*
X42486933Y-100974902D01*
X42481079Y-100971187D01*
X42468282Y-100966630D01*
X42328991Y-100917031D01*
X42328992Y-100917031D01*
X42322462Y-100914706D01*
X42155273Y-100894769D01*
X42148384Y-100895493D01*
X42148381Y-100895493D01*
X41994718Y-100911644D01*
X41994717Y-100911644D01*
X41987821Y-100912369D01*
X41981254Y-100914604D01*
X41981252Y-100914605D01*
X41834998Y-100964394D01*
X41834995Y-100964395D01*
X41828431Y-100966630D01*
X41685022Y-101054856D01*
X41680070Y-101059706D01*
X41680068Y-101059707D01*
X41569680Y-101167807D01*
X41569677Y-101167811D01*
X41564724Y-101172661D01*
X41473515Y-101314190D01*
X41415927Y-101472409D01*
X41415058Y-101479290D01*
X41399405Y-101603203D01*
X41394825Y-101639455D01*
X41411255Y-101807025D01*
X41464402Y-101966791D01*
X41467995Y-101972724D01*
X41467996Y-101972726D01*
X41548033Y-102104883D01*
X41551624Y-102110812D01*
X41556438Y-102115797D01*
X41627962Y-102189862D01*
X41660372Y-102251760D01*
X41654172Y-102321354D01*
X41611331Y-102376549D01*
X41538764Y-102400000D01*
X41314829Y-102400000D01*
X41247790Y-102380315D01*
X41202035Y-102327511D01*
X41192646Y-102297147D01*
X41189680Y-102280007D01*
X40804332Y-100053557D01*
X40804289Y-100053059D01*
X40804898Y-100050000D01*
X40796111Y-100005824D01*
X40795545Y-100002780D01*
X40793179Y-99989107D01*
X40793175Y-99989092D01*
X40792138Y-99983101D01*
X40791066Y-99980317D01*
X40790890Y-99979577D01*
X40787878Y-99964432D01*
X40787877Y-99964429D01*
X40785495Y-99952455D01*
X40778710Y-99942301D01*
X40776714Y-99937482D01*
X40772589Y-99929528D01*
X40769801Y-99925121D01*
X40765410Y-99913722D01*
X40753273Y-99900963D01*
X40740021Y-99884397D01*
X40730240Y-99869760D01*
X40720086Y-99862975D01*
X40716398Y-99859287D01*
X40709538Y-99853512D01*
X40705277Y-99850508D01*
X40696861Y-99841662D01*
X40680772Y-99834522D01*
X40662180Y-99824284D01*
X40657698Y-99821289D01*
X40647545Y-99814505D01*
X40635567Y-99812122D01*
X40630747Y-99810126D01*
X40622196Y-99807415D01*
X40617114Y-99806272D01*
X40605954Y-99801319D01*
X40593745Y-99801014D01*
X40593744Y-99801014D01*
X40579726Y-99800664D01*
X40578308Y-99800629D01*
X40577549Y-99800582D01*
X40574624Y-99800000D01*
X40554672Y-99800000D01*
X40551576Y-99799961D01*
X40514390Y-99799032D01*
X40514387Y-99799032D01*
X40506529Y-99798836D01*
X40503618Y-99799958D01*
X40503126Y-99800000D01*
X30082023Y-99800000D01*
X30060944Y-99798195D01*
X30059077Y-99797873D01*
X30043495Y-99795185D01*
X30031580Y-99797873D01*
X30031579Y-99797873D01*
X30026442Y-99799032D01*
X29999614Y-99805084D01*
X29996622Y-99805720D01*
X29952455Y-99814505D01*
X29949705Y-99816343D01*
X29946476Y-99817071D01*
X29937925Y-99823106D01*
X29909713Y-99843017D01*
X29907102Y-99844809D01*
X29869760Y-99869760D01*
X29867921Y-99872512D01*
X29865219Y-99874419D01*
X29859640Y-99883248D01*
X29841192Y-99912443D01*
X29839468Y-99915095D01*
X29814505Y-99952455D01*
X29812123Y-99964431D01*
X29811051Y-99969820D01*
X29805169Y-99990142D01*
X28991807Y-102104883D01*
X28908872Y-102320513D01*
X28866434Y-102376018D01*
X28800724Y-102399768D01*
X28793137Y-102400000D01*
X25160787Y-102400000D01*
X25093748Y-102380315D01*
X25047993Y-102327511D01*
X25038049Y-102258353D01*
X25067074Y-102194797D01*
X25075274Y-102186203D01*
X25123534Y-102140245D01*
X25128554Y-102135465D01*
X25196614Y-102033027D01*
X25217894Y-102000999D01*
X25217896Y-102000995D01*
X25221731Y-101995223D01*
X25224191Y-101988747D01*
X25224193Y-101988743D01*
X25279060Y-101844301D01*
X25281521Y-101837823D01*
X25283271Y-101825376D01*
X25304413Y-101674942D01*
X25304955Y-101671088D01*
X25305249Y-101650000D01*
X25286481Y-101482676D01*
X25231108Y-101323668D01*
X25141884Y-101180879D01*
X25023242Y-101061406D01*
X25017395Y-101057695D01*
X25017392Y-101057693D01*
X24886933Y-100974902D01*
X24881079Y-100971187D01*
X24868282Y-100966630D01*
X24728991Y-100917031D01*
X24728992Y-100917031D01*
X24722462Y-100914706D01*
X24555273Y-100894769D01*
X24548384Y-100895493D01*
X24548381Y-100895493D01*
X24394718Y-100911644D01*
X24394717Y-100911644D01*
X24387821Y-100912369D01*
X24381254Y-100914604D01*
X24381252Y-100914605D01*
X24234998Y-100964394D01*
X24234995Y-100964395D01*
X24228431Y-100966630D01*
X24085022Y-101054856D01*
X24080070Y-101059706D01*
X24080068Y-101059707D01*
X24010758Y-101127581D01*
X23949088Y-101160423D01*
X23879452Y-101154709D01*
X23823960Y-101112254D01*
X23800230Y-101046538D01*
X23800000Y-101038987D01*
X23800000Y-94732808D01*
X23819685Y-94665769D01*
X23872489Y-94620014D01*
X23941647Y-94610070D01*
X23980617Y-94625003D01*
X23980822Y-94624507D01*
X23992103Y-94629180D01*
X24002260Y-94635966D01*
X24036313Y-94642740D01*
X24069347Y-94649311D01*
X24069350Y-94649311D01*
X24075326Y-94650500D01*
X25124674Y-94650500D01*
X25130650Y-94649311D01*
X25130653Y-94649311D01*
X25163687Y-94642740D01*
X25197740Y-94635966D01*
X25280601Y-94580601D01*
X25335966Y-94497740D01*
X25350500Y-94424674D01*
X25350500Y-92875326D01*
X25335966Y-92802260D01*
X25280601Y-92719399D01*
X25197740Y-92664034D01*
X25163687Y-92657260D01*
X25130653Y-92650689D01*
X25130650Y-92650689D01*
X25124674Y-92649500D01*
X24075326Y-92649500D01*
X24069350Y-92650689D01*
X24069347Y-92650689D01*
X24036313Y-92657260D01*
X24002260Y-92664034D01*
X23992103Y-92670820D01*
X23980822Y-92675493D01*
X23980301Y-92674236D01*
X23926215Y-92691172D01*
X23858834Y-92672688D01*
X23812144Y-92620710D01*
X23800000Y-92567192D01*
X23800000Y-87491836D01*
X23819685Y-87424797D01*
X23872489Y-87379042D01*
X23941647Y-87369098D01*
X24005203Y-87398123D01*
X24030163Y-87430804D01*
X24030927Y-87430311D01*
X24035159Y-87436865D01*
X24038537Y-87443900D01*
X24042094Y-87448131D01*
X24043980Y-87450017D01*
X24045751Y-87451947D01*
X24045779Y-87452000D01*
X24045652Y-87452117D01*
X24046143Y-87452674D01*
X24049194Y-87458329D01*
X24056723Y-87465289D01*
X24056724Y-87465290D01*
X24088381Y-87494553D01*
X24091891Y-87497928D01*
X25121805Y-88527843D01*
X25136909Y-88546545D01*
X25137868Y-88547599D01*
X25143428Y-88556210D01*
X25151478Y-88562556D01*
X25169551Y-88576804D01*
X25173962Y-88580724D01*
X25174021Y-88580654D01*
X25177921Y-88583959D01*
X25181538Y-88587576D01*
X25185691Y-88590544D01*
X25185702Y-88590553D01*
X25197100Y-88598697D01*
X25201771Y-88602204D01*
X25241600Y-88633603D01*
X25250148Y-88636605D01*
X25257519Y-88641872D01*
X25267336Y-88644808D01*
X25267338Y-88644809D01*
X25306127Y-88656409D01*
X25311685Y-88658215D01*
X25352186Y-88672438D01*
X25352188Y-88672439D01*
X25359548Y-88675023D01*
X25365055Y-88675500D01*
X25367738Y-88675500D01*
X25370337Y-88675613D01*
X25370415Y-88675636D01*
X25370408Y-88675804D01*
X25371129Y-88675849D01*
X25377287Y-88677691D01*
X25387525Y-88677289D01*
X25387527Y-88677289D01*
X25430606Y-88675596D01*
X25435474Y-88675500D01*
X26118101Y-88675500D01*
X26185140Y-88695185D01*
X26205782Y-88711819D01*
X26574283Y-89080320D01*
X26607768Y-89141643D01*
X26602784Y-89211335D01*
X26560912Y-89267268D01*
X26495448Y-89291685D01*
X26486602Y-89292001D01*
X26405274Y-89292001D01*
X26398569Y-89292364D01*
X26347523Y-89297908D01*
X26332512Y-89301478D01*
X26211810Y-89346727D01*
X26196468Y-89355126D01*
X26094164Y-89431799D01*
X26081798Y-89444164D01*
X26040053Y-89499865D01*
X25984097Y-89541706D01*
X25940827Y-89549500D01*
X25925326Y-89549500D01*
X25919350Y-89550689D01*
X25919347Y-89550689D01*
X25886313Y-89557260D01*
X25852260Y-89564034D01*
X25769399Y-89619399D01*
X25714034Y-89702260D01*
X25699500Y-89775326D01*
X25699500Y-91124674D01*
X25700689Y-91130650D01*
X25700689Y-91130653D01*
X25702227Y-91138384D01*
X25714034Y-91197740D01*
X25769399Y-91280601D01*
X25852260Y-91335966D01*
X25874194Y-91340329D01*
X25919347Y-91349311D01*
X25919350Y-91349311D01*
X25925326Y-91350500D01*
X25940827Y-91350500D01*
X26007866Y-91370185D01*
X26040053Y-91400135D01*
X26081798Y-91455836D01*
X26094164Y-91468201D01*
X26196468Y-91544874D01*
X26211810Y-91553273D01*
X26332515Y-91598524D01*
X26347518Y-91602091D01*
X26398573Y-91607637D01*
X26405271Y-91608000D01*
X26432170Y-91608000D01*
X26447169Y-91603596D01*
X26448356Y-91602226D01*
X26450000Y-91594668D01*
X26450000Y-91289183D01*
X26470897Y-91220294D01*
X26479180Y-91207898D01*
X26479182Y-91207893D01*
X26485966Y-91197740D01*
X26487447Y-91190295D01*
X26529278Y-91138384D01*
X26595572Y-91116318D01*
X26663272Y-91133596D01*
X26710883Y-91184733D01*
X26711882Y-91186919D01*
X26714034Y-91197740D01*
X26720818Y-91207893D01*
X26720820Y-91207898D01*
X26729103Y-91220294D01*
X26750000Y-91289183D01*
X26750000Y-91590169D01*
X26754404Y-91605168D01*
X26755774Y-91606355D01*
X26763332Y-91607999D01*
X26794726Y-91607999D01*
X26801431Y-91607636D01*
X26852477Y-91602092D01*
X26867488Y-91598522D01*
X26988190Y-91553273D01*
X27003532Y-91544873D01*
X27026134Y-91527934D01*
X27091584Y-91503480D01*
X27159866Y-91518293D01*
X27209299Y-91567671D01*
X27224500Y-91627159D01*
X27224500Y-93807915D01*
X27204815Y-93874954D01*
X27182015Y-93901357D01*
X27113034Y-93961533D01*
X27022501Y-94090348D01*
X26965309Y-94237039D01*
X26944758Y-94393138D01*
X26945578Y-94400566D01*
X26945578Y-94400568D01*
X26954983Y-94485759D01*
X26962035Y-94549633D01*
X26964601Y-94556645D01*
X26964602Y-94556649D01*
X26989895Y-94625764D01*
X27016143Y-94697490D01*
X27103958Y-94828172D01*
X27126183Y-94848395D01*
X27214878Y-94929102D01*
X27214882Y-94929105D01*
X27220410Y-94934135D01*
X27358776Y-95009262D01*
X27461031Y-95036088D01*
X27503841Y-95047319D01*
X27503843Y-95047319D01*
X27511069Y-95049215D01*
X27588127Y-95050425D01*
X27661025Y-95051571D01*
X27661028Y-95051571D01*
X27668495Y-95051688D01*
X27675776Y-95050020D01*
X27675780Y-95050020D01*
X27814681Y-95018207D01*
X27821968Y-95016538D01*
X27962625Y-94945795D01*
X27983160Y-94928257D01*
X28019083Y-94897576D01*
X28082845Y-94869006D01*
X28151930Y-94879444D01*
X28183064Y-94900150D01*
X28220413Y-94934135D01*
X28358779Y-95009262D01*
X28461034Y-95036088D01*
X28503844Y-95047319D01*
X28503846Y-95047319D01*
X28511072Y-95049215D01*
X28588130Y-95050425D01*
X28661028Y-95051571D01*
X28661031Y-95051571D01*
X28668498Y-95051688D01*
X28675779Y-95050020D01*
X28675783Y-95050020D01*
X28814684Y-95018207D01*
X28821971Y-95016538D01*
X28962628Y-94945795D01*
X28983163Y-94928257D01*
X29019086Y-94897576D01*
X29082848Y-94869006D01*
X29151933Y-94879444D01*
X29183067Y-94900150D01*
X29220416Y-94934135D01*
X29358782Y-95009262D01*
X29461037Y-95036088D01*
X29503847Y-95047319D01*
X29503849Y-95047319D01*
X29511075Y-95049215D01*
X29588133Y-95050425D01*
X29661031Y-95051571D01*
X29661034Y-95051571D01*
X29668501Y-95051688D01*
X29675782Y-95050020D01*
X29675786Y-95050020D01*
X29814687Y-95018207D01*
X29821974Y-95016538D01*
X29962631Y-94945795D01*
X29983166Y-94928257D01*
X30019089Y-94897576D01*
X30082851Y-94869006D01*
X30151936Y-94879444D01*
X30183070Y-94900150D01*
X30220419Y-94934135D01*
X30358785Y-95009262D01*
X30461040Y-95036088D01*
X30503850Y-95047319D01*
X30503852Y-95047319D01*
X30511078Y-95049215D01*
X30588136Y-95050425D01*
X30661034Y-95051571D01*
X30661037Y-95051571D01*
X30668504Y-95051688D01*
X30675785Y-95050020D01*
X30675789Y-95050020D01*
X30814690Y-95018207D01*
X30821977Y-95016538D01*
X30962634Y-94945795D01*
X30968315Y-94940943D01*
X30968318Y-94940941D01*
X31076675Y-94848395D01*
X31076676Y-94848394D01*
X31082357Y-94843542D01*
X31093402Y-94828172D01*
X31161927Y-94732808D01*
X31174233Y-94715683D01*
X31232959Y-94569598D01*
X31234802Y-94556649D01*
X31254571Y-94417744D01*
X31254571Y-94417740D01*
X31255143Y-94413723D01*
X31255287Y-94400000D01*
X31236372Y-94243694D01*
X31180719Y-94096412D01*
X31172346Y-94084229D01*
X31095777Y-93972821D01*
X31095774Y-93972818D01*
X31091540Y-93966657D01*
X30973985Y-93861919D01*
X30834840Y-93788245D01*
X30682137Y-93749889D01*
X30604242Y-93749482D01*
X30537307Y-93729448D01*
X30517210Y-93713165D01*
X29511819Y-92707774D01*
X29478334Y-92646451D01*
X29475500Y-92620093D01*
X29475500Y-91848213D01*
X29485657Y-91813621D01*
X29475835Y-91787459D01*
X29475500Y-91778347D01*
X29475500Y-91474500D01*
X29495185Y-91407461D01*
X29547989Y-91361706D01*
X29599500Y-91350500D01*
X29600500Y-91350500D01*
X29667539Y-91370185D01*
X29713294Y-91422989D01*
X29724500Y-91474500D01*
X29724500Y-91773702D01*
X29721723Y-91799799D01*
X29720723Y-91804444D01*
X29717093Y-91811125D01*
X29718477Y-91813278D01*
X29722640Y-91833638D01*
X29723640Y-91842087D01*
X29723987Y-91847971D01*
X29724078Y-91847963D01*
X29724500Y-91853068D01*
X29724500Y-91858179D01*
X29725339Y-91863219D01*
X29727639Y-91877039D01*
X29728461Y-91882818D01*
X29734424Y-91933196D01*
X29738346Y-91941363D01*
X29739833Y-91950299D01*
X29763922Y-91994943D01*
X29766574Y-92000146D01*
X29788537Y-92045886D01*
X29792094Y-92050117D01*
X29793980Y-92052003D01*
X29795751Y-92053933D01*
X29795779Y-92053986D01*
X29795652Y-92054103D01*
X29796143Y-92054660D01*
X29799194Y-92060315D01*
X29806723Y-92067275D01*
X29806724Y-92067276D01*
X29838381Y-92096539D01*
X29841891Y-92099914D01*
X31923677Y-94181700D01*
X31957162Y-94243023D01*
X31958935Y-94285566D01*
X31944773Y-94393138D01*
X31945593Y-94400566D01*
X31945593Y-94400568D01*
X31954998Y-94485759D01*
X31962050Y-94549633D01*
X31964616Y-94556645D01*
X31964617Y-94556649D01*
X31989910Y-94625764D01*
X32016158Y-94697490D01*
X32103973Y-94828172D01*
X32126198Y-94848395D01*
X32214893Y-94929102D01*
X32214897Y-94929105D01*
X32220425Y-94934135D01*
X32358791Y-95009262D01*
X32461046Y-95036088D01*
X32503856Y-95047319D01*
X32503858Y-95047319D01*
X32511084Y-95049215D01*
X32588142Y-95050425D01*
X32661040Y-95051571D01*
X32661043Y-95051571D01*
X32668510Y-95051688D01*
X32675791Y-95050020D01*
X32675795Y-95050020D01*
X32814696Y-95018207D01*
X32821983Y-95016538D01*
X32962640Y-94945795D01*
X32968321Y-94940943D01*
X32968324Y-94940941D01*
X33076681Y-94848395D01*
X33076682Y-94848394D01*
X33082363Y-94843542D01*
X33093408Y-94828172D01*
X33161933Y-94732808D01*
X33174239Y-94715683D01*
X33232965Y-94569598D01*
X33234808Y-94556649D01*
X33254577Y-94417744D01*
X33254577Y-94417740D01*
X33255149Y-94413723D01*
X33255293Y-94400000D01*
X33236378Y-94243694D01*
X33180725Y-94096412D01*
X33172352Y-94084229D01*
X33095783Y-93972821D01*
X33095780Y-93972818D01*
X33091546Y-93966657D01*
X32973991Y-93861919D01*
X32834846Y-93788245D01*
X32682143Y-93749889D01*
X32604248Y-93749482D01*
X32537313Y-93729448D01*
X32517216Y-93713165D01*
X30623731Y-91819680D01*
X30590246Y-91758357D01*
X30595230Y-91688665D01*
X30637102Y-91632732D01*
X30702566Y-91608315D01*
X30711412Y-91607999D01*
X30794726Y-91607999D01*
X30801431Y-91607636D01*
X30852477Y-91602092D01*
X30867488Y-91598522D01*
X30988190Y-91553273D01*
X31003532Y-91544874D01*
X31105836Y-91468201D01*
X31118202Y-91455836D01*
X31159947Y-91400135D01*
X31215903Y-91358294D01*
X31259173Y-91350500D01*
X31274674Y-91350500D01*
X31286448Y-91348158D01*
X31325809Y-91340329D01*
X31374191Y-91340329D01*
X31413552Y-91348158D01*
X31425326Y-91350500D01*
X31774674Y-91350500D01*
X31786448Y-91348158D01*
X31825809Y-91340329D01*
X31874191Y-91340329D01*
X31913552Y-91348158D01*
X31925326Y-91350500D01*
X32274674Y-91350500D01*
X32286448Y-91348158D01*
X32325809Y-91340329D01*
X32374191Y-91340329D01*
X32413552Y-91348158D01*
X32425326Y-91350500D01*
X32774674Y-91350500D01*
X32786448Y-91348158D01*
X32825809Y-91340329D01*
X32874191Y-91340329D01*
X32913552Y-91348158D01*
X32925326Y-91350500D01*
X33274674Y-91350500D01*
X33286448Y-91348158D01*
X33325809Y-91340329D01*
X33374191Y-91340329D01*
X33413552Y-91348158D01*
X33425326Y-91350500D01*
X33774674Y-91350500D01*
X33786448Y-91348158D01*
X33825809Y-91340329D01*
X33874191Y-91340329D01*
X33913552Y-91348158D01*
X33925326Y-91350500D01*
X34274674Y-91350500D01*
X34286448Y-91348158D01*
X34325809Y-91340329D01*
X34374191Y-91340329D01*
X34413552Y-91348158D01*
X34425326Y-91350500D01*
X34774674Y-91350500D01*
X34786448Y-91348158D01*
X34825809Y-91340329D01*
X34874191Y-91340329D01*
X34913552Y-91348158D01*
X34925326Y-91350500D01*
X35274674Y-91350500D01*
X35286448Y-91348158D01*
X35325809Y-91340329D01*
X35374191Y-91340329D01*
X35413552Y-91348158D01*
X35425326Y-91350500D01*
X35774674Y-91350500D01*
X35786448Y-91348158D01*
X35825809Y-91340329D01*
X35874191Y-91340329D01*
X35913552Y-91348158D01*
X35925326Y-91350500D01*
X36274674Y-91350500D01*
X36286448Y-91348158D01*
X36325809Y-91340329D01*
X36374191Y-91340329D01*
X36413552Y-91348158D01*
X36425326Y-91350500D01*
X36774674Y-91350500D01*
X36786448Y-91348158D01*
X36825809Y-91340329D01*
X36874191Y-91340329D01*
X36913552Y-91348158D01*
X36925326Y-91350500D01*
X37274674Y-91350500D01*
X37286448Y-91348158D01*
X37325809Y-91340329D01*
X37374191Y-91340329D01*
X37413552Y-91348158D01*
X37425326Y-91350500D01*
X37774674Y-91350500D01*
X37786448Y-91348158D01*
X37825809Y-91340329D01*
X37874191Y-91340329D01*
X37913552Y-91348158D01*
X37925326Y-91350500D01*
X38274674Y-91350500D01*
X38286448Y-91348158D01*
X38325809Y-91340329D01*
X38374191Y-91340329D01*
X38413552Y-91348158D01*
X38425326Y-91350500D01*
X38774674Y-91350500D01*
X38786448Y-91348158D01*
X38825809Y-91340329D01*
X38874191Y-91340329D01*
X38913552Y-91348158D01*
X38925326Y-91350500D01*
X39274674Y-91350500D01*
X39286448Y-91348158D01*
X39325809Y-91340329D01*
X39374191Y-91340329D01*
X39413552Y-91348158D01*
X39425326Y-91350500D01*
X39774674Y-91350500D01*
X39786448Y-91348158D01*
X39825809Y-91340329D01*
X39874191Y-91340329D01*
X39913552Y-91348158D01*
X39925326Y-91350500D01*
X40274674Y-91350500D01*
X40286448Y-91348158D01*
X40325809Y-91340329D01*
X40374191Y-91340329D01*
X40413552Y-91348158D01*
X40425326Y-91350500D01*
X40774674Y-91350500D01*
X40780650Y-91349311D01*
X40780653Y-91349311D01*
X40825806Y-91340329D01*
X40847740Y-91335966D01*
X40930601Y-91280601D01*
X40985966Y-91197740D01*
X40997773Y-91138384D01*
X40999311Y-91130653D01*
X40999311Y-91130650D01*
X41000500Y-91124674D01*
X41000500Y-89775326D01*
X40985966Y-89702260D01*
X40983442Y-89698483D01*
X40975500Y-89658554D01*
X40975500Y-89206899D01*
X40995185Y-89139860D01*
X41011819Y-89119218D01*
X41927839Y-88203198D01*
X41946568Y-88188071D01*
X41947602Y-88187130D01*
X41956210Y-88181572D01*
X41976807Y-88155445D01*
X41980720Y-88151042D01*
X41980650Y-88150983D01*
X41983957Y-88147080D01*
X41987575Y-88143462D01*
X41998681Y-88127920D01*
X42002170Y-88123272D01*
X42033603Y-88083400D01*
X42036605Y-88074851D01*
X42041872Y-88067481D01*
X42056410Y-88018869D01*
X42058215Y-88013315D01*
X42072438Y-87972814D01*
X42072439Y-87972812D01*
X42075023Y-87965452D01*
X42075500Y-87959945D01*
X42075500Y-87957262D01*
X42075613Y-87954663D01*
X42075636Y-87954585D01*
X42075804Y-87954592D01*
X42075849Y-87953871D01*
X42077691Y-87947713D01*
X42076900Y-87927563D01*
X42075596Y-87894394D01*
X42075500Y-87889526D01*
X42075500Y-86707281D01*
X42095185Y-86640242D01*
X42147989Y-86594487D01*
X42180103Y-86584807D01*
X42267175Y-86571017D01*
X42377391Y-86514859D01*
X42464859Y-86427391D01*
X42521017Y-86317175D01*
X42535500Y-86225735D01*
X42535499Y-85884266D01*
X42534739Y-85879465D01*
X42534738Y-85879457D01*
X42528517Y-85840177D01*
X42537474Y-85770883D01*
X42563310Y-85733100D01*
X42655571Y-85640839D01*
X42665060Y-85628606D01*
X42669268Y-85621491D01*
X42720338Y-85573808D01*
X42789080Y-85561305D01*
X42853669Y-85587951D01*
G37*
G04 #@! TD.AperFunction*
G04 #@! TA.AperFunction,Conductor*
G36*
X27430025Y-80736062D02*
G01*
X28838680Y-82144717D01*
X28872165Y-82206040D01*
X28874999Y-82232398D01*
X28874999Y-84410928D01*
X28855314Y-84477967D01*
X28802510Y-84523722D01*
X28733352Y-84533666D01*
X28716404Y-84530004D01*
X28653259Y-84511659D01*
X28645210Y-84510189D01*
X28631922Y-84512980D01*
X28629000Y-84524260D01*
X28629000Y-85425000D01*
X28609315Y-85492039D01*
X28556511Y-85537794D01*
X28505000Y-85549000D01*
X26034430Y-85549000D01*
X25967391Y-85529315D01*
X25963003Y-85526031D01*
X25953668Y-85524000D01*
X25145000Y-85524000D01*
X25077961Y-85504315D01*
X25032206Y-85451511D01*
X25021000Y-85400000D01*
X25021000Y-84998170D01*
X25529000Y-84998170D01*
X25533404Y-85013169D01*
X25534774Y-85014356D01*
X25542332Y-85016000D01*
X26065570Y-85016000D01*
X26132609Y-85035685D01*
X26136997Y-85038969D01*
X26146332Y-85041000D01*
X26553170Y-85041000D01*
X26568169Y-85036596D01*
X26569356Y-85035226D01*
X26571000Y-85027668D01*
X26571000Y-85023170D01*
X27079000Y-85023170D01*
X27083404Y-85038169D01*
X27084774Y-85039356D01*
X27092332Y-85041000D01*
X28103170Y-85041000D01*
X28118169Y-85036596D01*
X28119356Y-85035226D01*
X28121000Y-85027668D01*
X28121000Y-84526291D01*
X28116724Y-84511728D01*
X28106375Y-84509899D01*
X28096741Y-84511659D01*
X27953096Y-84553392D01*
X27938888Y-84559540D01*
X27811397Y-84634938D01*
X27799161Y-84644429D01*
X27688910Y-84754680D01*
X27686853Y-84752623D01*
X27641321Y-84785496D01*
X27571554Y-84789276D01*
X27510818Y-84754738D01*
X27508676Y-84752266D01*
X27400839Y-84644429D01*
X27388603Y-84634938D01*
X27261112Y-84559540D01*
X27246904Y-84553392D01*
X27103259Y-84511659D01*
X27095210Y-84510189D01*
X27081922Y-84512980D01*
X27079000Y-84524260D01*
X27079000Y-85023170D01*
X26571000Y-85023170D01*
X26571000Y-84526291D01*
X26566724Y-84511728D01*
X26556375Y-84509899D01*
X26546741Y-84511659D01*
X26403096Y-84553392D01*
X26388888Y-84559540D01*
X26261397Y-84634938D01*
X26249161Y-84644429D01*
X26148447Y-84745143D01*
X26087124Y-84778628D01*
X26017432Y-84773644D01*
X25962789Y-84733465D01*
X25955574Y-84724164D01*
X25850839Y-84619429D01*
X25838603Y-84609938D01*
X25711112Y-84534540D01*
X25696904Y-84528392D01*
X25553259Y-84486659D01*
X25545210Y-84485189D01*
X25531922Y-84487980D01*
X25529000Y-84499260D01*
X25529000Y-84998170D01*
X25021000Y-84998170D01*
X25021000Y-84501291D01*
X25016724Y-84486728D01*
X25006375Y-84484899D01*
X24996744Y-84486658D01*
X24884096Y-84519386D01*
X24814226Y-84519187D01*
X24755556Y-84481245D01*
X24726712Y-84417607D01*
X24725500Y-84400310D01*
X24725500Y-83010330D01*
X24745185Y-82943291D01*
X24797989Y-82897536D01*
X24871779Y-82888348D01*
X24879791Y-82889811D01*
X24893078Y-82887020D01*
X24896000Y-82875740D01*
X24896000Y-82873709D01*
X25404000Y-82873709D01*
X25408276Y-82888272D01*
X25418625Y-82890101D01*
X25428259Y-82888341D01*
X25571904Y-82846608D01*
X25586112Y-82840460D01*
X25713603Y-82765062D01*
X25725839Y-82755571D01*
X25826553Y-82654857D01*
X25887876Y-82621372D01*
X25957568Y-82626356D01*
X26012211Y-82666535D01*
X26019426Y-82675836D01*
X26124161Y-82780571D01*
X26136397Y-82790062D01*
X26263888Y-82865460D01*
X26278096Y-82871608D01*
X26421741Y-82913341D01*
X26429790Y-82914811D01*
X26443078Y-82912020D01*
X26446000Y-82900740D01*
X26446000Y-82898709D01*
X26954000Y-82898709D01*
X26958276Y-82913272D01*
X26968625Y-82915101D01*
X26978259Y-82913341D01*
X27121904Y-82871608D01*
X27136112Y-82865460D01*
X27263603Y-82790062D01*
X27275839Y-82780571D01*
X27380571Y-82675839D01*
X27390062Y-82663603D01*
X27465460Y-82536112D01*
X27471608Y-82521904D01*
X27506699Y-82401120D01*
X27506660Y-82387242D01*
X27499507Y-82384000D01*
X26971830Y-82384000D01*
X26956831Y-82388404D01*
X26955644Y-82389774D01*
X26954000Y-82397332D01*
X26954000Y-82898709D01*
X26446000Y-82898709D01*
X26446000Y-82401830D01*
X26441596Y-82386831D01*
X26440226Y-82385644D01*
X26432668Y-82384000D01*
X25909430Y-82384000D01*
X25842391Y-82364315D01*
X25838003Y-82361031D01*
X25828668Y-82359000D01*
X25421830Y-82359000D01*
X25406831Y-82363404D01*
X25405644Y-82364774D01*
X25404000Y-82372332D01*
X25404000Y-82873709D01*
X24896000Y-82873709D01*
X24896000Y-81975000D01*
X24915685Y-81907961D01*
X24968489Y-81862206D01*
X25020000Y-81851000D01*
X25940570Y-81851000D01*
X26007609Y-81870685D01*
X26011997Y-81873969D01*
X26021332Y-81876000D01*
X27493843Y-81876000D01*
X27507160Y-81872090D01*
X27508278Y-81864315D01*
X27471608Y-81738096D01*
X27465460Y-81723888D01*
X27390062Y-81596397D01*
X27380571Y-81584161D01*
X27288309Y-81491899D01*
X27254824Y-81430576D01*
X27253517Y-81384822D01*
X27260500Y-81340735D01*
X27260499Y-80999266D01*
X27246017Y-80907825D01*
X27241586Y-80899128D01*
X27231859Y-80880037D01*
X27218963Y-80811368D01*
X27245240Y-80746628D01*
X27302346Y-80706371D01*
X27372152Y-80703379D01*
X27430025Y-80736062D01*
G37*
G04 #@! TD.AperFunction*
G04 #@! TA.AperFunction,Conductor*
G36*
X27626805Y-64569685D02*
G01*
X27672560Y-64622489D01*
X27682504Y-64691647D01*
X27653479Y-64755203D01*
X27594701Y-64792977D01*
X27573155Y-64797275D01*
X27567323Y-64797908D01*
X27552312Y-64801478D01*
X27431610Y-64846727D01*
X27416268Y-64855126D01*
X27313965Y-64931798D01*
X27301598Y-64944165D01*
X27224926Y-65046468D01*
X27216527Y-65061810D01*
X27171276Y-65182515D01*
X27167709Y-65197518D01*
X27162163Y-65248573D01*
X27161800Y-65255271D01*
X27161800Y-65528170D01*
X27166204Y-65543169D01*
X27167574Y-65544356D01*
X27175132Y-65546000D01*
X29359969Y-65546000D01*
X29374968Y-65541596D01*
X29376155Y-65540226D01*
X29377799Y-65532668D01*
X29377799Y-65255274D01*
X29377436Y-65248569D01*
X29371892Y-65197523D01*
X29368322Y-65182512D01*
X29323073Y-65061810D01*
X29314674Y-65046468D01*
X29238002Y-64944165D01*
X29225635Y-64931798D01*
X29123332Y-64855126D01*
X29107990Y-64846727D01*
X28987285Y-64801476D01*
X28972281Y-64797909D01*
X28966448Y-64797275D01*
X28901926Y-64770466D01*
X28862141Y-64713029D01*
X28859725Y-64643201D01*
X28895443Y-64583152D01*
X28957957Y-64551946D01*
X28979839Y-64550000D01*
X42313165Y-64550000D01*
X42337356Y-64552383D01*
X42350000Y-64554898D01*
X42361979Y-64552515D01*
X42365360Y-64552515D01*
X42379243Y-64553295D01*
X42402251Y-64555887D01*
X42458503Y-64562226D01*
X42485566Y-64568402D01*
X42575451Y-64599853D01*
X42600467Y-64611901D01*
X42681092Y-64662562D01*
X42702800Y-64679874D01*
X42770126Y-64747200D01*
X42787438Y-64768908D01*
X42838099Y-64849533D01*
X42850147Y-64874549D01*
X42881598Y-64964434D01*
X42887775Y-64991500D01*
X42896705Y-65070757D01*
X42897485Y-65084640D01*
X42897485Y-65088021D01*
X42895102Y-65100000D01*
X42897485Y-65111980D01*
X42897617Y-65112644D01*
X42900000Y-65136835D01*
X42900000Y-84505387D01*
X42880315Y-84572426D01*
X42827511Y-84618181D01*
X42758353Y-84628125D01*
X42694797Y-84599100D01*
X42669268Y-84568509D01*
X42665060Y-84561394D01*
X42655571Y-84549161D01*
X42550839Y-84444429D01*
X42538603Y-84434938D01*
X42411112Y-84359540D01*
X42396904Y-84353392D01*
X42253259Y-84311659D01*
X42245210Y-84310189D01*
X42231922Y-84312980D01*
X42229000Y-84324260D01*
X42229000Y-85225000D01*
X42209315Y-85292039D01*
X42156511Y-85337794D01*
X42105000Y-85349000D01*
X41845000Y-85349000D01*
X41777961Y-85329315D01*
X41732206Y-85276511D01*
X41721000Y-85225000D01*
X41721000Y-84326291D01*
X41716724Y-84311728D01*
X41706375Y-84309899D01*
X41696741Y-84311659D01*
X41589085Y-84342936D01*
X41519216Y-84342737D01*
X41460546Y-84304795D01*
X41431702Y-84241157D01*
X41430490Y-84223860D01*
X41430490Y-79661999D01*
X41450175Y-79594960D01*
X41502979Y-79549205D01*
X41554490Y-79537999D01*
X41625664Y-79537999D01*
X41629005Y-79537636D01*
X41629007Y-79537636D01*
X41675318Y-79532606D01*
X41675319Y-79532606D01*
X41683051Y-79531766D01*
X41788610Y-79492194D01*
X41800635Y-79487686D01*
X41800636Y-79487686D01*
X41808912Y-79484583D01*
X41916472Y-79403972D01*
X41997083Y-79296412D01*
X42007187Y-79269459D01*
X42041537Y-79177832D01*
X42041538Y-79177828D01*
X42044266Y-79170551D01*
X42050500Y-79113165D01*
X42050499Y-78586836D01*
X42046836Y-78553106D01*
X42045106Y-78537182D01*
X42045105Y-78537176D01*
X42044266Y-78529449D01*
X41997083Y-78403588D01*
X41918386Y-78298582D01*
X41893933Y-78233131D01*
X41908747Y-78164850D01*
X41952362Y-78118773D01*
X42029617Y-78070966D01*
X42040830Y-78062079D01*
X42150384Y-77952334D01*
X42159247Y-77941111D01*
X42240612Y-77809112D01*
X42246661Y-77796141D01*
X42295614Y-77648552D01*
X42298434Y-77635396D01*
X42307636Y-77545589D01*
X42303596Y-77531831D01*
X42302226Y-77530644D01*
X42294668Y-77529000D01*
X41195000Y-77529000D01*
X41127961Y-77509315D01*
X41082206Y-77456511D01*
X41071000Y-77405000D01*
X41071000Y-77003170D01*
X41579000Y-77003170D01*
X41583404Y-77018169D01*
X41584774Y-77019356D01*
X41592332Y-77021000D01*
X42290170Y-77021000D01*
X42305169Y-77016596D01*
X42306356Y-77015226D01*
X42307854Y-77008340D01*
X42307670Y-77004790D01*
X42298184Y-76913370D01*
X42295336Y-76900182D01*
X42246132Y-76752699D01*
X42240062Y-76739741D01*
X42158467Y-76607883D01*
X42149579Y-76596670D01*
X42039834Y-76487116D01*
X42028611Y-76478253D01*
X41896612Y-76396888D01*
X41883641Y-76390839D01*
X41736052Y-76341886D01*
X41722896Y-76339066D01*
X41632678Y-76329822D01*
X41626372Y-76329500D01*
X41596830Y-76329500D01*
X41581831Y-76333904D01*
X41580644Y-76335274D01*
X41579000Y-76342832D01*
X41579000Y-77003170D01*
X41071000Y-77003170D01*
X41071000Y-76347330D01*
X41066596Y-76332331D01*
X41065226Y-76331144D01*
X41057668Y-76329500D01*
X41023665Y-76329500D01*
X41017290Y-76329830D01*
X40925870Y-76339316D01*
X40912682Y-76342164D01*
X40765199Y-76391368D01*
X40752241Y-76397438D01*
X40620383Y-76479033D01*
X40609170Y-76487921D01*
X40499616Y-76597666D01*
X40490753Y-76608889D01*
X40409388Y-76740888D01*
X40403339Y-76753859D01*
X40362104Y-76878181D01*
X40322315Y-76935615D01*
X40257792Y-76962420D01*
X40189020Y-76950086D01*
X40137833Y-76902528D01*
X40128300Y-76882673D01*
X40126616Y-76878181D01*
X40122083Y-76866088D01*
X40041472Y-76758528D01*
X39933912Y-76677917D01*
X39925635Y-76674814D01*
X39815332Y-76633463D01*
X39815328Y-76633462D01*
X39808051Y-76630734D01*
X39750665Y-76624500D01*
X39450090Y-76624500D01*
X39149336Y-76624501D01*
X39145995Y-76624864D01*
X39145993Y-76624864D01*
X39099682Y-76629894D01*
X39099681Y-76629894D01*
X39091949Y-76630734D01*
X38966088Y-76677917D01*
X38858528Y-76758528D01*
X38777917Y-76866088D01*
X38774814Y-76874364D01*
X38774814Y-76874365D01*
X38733463Y-76984668D01*
X38733462Y-76984672D01*
X38730734Y-76991949D01*
X38724500Y-77049335D01*
X38724501Y-77271442D01*
X38724501Y-77455600D01*
X38704817Y-77522639D01*
X38688182Y-77543281D01*
X38372161Y-77859302D01*
X38353432Y-77874429D01*
X38352398Y-77875370D01*
X38343790Y-77880928D01*
X38337448Y-77888973D01*
X38323193Y-77907055D01*
X38319280Y-77911458D01*
X38319350Y-77911517D01*
X38316043Y-77915420D01*
X38312425Y-77919038D01*
X38301321Y-77934577D01*
X38297830Y-77939228D01*
X38266397Y-77979100D01*
X38263395Y-77987649D01*
X38258128Y-77995019D01*
X38255191Y-78004840D01*
X38243594Y-78043618D01*
X38241788Y-78049176D01*
X38224977Y-78097048D01*
X38224500Y-78102555D01*
X38224500Y-78105239D01*
X38224387Y-78107841D01*
X38224365Y-78107915D01*
X38224196Y-78107908D01*
X38224150Y-78108633D01*
X38222310Y-78114787D01*
X38222712Y-78125026D01*
X38222712Y-78125029D01*
X38224404Y-78168081D01*
X38224500Y-78172949D01*
X38224500Y-78244101D01*
X38204815Y-78311140D01*
X38152011Y-78356895D01*
X38082853Y-78366839D01*
X38019297Y-78337814D01*
X38012819Y-78331782D01*
X36966368Y-77285331D01*
X36943564Y-77253945D01*
X36919290Y-77206304D01*
X36919288Y-77206301D01*
X36914859Y-77197609D01*
X36827391Y-77110141D01*
X36818699Y-77105712D01*
X36818696Y-77105710D01*
X36771055Y-77081436D01*
X36739669Y-77058632D01*
X36668462Y-76987425D01*
X36608295Y-76944429D01*
X36600823Y-76939089D01*
X36600822Y-76939088D01*
X36592481Y-76933128D01*
X36490161Y-76902528D01*
X36482531Y-76900246D01*
X36482530Y-76900246D01*
X36472713Y-76897310D01*
X36462474Y-76897712D01*
X36462472Y-76897712D01*
X36407456Y-76899874D01*
X36347801Y-76902218D01*
X36338249Y-76905913D01*
X36338246Y-76905914D01*
X36240773Y-76943623D01*
X36240772Y-76943624D01*
X36231212Y-76947322D01*
X36135520Y-77027761D01*
X36130234Y-77036541D01*
X36123577Y-77044335D01*
X36121864Y-77042872D01*
X36082311Y-77079721D01*
X36031304Y-77105710D01*
X36031301Y-77105712D01*
X36022609Y-77110141D01*
X35935141Y-77197609D01*
X35878983Y-77307825D01*
X35876553Y-77323170D01*
X35867345Y-77381304D01*
X35864500Y-77399265D01*
X35864501Y-77740734D01*
X35878983Y-77832175D01*
X35935141Y-77942391D01*
X35955069Y-77962319D01*
X35988554Y-78023642D01*
X35983570Y-78093334D01*
X35955069Y-78137681D01*
X35935141Y-78157609D01*
X35878983Y-78267825D01*
X35877456Y-78277467D01*
X35867345Y-78341304D01*
X35864500Y-78359265D01*
X35864501Y-78700734D01*
X35865262Y-78705538D01*
X35865262Y-78705540D01*
X35868836Y-78728106D01*
X35878983Y-78792175D01*
X35935141Y-78902391D01*
X36022609Y-78989859D01*
X36031301Y-78994288D01*
X36031304Y-78994290D01*
X36079995Y-79019099D01*
X36115078Y-79045762D01*
X36115370Y-79046080D01*
X36117094Y-79048131D01*
X37188181Y-80119218D01*
X37221666Y-80180541D01*
X37224500Y-80206899D01*
X37224500Y-82744101D01*
X37204815Y-82811140D01*
X37152011Y-82856895D01*
X37082853Y-82866839D01*
X37019297Y-82837814D01*
X37012819Y-82831782D01*
X36741368Y-82560331D01*
X36718564Y-82528945D01*
X36694290Y-82481304D01*
X36694288Y-82481301D01*
X36689859Y-82472609D01*
X36602391Y-82385141D01*
X36593699Y-82380712D01*
X36593696Y-82380710D01*
X36546055Y-82356436D01*
X36514669Y-82333632D01*
X36443462Y-82262425D01*
X36383164Y-82219335D01*
X36375823Y-82214089D01*
X36375822Y-82214088D01*
X36367481Y-82208128D01*
X36276483Y-82180914D01*
X36257531Y-82175246D01*
X36257530Y-82175246D01*
X36247713Y-82172310D01*
X36237474Y-82172712D01*
X36237472Y-82172712D01*
X36182456Y-82174874D01*
X36122801Y-82177218D01*
X36113249Y-82180913D01*
X36113246Y-82180914D01*
X36015773Y-82218623D01*
X36015772Y-82218624D01*
X36006212Y-82222322D01*
X35910520Y-82302761D01*
X35905234Y-82311541D01*
X35898577Y-82319335D01*
X35896864Y-82317872D01*
X35857312Y-82354720D01*
X35830796Y-82368231D01*
X35762127Y-82381128D01*
X35697386Y-82354853D01*
X35657129Y-82297747D01*
X35650500Y-82257747D01*
X35650500Y-79028285D01*
X35653047Y-79004359D01*
X35653113Y-79002951D01*
X35655270Y-78992934D01*
X35654066Y-78982759D01*
X35654066Y-78982754D01*
X35651360Y-78959891D01*
X35651013Y-78954014D01*
X35650921Y-78954022D01*
X35650500Y-78948927D01*
X35650500Y-78943807D01*
X35649660Y-78938760D01*
X35649659Y-78938749D01*
X35647367Y-78924981D01*
X35646544Y-78919198D01*
X35641783Y-78878970D01*
X35641781Y-78878963D01*
X35640577Y-78868791D01*
X35636654Y-78860622D01*
X35635167Y-78851687D01*
X35611079Y-78807046D01*
X35608428Y-78801841D01*
X35589844Y-78763139D01*
X35589840Y-78763133D01*
X35586463Y-78756100D01*
X35582906Y-78751869D01*
X35581020Y-78749983D01*
X35579249Y-78748053D01*
X35579221Y-78748000D01*
X35579348Y-78747883D01*
X35578857Y-78747326D01*
X35575806Y-78741671D01*
X35561132Y-78728106D01*
X35536619Y-78705447D01*
X35533109Y-78702072D01*
X34291368Y-77460331D01*
X34268564Y-77428945D01*
X34244290Y-77381304D01*
X34244288Y-77381301D01*
X34239859Y-77372609D01*
X34152391Y-77285141D01*
X34143699Y-77280712D01*
X34143696Y-77280710D01*
X34096055Y-77256436D01*
X34064669Y-77233632D01*
X33993462Y-77162425D01*
X33937344Y-77122322D01*
X33925823Y-77114089D01*
X33925822Y-77114088D01*
X33917481Y-77108128D01*
X33840305Y-77085048D01*
X33807531Y-77075246D01*
X33807530Y-77075246D01*
X33797713Y-77072310D01*
X33787474Y-77072712D01*
X33787472Y-77072712D01*
X33732456Y-77074874D01*
X33672801Y-77077218D01*
X33663249Y-77080913D01*
X33663246Y-77080914D01*
X33565773Y-77118623D01*
X33565772Y-77118624D01*
X33556212Y-77122322D01*
X33460520Y-77202761D01*
X33455234Y-77211541D01*
X33448577Y-77219335D01*
X33446864Y-77217872D01*
X33407311Y-77254721D01*
X33356304Y-77280710D01*
X33356301Y-77280712D01*
X33347609Y-77285141D01*
X33260141Y-77372609D01*
X33203983Y-77482825D01*
X33189500Y-77574265D01*
X33189501Y-77915734D01*
X33190262Y-77920538D01*
X33190262Y-77920540D01*
X33195455Y-77953330D01*
X33203983Y-78007175D01*
X33260141Y-78117391D01*
X33280069Y-78137319D01*
X33313554Y-78198642D01*
X33308570Y-78268334D01*
X33280069Y-78312681D01*
X33260141Y-78332609D01*
X33203983Y-78442825D01*
X33189500Y-78534265D01*
X33189501Y-78875734D01*
X33203983Y-78967175D01*
X33260141Y-79077391D01*
X33347609Y-79164859D01*
X33356301Y-79169288D01*
X33356304Y-79169290D01*
X33404995Y-79194099D01*
X33440078Y-79220762D01*
X33440370Y-79221080D01*
X33442094Y-79223131D01*
X34388181Y-80169218D01*
X34421666Y-80230541D01*
X34424500Y-80256899D01*
X34424500Y-82669101D01*
X34404815Y-82736140D01*
X34352011Y-82781895D01*
X34282853Y-82791839D01*
X34219297Y-82762814D01*
X34212819Y-82756782D01*
X33916368Y-82460331D01*
X33893564Y-82428945D01*
X33869290Y-82381304D01*
X33869288Y-82381301D01*
X33864859Y-82372609D01*
X33777391Y-82285141D01*
X33768699Y-82280712D01*
X33768696Y-82280710D01*
X33721055Y-82256436D01*
X33689669Y-82233632D01*
X33618462Y-82162425D01*
X33562344Y-82122322D01*
X33550823Y-82114089D01*
X33550822Y-82114088D01*
X33542481Y-82108128D01*
X33451483Y-82080914D01*
X33432531Y-82075246D01*
X33432530Y-82075246D01*
X33422713Y-82072310D01*
X33412474Y-82072712D01*
X33412472Y-82072712D01*
X33357456Y-82074874D01*
X33297801Y-82077218D01*
X33288249Y-82080913D01*
X33288246Y-82080914D01*
X33190773Y-82118623D01*
X33190772Y-82118624D01*
X33181212Y-82122322D01*
X33085520Y-82202761D01*
X33080234Y-82211541D01*
X33073577Y-82219335D01*
X33071864Y-82217872D01*
X33032311Y-82254721D01*
X32980795Y-82280970D01*
X32912126Y-82293866D01*
X32847386Y-82267590D01*
X32807128Y-82210484D01*
X32800500Y-82170485D01*
X32800500Y-78703284D01*
X32803047Y-78679349D01*
X32803113Y-78677948D01*
X32805269Y-78667934D01*
X32801359Y-78634898D01*
X32801012Y-78629016D01*
X32800922Y-78629023D01*
X32800500Y-78623918D01*
X32800500Y-78618807D01*
X32797361Y-78599947D01*
X32796539Y-78594168D01*
X32791781Y-78553968D01*
X32791780Y-78553966D01*
X32790576Y-78543790D01*
X32786654Y-78535623D01*
X32785167Y-78526687D01*
X32761077Y-78482042D01*
X32758425Y-78476837D01*
X32746723Y-78452467D01*
X32736463Y-78431100D01*
X32732906Y-78426869D01*
X32731020Y-78424983D01*
X32729249Y-78423053D01*
X32729221Y-78423000D01*
X32729348Y-78422883D01*
X32728857Y-78422326D01*
X32725806Y-78416671D01*
X32704002Y-78396515D01*
X32686619Y-78380447D01*
X32683109Y-78377072D01*
X31716368Y-77410331D01*
X31693564Y-77378945D01*
X31669290Y-77331304D01*
X31669288Y-77331301D01*
X31664859Y-77322609D01*
X31577391Y-77235141D01*
X31568699Y-77230712D01*
X31568696Y-77230710D01*
X31521055Y-77206436D01*
X31489669Y-77183632D01*
X31418462Y-77112425D01*
X31362327Y-77072310D01*
X31350823Y-77064089D01*
X31350822Y-77064088D01*
X31342481Y-77058128D01*
X31240940Y-77027761D01*
X31232531Y-77025246D01*
X31232530Y-77025246D01*
X31222713Y-77022310D01*
X31212474Y-77022712D01*
X31212472Y-77022712D01*
X31157456Y-77024874D01*
X31097801Y-77027218D01*
X31088249Y-77030913D01*
X31088246Y-77030914D01*
X30990773Y-77068623D01*
X30990772Y-77068624D01*
X30981212Y-77072322D01*
X30929287Y-77115970D01*
X30865306Y-77144038D01*
X30796305Y-77133060D01*
X30744192Y-77086519D01*
X30725500Y-77021050D01*
X30725500Y-76706899D01*
X30745185Y-76639860D01*
X30761819Y-76619218D01*
X34134801Y-73246237D01*
X34196124Y-73212752D01*
X34265816Y-73217736D01*
X34325586Y-73265028D01*
X34369399Y-73330601D01*
X34452260Y-73385966D01*
X34486313Y-73392740D01*
X34519347Y-73399311D01*
X34519350Y-73399311D01*
X34525326Y-73400500D01*
X35474674Y-73400500D01*
X35480650Y-73399311D01*
X35480653Y-73399311D01*
X35513687Y-73392740D01*
X35547740Y-73385966D01*
X35630601Y-73330601D01*
X35685966Y-73247740D01*
X35692926Y-73212752D01*
X35699311Y-73180653D01*
X35699311Y-73180650D01*
X35700500Y-73174674D01*
X35700500Y-71925326D01*
X35696512Y-71905274D01*
X35688349Y-71864241D01*
X35685966Y-71852260D01*
X35630601Y-71769399D01*
X35547740Y-71714034D01*
X35513687Y-71707260D01*
X35480653Y-71700689D01*
X35480650Y-71700689D01*
X35474674Y-71699500D01*
X34525326Y-71699500D01*
X34519350Y-71700689D01*
X34519347Y-71700689D01*
X34486313Y-71707260D01*
X34452260Y-71714034D01*
X34369399Y-71769399D01*
X34314034Y-71852260D01*
X34311651Y-71864241D01*
X34303489Y-71905274D01*
X34299500Y-71925326D01*
X34299500Y-72062362D01*
X34279815Y-72129401D01*
X34227011Y-72175156D01*
X34210094Y-72181439D01*
X34203969Y-72183218D01*
X34193791Y-72184423D01*
X34185622Y-72188346D01*
X34176687Y-72189833D01*
X34167672Y-72194697D01*
X34167667Y-72194699D01*
X34132033Y-72213926D01*
X34126835Y-72216575D01*
X34081101Y-72238537D01*
X34076869Y-72242094D01*
X34074959Y-72244004D01*
X34073057Y-72245749D01*
X34072992Y-72245784D01*
X34072876Y-72245658D01*
X34072326Y-72246143D01*
X34066671Y-72249194D01*
X34059711Y-72256723D01*
X34059710Y-72256724D01*
X34030447Y-72288381D01*
X34027072Y-72291891D01*
X32811560Y-73507403D01*
X32750237Y-73540888D01*
X32680545Y-73535904D01*
X32624612Y-73494032D01*
X32600195Y-73428568D01*
X32607770Y-73376194D01*
X32648524Y-73267485D01*
X32652091Y-73252482D01*
X32657637Y-73201427D01*
X32658000Y-73194729D01*
X32658000Y-72821830D01*
X32653596Y-72806831D01*
X32652226Y-72805644D01*
X32644668Y-72804000D01*
X31971830Y-72804000D01*
X31956831Y-72808404D01*
X31955644Y-72809774D01*
X31954000Y-72817332D01*
X31954000Y-73640169D01*
X31958404Y-73655168D01*
X31959774Y-73656355D01*
X31967332Y-73657999D01*
X32194726Y-73657999D01*
X32201431Y-73657636D01*
X32252477Y-73652092D01*
X32267488Y-73648522D01*
X32376194Y-73607770D01*
X32445877Y-73602669D01*
X32507256Y-73636051D01*
X32540844Y-73697318D01*
X32535976Y-73767018D01*
X32507403Y-73811560D01*
X31911692Y-74407271D01*
X31850369Y-74440756D01*
X31780677Y-74435772D01*
X31724744Y-74393900D01*
X31700327Y-74328436D01*
X31700011Y-74319590D01*
X31700011Y-74253182D01*
X31702558Y-74229246D01*
X31702624Y-74227851D01*
X31704781Y-74217831D01*
X31703577Y-74207656D01*
X31703577Y-74207651D01*
X31700871Y-74184788D01*
X31700524Y-74178911D01*
X31700432Y-74178919D01*
X31700011Y-74173824D01*
X31700011Y-74168704D01*
X31699171Y-74163657D01*
X31699170Y-74163646D01*
X31696878Y-74149878D01*
X31696055Y-74144095D01*
X31691294Y-74103867D01*
X31691292Y-74103860D01*
X31690088Y-74093688D01*
X31686165Y-74085519D01*
X31684678Y-74076584D01*
X31660585Y-74031931D01*
X31657933Y-74026727D01*
X31639352Y-73988032D01*
X31639351Y-73988030D01*
X31635974Y-73980998D01*
X31632417Y-73976766D01*
X31630507Y-73974856D01*
X31628762Y-73972954D01*
X31628727Y-73972889D01*
X31628853Y-73972773D01*
X31628368Y-73972223D01*
X31625317Y-73966568D01*
X31609756Y-73952183D01*
X31586130Y-73930344D01*
X31582620Y-73926969D01*
X31462631Y-73806980D01*
X31429146Y-73745657D01*
X31434130Y-73675965D01*
X31442121Y-73662497D01*
X31446000Y-73644668D01*
X31446000Y-72420000D01*
X31465685Y-72352961D01*
X31518489Y-72307206D01*
X31570000Y-72296000D01*
X32640169Y-72296000D01*
X32655168Y-72291596D01*
X32656355Y-72290226D01*
X32657999Y-72282668D01*
X32657999Y-71905274D01*
X32657636Y-71898569D01*
X32652092Y-71847523D01*
X32648522Y-71832512D01*
X32603273Y-71711810D01*
X32594874Y-71696468D01*
X32518202Y-71594165D01*
X32505835Y-71581798D01*
X32403532Y-71505126D01*
X32388190Y-71496727D01*
X32267485Y-71451476D01*
X32252482Y-71447909D01*
X32201427Y-71442363D01*
X32194730Y-71442000D01*
X31852681Y-71442001D01*
X31785642Y-71422317D01*
X31739887Y-71369513D01*
X31729943Y-71300354D01*
X31758968Y-71236799D01*
X31765000Y-71230320D01*
X33577643Y-69417677D01*
X33596345Y-69402573D01*
X33597399Y-69401614D01*
X33606010Y-69396054D01*
X33626604Y-69369931D01*
X33630524Y-69365520D01*
X33630454Y-69365461D01*
X33633759Y-69361561D01*
X33637376Y-69357944D01*
X33640344Y-69353791D01*
X33640353Y-69353780D01*
X33648497Y-69342382D01*
X33652007Y-69337707D01*
X33677058Y-69305931D01*
X33677059Y-69305929D01*
X33683403Y-69297882D01*
X33686405Y-69289334D01*
X33691672Y-69281963D01*
X33706210Y-69233351D01*
X33708015Y-69227797D01*
X33720186Y-69193138D01*
X34044758Y-69193138D01*
X34045578Y-69200566D01*
X34045578Y-69200568D01*
X34047474Y-69217744D01*
X34062035Y-69349633D01*
X34064601Y-69356645D01*
X34064602Y-69356649D01*
X34094206Y-69437544D01*
X34116143Y-69497490D01*
X34203958Y-69628172D01*
X34226183Y-69648395D01*
X34314878Y-69729102D01*
X34314882Y-69729105D01*
X34320410Y-69734135D01*
X34458776Y-69809262D01*
X34561031Y-69836088D01*
X34603841Y-69847319D01*
X34603843Y-69847319D01*
X34611069Y-69849215D01*
X34688127Y-69850425D01*
X34761025Y-69851571D01*
X34761028Y-69851571D01*
X34768495Y-69851688D01*
X34775776Y-69850020D01*
X34775780Y-69850020D01*
X34914681Y-69818207D01*
X34921968Y-69816538D01*
X35062625Y-69745795D01*
X35068306Y-69740943D01*
X35068309Y-69740941D01*
X35176666Y-69648395D01*
X35176667Y-69648394D01*
X35182348Y-69643542D01*
X35193393Y-69628172D01*
X35213798Y-69599775D01*
X35274224Y-69515683D01*
X35332950Y-69369598D01*
X35335201Y-69353780D01*
X35354562Y-69217744D01*
X35354562Y-69217740D01*
X35355134Y-69213723D01*
X35355278Y-69200000D01*
X35352850Y-69179934D01*
X35349116Y-69149077D01*
X35360604Y-69080159D01*
X35384537Y-69046500D01*
X37938439Y-66492598D01*
X37999762Y-66459113D01*
X38069454Y-66464097D01*
X38082032Y-66469600D01*
X38083472Y-66470327D01*
X38089275Y-66474125D01*
X38095770Y-66476540D01*
X38095773Y-66476542D01*
X38240589Y-66530398D01*
X38240592Y-66530399D01*
X38247089Y-66532815D01*
X38413983Y-66555083D01*
X38420884Y-66554455D01*
X38420886Y-66554455D01*
X38518435Y-66545577D01*
X38581664Y-66539823D01*
X38588255Y-66537681D01*
X38588257Y-66537681D01*
X38735206Y-66489935D01*
X38735210Y-66489933D01*
X38741797Y-66487793D01*
X38886423Y-66401578D01*
X38944488Y-66346283D01*
X39003335Y-66290245D01*
X39003337Y-66290243D01*
X39008354Y-66285465D01*
X39055189Y-66214973D01*
X39097694Y-66150999D01*
X39097696Y-66150995D01*
X39101531Y-66145223D01*
X39103991Y-66138747D01*
X39103993Y-66138743D01*
X39158860Y-65994301D01*
X39161321Y-65987823D01*
X39184755Y-65821088D01*
X39185049Y-65800000D01*
X39183866Y-65789455D01*
X40214625Y-65789455D01*
X40231055Y-65957025D01*
X40284202Y-66116791D01*
X40287795Y-66122724D01*
X40287796Y-66122726D01*
X40301421Y-66145223D01*
X40371424Y-66260812D01*
X40488386Y-66381929D01*
X40494189Y-66385727D01*
X40494191Y-66385728D01*
X40613951Y-66464097D01*
X40629275Y-66474125D01*
X40635770Y-66476540D01*
X40635773Y-66476542D01*
X40780589Y-66530398D01*
X40780592Y-66530399D01*
X40787089Y-66532815D01*
X40953983Y-66555083D01*
X40960884Y-66554455D01*
X40960886Y-66554455D01*
X41058435Y-66545577D01*
X41121664Y-66539823D01*
X41128255Y-66537681D01*
X41128257Y-66537681D01*
X41275206Y-66489935D01*
X41275210Y-66489933D01*
X41281797Y-66487793D01*
X41426423Y-66401578D01*
X41484488Y-66346283D01*
X41543335Y-66290245D01*
X41543337Y-66290243D01*
X41548354Y-66285465D01*
X41595189Y-66214973D01*
X41637694Y-66150999D01*
X41637696Y-66150995D01*
X41641531Y-66145223D01*
X41643991Y-66138747D01*
X41643993Y-66138743D01*
X41698860Y-65994301D01*
X41701321Y-65987823D01*
X41724755Y-65821088D01*
X41725049Y-65800000D01*
X41706281Y-65632676D01*
X41650908Y-65473668D01*
X41561684Y-65330879D01*
X41486602Y-65255271D01*
X41447923Y-65216321D01*
X41447922Y-65216320D01*
X41443042Y-65211406D01*
X41437195Y-65207695D01*
X41437192Y-65207693D01*
X41306733Y-65124902D01*
X41300879Y-65121187D01*
X41288082Y-65116630D01*
X41148791Y-65067031D01*
X41148792Y-65067031D01*
X41142262Y-65064706D01*
X40975073Y-65044769D01*
X40968184Y-65045493D01*
X40968181Y-65045493D01*
X40814518Y-65061644D01*
X40814517Y-65061644D01*
X40807621Y-65062369D01*
X40801054Y-65064604D01*
X40801052Y-65064605D01*
X40654798Y-65114394D01*
X40654795Y-65114395D01*
X40648231Y-65116630D01*
X40504822Y-65204856D01*
X40499870Y-65209706D01*
X40499868Y-65209707D01*
X40389480Y-65317807D01*
X40389477Y-65317811D01*
X40384524Y-65322661D01*
X40293315Y-65464190D01*
X40235727Y-65622409D01*
X40214625Y-65789455D01*
X39183866Y-65789455D01*
X39166281Y-65632676D01*
X39110908Y-65473668D01*
X39021684Y-65330879D01*
X38946602Y-65255271D01*
X38907923Y-65216321D01*
X38907922Y-65216320D01*
X38903042Y-65211406D01*
X38897195Y-65207695D01*
X38897192Y-65207693D01*
X38766733Y-65124902D01*
X38760879Y-65121187D01*
X38748082Y-65116630D01*
X38608791Y-65067031D01*
X38608792Y-65067031D01*
X38602262Y-65064706D01*
X38435073Y-65044769D01*
X38428184Y-65045493D01*
X38428181Y-65045493D01*
X38274518Y-65061644D01*
X38274517Y-65061644D01*
X38267621Y-65062369D01*
X38261054Y-65064604D01*
X38261052Y-65064605D01*
X38114798Y-65114394D01*
X38114795Y-65114395D01*
X38108231Y-65116630D01*
X37964822Y-65204856D01*
X37959870Y-65209706D01*
X37959868Y-65209707D01*
X37849480Y-65317807D01*
X37849477Y-65317811D01*
X37844524Y-65322661D01*
X37753315Y-65464190D01*
X37695727Y-65622409D01*
X37693699Y-65638466D01*
X37665769Y-65702507D01*
X37658358Y-65710605D01*
X34855469Y-68513494D01*
X34794146Y-68546979D01*
X34767143Y-68549811D01*
X34659988Y-68549250D01*
X34632158Y-68549104D01*
X34632157Y-68549104D01*
X34624684Y-68549065D01*
X34617421Y-68550809D01*
X34617418Y-68550809D01*
X34548136Y-68567442D01*
X34471588Y-68585820D01*
X34331679Y-68658032D01*
X34213034Y-68761533D01*
X34122501Y-68890348D01*
X34065309Y-69037039D01*
X34044758Y-69193138D01*
X33720186Y-69193138D01*
X33722238Y-69187296D01*
X33722239Y-69187294D01*
X33724823Y-69179934D01*
X33725300Y-69174427D01*
X33725300Y-69171744D01*
X33725413Y-69169145D01*
X33725436Y-69169067D01*
X33725604Y-69169074D01*
X33725649Y-69168353D01*
X33727491Y-69162195D01*
X33725396Y-69108876D01*
X33725300Y-69104008D01*
X33725300Y-66520379D01*
X33744985Y-66453340D01*
X33785805Y-66413869D01*
X33800467Y-66405129D01*
X33800470Y-66405127D01*
X33806423Y-66401578D01*
X33814471Y-66393914D01*
X33923335Y-66290245D01*
X33923337Y-66290243D01*
X33928354Y-66285465D01*
X33975189Y-66214973D01*
X34017694Y-66150999D01*
X34017696Y-66150995D01*
X34021531Y-66145223D01*
X34023991Y-66138747D01*
X34023993Y-66138743D01*
X34078860Y-65994301D01*
X34081321Y-65987823D01*
X34104755Y-65821088D01*
X34105049Y-65800000D01*
X34103866Y-65789455D01*
X35134625Y-65789455D01*
X35151055Y-65957025D01*
X35204202Y-66116791D01*
X35207795Y-66122724D01*
X35207796Y-66122726D01*
X35221421Y-66145223D01*
X35291424Y-66260812D01*
X35408386Y-66381929D01*
X35414189Y-66385727D01*
X35414191Y-66385728D01*
X35533951Y-66464097D01*
X35549275Y-66474125D01*
X35555770Y-66476540D01*
X35555773Y-66476542D01*
X35700589Y-66530398D01*
X35700592Y-66530399D01*
X35707089Y-66532815D01*
X35873983Y-66555083D01*
X35880884Y-66554455D01*
X35880886Y-66554455D01*
X35978435Y-66545577D01*
X36041664Y-66539823D01*
X36048255Y-66537681D01*
X36048257Y-66537681D01*
X36195206Y-66489935D01*
X36195210Y-66489933D01*
X36201797Y-66487793D01*
X36346423Y-66401578D01*
X36404488Y-66346283D01*
X36463335Y-66290245D01*
X36463337Y-66290243D01*
X36468354Y-66285465D01*
X36515189Y-66214973D01*
X36557694Y-66150999D01*
X36557696Y-66150995D01*
X36561531Y-66145223D01*
X36563991Y-66138747D01*
X36563993Y-66138743D01*
X36618860Y-65994301D01*
X36621321Y-65987823D01*
X36644755Y-65821088D01*
X36645049Y-65800000D01*
X36626281Y-65632676D01*
X36570908Y-65473668D01*
X36481684Y-65330879D01*
X36406602Y-65255271D01*
X36367923Y-65216321D01*
X36367922Y-65216320D01*
X36363042Y-65211406D01*
X36357195Y-65207695D01*
X36357192Y-65207693D01*
X36226733Y-65124902D01*
X36220879Y-65121187D01*
X36208082Y-65116630D01*
X36068791Y-65067031D01*
X36068792Y-65067031D01*
X36062262Y-65064706D01*
X35895073Y-65044769D01*
X35888184Y-65045493D01*
X35888181Y-65045493D01*
X35734518Y-65061644D01*
X35734517Y-65061644D01*
X35727621Y-65062369D01*
X35721054Y-65064604D01*
X35721052Y-65064605D01*
X35574798Y-65114394D01*
X35574795Y-65114395D01*
X35568231Y-65116630D01*
X35424822Y-65204856D01*
X35419870Y-65209706D01*
X35419868Y-65209707D01*
X35309480Y-65317807D01*
X35309477Y-65317811D01*
X35304524Y-65322661D01*
X35213315Y-65464190D01*
X35155727Y-65622409D01*
X35134625Y-65789455D01*
X34103866Y-65789455D01*
X34086281Y-65632676D01*
X34030908Y-65473668D01*
X33941684Y-65330879D01*
X33866602Y-65255271D01*
X33827923Y-65216321D01*
X33827922Y-65216320D01*
X33823042Y-65211406D01*
X33817195Y-65207695D01*
X33817192Y-65207693D01*
X33686733Y-65124902D01*
X33680879Y-65121187D01*
X33668082Y-65116630D01*
X33528791Y-65067031D01*
X33528792Y-65067031D01*
X33522262Y-65064706D01*
X33355073Y-65044769D01*
X33348184Y-65045493D01*
X33348181Y-65045493D01*
X33194518Y-65061644D01*
X33194517Y-65061644D01*
X33187621Y-65062369D01*
X33181054Y-65064604D01*
X33181052Y-65064605D01*
X33034798Y-65114394D01*
X33034795Y-65114395D01*
X33028231Y-65116630D01*
X32884822Y-65204856D01*
X32879870Y-65209706D01*
X32879868Y-65209707D01*
X32769480Y-65317807D01*
X32769477Y-65317811D01*
X32764524Y-65322661D01*
X32673315Y-65464190D01*
X32615727Y-65622409D01*
X32594625Y-65789455D01*
X32611055Y-65957025D01*
X32664202Y-66116791D01*
X32667795Y-66122724D01*
X32667796Y-66122726D01*
X32681421Y-66145223D01*
X32751424Y-66260812D01*
X32868386Y-66381929D01*
X32918201Y-66414527D01*
X32963515Y-66467704D01*
X32974300Y-66518283D01*
X32974300Y-68907583D01*
X32954615Y-68974622D01*
X32937981Y-68995264D01*
X30672264Y-71260981D01*
X30653535Y-71276108D01*
X30652501Y-71277049D01*
X30643893Y-71282607D01*
X30637551Y-71290652D01*
X30623296Y-71308734D01*
X30619383Y-71313137D01*
X30619453Y-71313196D01*
X30616146Y-71317099D01*
X30612528Y-71320717D01*
X30609554Y-71324879D01*
X30601424Y-71336256D01*
X30597933Y-71340907D01*
X30566500Y-71380779D01*
X30563498Y-71389328D01*
X30558231Y-71396698D01*
X30555294Y-71406519D01*
X30543697Y-71445297D01*
X30541891Y-71450855D01*
X30525080Y-71498727D01*
X30524603Y-71504234D01*
X30524603Y-71506918D01*
X30524490Y-71509520D01*
X30524468Y-71509594D01*
X30524299Y-71509587D01*
X30524253Y-71510312D01*
X30522413Y-71516466D01*
X30522815Y-71526705D01*
X30522815Y-71526708D01*
X30524507Y-71569760D01*
X30524603Y-71574628D01*
X30524603Y-73594204D01*
X30504918Y-73661243D01*
X30452114Y-73706998D01*
X30382956Y-73716942D01*
X30319400Y-73687917D01*
X30312922Y-73681885D01*
X27411619Y-70780582D01*
X27378134Y-70719259D01*
X27375300Y-70692901D01*
X27375300Y-67123280D01*
X27377846Y-67099355D01*
X27377912Y-67097951D01*
X27380069Y-67087933D01*
X27376159Y-67054897D01*
X27375812Y-67049016D01*
X27375722Y-67049023D01*
X27375300Y-67043917D01*
X27375300Y-67038807D01*
X27372162Y-67019953D01*
X27371340Y-67014182D01*
X27366581Y-66973967D01*
X27366580Y-66973964D01*
X27365376Y-66963790D01*
X27361454Y-66955623D01*
X27359967Y-66946687D01*
X27356406Y-66940087D01*
X27353377Y-66871890D01*
X27388506Y-66811494D01*
X27450712Y-66779678D01*
X27517314Y-66785402D01*
X27552319Y-66798525D01*
X27567318Y-66802091D01*
X27618373Y-66807637D01*
X27625071Y-66808000D01*
X27997970Y-66808000D01*
X28012969Y-66803596D01*
X28014156Y-66802226D01*
X28015800Y-66794668D01*
X28015800Y-66790169D01*
X28523800Y-66790169D01*
X28528204Y-66805168D01*
X28529574Y-66806355D01*
X28537132Y-66807999D01*
X28914526Y-66807999D01*
X28921231Y-66807636D01*
X28972277Y-66802092D01*
X28987288Y-66798522D01*
X29107990Y-66753273D01*
X29123332Y-66744874D01*
X29225635Y-66668202D01*
X29238002Y-66655835D01*
X29314674Y-66553532D01*
X29323073Y-66538190D01*
X29368324Y-66417485D01*
X29371891Y-66402482D01*
X29377437Y-66351427D01*
X29377800Y-66344729D01*
X29377800Y-66071830D01*
X29373396Y-66056831D01*
X29372026Y-66055644D01*
X29364468Y-66054000D01*
X28541630Y-66054000D01*
X28526631Y-66058404D01*
X28525444Y-66059774D01*
X28523800Y-66067332D01*
X28523800Y-66790169D01*
X28015800Y-66790169D01*
X28015800Y-66071830D01*
X28011396Y-66056831D01*
X28010026Y-66055644D01*
X28002468Y-66054000D01*
X27179631Y-66054000D01*
X27164632Y-66058404D01*
X27163445Y-66059774D01*
X27161801Y-66067332D01*
X27161801Y-66344726D01*
X27162164Y-66351426D01*
X27166779Y-66393914D01*
X27154449Y-66462688D01*
X27106895Y-66513877D01*
X27039214Y-66531231D01*
X26972896Y-66509239D01*
X26955823Y-66494986D01*
X26503477Y-66042640D01*
X26469992Y-65981317D01*
X26468365Y-65937703D01*
X26479663Y-65857317D01*
X26484214Y-65824939D01*
X26484214Y-65824935D01*
X26484755Y-65821088D01*
X26485049Y-65800000D01*
X26483866Y-65789455D01*
X30054625Y-65789455D01*
X30071055Y-65957025D01*
X30124202Y-66116791D01*
X30127795Y-66122724D01*
X30127796Y-66122726D01*
X30141421Y-66145223D01*
X30211424Y-66260812D01*
X30328386Y-66381929D01*
X30334189Y-66385727D01*
X30334191Y-66385728D01*
X30453951Y-66464097D01*
X30469275Y-66474125D01*
X30475770Y-66476540D01*
X30475773Y-66476542D01*
X30620589Y-66530398D01*
X30620592Y-66530399D01*
X30627089Y-66532815D01*
X30793983Y-66555083D01*
X30800884Y-66554455D01*
X30800886Y-66554455D01*
X30898435Y-66545577D01*
X30961664Y-66539823D01*
X30968255Y-66537681D01*
X30968257Y-66537681D01*
X31115206Y-66489935D01*
X31115210Y-66489933D01*
X31121797Y-66487793D01*
X31266423Y-66401578D01*
X31324488Y-66346283D01*
X31383335Y-66290245D01*
X31383337Y-66290243D01*
X31388354Y-66285465D01*
X31435189Y-66214973D01*
X31477694Y-66150999D01*
X31477696Y-66150995D01*
X31481531Y-66145223D01*
X31483991Y-66138747D01*
X31483993Y-66138743D01*
X31538860Y-65994301D01*
X31541321Y-65987823D01*
X31564755Y-65821088D01*
X31565049Y-65800000D01*
X31546281Y-65632676D01*
X31490908Y-65473668D01*
X31401684Y-65330879D01*
X31326602Y-65255271D01*
X31287923Y-65216321D01*
X31287922Y-65216320D01*
X31283042Y-65211406D01*
X31277195Y-65207695D01*
X31277192Y-65207693D01*
X31146733Y-65124902D01*
X31140879Y-65121187D01*
X31128082Y-65116630D01*
X30988791Y-65067031D01*
X30988792Y-65067031D01*
X30982262Y-65064706D01*
X30815073Y-65044769D01*
X30808184Y-65045493D01*
X30808181Y-65045493D01*
X30654518Y-65061644D01*
X30654517Y-65061644D01*
X30647621Y-65062369D01*
X30641054Y-65064604D01*
X30641052Y-65064605D01*
X30494798Y-65114394D01*
X30494795Y-65114395D01*
X30488231Y-65116630D01*
X30344822Y-65204856D01*
X30339870Y-65209706D01*
X30339868Y-65209707D01*
X30229480Y-65317807D01*
X30229477Y-65317811D01*
X30224524Y-65322661D01*
X30133315Y-65464190D01*
X30075727Y-65622409D01*
X30054625Y-65789455D01*
X26483866Y-65789455D01*
X26466281Y-65632676D01*
X26410908Y-65473668D01*
X26321684Y-65330879D01*
X26246602Y-65255271D01*
X26207923Y-65216321D01*
X26207922Y-65216320D01*
X26203042Y-65211406D01*
X26197195Y-65207695D01*
X26197192Y-65207693D01*
X26066733Y-65124902D01*
X26060879Y-65121187D01*
X26048082Y-65116630D01*
X25908791Y-65067031D01*
X25908792Y-65067031D01*
X25902262Y-65064706D01*
X25735073Y-65044769D01*
X25728184Y-65045493D01*
X25728181Y-65045493D01*
X25574518Y-65061644D01*
X25574517Y-65061644D01*
X25567621Y-65062369D01*
X25561054Y-65064604D01*
X25561052Y-65064605D01*
X25414798Y-65114394D01*
X25414795Y-65114395D01*
X25408231Y-65116630D01*
X25264822Y-65204856D01*
X25259870Y-65209706D01*
X25259868Y-65209707D01*
X25149480Y-65317807D01*
X25149477Y-65317811D01*
X25144524Y-65322661D01*
X25053315Y-65464190D01*
X24995727Y-65622409D01*
X24974625Y-65789455D01*
X24991055Y-65957025D01*
X25044202Y-66116791D01*
X25047795Y-66122724D01*
X25047796Y-66122726D01*
X25061421Y-66145223D01*
X25131424Y-66260812D01*
X25248386Y-66381929D01*
X25254189Y-66385727D01*
X25254191Y-66385728D01*
X25373951Y-66464097D01*
X25389275Y-66474125D01*
X25395770Y-66476540D01*
X25395773Y-66476542D01*
X25540589Y-66530398D01*
X25540592Y-66530399D01*
X25547089Y-66532815D01*
X25713983Y-66555083D01*
X25720884Y-66554455D01*
X25720886Y-66554455D01*
X25803945Y-66546896D01*
X25875993Y-66540339D01*
X25944539Y-66553867D01*
X25974911Y-66576148D01*
X26587981Y-67189218D01*
X26621466Y-67250541D01*
X26624300Y-67276899D01*
X26624300Y-70846516D01*
X26621753Y-70870451D01*
X26621687Y-70871852D01*
X26619531Y-70881866D01*
X26620735Y-70892039D01*
X26623441Y-70914902D01*
X26623788Y-70920784D01*
X26623878Y-70920777D01*
X26624300Y-70925882D01*
X26624300Y-70930993D01*
X26625139Y-70936033D01*
X26627439Y-70949853D01*
X26628261Y-70955632D01*
X26634224Y-71006010D01*
X26638146Y-71014177D01*
X26639633Y-71023113D01*
X26663722Y-71067757D01*
X26666374Y-71072960D01*
X26688337Y-71118700D01*
X26691894Y-71122931D01*
X26693780Y-71124817D01*
X26695551Y-71126747D01*
X26695579Y-71126800D01*
X26695452Y-71126917D01*
X26695943Y-71127474D01*
X26698994Y-71133129D01*
X26706523Y-71140089D01*
X26706524Y-71140090D01*
X26738181Y-71169353D01*
X26741691Y-71172728D01*
X29530287Y-73961325D01*
X29563771Y-74022646D01*
X29558787Y-74092338D01*
X29516915Y-74148271D01*
X29472500Y-74169346D01*
X29458757Y-74172760D01*
X29458752Y-74172762D01*
X29448809Y-74175232D01*
X29439296Y-74181375D01*
X29416775Y-74192849D01*
X29415773Y-74193237D01*
X29415772Y-74193238D01*
X29406212Y-74196936D01*
X29398367Y-74203531D01*
X29382420Y-74216936D01*
X29369896Y-74226186D01*
X29343790Y-74243042D01*
X29337443Y-74251093D01*
X29337441Y-74251095D01*
X29336774Y-74251941D01*
X29319185Y-74270091D01*
X29318365Y-74270780D01*
X29318363Y-74270782D01*
X29310520Y-74277375D01*
X29294488Y-74304004D01*
X29285642Y-74316802D01*
X29278381Y-74326013D01*
X29266397Y-74341214D01*
X29263002Y-74350883D01*
X29263000Y-74350886D01*
X29262647Y-74351893D01*
X29251882Y-74374769D01*
X29251327Y-74375690D01*
X29251324Y-74375697D01*
X29246041Y-74384472D01*
X29243885Y-74394487D01*
X29243883Y-74394492D01*
X29239498Y-74414860D01*
X29235272Y-74429846D01*
X29224977Y-74459162D01*
X29224500Y-74464669D01*
X29224500Y-74471330D01*
X29221953Y-74495265D01*
X29221887Y-74496666D01*
X29219731Y-74506680D01*
X29220935Y-74516853D01*
X29223641Y-74539716D01*
X29224500Y-74554290D01*
X29224500Y-75107915D01*
X29204815Y-75174954D01*
X29182015Y-75201357D01*
X29113034Y-75261533D01*
X29022501Y-75390348D01*
X28965309Y-75537039D01*
X28944758Y-75693138D01*
X28945578Y-75700566D01*
X28945578Y-75700568D01*
X28954378Y-75780276D01*
X28962035Y-75849633D01*
X29016143Y-75997490D01*
X29103958Y-76128172D01*
X29158693Y-76177977D01*
X29214878Y-76229102D01*
X29214882Y-76229105D01*
X29220410Y-76234135D01*
X29226980Y-76237702D01*
X29226981Y-76237703D01*
X29261671Y-76256538D01*
X29358776Y-76309262D01*
X29457929Y-76335274D01*
X29503841Y-76347319D01*
X29503843Y-76347319D01*
X29511069Y-76349215D01*
X29587713Y-76350419D01*
X29661025Y-76351571D01*
X29661028Y-76351571D01*
X29668495Y-76351688D01*
X29675776Y-76350020D01*
X29675780Y-76350020D01*
X29821968Y-76316538D01*
X29822654Y-76319535D01*
X29878421Y-76316210D01*
X29939343Y-76350419D01*
X29972100Y-76412135D01*
X29974325Y-76440055D01*
X29974500Y-76440055D01*
X29974500Y-76440579D01*
X29974441Y-76441513D01*
X29974500Y-76442251D01*
X29974500Y-76442749D01*
X29974388Y-76445339D01*
X29974362Y-76445424D01*
X29974196Y-76445417D01*
X29974151Y-76446131D01*
X29972310Y-76452287D01*
X29972712Y-76462526D01*
X29972712Y-76462529D01*
X29974404Y-76505581D01*
X29974500Y-76510449D01*
X29974500Y-79324533D01*
X29971953Y-79348468D01*
X29971887Y-79349869D01*
X29969731Y-79359883D01*
X29970935Y-79370056D01*
X29973641Y-79392919D01*
X29973988Y-79398801D01*
X29974078Y-79398794D01*
X29974500Y-79403899D01*
X29974500Y-79409010D01*
X29977639Y-79427870D01*
X29978461Y-79433649D01*
X29982184Y-79465102D01*
X29984424Y-79484027D01*
X29988346Y-79492194D01*
X29989833Y-79501130D01*
X30006364Y-79531766D01*
X30013922Y-79545774D01*
X30016574Y-79550977D01*
X30038537Y-79596717D01*
X30042094Y-79600948D01*
X30043980Y-79602834D01*
X30045751Y-79604764D01*
X30045779Y-79604817D01*
X30045652Y-79604934D01*
X30046143Y-79605491D01*
X30049194Y-79611146D01*
X30056723Y-79618106D01*
X30056724Y-79618107D01*
X30088381Y-79647370D01*
X30091891Y-79650745D01*
X31013181Y-80572036D01*
X31046666Y-80633359D01*
X31049500Y-80659717D01*
X31049500Y-82939670D01*
X31029815Y-83006709D01*
X30977011Y-83052464D01*
X30903221Y-83061652D01*
X30895209Y-83060189D01*
X30881922Y-83062980D01*
X30879000Y-83074260D01*
X30879000Y-83975000D01*
X30859315Y-84042039D01*
X30806511Y-84087794D01*
X30755000Y-84099000D01*
X30495000Y-84099000D01*
X30427961Y-84079315D01*
X30382206Y-84026511D01*
X30371000Y-83975000D01*
X30371000Y-83076291D01*
X30366724Y-83061728D01*
X30356375Y-83059899D01*
X30346744Y-83061658D01*
X30234096Y-83094386D01*
X30164226Y-83094187D01*
X30105556Y-83056245D01*
X30076712Y-82992607D01*
X30075500Y-82975310D01*
X30075500Y-81703285D01*
X30078047Y-81679359D01*
X30078113Y-81677951D01*
X30080270Y-81667934D01*
X30079066Y-81657759D01*
X30079066Y-81657754D01*
X30076360Y-81634891D01*
X30076013Y-81629014D01*
X30075921Y-81629022D01*
X30075500Y-81623927D01*
X30075500Y-81618807D01*
X30074660Y-81613760D01*
X30074659Y-81613749D01*
X30072367Y-81599981D01*
X30071544Y-81594198D01*
X30066783Y-81553970D01*
X30066781Y-81553963D01*
X30065577Y-81543791D01*
X30061654Y-81535622D01*
X30060167Y-81526687D01*
X30055303Y-81517672D01*
X30055301Y-81517667D01*
X30036074Y-81482033D01*
X30033422Y-81476830D01*
X30032615Y-81475149D01*
X30011463Y-81431101D01*
X30007906Y-81426869D01*
X30005996Y-81424959D01*
X30004251Y-81423057D01*
X30004216Y-81422992D01*
X30004342Y-81422876D01*
X30003857Y-81422326D01*
X30000806Y-81416671D01*
X29990534Y-81407175D01*
X29961619Y-81380447D01*
X29958109Y-81377072D01*
X29036819Y-80455782D01*
X29003334Y-80394459D01*
X29000500Y-80368101D01*
X29000500Y-79068112D01*
X29020185Y-79001073D01*
X29036819Y-78980431D01*
X29114859Y-78902391D01*
X29171017Y-78792175D01*
X29181165Y-78728106D01*
X29184737Y-78705555D01*
X29184737Y-78705550D01*
X29185500Y-78700735D01*
X29185499Y-78359266D01*
X29184739Y-78354465D01*
X29184738Y-78354457D01*
X29178517Y-78315177D01*
X29187474Y-78245883D01*
X29213310Y-78208100D01*
X29305571Y-78115839D01*
X29315062Y-78103603D01*
X29390460Y-77976112D01*
X29396608Y-77961904D01*
X29431699Y-77841120D01*
X29431660Y-77827242D01*
X29424507Y-77824000D01*
X27831157Y-77824000D01*
X27817840Y-77827910D01*
X27816722Y-77835685D01*
X27853392Y-77961904D01*
X27859540Y-77976112D01*
X27934938Y-78103603D01*
X27944429Y-78115839D01*
X28036691Y-78208101D01*
X28070176Y-78269424D01*
X28071483Y-78315177D01*
X28064500Y-78359265D01*
X28064501Y-78700734D01*
X28065262Y-78705538D01*
X28065262Y-78705540D01*
X28068836Y-78728106D01*
X28078983Y-78792175D01*
X28135141Y-78902391D01*
X28213181Y-78980431D01*
X28246666Y-79041754D01*
X28249500Y-79068112D01*
X28249500Y-80194101D01*
X28229815Y-80261140D01*
X28177011Y-80306895D01*
X28107853Y-80316839D01*
X28044297Y-80287814D01*
X28037819Y-80281782D01*
X26874325Y-79118288D01*
X26840840Y-79056965D01*
X26845824Y-78987273D01*
X26874322Y-78942929D01*
X26882956Y-78934294D01*
X26889859Y-78927391D01*
X26946017Y-78817175D01*
X26951504Y-78782533D01*
X26959737Y-78730555D01*
X26959737Y-78730550D01*
X26960500Y-78725735D01*
X26960499Y-78384266D01*
X26959739Y-78379465D01*
X26959738Y-78379457D01*
X26953517Y-78340177D01*
X26962474Y-78270883D01*
X26988310Y-78233100D01*
X27080571Y-78140839D01*
X27090062Y-78128603D01*
X27165460Y-78001112D01*
X27171608Y-77986904D01*
X27206699Y-77866120D01*
X27206660Y-77852242D01*
X27199507Y-77849000D01*
X26270000Y-77849000D01*
X26202961Y-77829315D01*
X26157206Y-77776511D01*
X26146000Y-77725000D01*
X26146000Y-77323170D01*
X26654000Y-77323170D01*
X26658404Y-77338169D01*
X26659774Y-77339356D01*
X26667332Y-77341000D01*
X27193843Y-77341000D01*
X27207160Y-77337090D01*
X27208278Y-77329315D01*
X27199436Y-77298880D01*
X27818301Y-77298880D01*
X27818340Y-77312758D01*
X27825493Y-77316000D01*
X28353170Y-77316000D01*
X28368169Y-77311596D01*
X28369356Y-77310226D01*
X28371000Y-77302668D01*
X28371000Y-77298170D01*
X28879000Y-77298170D01*
X28883404Y-77313169D01*
X28884774Y-77314356D01*
X28892332Y-77316000D01*
X29418843Y-77316000D01*
X29432160Y-77312090D01*
X29433278Y-77304315D01*
X29396608Y-77178096D01*
X29390460Y-77163888D01*
X29315062Y-77036397D01*
X29305571Y-77024161D01*
X29200839Y-76919429D01*
X29188603Y-76909938D01*
X29061112Y-76834540D01*
X29046904Y-76828392D01*
X28903259Y-76786659D01*
X28895210Y-76785189D01*
X28881922Y-76787980D01*
X28879000Y-76799260D01*
X28879000Y-77298170D01*
X28371000Y-77298170D01*
X28371000Y-76801291D01*
X28366724Y-76786728D01*
X28356375Y-76784899D01*
X28346741Y-76786659D01*
X28203096Y-76828392D01*
X28188888Y-76834540D01*
X28061397Y-76909938D01*
X28049161Y-76919429D01*
X27944429Y-77024161D01*
X27934938Y-77036397D01*
X27859540Y-77163888D01*
X27853392Y-77178096D01*
X27818301Y-77298880D01*
X27199436Y-77298880D01*
X27171608Y-77203096D01*
X27165460Y-77188888D01*
X27090062Y-77061397D01*
X27080571Y-77049161D01*
X26975839Y-76944429D01*
X26963603Y-76934938D01*
X26836112Y-76859540D01*
X26821904Y-76853392D01*
X26678259Y-76811659D01*
X26670210Y-76810189D01*
X26656922Y-76812980D01*
X26654000Y-76824260D01*
X26654000Y-77323170D01*
X26146000Y-77323170D01*
X26146000Y-76826291D01*
X26141724Y-76811728D01*
X26131375Y-76809899D01*
X26121741Y-76811659D01*
X25978096Y-76853392D01*
X25963888Y-76859540D01*
X25837621Y-76934214D01*
X25769897Y-76951397D01*
X25703634Y-76929237D01*
X25659871Y-76874771D01*
X25650500Y-76827482D01*
X25650500Y-74435346D01*
X25670185Y-74368307D01*
X25722989Y-74322552D01*
X25746817Y-74314476D01*
X25839681Y-74293207D01*
X25846968Y-74291538D01*
X25987625Y-74220795D01*
X25993306Y-74215943D01*
X25993309Y-74215941D01*
X26101666Y-74123395D01*
X26101667Y-74123394D01*
X26107348Y-74118542D01*
X26125208Y-74093688D01*
X26170554Y-74030581D01*
X26199224Y-73990683D01*
X26257950Y-73844598D01*
X26259003Y-73837201D01*
X26279562Y-73692744D01*
X26279562Y-73692740D01*
X26280134Y-73688723D01*
X26280278Y-73675000D01*
X26277074Y-73648522D01*
X26262262Y-73526119D01*
X26262261Y-73526115D01*
X26261363Y-73518694D01*
X26252044Y-73494032D01*
X26208354Y-73378408D01*
X26208352Y-73378405D01*
X26205710Y-73371412D01*
X26170683Y-73320448D01*
X26120768Y-73247821D01*
X26120765Y-73247818D01*
X26116531Y-73241657D01*
X25998976Y-73136919D01*
X25859831Y-73063245D01*
X25707128Y-73024889D01*
X25625329Y-73024461D01*
X25557158Y-73024104D01*
X25557157Y-73024104D01*
X25549684Y-73024065D01*
X25542421Y-73025809D01*
X25542418Y-73025809D01*
X25473136Y-73042443D01*
X25396588Y-73060820D01*
X25256679Y-73133032D01*
X25138034Y-73236533D01*
X25047501Y-73365348D01*
X24990309Y-73512039D01*
X24969758Y-73668138D01*
X24970578Y-73675566D01*
X24970578Y-73675569D01*
X24977498Y-73738251D01*
X24965289Y-73807045D01*
X24951625Y-73828626D01*
X24941397Y-73841600D01*
X24938395Y-73850149D01*
X24933128Y-73857519D01*
X24930191Y-73867340D01*
X24918594Y-73906118D01*
X24916788Y-73911676D01*
X24910233Y-73930344D01*
X24899977Y-73959548D01*
X24899500Y-73965055D01*
X24899500Y-73967739D01*
X24899387Y-73970341D01*
X24899365Y-73970415D01*
X24899196Y-73970408D01*
X24899150Y-73971133D01*
X24897310Y-73977287D01*
X24897712Y-73987526D01*
X24897712Y-73987529D01*
X24899404Y-74030581D01*
X24899500Y-74035449D01*
X24899500Y-79396716D01*
X24896953Y-79420651D01*
X24896887Y-79422052D01*
X24894731Y-79432066D01*
X24895935Y-79442239D01*
X24898641Y-79465102D01*
X24898988Y-79470984D01*
X24899078Y-79470977D01*
X24899500Y-79476082D01*
X24899500Y-79481193D01*
X24900339Y-79486233D01*
X24902639Y-79500053D01*
X24903461Y-79505832D01*
X24908219Y-79546032D01*
X24909424Y-79556210D01*
X24913346Y-79564377D01*
X24914833Y-79573313D01*
X24930109Y-79601624D01*
X24938922Y-79617957D01*
X24941574Y-79623160D01*
X24963537Y-79668900D01*
X24967094Y-79673131D01*
X24968980Y-79675017D01*
X24970751Y-79676947D01*
X24970779Y-79677000D01*
X24970652Y-79677117D01*
X24971143Y-79677674D01*
X24974194Y-79683329D01*
X24981723Y-79690289D01*
X24981724Y-79690290D01*
X25013381Y-79719553D01*
X25016891Y-79722928D01*
X25556782Y-80262819D01*
X25590267Y-80324142D01*
X25585283Y-80393834D01*
X25543411Y-80449767D01*
X25477947Y-80474184D01*
X25469101Y-80474500D01*
X25203284Y-80474500D01*
X25179349Y-80471953D01*
X25177948Y-80471887D01*
X25167934Y-80469731D01*
X25157761Y-80470935D01*
X25134898Y-80473641D01*
X25129010Y-80473988D01*
X25129018Y-80474079D01*
X25123923Y-80474500D01*
X25118807Y-80474500D01*
X25113764Y-80475339D01*
X25113756Y-80475340D01*
X25099928Y-80477641D01*
X25094150Y-80478463D01*
X25066207Y-80481771D01*
X25043791Y-80484424D01*
X25035625Y-80488345D01*
X25026687Y-80489833D01*
X25017671Y-80494698D01*
X25017667Y-80494699D01*
X24982023Y-80513931D01*
X24976818Y-80516583D01*
X24938135Y-80535158D01*
X24938130Y-80535161D01*
X24931100Y-80538537D01*
X24926869Y-80542094D01*
X24924984Y-80543979D01*
X24923053Y-80545751D01*
X24923000Y-80545779D01*
X24922883Y-80545652D01*
X24922326Y-80546143D01*
X24916671Y-80549194D01*
X24909711Y-80556723D01*
X24909710Y-80556724D01*
X24880447Y-80588381D01*
X24877072Y-80591891D01*
X24835331Y-80633632D01*
X24803945Y-80656436D01*
X24756304Y-80680710D01*
X24756301Y-80680712D01*
X24747609Y-80685141D01*
X24660141Y-80772609D01*
X24655712Y-80781301D01*
X24655710Y-80781304D01*
X24631436Y-80828945D01*
X24608632Y-80860331D01*
X24122161Y-81346802D01*
X24103432Y-81361929D01*
X24102398Y-81362870D01*
X24093790Y-81368428D01*
X24087448Y-81376473D01*
X24073193Y-81394555D01*
X24069280Y-81398958D01*
X24069350Y-81399017D01*
X24066043Y-81402920D01*
X24062425Y-81406538D01*
X24059451Y-81410700D01*
X24051321Y-81422077D01*
X24047811Y-81426752D01*
X24021378Y-81460281D01*
X23964415Y-81500741D01*
X23894621Y-81503981D01*
X23834154Y-81468974D01*
X23802213Y-81406832D01*
X23800000Y-81383512D01*
X23800000Y-65136835D01*
X23802383Y-65112644D01*
X23802515Y-65111980D01*
X23804898Y-65100000D01*
X23802515Y-65088021D01*
X23802515Y-65084640D01*
X23803295Y-65070757D01*
X23812225Y-64991500D01*
X23818402Y-64964434D01*
X23849853Y-64874549D01*
X23861901Y-64849533D01*
X23912562Y-64768908D01*
X23929874Y-64747200D01*
X23997200Y-64679874D01*
X24018908Y-64662562D01*
X24099533Y-64611901D01*
X24124549Y-64599853D01*
X24214434Y-64568402D01*
X24241497Y-64562226D01*
X24297749Y-64555887D01*
X24320757Y-64553295D01*
X24334640Y-64552515D01*
X24338021Y-64552515D01*
X24350000Y-64554898D01*
X24361980Y-64552515D01*
X24362644Y-64552383D01*
X24386835Y-64550000D01*
X27559766Y-64550000D01*
X27626805Y-64569685D01*
G37*
G04 #@! TD.AperFunction*
G04 #@! TA.AperFunction,Conductor*
G36*
X40317205Y-77641948D02*
G01*
X40366528Y-77691436D01*
X40375223Y-77711437D01*
X40403872Y-77797309D01*
X40409938Y-77810259D01*
X40491533Y-77942117D01*
X40500421Y-77953330D01*
X40610166Y-78062884D01*
X40621389Y-78071747D01*
X40697468Y-78118643D01*
X40744207Y-78170577D01*
X40755449Y-78239537D01*
X40731627Y-78298564D01*
X40652917Y-78403588D01*
X40649814Y-78411864D01*
X40649814Y-78411865D01*
X40608463Y-78522168D01*
X40608462Y-78522172D01*
X40605734Y-78529449D01*
X40599500Y-78586835D01*
X40599501Y-79113164D01*
X40599864Y-79116502D01*
X40599864Y-79116507D01*
X40604104Y-79155542D01*
X40605734Y-79170551D01*
X40652917Y-79296412D01*
X40658213Y-79303478D01*
X40662458Y-79311233D01*
X40659884Y-79312642D01*
X40679170Y-79364271D01*
X40679490Y-79373179D01*
X40679490Y-84194496D01*
X40659805Y-84261535D01*
X40607001Y-84307290D01*
X40537843Y-84317234D01*
X40520895Y-84313572D01*
X40428259Y-84286659D01*
X40420210Y-84285189D01*
X40406922Y-84287980D01*
X40404000Y-84299260D01*
X40404000Y-85200000D01*
X40384315Y-85267039D01*
X40331511Y-85312794D01*
X40280000Y-85324000D01*
X40020000Y-85324000D01*
X39952961Y-85304315D01*
X39907206Y-85251511D01*
X39896000Y-85200000D01*
X39896000Y-84301291D01*
X39891724Y-84286728D01*
X39881375Y-84284899D01*
X39871741Y-84286659D01*
X39728096Y-84328392D01*
X39713888Y-84334540D01*
X39662621Y-84364859D01*
X39594896Y-84382042D01*
X39528634Y-84359882D01*
X39484871Y-84305415D01*
X39475500Y-84258127D01*
X39475500Y-79699499D01*
X39495185Y-79632460D01*
X39547989Y-79586705D01*
X39599500Y-79575499D01*
X39750664Y-79575499D01*
X39754005Y-79575136D01*
X39754007Y-79575136D01*
X39800318Y-79570106D01*
X39800319Y-79570106D01*
X39808051Y-79569266D01*
X39910155Y-79530989D01*
X39925635Y-79525186D01*
X39925636Y-79525186D01*
X39933912Y-79522083D01*
X40041472Y-79441472D01*
X40122083Y-79333912D01*
X40125599Y-79324533D01*
X40166537Y-79215332D01*
X40166538Y-79215328D01*
X40169266Y-79208051D01*
X40175500Y-79150665D01*
X40175499Y-78624336D01*
X40174899Y-78618807D01*
X40170106Y-78574682D01*
X40170106Y-78574681D01*
X40169266Y-78566949D01*
X40122083Y-78441088D01*
X40041472Y-78333528D01*
X39933912Y-78252917D01*
X39913170Y-78245141D01*
X39835726Y-78216109D01*
X39779862Y-78174145D01*
X39755554Y-78108640D01*
X39770520Y-78040392D01*
X39820008Y-77991069D01*
X39835726Y-77983891D01*
X39925635Y-77950186D01*
X39925636Y-77950186D01*
X39933912Y-77947083D01*
X40041472Y-77866472D01*
X40122083Y-77758912D01*
X40141487Y-77707152D01*
X40183452Y-77651288D01*
X40248957Y-77626981D01*
X40317205Y-77641948D01*
G37*
G04 #@! TD.AperFunction*
G04 #@! TA.AperFunction,Conductor*
G36*
X42848924Y-85600469D02*
G01*
X42889496Y-85658730D01*
X42896000Y-85698688D01*
X42896000Y-92555967D01*
X42875998Y-92624088D01*
X42822342Y-92670581D01*
X42752068Y-92680685D01*
X42722194Y-92669233D01*
X42721085Y-92671910D01*
X42709621Y-92667161D01*
X42699301Y-92660266D01*
X42625067Y-92645500D01*
X42100085Y-92645500D01*
X41574934Y-92645501D01*
X41539182Y-92652612D01*
X41512874Y-92657844D01*
X41512872Y-92657845D01*
X41500699Y-92660266D01*
X41490379Y-92667161D01*
X41490378Y-92667162D01*
X41483271Y-92671911D01*
X41416516Y-92716516D01*
X41360266Y-92800699D01*
X41345500Y-92874933D01*
X41345501Y-94425066D01*
X41360266Y-94499301D01*
X41416516Y-94583484D01*
X41500699Y-94639734D01*
X41574933Y-94654500D01*
X42099915Y-94654500D01*
X42625066Y-94654499D01*
X42660818Y-94647388D01*
X42687126Y-94642156D01*
X42687128Y-94642155D01*
X42699301Y-94639734D01*
X42709621Y-94632838D01*
X42721087Y-94628089D01*
X42722766Y-94632142D01*
X42767716Y-94618054D01*
X42836188Y-94636818D01*
X42883646Y-94689622D01*
X42896000Y-94744033D01*
X42896000Y-101024699D01*
X42875998Y-101092820D01*
X42822342Y-101139313D01*
X42752068Y-101149417D01*
X42687488Y-101119923D01*
X42680594Y-101113483D01*
X42630727Y-101063266D01*
X42630723Y-101063263D01*
X42625764Y-101058269D01*
X42482844Y-100967569D01*
X42455442Y-100957812D01*
X42330016Y-100913149D01*
X42330011Y-100913148D01*
X42323381Y-100910787D01*
X42316395Y-100909954D01*
X42316391Y-100909953D01*
X42197287Y-100895751D01*
X42155301Y-100890745D01*
X42148298Y-100891481D01*
X42148297Y-100891481D01*
X41993965Y-100907701D01*
X41993961Y-100907702D01*
X41986957Y-100908438D01*
X41980286Y-100910709D01*
X41833387Y-100960717D01*
X41833384Y-100960718D01*
X41826717Y-100962988D01*
X41820719Y-100966678D01*
X41820717Y-100966679D01*
X41688543Y-101047993D01*
X41688541Y-101047995D01*
X41682544Y-101051684D01*
X41677511Y-101056613D01*
X41590010Y-101142301D01*
X41561605Y-101170117D01*
X41469909Y-101312400D01*
X41467498Y-101319025D01*
X41414425Y-101464840D01*
X41414424Y-101464845D01*
X41412015Y-101471463D01*
X41390800Y-101639399D01*
X41407318Y-101807862D01*
X41460748Y-101968479D01*
X41464397Y-101974504D01*
X41532467Y-102086900D01*
X41548435Y-102113267D01*
X41553326Y-102118332D01*
X41553327Y-102118333D01*
X41615266Y-102182473D01*
X41648198Y-102245370D01*
X41641898Y-102316087D01*
X41598366Y-102372171D01*
X41524629Y-102396000D01*
X41319879Y-102396000D01*
X41251758Y-102375998D01*
X41205265Y-102322342D01*
X41195725Y-102291488D01*
X41189373Y-102254784D01*
X40808401Y-100053604D01*
X40808358Y-100053108D01*
X40808976Y-100050000D01*
X40800048Y-100005112D01*
X40799473Y-100002022D01*
X40797068Y-99988126D01*
X40797067Y-99988124D01*
X40796013Y-99982032D01*
X40794922Y-99979200D01*
X40794745Y-99978453D01*
X40791684Y-99963063D01*
X40791683Y-99963061D01*
X40789263Y-99950894D01*
X40782371Y-99940579D01*
X40780342Y-99935681D01*
X40776155Y-99927607D01*
X40773317Y-99923121D01*
X40768856Y-99911542D01*
X40760303Y-99902551D01*
X40760302Y-99902549D01*
X40756533Y-99898587D01*
X40743064Y-99881751D01*
X40740020Y-99877195D01*
X40740017Y-99877192D01*
X40733124Y-99866876D01*
X40722804Y-99859981D01*
X40719048Y-99856225D01*
X40712095Y-99850372D01*
X40707763Y-99847318D01*
X40699211Y-99838328D01*
X40687869Y-99833294D01*
X40687867Y-99833293D01*
X40682865Y-99831073D01*
X40663974Y-99820671D01*
X40659423Y-99817630D01*
X40659422Y-99817630D01*
X40649106Y-99810737D01*
X40636934Y-99808316D01*
X40632035Y-99806287D01*
X40623370Y-99803540D01*
X40618198Y-99802376D01*
X40606850Y-99797340D01*
X40594443Y-99797030D01*
X40594441Y-99797030D01*
X40578754Y-99796639D01*
X40577991Y-99796592D01*
X40575017Y-99796000D01*
X40554761Y-99796000D01*
X40551616Y-99795961D01*
X40513815Y-99795017D01*
X40513813Y-99795017D01*
X40505834Y-99794818D01*
X40502878Y-99795957D01*
X40502375Y-99796000D01*
X30082537Y-99796000D01*
X30061118Y-99794166D01*
X30055621Y-99793218D01*
X30043390Y-99791108D01*
X30031284Y-99793839D01*
X30031283Y-99793839D01*
X29998840Y-99801158D01*
X29995702Y-99801824D01*
X29950894Y-99810737D01*
X29948100Y-99812604D01*
X29944820Y-99813344D01*
X29936142Y-99819469D01*
X29936141Y-99819469D01*
X29907505Y-99839679D01*
X29904854Y-99841500D01*
X29866876Y-99866876D01*
X29865009Y-99869670D01*
X29862262Y-99871609D01*
X29856591Y-99880584D01*
X29856590Y-99880585D01*
X29837858Y-99910231D01*
X29836105Y-99912928D01*
X29810737Y-99950894D01*
X29808316Y-99963067D01*
X29807228Y-99968535D01*
X29801251Y-99989185D01*
X28906618Y-102315231D01*
X28863495Y-102371631D01*
X28796726Y-102395764D01*
X28789016Y-102396000D01*
X25175788Y-102396000D01*
X25107667Y-102375998D01*
X25061174Y-102322342D01*
X25051070Y-102252068D01*
X25080564Y-102187488D01*
X25088897Y-102178754D01*
X25126532Y-102142916D01*
X25126539Y-102142908D01*
X25131638Y-102138052D01*
X25135539Y-102132181D01*
X25221410Y-102002935D01*
X25221411Y-102002933D01*
X25225311Y-101997063D01*
X25285420Y-101838824D01*
X25308978Y-101671200D01*
X25309274Y-101650000D01*
X25290406Y-101481784D01*
X25234738Y-101321929D01*
X25145038Y-101178379D01*
X25025764Y-101058269D01*
X24882844Y-100967569D01*
X24855442Y-100957812D01*
X24730016Y-100913149D01*
X24730011Y-100913148D01*
X24723381Y-100910787D01*
X24716395Y-100909954D01*
X24716391Y-100909953D01*
X24597287Y-100895751D01*
X24555301Y-100890745D01*
X24548298Y-100891481D01*
X24548297Y-100891481D01*
X24393965Y-100907701D01*
X24393961Y-100907702D01*
X24386957Y-100908438D01*
X24380286Y-100910709D01*
X24233387Y-100960717D01*
X24233384Y-100960718D01*
X24226717Y-100962988D01*
X24220719Y-100966678D01*
X24220717Y-100966679D01*
X24088543Y-101047993D01*
X24088541Y-101047995D01*
X24082544Y-101051684D01*
X24018158Y-101114736D01*
X23955493Y-101148107D01*
X23884734Y-101142301D01*
X23828347Y-101099162D01*
X23804234Y-101032386D01*
X23804000Y-101024713D01*
X23804000Y-94744033D01*
X23824002Y-94675912D01*
X23877658Y-94629419D01*
X23947932Y-94619315D01*
X23977806Y-94630767D01*
X23978915Y-94628090D01*
X23990379Y-94632839D01*
X24000699Y-94639734D01*
X24074933Y-94654500D01*
X24599915Y-94654500D01*
X25125066Y-94654499D01*
X25160818Y-94647388D01*
X25187126Y-94642156D01*
X25187128Y-94642155D01*
X25199301Y-94639734D01*
X25209621Y-94632839D01*
X25209622Y-94632838D01*
X25273168Y-94590377D01*
X25283484Y-94583484D01*
X25339734Y-94499301D01*
X25354500Y-94425067D01*
X25354499Y-92874934D01*
X25339734Y-92800699D01*
X25283484Y-92716516D01*
X25199301Y-92660266D01*
X25125067Y-92645500D01*
X24600085Y-92645500D01*
X24074934Y-92645501D01*
X24039182Y-92652612D01*
X24012874Y-92657844D01*
X24012872Y-92657845D01*
X24000699Y-92660266D01*
X23990379Y-92667162D01*
X23978913Y-92671911D01*
X23977234Y-92667858D01*
X23932284Y-92681946D01*
X23863812Y-92663182D01*
X23816354Y-92610378D01*
X23804000Y-92555967D01*
X23804000Y-87513727D01*
X23824002Y-87445606D01*
X23877658Y-87399113D01*
X23947932Y-87389009D01*
X24012512Y-87418503D01*
X24033520Y-87442695D01*
X24035219Y-87446232D01*
X24038814Y-87450508D01*
X24040736Y-87452430D01*
X24042509Y-87454363D01*
X24042552Y-87454442D01*
X24042428Y-87454555D01*
X24042904Y-87455095D01*
X24045990Y-87460814D01*
X24053635Y-87467881D01*
X24085586Y-87497416D01*
X24089152Y-87500846D01*
X25118522Y-88530216D01*
X25133664Y-88548964D01*
X25134779Y-88550189D01*
X25140429Y-88558940D01*
X25148607Y-88565387D01*
X25148609Y-88565389D01*
X25166800Y-88579729D01*
X25171241Y-88583675D01*
X25171303Y-88583602D01*
X25175267Y-88586961D01*
X25178944Y-88590638D01*
X25194692Y-88601892D01*
X25199362Y-88605398D01*
X25239647Y-88637156D01*
X25248281Y-88640188D01*
X25255734Y-88645514D01*
X25302554Y-88659516D01*
X25304858Y-88660205D01*
X25310507Y-88662040D01*
X25358851Y-88679018D01*
X25364416Y-88679500D01*
X25367123Y-88679500D01*
X25369755Y-88679614D01*
X25369856Y-88679644D01*
X25369849Y-88679807D01*
X25370549Y-88679851D01*
X25376778Y-88681714D01*
X25427559Y-88679718D01*
X25430650Y-88679597D01*
X25435598Y-88679500D01*
X26115616Y-88679500D01*
X26183737Y-88699502D01*
X26204711Y-88716405D01*
X26565212Y-89076906D01*
X26599238Y-89139218D01*
X26594173Y-89210033D01*
X26551626Y-89266869D01*
X26485106Y-89291680D01*
X26476117Y-89292001D01*
X26405331Y-89292001D01*
X26398510Y-89292371D01*
X26347648Y-89297895D01*
X26332396Y-89301521D01*
X26211946Y-89346676D01*
X26196351Y-89355214D01*
X26094276Y-89431715D01*
X26081718Y-89444273D01*
X26043651Y-89495066D01*
X25986791Y-89537581D01*
X25942824Y-89545501D01*
X25924934Y-89545501D01*
X25889182Y-89552612D01*
X25862874Y-89557844D01*
X25862872Y-89557845D01*
X25850699Y-89560266D01*
X25840379Y-89567161D01*
X25840378Y-89567162D01*
X25779985Y-89607516D01*
X25766516Y-89616516D01*
X25710266Y-89700699D01*
X25695500Y-89774933D01*
X25695501Y-91125066D01*
X25710266Y-91199301D01*
X25766516Y-91283484D01*
X25850699Y-91339734D01*
X25924933Y-91354500D01*
X25942825Y-91354500D01*
X26010946Y-91374502D01*
X26043652Y-91404935D01*
X26081719Y-91455728D01*
X26094276Y-91468285D01*
X26196351Y-91544786D01*
X26211946Y-91553324D01*
X26332394Y-91598478D01*
X26347649Y-91602105D01*
X26398514Y-91607631D01*
X26405328Y-91608000D01*
X26431885Y-91608000D01*
X26447124Y-91603525D01*
X26448329Y-91602135D01*
X26450000Y-91594452D01*
X26450000Y-91296989D01*
X26471236Y-91226986D01*
X26482839Y-91209621D01*
X26482840Y-91209618D01*
X26486283Y-91204466D01*
X26486290Y-91204457D01*
X26489735Y-91199301D01*
X26490196Y-91199609D01*
X26528138Y-91152525D01*
X26595501Y-91130103D01*
X26664293Y-91147661D01*
X26709694Y-91196423D01*
X26710266Y-91199301D01*
X26717160Y-91209618D01*
X26717161Y-91209621D01*
X26728764Y-91226986D01*
X26750000Y-91296989D01*
X26750000Y-91589884D01*
X26754475Y-91605123D01*
X26755865Y-91606328D01*
X26763548Y-91607999D01*
X26794669Y-91607999D01*
X26801490Y-91607629D01*
X26852352Y-91602105D01*
X26867604Y-91598479D01*
X26988054Y-91553324D01*
X27003652Y-91544784D01*
X27018937Y-91533329D01*
X27085443Y-91508482D01*
X27154826Y-91523536D01*
X27205055Y-91573711D01*
X27220500Y-91634156D01*
X27220500Y-93805187D01*
X27200498Y-93873308D01*
X27177330Y-93900135D01*
X27110039Y-93958838D01*
X27018950Y-94088444D01*
X27016190Y-94095524D01*
X26964474Y-94228169D01*
X26961406Y-94236037D01*
X26940729Y-94393096D01*
X26943576Y-94418880D01*
X26952455Y-94499301D01*
X26958113Y-94550553D01*
X26960723Y-94557684D01*
X26960723Y-94557686D01*
X26996152Y-94654500D01*
X27012553Y-94699319D01*
X27016789Y-94705622D01*
X27016789Y-94705623D01*
X27042600Y-94744033D01*
X27100908Y-94830805D01*
X27106527Y-94835918D01*
X27106528Y-94835919D01*
X27117903Y-94846269D01*
X27218076Y-94937419D01*
X27357293Y-95013008D01*
X27510522Y-95053207D01*
X27594477Y-95054526D01*
X27661319Y-95055576D01*
X27661322Y-95055576D01*
X27668916Y-95055695D01*
X27823332Y-95020329D01*
X27893742Y-94984917D01*
X27958072Y-94952563D01*
X27958075Y-94952561D01*
X27964855Y-94949151D01*
X27970628Y-94944220D01*
X27970633Y-94944217D01*
X28017658Y-94904054D01*
X28082447Y-94875023D01*
X28152648Y-94885628D01*
X28184288Y-94906671D01*
X28218079Y-94937419D01*
X28357296Y-95013008D01*
X28510525Y-95053207D01*
X28594480Y-95054526D01*
X28661322Y-95055576D01*
X28661325Y-95055576D01*
X28668919Y-95055695D01*
X28823335Y-95020329D01*
X28893745Y-94984917D01*
X28958075Y-94952563D01*
X28958078Y-94952561D01*
X28964858Y-94949151D01*
X28970631Y-94944220D01*
X28970636Y-94944217D01*
X29017661Y-94904054D01*
X29082450Y-94875023D01*
X29152651Y-94885628D01*
X29184291Y-94906671D01*
X29218082Y-94937419D01*
X29357299Y-95013008D01*
X29510528Y-95053207D01*
X29594483Y-95054526D01*
X29661325Y-95055576D01*
X29661328Y-95055576D01*
X29668922Y-95055695D01*
X29823338Y-95020329D01*
X29893748Y-94984917D01*
X29958078Y-94952563D01*
X29958081Y-94952561D01*
X29964861Y-94949151D01*
X29970634Y-94944220D01*
X29970639Y-94944217D01*
X30017664Y-94904054D01*
X30082453Y-94875023D01*
X30152654Y-94885628D01*
X30184294Y-94906671D01*
X30218085Y-94937419D01*
X30357302Y-95013008D01*
X30510531Y-95053207D01*
X30594486Y-95054526D01*
X30661328Y-95055576D01*
X30661331Y-95055576D01*
X30668925Y-95055695D01*
X30823341Y-95020329D01*
X30893751Y-94984917D01*
X30958081Y-94952563D01*
X30958084Y-94952561D01*
X30964864Y-94949151D01*
X30970635Y-94944222D01*
X30970638Y-94944220D01*
X31079545Y-94851204D01*
X31079545Y-94851203D01*
X31085323Y-94846269D01*
X31177764Y-94717624D01*
X31236851Y-94570641D01*
X31258449Y-94418880D01*
X31258590Y-94417891D01*
X31258590Y-94417888D01*
X31259171Y-94413807D01*
X31259316Y-94400000D01*
X31240285Y-94242733D01*
X31184289Y-94094546D01*
X31094562Y-93963992D01*
X30976284Y-93858611D01*
X30836283Y-93784484D01*
X30682642Y-93745892D01*
X30675044Y-93745852D01*
X30675042Y-93745852D01*
X30606727Y-93745494D01*
X30538712Y-93725135D01*
X30518293Y-93708591D01*
X29516405Y-92706703D01*
X29482379Y-92644391D01*
X29479500Y-92617608D01*
X29479500Y-91949470D01*
X29499502Y-91881349D01*
X29553158Y-91834856D01*
X29623432Y-91824752D01*
X29688012Y-91854246D01*
X29726495Y-91914312D01*
X29729306Y-91923986D01*
X29730530Y-91934327D01*
X29734493Y-91942579D01*
X29735996Y-91951612D01*
X29740943Y-91960781D01*
X29740944Y-91960783D01*
X29760334Y-91996718D01*
X29763031Y-92002011D01*
X29781785Y-92041068D01*
X29781788Y-92041072D01*
X29785219Y-92048218D01*
X29788814Y-92052494D01*
X29790737Y-92054417D01*
X29792509Y-92056349D01*
X29792552Y-92056428D01*
X29792428Y-92056541D01*
X29792904Y-92057081D01*
X29795990Y-92062800D01*
X29803635Y-92069867D01*
X29835586Y-92099402D01*
X29839152Y-92102832D01*
X31918756Y-94182436D01*
X31952782Y-94244748D01*
X31954583Y-94287977D01*
X31940744Y-94393096D01*
X31943591Y-94418880D01*
X31952470Y-94499301D01*
X31958128Y-94550553D01*
X31960738Y-94557684D01*
X31960738Y-94557686D01*
X31996167Y-94654500D01*
X32012568Y-94699319D01*
X32016804Y-94705622D01*
X32016804Y-94705623D01*
X32042615Y-94744033D01*
X32100923Y-94830805D01*
X32106542Y-94835918D01*
X32106543Y-94835919D01*
X32117918Y-94846269D01*
X32218091Y-94937419D01*
X32357308Y-95013008D01*
X32510537Y-95053207D01*
X32594492Y-95054526D01*
X32661334Y-95055576D01*
X32661337Y-95055576D01*
X32668931Y-95055695D01*
X32823347Y-95020329D01*
X32893757Y-94984917D01*
X32958087Y-94952563D01*
X32958090Y-94952561D01*
X32964870Y-94949151D01*
X32970641Y-94944222D01*
X32970644Y-94944220D01*
X33079551Y-94851204D01*
X33079551Y-94851203D01*
X33085329Y-94846269D01*
X33177770Y-94717624D01*
X33236857Y-94570641D01*
X33258455Y-94418880D01*
X33258596Y-94417891D01*
X33258596Y-94417888D01*
X33259177Y-94413807D01*
X33259322Y-94400000D01*
X33240291Y-94242733D01*
X33184295Y-94094546D01*
X33094568Y-93963992D01*
X32976290Y-93858611D01*
X32836289Y-93784484D01*
X32682648Y-93745892D01*
X32675050Y-93745852D01*
X32675048Y-93745852D01*
X32606733Y-93745494D01*
X32538718Y-93725135D01*
X32518299Y-93708591D01*
X30632802Y-91823094D01*
X30598776Y-91760782D01*
X30603841Y-91689967D01*
X30646388Y-91633131D01*
X30712908Y-91608320D01*
X30721897Y-91607999D01*
X30794669Y-91607999D01*
X30801490Y-91607629D01*
X30852352Y-91602105D01*
X30867604Y-91598479D01*
X30988054Y-91553324D01*
X31003649Y-91544786D01*
X31105724Y-91468285D01*
X31118282Y-91455727D01*
X31156349Y-91404934D01*
X31213209Y-91362419D01*
X31257176Y-91354499D01*
X31275066Y-91354499D01*
X31325419Y-91344484D01*
X31374579Y-91344484D01*
X31424933Y-91354500D01*
X31599971Y-91354500D01*
X31775066Y-91354499D01*
X31825419Y-91344484D01*
X31874579Y-91344484D01*
X31924933Y-91354500D01*
X32099971Y-91354500D01*
X32275066Y-91354499D01*
X32325419Y-91344484D01*
X32374579Y-91344484D01*
X32424933Y-91354500D01*
X32599971Y-91354500D01*
X32775066Y-91354499D01*
X32825419Y-91344484D01*
X32874579Y-91344484D01*
X32924933Y-91354500D01*
X33099971Y-91354500D01*
X33275066Y-91354499D01*
X33325419Y-91344484D01*
X33374579Y-91344484D01*
X33424933Y-91354500D01*
X33599971Y-91354500D01*
X33775066Y-91354499D01*
X33825419Y-91344484D01*
X33874579Y-91344484D01*
X33924933Y-91354500D01*
X34099971Y-91354500D01*
X34275066Y-91354499D01*
X34325419Y-91344484D01*
X34374579Y-91344484D01*
X34424933Y-91354500D01*
X34599971Y-91354500D01*
X34775066Y-91354499D01*
X34825419Y-91344484D01*
X34874579Y-91344484D01*
X34924933Y-91354500D01*
X35099971Y-91354500D01*
X35275066Y-91354499D01*
X35325419Y-91344484D01*
X35374579Y-91344484D01*
X35424933Y-91354500D01*
X35599971Y-91354500D01*
X35775066Y-91354499D01*
X35825419Y-91344484D01*
X35874579Y-91344484D01*
X35924933Y-91354500D01*
X36099971Y-91354500D01*
X36275066Y-91354499D01*
X36325419Y-91344484D01*
X36374579Y-91344484D01*
X36424933Y-91354500D01*
X36599971Y-91354500D01*
X36775066Y-91354499D01*
X36825419Y-91344484D01*
X36874579Y-91344484D01*
X36924933Y-91354500D01*
X37099971Y-91354500D01*
X37275066Y-91354499D01*
X37325419Y-91344484D01*
X37374579Y-91344484D01*
X37424933Y-91354500D01*
X37599971Y-91354500D01*
X37775066Y-91354499D01*
X37825419Y-91344484D01*
X37874579Y-91344484D01*
X37924933Y-91354500D01*
X38099971Y-91354500D01*
X38275066Y-91354499D01*
X38325419Y-91344484D01*
X38374579Y-91344484D01*
X38424933Y-91354500D01*
X38599971Y-91354500D01*
X38775066Y-91354499D01*
X38825419Y-91344484D01*
X38874579Y-91344484D01*
X38924933Y-91354500D01*
X39099971Y-91354500D01*
X39275066Y-91354499D01*
X39325419Y-91344484D01*
X39374579Y-91344484D01*
X39424933Y-91354500D01*
X39599971Y-91354500D01*
X39775066Y-91354499D01*
X39825419Y-91344484D01*
X39874579Y-91344484D01*
X39924933Y-91354500D01*
X40099971Y-91354500D01*
X40275066Y-91354499D01*
X40325419Y-91344484D01*
X40374579Y-91344484D01*
X40424933Y-91354500D01*
X40599971Y-91354500D01*
X40775066Y-91354499D01*
X40810818Y-91347388D01*
X40837126Y-91342156D01*
X40837128Y-91342155D01*
X40849301Y-91339734D01*
X40859621Y-91332839D01*
X40859622Y-91332838D01*
X40923168Y-91290377D01*
X40933484Y-91283484D01*
X40989734Y-91199301D01*
X41004500Y-91125067D01*
X41004499Y-89774934D01*
X40989734Y-89700699D01*
X40987466Y-89697305D01*
X40979500Y-89657257D01*
X40979500Y-89209384D01*
X40999502Y-89141263D01*
X41016405Y-89120289D01*
X41930216Y-88206478D01*
X41948964Y-88191336D01*
X41950189Y-88190221D01*
X41958940Y-88184571D01*
X41965387Y-88176393D01*
X41965389Y-88176391D01*
X41979729Y-88158200D01*
X41983675Y-88153759D01*
X41983602Y-88153697D01*
X41986961Y-88149733D01*
X41990638Y-88146056D01*
X42001892Y-88130308D01*
X42005398Y-88125638D01*
X42037156Y-88085353D01*
X42040188Y-88076719D01*
X42045514Y-88069266D01*
X42060203Y-88020150D01*
X42062036Y-88014508D01*
X42076390Y-87973633D01*
X42076390Y-87973632D01*
X42079018Y-87966149D01*
X42079500Y-87960584D01*
X42079500Y-87957876D01*
X42079614Y-87955242D01*
X42079643Y-87955144D01*
X42079807Y-87955151D01*
X42079851Y-87954447D01*
X42081713Y-87948222D01*
X42079597Y-87894365D01*
X42079500Y-87889418D01*
X42079500Y-86712404D01*
X42099502Y-86644283D01*
X42153158Y-86597790D01*
X42185789Y-86587956D01*
X42218273Y-86582811D01*
X42258630Y-86576420D01*
X42258633Y-86576419D01*
X42268427Y-86574868D01*
X42379771Y-86518135D01*
X42468135Y-86429771D01*
X42524868Y-86318427D01*
X42539500Y-86226045D01*
X42539499Y-85883956D01*
X42532171Y-85837688D01*
X42541271Y-85767280D01*
X42567525Y-85728885D01*
X42655484Y-85640926D01*
X42669987Y-85622230D01*
X42672582Y-85624243D01*
X42713443Y-85586095D01*
X42783294Y-85573391D01*
X42848924Y-85600469D01*
G37*
G04 #@! TD.AperFunction*
G04 #@! TA.AperFunction,Conductor*
G36*
X27412460Y-80737233D02*
G01*
X27452505Y-80764199D01*
X28834094Y-82145788D01*
X28868120Y-82208100D01*
X28870999Y-82234883D01*
X28870999Y-84407102D01*
X28850997Y-84475223D01*
X28797341Y-84521716D01*
X28727067Y-84531820D01*
X28709845Y-84528099D01*
X28653356Y-84511687D01*
X28645391Y-84510232D01*
X28631969Y-84513052D01*
X28629000Y-84524513D01*
X28629000Y-85423000D01*
X28608998Y-85491121D01*
X28555342Y-85537614D01*
X28503000Y-85549000D01*
X26035053Y-85549000D01*
X25966932Y-85528998D01*
X25963043Y-85526086D01*
X25953452Y-85524000D01*
X25147000Y-85524000D01*
X25078879Y-85503998D01*
X25032386Y-85450342D01*
X25021000Y-85398000D01*
X25021000Y-84997885D01*
X25529000Y-84997885D01*
X25533475Y-85013124D01*
X25534865Y-85014329D01*
X25542548Y-85016000D01*
X26064947Y-85016000D01*
X26133068Y-85036002D01*
X26136957Y-85038914D01*
X26146548Y-85041000D01*
X26552885Y-85041000D01*
X26568124Y-85036525D01*
X26569329Y-85035135D01*
X26571000Y-85027452D01*
X26571000Y-85022885D01*
X27079000Y-85022885D01*
X27083475Y-85038124D01*
X27084865Y-85039329D01*
X27092548Y-85041000D01*
X28102885Y-85041000D01*
X28118124Y-85036525D01*
X28119329Y-85035135D01*
X28121000Y-85027452D01*
X28121000Y-84526576D01*
X28116656Y-84511781D01*
X28106225Y-84509937D01*
X28096641Y-84511688D01*
X27953216Y-84553357D01*
X27938780Y-84559604D01*
X27811501Y-84634876D01*
X27799074Y-84644516D01*
X27689095Y-84754495D01*
X27626783Y-84788521D01*
X27555968Y-84783456D01*
X27510905Y-84754495D01*
X27400926Y-84644516D01*
X27388499Y-84634876D01*
X27261220Y-84559604D01*
X27246784Y-84553357D01*
X27103359Y-84511688D01*
X27095391Y-84510232D01*
X27081969Y-84513052D01*
X27079000Y-84524513D01*
X27079000Y-85022885D01*
X26571000Y-85022885D01*
X26571000Y-84526576D01*
X26566656Y-84511781D01*
X26556225Y-84509937D01*
X26546641Y-84511688D01*
X26403216Y-84553357D01*
X26388780Y-84559604D01*
X26261501Y-84634876D01*
X26249074Y-84644516D01*
X26150040Y-84743550D01*
X26087728Y-84777576D01*
X26016913Y-84772511D01*
X25961390Y-84731687D01*
X25955484Y-84724074D01*
X25850926Y-84619516D01*
X25838499Y-84609876D01*
X25711220Y-84534604D01*
X25696784Y-84528357D01*
X25553359Y-84486688D01*
X25545391Y-84485232D01*
X25531969Y-84488052D01*
X25529000Y-84499513D01*
X25529000Y-84997885D01*
X25021000Y-84997885D01*
X25021000Y-84501576D01*
X25016656Y-84486781D01*
X25006225Y-84484937D01*
X24996644Y-84486687D01*
X24890654Y-84517481D01*
X24819658Y-84517279D01*
X24760041Y-84478725D01*
X24730732Y-84414060D01*
X24729500Y-84396484D01*
X24729500Y-83013449D01*
X24749502Y-82945328D01*
X24803158Y-82898835D01*
X24878134Y-82889499D01*
X24879607Y-82889768D01*
X24893031Y-82886948D01*
X24896000Y-82875487D01*
X24896000Y-82873424D01*
X25404000Y-82873424D01*
X25408344Y-82888219D01*
X25418775Y-82890063D01*
X25428359Y-82888312D01*
X25571784Y-82846643D01*
X25586220Y-82840396D01*
X25713499Y-82765124D01*
X25725926Y-82755484D01*
X25824960Y-82656450D01*
X25887272Y-82622424D01*
X25958087Y-82627489D01*
X26013610Y-82668313D01*
X26019516Y-82675926D01*
X26124074Y-82780484D01*
X26136501Y-82790124D01*
X26263780Y-82865396D01*
X26278216Y-82871643D01*
X26421641Y-82913312D01*
X26429609Y-82914768D01*
X26443031Y-82911948D01*
X26446000Y-82900487D01*
X26446000Y-82898424D01*
X26954000Y-82898424D01*
X26958344Y-82913219D01*
X26968775Y-82915063D01*
X26978359Y-82913312D01*
X27121784Y-82871643D01*
X27136220Y-82865396D01*
X27263499Y-82790124D01*
X27275926Y-82780484D01*
X27380484Y-82675926D01*
X27390124Y-82663499D01*
X27465396Y-82536220D01*
X27471643Y-82521784D01*
X27506619Y-82401395D01*
X27506579Y-82387295D01*
X27499309Y-82384000D01*
X26972115Y-82384000D01*
X26956876Y-82388475D01*
X26955671Y-82389865D01*
X26954000Y-82397548D01*
X26954000Y-82898424D01*
X26446000Y-82898424D01*
X26446000Y-82402115D01*
X26441525Y-82386876D01*
X26440135Y-82385671D01*
X26432452Y-82384000D01*
X25910053Y-82384000D01*
X25841932Y-82363998D01*
X25838043Y-82361086D01*
X25828452Y-82359000D01*
X25422115Y-82359000D01*
X25406876Y-82363475D01*
X25405671Y-82364865D01*
X25404000Y-82372548D01*
X25404000Y-82873424D01*
X24896000Y-82873424D01*
X24896000Y-81977000D01*
X24916002Y-81908879D01*
X24969658Y-81862386D01*
X25022000Y-81851000D01*
X25939947Y-81851000D01*
X26008068Y-81871002D01*
X26011957Y-81873914D01*
X26021548Y-81876000D01*
X27493558Y-81876000D01*
X27507089Y-81872027D01*
X27508224Y-81864129D01*
X27471643Y-81738216D01*
X27465396Y-81723780D01*
X27390124Y-81596501D01*
X27380484Y-81584074D01*
X27292526Y-81496116D01*
X27258500Y-81433804D01*
X27257172Y-81387309D01*
X27258713Y-81377584D01*
X27264500Y-81341045D01*
X27264499Y-80998956D01*
X27249868Y-80906573D01*
X27245366Y-80897737D01*
X27243576Y-80892228D01*
X27241550Y-80821261D01*
X27278213Y-80760463D01*
X27341926Y-80729139D01*
X27412460Y-80737233D01*
G37*
G04 #@! TD.AperFunction*
G04 #@! TA.AperFunction,Conductor*
G36*
X27586706Y-64574002D02*
G01*
X27633199Y-64627658D01*
X27643303Y-64697932D01*
X27613809Y-64762512D01*
X27558567Y-64796010D01*
X27559593Y-64798748D01*
X27431746Y-64846676D01*
X27416151Y-64855214D01*
X27314076Y-64931715D01*
X27301515Y-64944276D01*
X27225014Y-65046351D01*
X27216476Y-65061946D01*
X27171322Y-65182394D01*
X27167695Y-65197649D01*
X27162169Y-65248514D01*
X27161800Y-65255328D01*
X27161800Y-65527885D01*
X27166275Y-65543124D01*
X27167665Y-65544329D01*
X27175348Y-65546000D01*
X29359684Y-65546000D01*
X29374923Y-65541525D01*
X29376128Y-65540135D01*
X29377799Y-65532452D01*
X29377799Y-65255331D01*
X29377429Y-65248510D01*
X29371905Y-65197648D01*
X29368279Y-65182396D01*
X29323124Y-65061946D01*
X29314586Y-65046351D01*
X29238085Y-64944276D01*
X29225524Y-64931715D01*
X29123449Y-64855214D01*
X29107854Y-64846676D01*
X28980007Y-64798748D01*
X28980916Y-64796324D01*
X28930225Y-64767368D01*
X28897403Y-64704414D01*
X28903827Y-64633708D01*
X28947457Y-64577700D01*
X29021015Y-64554000D01*
X42312575Y-64554000D01*
X42337153Y-64556421D01*
X42350000Y-64558976D01*
X42362174Y-64556554D01*
X42365591Y-64556554D01*
X42379697Y-64557346D01*
X42423993Y-64562337D01*
X42457391Y-64566100D01*
X42484897Y-64572379D01*
X42573501Y-64603383D01*
X42598922Y-64615625D01*
X42678406Y-64665568D01*
X42700465Y-64683160D01*
X42766840Y-64749535D01*
X42784432Y-64771594D01*
X42834375Y-64851078D01*
X42846617Y-64876499D01*
X42877621Y-64965103D01*
X42883900Y-64992609D01*
X42891849Y-65063149D01*
X42892654Y-65070297D01*
X42893446Y-65084409D01*
X42893446Y-65087826D01*
X42891024Y-65100000D01*
X42893445Y-65112172D01*
X42893579Y-65112844D01*
X42896000Y-65137425D01*
X42896000Y-84491312D01*
X42875998Y-84559433D01*
X42822342Y-84605926D01*
X42752068Y-84616030D01*
X42687488Y-84586536D01*
X42671103Y-84566904D01*
X42669987Y-84567770D01*
X42655484Y-84549074D01*
X42550926Y-84444516D01*
X42538499Y-84434876D01*
X42411220Y-84359604D01*
X42396784Y-84353357D01*
X42253359Y-84311688D01*
X42245391Y-84310232D01*
X42231969Y-84313052D01*
X42229000Y-84324513D01*
X42229000Y-85223000D01*
X42208998Y-85291121D01*
X42155342Y-85337614D01*
X42103000Y-85349000D01*
X41847000Y-85349000D01*
X41778879Y-85328998D01*
X41732386Y-85275342D01*
X41721000Y-85223000D01*
X41721000Y-84326576D01*
X41716656Y-84311781D01*
X41706225Y-84309937D01*
X41696644Y-84311687D01*
X41595644Y-84341031D01*
X41524647Y-84340828D01*
X41465031Y-84302275D01*
X41435722Y-84237610D01*
X41434490Y-84220034D01*
X41434490Y-79667999D01*
X41454492Y-79599878D01*
X41508148Y-79553385D01*
X41560490Y-79541999D01*
X41626052Y-79541999D01*
X41683919Y-79535714D01*
X41748205Y-79511614D01*
X41802449Y-79491279D01*
X41802452Y-79491278D01*
X41810853Y-79488128D01*
X41919330Y-79406830D01*
X42000628Y-79298353D01*
X42006082Y-79283806D01*
X42038944Y-79196146D01*
X42048214Y-79171419D01*
X42049067Y-79163566D01*
X42049068Y-79163562D01*
X42054131Y-79116952D01*
X42054131Y-79116948D01*
X42054500Y-79113553D01*
X42054499Y-78586448D01*
X42048214Y-78528581D01*
X42015596Y-78441573D01*
X42003779Y-78410051D01*
X42003778Y-78410048D01*
X42000628Y-78401647D01*
X41991083Y-78388911D01*
X41923113Y-78298217D01*
X41898266Y-78231710D01*
X41913319Y-78162328D01*
X41957637Y-78115509D01*
X42029514Y-78071030D01*
X42040915Y-78061994D01*
X42150298Y-77952420D01*
X42159310Y-77941009D01*
X42240553Y-77809209D01*
X42246697Y-77796032D01*
X42295579Y-77648657D01*
X42298445Y-77635290D01*
X42307614Y-77545800D01*
X42303525Y-77531876D01*
X42302135Y-77530671D01*
X42294452Y-77529000D01*
X41197000Y-77529000D01*
X41128879Y-77508998D01*
X41082386Y-77455342D01*
X41071000Y-77403000D01*
X41071000Y-77002885D01*
X41579000Y-77002885D01*
X41583475Y-77018124D01*
X41584865Y-77019329D01*
X41592548Y-77021000D01*
X42289885Y-77021000D01*
X42305124Y-77016525D01*
X42306329Y-77015135D01*
X42307842Y-77008179D01*
X42307663Y-77004718D01*
X42298196Y-76913479D01*
X42295303Y-76900083D01*
X42246170Y-76752813D01*
X42239996Y-76739634D01*
X42158530Y-76607986D01*
X42149494Y-76596585D01*
X42039920Y-76487202D01*
X42028509Y-76478190D01*
X41896709Y-76396947D01*
X41883532Y-76390803D01*
X41736157Y-76341921D01*
X41722790Y-76339055D01*
X41632730Y-76329828D01*
X41626315Y-76329500D01*
X41597115Y-76329500D01*
X41581876Y-76333975D01*
X41580671Y-76335365D01*
X41579000Y-76343048D01*
X41579000Y-77002885D01*
X41071000Y-77002885D01*
X41071000Y-76347615D01*
X41066525Y-76332376D01*
X41065135Y-76331171D01*
X41057452Y-76329500D01*
X41023734Y-76329500D01*
X41017218Y-76329837D01*
X40925979Y-76339304D01*
X40912583Y-76342197D01*
X40765313Y-76391330D01*
X40752134Y-76397504D01*
X40620486Y-76478970D01*
X40609085Y-76488006D01*
X40499702Y-76597580D01*
X40490690Y-76608991D01*
X40409447Y-76740791D01*
X40403303Y-76753969D01*
X40365892Y-76866758D01*
X40325461Y-76925118D01*
X40259897Y-76952355D01*
X40190016Y-76939822D01*
X40138004Y-76891497D01*
X40129833Y-76874477D01*
X40128779Y-76872551D01*
X40125628Y-76864147D01*
X40044330Y-76755670D01*
X39935853Y-76674372D01*
X39927452Y-76671222D01*
X39927449Y-76671221D01*
X39847536Y-76641263D01*
X39808919Y-76626786D01*
X39801066Y-76625933D01*
X39801062Y-76625932D01*
X39754452Y-76620869D01*
X39754448Y-76620869D01*
X39751053Y-76620500D01*
X39450045Y-76620500D01*
X39148948Y-76620501D01*
X39091081Y-76626786D01*
X39052464Y-76641263D01*
X38972551Y-76671221D01*
X38972548Y-76671222D01*
X38964147Y-76674372D01*
X38855670Y-76755670D01*
X38774372Y-76864147D01*
X38771222Y-76872548D01*
X38771221Y-76872551D01*
X38744499Y-76943832D01*
X38726786Y-76991081D01*
X38725933Y-76998934D01*
X38725932Y-76998938D01*
X38721852Y-77036501D01*
X38720500Y-77048947D01*
X38720501Y-77272594D01*
X38720501Y-77453115D01*
X38700499Y-77521235D01*
X38683596Y-77542210D01*
X38369784Y-77856022D01*
X38351036Y-77871164D01*
X38349811Y-77872279D01*
X38341060Y-77877929D01*
X38334613Y-77886107D01*
X38334611Y-77886109D01*
X38320271Y-77904300D01*
X38316325Y-77908741D01*
X38316398Y-77908803D01*
X38313039Y-77912767D01*
X38309362Y-77916444D01*
X38298108Y-77932192D01*
X38294602Y-77936862D01*
X38262844Y-77977147D01*
X38259812Y-77985781D01*
X38254486Y-77993234D01*
X38251501Y-78003215D01*
X38239799Y-78042344D01*
X38237964Y-78047992D01*
X38229874Y-78071030D01*
X38220982Y-78096351D01*
X38220500Y-78101916D01*
X38220500Y-78104624D01*
X38220386Y-78107258D01*
X38220357Y-78107356D01*
X38220193Y-78107349D01*
X38220149Y-78108053D01*
X38218287Y-78114278D01*
X38219896Y-78155229D01*
X38220403Y-78168135D01*
X38220500Y-78173082D01*
X38220500Y-78229616D01*
X38200498Y-78297737D01*
X38146842Y-78344230D01*
X38076568Y-78354334D01*
X38011988Y-78324840D01*
X38005405Y-78318711D01*
X36969867Y-77283173D01*
X36946695Y-77251281D01*
X36918135Y-77195229D01*
X36829771Y-77106865D01*
X36773719Y-77078305D01*
X36741827Y-77055133D01*
X36671056Y-76984362D01*
X36648536Y-76968269D01*
X36602740Y-76935541D01*
X36602737Y-76935539D01*
X36594266Y-76929486D01*
X36584288Y-76926502D01*
X36584286Y-76926501D01*
X36483200Y-76896271D01*
X36473222Y-76893287D01*
X36418949Y-76895419D01*
X36357382Y-76897838D01*
X36357380Y-76897838D01*
X36346979Y-76898247D01*
X36337271Y-76902003D01*
X36337270Y-76902003D01*
X36292002Y-76919516D01*
X36229148Y-76943832D01*
X36221177Y-76950533D01*
X36221176Y-76950533D01*
X36184529Y-76981338D01*
X36132436Y-77025127D01*
X36127064Y-77034049D01*
X36120300Y-77041969D01*
X36118316Y-77040274D01*
X36078964Y-77076937D01*
X36030756Y-77101501D01*
X36020229Y-77106865D01*
X35931865Y-77195229D01*
X35875132Y-77306573D01*
X35873581Y-77316363D01*
X35873581Y-77316364D01*
X35870135Y-77338124D01*
X35860500Y-77398955D01*
X35860501Y-77741044D01*
X35861276Y-77745937D01*
X35871297Y-77809209D01*
X35875132Y-77833427D01*
X35931865Y-77944771D01*
X35947999Y-77960905D01*
X35982025Y-78023217D01*
X35976960Y-78094032D01*
X35947999Y-78139095D01*
X35931865Y-78155229D01*
X35875132Y-78266573D01*
X35860500Y-78358955D01*
X35860501Y-78701044D01*
X35869864Y-78760160D01*
X35870396Y-78763520D01*
X35866842Y-78791018D01*
X35883558Y-78809964D01*
X35931865Y-78904771D01*
X36020229Y-78993135D01*
X36029064Y-78997637D01*
X36029067Y-78997639D01*
X36077157Y-79022142D01*
X36112630Y-79049100D01*
X36113814Y-79050508D01*
X37183595Y-80120289D01*
X37217621Y-80182601D01*
X37220500Y-80209384D01*
X37220500Y-82729616D01*
X37200498Y-82797737D01*
X37146842Y-82844230D01*
X37076568Y-82854334D01*
X37011988Y-82824840D01*
X37005405Y-82818711D01*
X36744867Y-82558173D01*
X36721695Y-82526281D01*
X36697635Y-82479061D01*
X36693135Y-82470229D01*
X36604771Y-82381865D01*
X36548719Y-82353305D01*
X36516827Y-82330133D01*
X36446056Y-82259362D01*
X36398718Y-82225533D01*
X36377740Y-82210541D01*
X36377737Y-82210539D01*
X36369266Y-82204486D01*
X36359288Y-82201502D01*
X36359286Y-82201501D01*
X36258200Y-82171271D01*
X36248222Y-82168287D01*
X36193949Y-82170419D01*
X36132382Y-82172838D01*
X36132380Y-82172838D01*
X36121979Y-82173247D01*
X36112271Y-82177003D01*
X36112270Y-82177003D01*
X36031889Y-82208100D01*
X36004148Y-82218832D01*
X35907436Y-82300127D01*
X35902064Y-82309049D01*
X35895300Y-82316969D01*
X35893316Y-82315274D01*
X35853963Y-82351937D01*
X35837703Y-82360222D01*
X35767927Y-82373327D01*
X35702142Y-82346627D01*
X35661235Y-82288600D01*
X35654500Y-82247956D01*
X35654500Y-79028925D01*
X35657050Y-79004967D01*
X35657128Y-79003308D01*
X35659321Y-78993124D01*
X35658097Y-78982782D01*
X35658097Y-78982779D01*
X35655374Y-78959779D01*
X35655024Y-78953848D01*
X35654928Y-78953856D01*
X35654500Y-78948680D01*
X35654500Y-78943476D01*
X35651327Y-78924412D01*
X35650496Y-78918566D01*
X35646165Y-78881979D01*
X35650053Y-78859019D01*
X35635060Y-78843064D01*
X35625877Y-78826045D01*
X35614656Y-78805249D01*
X35611969Y-78799975D01*
X35593215Y-78760919D01*
X35593214Y-78760918D01*
X35589781Y-78753768D01*
X35586187Y-78749493D01*
X35584262Y-78747568D01*
X35582491Y-78745638D01*
X35582445Y-78745553D01*
X35582568Y-78745441D01*
X35582096Y-78744906D01*
X35579010Y-78739186D01*
X35539413Y-78702583D01*
X35535848Y-78699154D01*
X34294867Y-77458173D01*
X34271695Y-77426281D01*
X34243135Y-77370229D01*
X34154771Y-77281865D01*
X34098719Y-77253305D01*
X34066827Y-77230133D01*
X33996056Y-77159362D01*
X33973536Y-77143269D01*
X33927740Y-77110541D01*
X33927737Y-77110539D01*
X33919266Y-77104486D01*
X33909288Y-77101502D01*
X33909286Y-77101501D01*
X33808200Y-77071271D01*
X33798222Y-77068287D01*
X33743949Y-77070419D01*
X33682382Y-77072838D01*
X33682380Y-77072838D01*
X33671979Y-77073247D01*
X33662271Y-77077003D01*
X33662270Y-77077003D01*
X33566959Y-77113876D01*
X33554148Y-77118832D01*
X33457436Y-77200127D01*
X33452064Y-77209049D01*
X33445300Y-77216969D01*
X33443316Y-77215274D01*
X33403964Y-77251937D01*
X33363424Y-77272594D01*
X33345229Y-77281865D01*
X33256865Y-77370229D01*
X33200132Y-77481573D01*
X33185500Y-77573955D01*
X33185501Y-77916044D01*
X33186276Y-77920937D01*
X33198515Y-77998214D01*
X33200132Y-78008427D01*
X33204635Y-78017264D01*
X33204635Y-78017265D01*
X33206284Y-78020501D01*
X33256865Y-78119771D01*
X33272999Y-78135905D01*
X33307025Y-78198217D01*
X33301960Y-78269032D01*
X33272999Y-78314095D01*
X33256865Y-78330229D01*
X33200132Y-78441573D01*
X33185500Y-78533955D01*
X33185501Y-78876044D01*
X33186276Y-78880935D01*
X33186276Y-78880937D01*
X33196208Y-78943647D01*
X33200132Y-78968427D01*
X33204635Y-78977264D01*
X33204635Y-78977265D01*
X33207445Y-78982779D01*
X33256865Y-79079771D01*
X33345229Y-79168135D01*
X33354064Y-79172637D01*
X33354067Y-79172639D01*
X33402157Y-79197142D01*
X33437630Y-79224100D01*
X33438814Y-79225508D01*
X34383595Y-80170289D01*
X34417621Y-80232601D01*
X34420500Y-80259384D01*
X34420500Y-82654616D01*
X34400498Y-82722737D01*
X34346842Y-82769230D01*
X34276568Y-82779334D01*
X34211988Y-82749840D01*
X34205405Y-82743711D01*
X33919867Y-82458173D01*
X33896695Y-82426281D01*
X33877432Y-82388475D01*
X33868135Y-82370229D01*
X33779771Y-82281865D01*
X33723719Y-82253305D01*
X33691827Y-82230133D01*
X33621056Y-82159362D01*
X33573718Y-82125533D01*
X33552740Y-82110541D01*
X33552737Y-82110539D01*
X33544266Y-82104486D01*
X33534288Y-82101502D01*
X33534286Y-82101501D01*
X33433200Y-82071271D01*
X33423222Y-82068287D01*
X33368949Y-82070419D01*
X33307382Y-82072838D01*
X33307380Y-82072838D01*
X33296979Y-82073247D01*
X33179148Y-82118832D01*
X33082436Y-82200127D01*
X33077064Y-82209049D01*
X33070300Y-82216969D01*
X33068316Y-82215274D01*
X33028965Y-82251937D01*
X32987703Y-82272961D01*
X32917928Y-82286066D01*
X32852143Y-82259367D01*
X32811236Y-82201341D01*
X32804500Y-82160695D01*
X32804500Y-78703920D01*
X32807049Y-78679972D01*
X32807128Y-78678307D01*
X32809320Y-78668124D01*
X32805373Y-78634777D01*
X32805023Y-78628846D01*
X32804928Y-78628854D01*
X32804500Y-78623676D01*
X32804500Y-78618476D01*
X32803466Y-78612263D01*
X32801331Y-78599435D01*
X32800494Y-78593557D01*
X32795694Y-78552999D01*
X32795694Y-78552998D01*
X32794470Y-78542659D01*
X32790507Y-78534407D01*
X32789004Y-78525374D01*
X32764665Y-78480266D01*
X32761969Y-78474975D01*
X32743215Y-78435918D01*
X32743212Y-78435914D01*
X32739781Y-78428768D01*
X32736186Y-78424492D01*
X32734263Y-78422569D01*
X32732491Y-78420637D01*
X32732448Y-78420558D01*
X32732572Y-78420445D01*
X32732096Y-78419905D01*
X32729010Y-78414186D01*
X32689413Y-78377583D01*
X32685848Y-78374154D01*
X31719867Y-77408173D01*
X31696695Y-77376281D01*
X31672635Y-77329061D01*
X31668135Y-77320229D01*
X31579771Y-77231865D01*
X31523719Y-77203305D01*
X31491827Y-77180133D01*
X31421056Y-77109362D01*
X31373718Y-77075533D01*
X31352740Y-77060541D01*
X31352737Y-77060539D01*
X31344266Y-77054486D01*
X31334288Y-77051502D01*
X31334286Y-77051501D01*
X31233200Y-77021271D01*
X31223222Y-77018287D01*
X31168949Y-77020419D01*
X31107382Y-77022838D01*
X31107380Y-77022838D01*
X31096979Y-77023247D01*
X31087271Y-77027003D01*
X31087270Y-77027003D01*
X30998098Y-77061501D01*
X30979148Y-77068832D01*
X30971177Y-77075533D01*
X30971176Y-77075533D01*
X30936575Y-77104618D01*
X30871559Y-77133139D01*
X30801445Y-77121983D01*
X30748492Y-77074690D01*
X30729500Y-77008167D01*
X30729500Y-76709384D01*
X30749502Y-76641263D01*
X30766405Y-76620289D01*
X34132460Y-73254234D01*
X34194772Y-73220208D01*
X34265587Y-73225273D01*
X34326320Y-73273327D01*
X34366516Y-73333484D01*
X34450699Y-73389734D01*
X34524933Y-73404500D01*
X34999923Y-73404500D01*
X35475066Y-73404499D01*
X35510818Y-73397388D01*
X35537126Y-73392156D01*
X35537128Y-73392155D01*
X35549301Y-73389734D01*
X35559621Y-73382839D01*
X35559622Y-73382838D01*
X35623168Y-73340377D01*
X35633484Y-73333484D01*
X35689734Y-73249301D01*
X35704500Y-73175067D01*
X35704499Y-71924934D01*
X35689734Y-71850699D01*
X35633484Y-71766516D01*
X35549301Y-71710266D01*
X35475067Y-71695500D01*
X35000077Y-71695500D01*
X34524934Y-71695501D01*
X34489182Y-71702612D01*
X34462874Y-71707844D01*
X34462872Y-71707845D01*
X34450699Y-71710266D01*
X34440379Y-71717161D01*
X34440378Y-71717162D01*
X34434076Y-71721373D01*
X34366516Y-71766516D01*
X34310266Y-71850699D01*
X34295500Y-71924933D01*
X34295500Y-72057829D01*
X34275498Y-72125950D01*
X34221842Y-72172443D01*
X34204654Y-72178826D01*
X34203004Y-72179305D01*
X34192659Y-72180530D01*
X34184407Y-72184493D01*
X34175374Y-72185996D01*
X34166205Y-72190943D01*
X34166203Y-72190944D01*
X34130255Y-72210341D01*
X34125002Y-72213018D01*
X34078769Y-72235219D01*
X34074493Y-72238813D01*
X34072553Y-72240753D01*
X34070641Y-72242507D01*
X34070552Y-72242555D01*
X34070440Y-72242432D01*
X34069904Y-72242905D01*
X34064186Y-72245990D01*
X34057119Y-72253635D01*
X34027584Y-72285586D01*
X34024154Y-72289152D01*
X32821480Y-73491826D01*
X32759168Y-73525852D01*
X32688353Y-73520787D01*
X32631517Y-73478240D01*
X32606706Y-73411720D01*
X32614403Y-73358501D01*
X32648478Y-73267606D01*
X32652105Y-73252351D01*
X32657631Y-73201486D01*
X32658000Y-73194672D01*
X32658000Y-72822115D01*
X32653525Y-72806876D01*
X32652135Y-72805671D01*
X32644452Y-72804000D01*
X31972115Y-72804000D01*
X31956876Y-72808475D01*
X31955671Y-72809865D01*
X31954000Y-72817548D01*
X31954000Y-73639884D01*
X31958475Y-73655123D01*
X31959865Y-73656328D01*
X31967548Y-73657999D01*
X32194669Y-73657999D01*
X32201490Y-73657629D01*
X32252352Y-73652105D01*
X32267604Y-73648479D01*
X32358501Y-73614403D01*
X32429308Y-73609220D01*
X32491677Y-73643141D01*
X32525807Y-73705396D01*
X32520860Y-73776220D01*
X32491826Y-73821480D01*
X31919106Y-74394200D01*
X31856794Y-74428226D01*
X31785979Y-74423161D01*
X31729143Y-74380614D01*
X31704332Y-74314094D01*
X31704011Y-74305105D01*
X31704011Y-74253822D01*
X31706561Y-74229864D01*
X31706639Y-74228205D01*
X31708832Y-74218021D01*
X31707608Y-74207679D01*
X31707608Y-74207676D01*
X31704885Y-74184676D01*
X31704535Y-74178745D01*
X31704439Y-74178753D01*
X31704011Y-74173577D01*
X31704011Y-74168373D01*
X31700838Y-74149309D01*
X31700007Y-74143463D01*
X31695205Y-74102898D01*
X31693981Y-74092556D01*
X31690018Y-74084304D01*
X31688515Y-74075271D01*
X31664167Y-74030145D01*
X31661493Y-74024899D01*
X31639292Y-73978666D01*
X31635698Y-73974390D01*
X31633758Y-73972450D01*
X31632004Y-73970538D01*
X31631956Y-73970449D01*
X31632079Y-73970337D01*
X31631606Y-73969801D01*
X31628521Y-73964083D01*
X31588924Y-73927480D01*
X31585359Y-73924051D01*
X31466517Y-73805209D01*
X31432491Y-73742897D01*
X31437556Y-73672082D01*
X31441398Y-73665607D01*
X31446000Y-73644452D01*
X31446000Y-72422000D01*
X31466002Y-72353879D01*
X31519658Y-72307386D01*
X31572000Y-72296000D01*
X32639884Y-72296000D01*
X32655123Y-72291525D01*
X32656328Y-72290135D01*
X32657999Y-72282452D01*
X32657999Y-71905331D01*
X32657629Y-71898510D01*
X32652105Y-71847648D01*
X32648479Y-71832396D01*
X32603324Y-71711946D01*
X32594786Y-71696351D01*
X32518285Y-71594276D01*
X32505724Y-71581715D01*
X32403649Y-71505214D01*
X32388054Y-71496676D01*
X32267606Y-71451522D01*
X32252351Y-71447895D01*
X32201486Y-71442369D01*
X32194673Y-71442000D01*
X31863165Y-71442001D01*
X31795045Y-71421999D01*
X31748552Y-71368344D01*
X31738447Y-71298070D01*
X31767940Y-71233489D01*
X31774070Y-71226906D01*
X33580016Y-69420960D01*
X33598764Y-69405818D01*
X33599989Y-69404703D01*
X33608740Y-69399053D01*
X33615187Y-69390875D01*
X33615189Y-69390873D01*
X33629529Y-69372682D01*
X33633475Y-69368241D01*
X33633402Y-69368179D01*
X33636761Y-69364215D01*
X33640438Y-69360538D01*
X33651692Y-69344790D01*
X33655198Y-69340120D01*
X33686956Y-69299835D01*
X33689988Y-69291201D01*
X33695314Y-69283748D01*
X33710003Y-69234632D01*
X33711836Y-69228990D01*
X33724441Y-69193096D01*
X34040729Y-69193096D01*
X34049421Y-69271825D01*
X34057215Y-69342415D01*
X34058113Y-69350553D01*
X34112553Y-69499319D01*
X34200908Y-69630805D01*
X34206527Y-69635918D01*
X34206528Y-69635919D01*
X34217903Y-69646269D01*
X34318076Y-69737419D01*
X34457293Y-69813008D01*
X34610522Y-69853207D01*
X34694477Y-69854526D01*
X34761319Y-69855576D01*
X34761322Y-69855576D01*
X34768916Y-69855695D01*
X34923332Y-69820329D01*
X34993742Y-69784917D01*
X35058072Y-69752563D01*
X35058075Y-69752561D01*
X35064855Y-69749151D01*
X35070626Y-69744222D01*
X35070629Y-69744220D01*
X35179536Y-69651204D01*
X35179536Y-69651203D01*
X35185314Y-69646269D01*
X35277755Y-69517624D01*
X35336842Y-69370641D01*
X35347016Y-69299151D01*
X35358581Y-69217891D01*
X35358581Y-69217888D01*
X35359162Y-69213807D01*
X35359307Y-69200000D01*
X35353437Y-69151496D01*
X35365109Y-69081468D01*
X35389429Y-69047265D01*
X37938187Y-66498507D01*
X38000499Y-66464481D01*
X38071314Y-66469546D01*
X38082357Y-66474377D01*
X38087460Y-66477717D01*
X38246115Y-66536720D01*
X38253096Y-66537651D01*
X38253098Y-66537652D01*
X38406918Y-66558176D01*
X38406922Y-66558176D01*
X38413899Y-66559107D01*
X38420910Y-66558469D01*
X38420914Y-66558469D01*
X38575452Y-66544405D01*
X38582473Y-66543766D01*
X38743459Y-66491458D01*
X38888856Y-66404784D01*
X39011438Y-66288052D01*
X39015339Y-66282181D01*
X39101210Y-66152935D01*
X39101211Y-66152933D01*
X39105111Y-66147063D01*
X39165220Y-65988824D01*
X39188778Y-65821200D01*
X39189074Y-65800000D01*
X39187885Y-65789399D01*
X40210600Y-65789399D01*
X40227118Y-65957862D01*
X40280548Y-66118479D01*
X40368235Y-66263267D01*
X40373126Y-66268332D01*
X40373127Y-66268333D01*
X40396862Y-66292911D01*
X40485821Y-66385031D01*
X40627460Y-66477717D01*
X40786115Y-66536720D01*
X40793096Y-66537651D01*
X40793098Y-66537652D01*
X40946918Y-66558176D01*
X40946922Y-66558176D01*
X40953899Y-66559107D01*
X40960910Y-66558469D01*
X40960914Y-66558469D01*
X41115452Y-66544405D01*
X41122473Y-66543766D01*
X41283459Y-66491458D01*
X41428856Y-66404784D01*
X41551438Y-66288052D01*
X41555339Y-66282181D01*
X41641210Y-66152935D01*
X41641211Y-66152933D01*
X41645111Y-66147063D01*
X41705220Y-65988824D01*
X41728778Y-65821200D01*
X41729074Y-65800000D01*
X41710206Y-65631784D01*
X41654538Y-65471929D01*
X41564838Y-65328379D01*
X41445564Y-65208269D01*
X41302644Y-65117569D01*
X41275242Y-65107812D01*
X41149816Y-65063149D01*
X41149811Y-65063148D01*
X41143181Y-65060787D01*
X41136195Y-65059954D01*
X41136191Y-65059953D01*
X41017087Y-65045751D01*
X40975101Y-65040745D01*
X40968098Y-65041481D01*
X40968097Y-65041481D01*
X40813765Y-65057701D01*
X40813761Y-65057702D01*
X40806757Y-65058438D01*
X40800086Y-65060709D01*
X40653187Y-65110717D01*
X40653184Y-65110718D01*
X40646517Y-65112988D01*
X40640519Y-65116678D01*
X40640517Y-65116679D01*
X40508343Y-65197993D01*
X40508341Y-65197995D01*
X40502344Y-65201684D01*
X40381405Y-65320117D01*
X40289709Y-65462400D01*
X40287298Y-65469025D01*
X40234225Y-65614840D01*
X40234224Y-65614845D01*
X40231815Y-65621463D01*
X40210600Y-65789399D01*
X39187885Y-65789399D01*
X39170206Y-65631784D01*
X39114538Y-65471929D01*
X39024838Y-65328379D01*
X38905564Y-65208269D01*
X38762644Y-65117569D01*
X38735242Y-65107812D01*
X38609816Y-65063149D01*
X38609811Y-65063148D01*
X38603181Y-65060787D01*
X38596195Y-65059954D01*
X38596191Y-65059953D01*
X38477087Y-65045751D01*
X38435101Y-65040745D01*
X38428098Y-65041481D01*
X38428097Y-65041481D01*
X38273765Y-65057701D01*
X38273761Y-65057702D01*
X38266757Y-65058438D01*
X38260086Y-65060709D01*
X38113187Y-65110717D01*
X38113184Y-65110718D01*
X38106517Y-65112988D01*
X38100519Y-65116678D01*
X38100517Y-65116679D01*
X37968343Y-65197993D01*
X37968341Y-65197995D01*
X37962344Y-65201684D01*
X37841405Y-65320117D01*
X37749709Y-65462400D01*
X37747298Y-65469025D01*
X37694225Y-65614840D01*
X37694224Y-65614845D01*
X37691815Y-65621463D01*
X37689988Y-65635928D01*
X37661607Y-65701002D01*
X37654077Y-65709229D01*
X34854411Y-68508895D01*
X34792099Y-68542921D01*
X34764658Y-68545798D01*
X34624221Y-68545062D01*
X34616841Y-68546834D01*
X34616839Y-68546834D01*
X34477563Y-68580271D01*
X34477560Y-68580272D01*
X34470184Y-68582043D01*
X34329414Y-68654700D01*
X34210039Y-68758838D01*
X34118950Y-68888444D01*
X34061406Y-69036037D01*
X34060414Y-69043570D01*
X34060414Y-69043571D01*
X34043103Y-69175066D01*
X34040729Y-69193096D01*
X33724441Y-69193096D01*
X33726190Y-69188115D01*
X33726190Y-69188114D01*
X33728818Y-69180631D01*
X33729300Y-69175066D01*
X33729300Y-69172358D01*
X33729414Y-69169724D01*
X33729443Y-69169626D01*
X33729607Y-69169633D01*
X33729651Y-69168929D01*
X33731513Y-69162704D01*
X33729397Y-69108847D01*
X33729300Y-69103900D01*
X33729300Y-66523787D01*
X33749302Y-66455666D01*
X33790784Y-66415557D01*
X33802810Y-66408389D01*
X33802815Y-66408385D01*
X33808856Y-66404784D01*
X33931438Y-66288052D01*
X33935339Y-66282181D01*
X34021210Y-66152935D01*
X34021211Y-66152933D01*
X34025111Y-66147063D01*
X34085220Y-65988824D01*
X34108778Y-65821200D01*
X34109074Y-65800000D01*
X34107885Y-65789399D01*
X35130600Y-65789399D01*
X35147118Y-65957862D01*
X35200548Y-66118479D01*
X35288235Y-66263267D01*
X35293126Y-66268332D01*
X35293127Y-66268333D01*
X35316862Y-66292911D01*
X35405821Y-66385031D01*
X35547460Y-66477717D01*
X35706115Y-66536720D01*
X35713096Y-66537651D01*
X35713098Y-66537652D01*
X35866918Y-66558176D01*
X35866922Y-66558176D01*
X35873899Y-66559107D01*
X35880910Y-66558469D01*
X35880914Y-66558469D01*
X36035452Y-66544405D01*
X36042473Y-66543766D01*
X36203459Y-66491458D01*
X36348856Y-66404784D01*
X36471438Y-66288052D01*
X36475339Y-66282181D01*
X36561210Y-66152935D01*
X36561211Y-66152933D01*
X36565111Y-66147063D01*
X36625220Y-65988824D01*
X36648778Y-65821200D01*
X36649074Y-65800000D01*
X36630206Y-65631784D01*
X36574538Y-65471929D01*
X36484838Y-65328379D01*
X36365564Y-65208269D01*
X36222644Y-65117569D01*
X36195242Y-65107812D01*
X36069816Y-65063149D01*
X36069811Y-65063148D01*
X36063181Y-65060787D01*
X36056195Y-65059954D01*
X36056191Y-65059953D01*
X35937087Y-65045751D01*
X35895101Y-65040745D01*
X35888098Y-65041481D01*
X35888097Y-65041481D01*
X35733765Y-65057701D01*
X35733761Y-65057702D01*
X35726757Y-65058438D01*
X35720086Y-65060709D01*
X35573187Y-65110717D01*
X35573184Y-65110718D01*
X35566517Y-65112988D01*
X35560519Y-65116678D01*
X35560517Y-65116679D01*
X35428343Y-65197993D01*
X35428341Y-65197995D01*
X35422344Y-65201684D01*
X35301405Y-65320117D01*
X35209709Y-65462400D01*
X35207298Y-65469025D01*
X35154225Y-65614840D01*
X35154224Y-65614845D01*
X35151815Y-65621463D01*
X35130600Y-65789399D01*
X34107885Y-65789399D01*
X34090206Y-65631784D01*
X34034538Y-65471929D01*
X33944838Y-65328379D01*
X33825564Y-65208269D01*
X33682644Y-65117569D01*
X33655242Y-65107812D01*
X33529816Y-65063149D01*
X33529811Y-65063148D01*
X33523181Y-65060787D01*
X33516195Y-65059954D01*
X33516191Y-65059953D01*
X33397087Y-65045751D01*
X33355101Y-65040745D01*
X33348098Y-65041481D01*
X33348097Y-65041481D01*
X33193765Y-65057701D01*
X33193761Y-65057702D01*
X33186757Y-65058438D01*
X33180086Y-65060709D01*
X33033187Y-65110717D01*
X33033184Y-65110718D01*
X33026517Y-65112988D01*
X33020519Y-65116678D01*
X33020517Y-65116679D01*
X32888343Y-65197993D01*
X32888341Y-65197995D01*
X32882344Y-65201684D01*
X32761405Y-65320117D01*
X32669709Y-65462400D01*
X32667298Y-65469025D01*
X32614225Y-65614840D01*
X32614224Y-65614845D01*
X32611815Y-65621463D01*
X32590600Y-65789399D01*
X32607118Y-65957862D01*
X32660548Y-66118479D01*
X32748235Y-66263267D01*
X32753126Y-66268332D01*
X32753127Y-66268333D01*
X32776862Y-66292911D01*
X32865821Y-66385031D01*
X32871717Y-66388889D01*
X32871718Y-66388890D01*
X32913293Y-66416096D01*
X32959342Y-66470133D01*
X32970300Y-66521528D01*
X32970300Y-68905098D01*
X32950298Y-68973219D01*
X32933395Y-68994193D01*
X30669887Y-71257701D01*
X30651139Y-71272843D01*
X30649914Y-71273958D01*
X30641163Y-71279608D01*
X30634716Y-71287786D01*
X30634714Y-71287788D01*
X30620374Y-71305979D01*
X30616428Y-71310420D01*
X30616501Y-71310482D01*
X30613142Y-71314446D01*
X30609465Y-71318123D01*
X30598211Y-71333871D01*
X30594705Y-71338541D01*
X30562947Y-71378826D01*
X30559915Y-71387460D01*
X30554589Y-71394913D01*
X30540397Y-71442369D01*
X30539902Y-71444023D01*
X30538067Y-71449671D01*
X30521085Y-71498030D01*
X30520603Y-71503595D01*
X30520603Y-71506303D01*
X30520489Y-71508937D01*
X30520460Y-71509035D01*
X30520296Y-71509028D01*
X30520252Y-71509732D01*
X30518390Y-71515957D01*
X30518799Y-71526362D01*
X30520506Y-71569814D01*
X30520603Y-71574761D01*
X30520603Y-73579719D01*
X30500601Y-73647840D01*
X30446945Y-73694333D01*
X30376671Y-73704437D01*
X30312091Y-73674943D01*
X30305508Y-73668814D01*
X27416205Y-70779511D01*
X27382179Y-70717199D01*
X27379300Y-70690416D01*
X27379300Y-67123920D01*
X27381849Y-67099973D01*
X27381928Y-67098307D01*
X27384120Y-67088124D01*
X27382896Y-67077782D01*
X27382896Y-67077779D01*
X27380174Y-67054787D01*
X27379823Y-67048846D01*
X27379728Y-67048854D01*
X27379300Y-67043674D01*
X27379300Y-67038476D01*
X27376129Y-67019424D01*
X27375292Y-67013547D01*
X27370493Y-66972997D01*
X27370492Y-66972995D01*
X27369269Y-66962659D01*
X27365308Y-66954410D01*
X27363804Y-66945374D01*
X27362561Y-66943069D01*
X27365507Y-66942213D01*
X27357192Y-66891239D01*
X27385459Y-66826113D01*
X27444450Y-66786607D01*
X27515434Y-66785266D01*
X27526457Y-66788830D01*
X27552190Y-66798477D01*
X27567449Y-66802105D01*
X27618314Y-66807631D01*
X27625128Y-66808000D01*
X27997685Y-66808000D01*
X28012924Y-66803525D01*
X28014129Y-66802135D01*
X28015800Y-66794452D01*
X28015800Y-66789884D01*
X28523800Y-66789884D01*
X28528275Y-66805123D01*
X28529665Y-66806328D01*
X28537348Y-66807999D01*
X28914469Y-66807999D01*
X28921290Y-66807629D01*
X28972152Y-66802105D01*
X28987404Y-66798479D01*
X29107854Y-66753324D01*
X29123449Y-66744786D01*
X29225524Y-66668285D01*
X29238085Y-66655724D01*
X29314586Y-66553649D01*
X29323124Y-66538054D01*
X29368278Y-66417606D01*
X29371905Y-66402351D01*
X29377431Y-66351486D01*
X29377800Y-66344672D01*
X29377800Y-66072115D01*
X29373325Y-66056876D01*
X29371935Y-66055671D01*
X29364252Y-66054000D01*
X28541915Y-66054000D01*
X28526676Y-66058475D01*
X28525471Y-66059865D01*
X28523800Y-66067548D01*
X28523800Y-66789884D01*
X28015800Y-66789884D01*
X28015800Y-66072115D01*
X28011325Y-66056876D01*
X28009935Y-66055671D01*
X28002252Y-66054000D01*
X27179916Y-66054000D01*
X27164677Y-66058475D01*
X27163472Y-66059865D01*
X27161801Y-66067548D01*
X27161801Y-66344669D01*
X27162171Y-66351490D01*
X27165476Y-66381924D01*
X27152947Y-66451806D01*
X27104625Y-66503821D01*
X27035853Y-66521454D01*
X26968465Y-66499106D01*
X26951118Y-66484624D01*
X26508422Y-66041928D01*
X26474396Y-65979616D01*
X26472743Y-65935297D01*
X26488227Y-65825124D01*
X26488228Y-65825116D01*
X26488778Y-65821200D01*
X26489074Y-65800000D01*
X26487885Y-65789399D01*
X30050600Y-65789399D01*
X30067118Y-65957862D01*
X30120548Y-66118479D01*
X30208235Y-66263267D01*
X30213126Y-66268332D01*
X30213127Y-66268333D01*
X30236862Y-66292911D01*
X30325821Y-66385031D01*
X30467460Y-66477717D01*
X30626115Y-66536720D01*
X30633096Y-66537651D01*
X30633098Y-66537652D01*
X30786918Y-66558176D01*
X30786922Y-66558176D01*
X30793899Y-66559107D01*
X30800910Y-66558469D01*
X30800914Y-66558469D01*
X30955452Y-66544405D01*
X30962473Y-66543766D01*
X31123459Y-66491458D01*
X31268856Y-66404784D01*
X31391438Y-66288052D01*
X31395339Y-66282181D01*
X31481210Y-66152935D01*
X31481211Y-66152933D01*
X31485111Y-66147063D01*
X31545220Y-65988824D01*
X31568778Y-65821200D01*
X31569074Y-65800000D01*
X31550206Y-65631784D01*
X31494538Y-65471929D01*
X31404838Y-65328379D01*
X31285564Y-65208269D01*
X31142644Y-65117569D01*
X31115242Y-65107812D01*
X30989816Y-65063149D01*
X30989811Y-65063148D01*
X30983181Y-65060787D01*
X30976195Y-65059954D01*
X30976191Y-65059953D01*
X30857087Y-65045751D01*
X30815101Y-65040745D01*
X30808098Y-65041481D01*
X30808097Y-65041481D01*
X30653765Y-65057701D01*
X30653761Y-65057702D01*
X30646757Y-65058438D01*
X30640086Y-65060709D01*
X30493187Y-65110717D01*
X30493184Y-65110718D01*
X30486517Y-65112988D01*
X30480519Y-65116678D01*
X30480517Y-65116679D01*
X30348343Y-65197993D01*
X30348341Y-65197995D01*
X30342344Y-65201684D01*
X30221405Y-65320117D01*
X30129709Y-65462400D01*
X30127298Y-65469025D01*
X30074225Y-65614840D01*
X30074224Y-65614845D01*
X30071815Y-65621463D01*
X30050600Y-65789399D01*
X26487885Y-65789399D01*
X26470206Y-65631784D01*
X26414538Y-65471929D01*
X26324838Y-65328379D01*
X26205564Y-65208269D01*
X26062644Y-65117569D01*
X26035242Y-65107812D01*
X25909816Y-65063149D01*
X25909811Y-65063148D01*
X25903181Y-65060787D01*
X25896195Y-65059954D01*
X25896191Y-65059953D01*
X25777087Y-65045751D01*
X25735101Y-65040745D01*
X25728098Y-65041481D01*
X25728097Y-65041481D01*
X25573765Y-65057701D01*
X25573761Y-65057702D01*
X25566757Y-65058438D01*
X25560086Y-65060709D01*
X25413187Y-65110717D01*
X25413184Y-65110718D01*
X25406517Y-65112988D01*
X25400519Y-65116678D01*
X25400517Y-65116679D01*
X25268343Y-65197993D01*
X25268341Y-65197995D01*
X25262344Y-65201684D01*
X25141405Y-65320117D01*
X25049709Y-65462400D01*
X25047298Y-65469025D01*
X24994225Y-65614840D01*
X24994224Y-65614845D01*
X24991815Y-65621463D01*
X24970600Y-65789399D01*
X24987118Y-65957862D01*
X25040548Y-66118479D01*
X25128235Y-66263267D01*
X25133126Y-66268332D01*
X25133127Y-66268333D01*
X25156862Y-66292911D01*
X25245821Y-66385031D01*
X25387460Y-66477717D01*
X25546115Y-66536720D01*
X25553096Y-66537651D01*
X25553098Y-66537652D01*
X25706918Y-66558176D01*
X25706922Y-66558176D01*
X25713899Y-66559107D01*
X25720911Y-66558469D01*
X25720915Y-66558469D01*
X25873556Y-66544578D01*
X25943209Y-66558324D01*
X25974070Y-66580964D01*
X26583395Y-67190289D01*
X26617421Y-67252601D01*
X26620300Y-67279384D01*
X26620300Y-70845880D01*
X26617751Y-70869828D01*
X26617672Y-70871493D01*
X26615480Y-70881676D01*
X26616704Y-70892017D01*
X26619427Y-70915023D01*
X26619777Y-70920954D01*
X26619872Y-70920946D01*
X26620300Y-70926124D01*
X26620300Y-70931324D01*
X26621154Y-70936453D01*
X26621154Y-70936456D01*
X26623469Y-70950365D01*
X26624306Y-70956243D01*
X26630330Y-71007141D01*
X26634293Y-71015393D01*
X26635796Y-71024426D01*
X26640743Y-71033595D01*
X26640744Y-71033597D01*
X26660134Y-71069532D01*
X26662831Y-71074825D01*
X26681585Y-71113882D01*
X26681588Y-71113886D01*
X26685019Y-71121032D01*
X26688614Y-71125308D01*
X26690537Y-71127231D01*
X26692309Y-71129163D01*
X26692352Y-71129242D01*
X26692228Y-71129355D01*
X26692704Y-71129895D01*
X26695790Y-71135614D01*
X26703435Y-71142681D01*
X26735386Y-71172216D01*
X26738952Y-71175646D01*
X29519952Y-73956646D01*
X29553978Y-74018958D01*
X29548913Y-74089773D01*
X29506366Y-74146609D01*
X29461234Y-74168024D01*
X29457307Y-74168999D01*
X29457300Y-74169002D01*
X29447199Y-74171511D01*
X29438455Y-74177157D01*
X29438452Y-74177158D01*
X29437641Y-74177682D01*
X29414757Y-74189342D01*
X29404148Y-74193446D01*
X29396175Y-74200148D01*
X29396173Y-74200149D01*
X29380143Y-74213624D01*
X29367416Y-74223025D01*
X29341060Y-74240043D01*
X29334614Y-74248221D01*
X29334610Y-74248224D01*
X29334015Y-74248979D01*
X29316146Y-74267419D01*
X29315409Y-74268039D01*
X29307436Y-74274741D01*
X29291256Y-74301617D01*
X29282265Y-74314626D01*
X29262844Y-74339261D01*
X29259392Y-74349091D01*
X29259074Y-74349995D01*
X29248139Y-74373233D01*
X29242272Y-74382979D01*
X29240080Y-74393162D01*
X29235671Y-74413637D01*
X29231377Y-74428862D01*
X29223609Y-74450982D01*
X29223608Y-74450988D01*
X29220982Y-74458465D01*
X29220500Y-74464030D01*
X29220500Y-74470694D01*
X29217951Y-74494642D01*
X29217872Y-74496307D01*
X29215680Y-74506490D01*
X29216904Y-74516831D01*
X29219627Y-74539837D01*
X29220500Y-74554647D01*
X29220500Y-75105187D01*
X29200498Y-75173308D01*
X29177330Y-75200135D01*
X29110039Y-75258838D01*
X29018950Y-75388444D01*
X28961406Y-75536037D01*
X28960414Y-75543570D01*
X28960414Y-75543571D01*
X28952318Y-75605071D01*
X28940729Y-75693096D01*
X28948498Y-75763461D01*
X28955842Y-75829981D01*
X28958113Y-75850553D01*
X28960723Y-75857684D01*
X28960723Y-75857686D01*
X28966155Y-75872528D01*
X29012553Y-75999319D01*
X29100908Y-76130805D01*
X29218076Y-76237419D01*
X29357293Y-76313008D01*
X29510522Y-76353207D01*
X29594477Y-76354526D01*
X29661319Y-76355576D01*
X29661322Y-76355576D01*
X29668916Y-76355695D01*
X29676320Y-76353999D01*
X29676322Y-76353999D01*
X29815751Y-76322066D01*
X29886618Y-76326355D01*
X29943916Y-76368278D01*
X29969453Y-76434522D01*
X29969141Y-76448923D01*
X29968287Y-76451778D01*
X29968696Y-76462186D01*
X29970403Y-76505635D01*
X29970500Y-76510582D01*
X29970500Y-79323897D01*
X29967951Y-79347845D01*
X29967872Y-79349510D01*
X29965680Y-79359693D01*
X29966904Y-79370034D01*
X29969627Y-79393040D01*
X29969977Y-79398971D01*
X29970072Y-79398963D01*
X29970500Y-79404141D01*
X29970500Y-79409341D01*
X29971354Y-79414470D01*
X29971354Y-79414473D01*
X29973669Y-79428382D01*
X29974506Y-79434260D01*
X29979044Y-79472599D01*
X29980530Y-79485158D01*
X29984493Y-79493410D01*
X29985996Y-79502443D01*
X29990943Y-79511612D01*
X29990944Y-79511614D01*
X30010334Y-79547549D01*
X30013031Y-79552842D01*
X30031785Y-79591899D01*
X30031788Y-79591903D01*
X30035219Y-79599049D01*
X30038814Y-79603325D01*
X30040737Y-79605248D01*
X30042509Y-79607180D01*
X30042552Y-79607259D01*
X30042428Y-79607372D01*
X30042904Y-79607912D01*
X30045990Y-79613631D01*
X30053635Y-79620698D01*
X30085586Y-79650233D01*
X30089152Y-79653663D01*
X31008595Y-80573106D01*
X31042621Y-80635418D01*
X31045500Y-80662201D01*
X31045500Y-82936551D01*
X31025498Y-83004672D01*
X30971842Y-83051165D01*
X30896866Y-83060501D01*
X30895393Y-83060232D01*
X30881969Y-83063052D01*
X30879000Y-83074513D01*
X30879000Y-83973000D01*
X30858998Y-84041121D01*
X30805342Y-84087614D01*
X30753000Y-84099000D01*
X30497000Y-84099000D01*
X30428879Y-84078998D01*
X30382386Y-84025342D01*
X30371000Y-83973000D01*
X30371000Y-83076576D01*
X30366656Y-83061781D01*
X30356225Y-83059937D01*
X30346644Y-83061687D01*
X30240654Y-83092481D01*
X30169658Y-83092279D01*
X30110041Y-83053725D01*
X30080732Y-82989060D01*
X30079500Y-82971484D01*
X30079500Y-81703925D01*
X30082050Y-81679967D01*
X30082128Y-81678308D01*
X30084321Y-81668124D01*
X30083097Y-81657782D01*
X30083097Y-81657779D01*
X30080374Y-81634779D01*
X30080024Y-81628848D01*
X30079928Y-81628856D01*
X30079500Y-81623680D01*
X30079500Y-81618476D01*
X30076327Y-81599412D01*
X30075496Y-81593566D01*
X30070694Y-81553001D01*
X30069470Y-81542659D01*
X30065507Y-81534407D01*
X30064004Y-81525374D01*
X30039656Y-81480248D01*
X30036982Y-81475002D01*
X30014781Y-81428769D01*
X30011187Y-81424493D01*
X30009247Y-81422553D01*
X30007493Y-81420641D01*
X30007445Y-81420552D01*
X30007568Y-81420440D01*
X30007095Y-81419904D01*
X30004010Y-81414186D01*
X29964413Y-81377583D01*
X29960848Y-81374154D01*
X29041405Y-80454711D01*
X29007379Y-80392399D01*
X29004500Y-80365616D01*
X29004500Y-79070596D01*
X29024502Y-79002475D01*
X29041405Y-78981501D01*
X29118135Y-78904771D01*
X29174868Y-78793427D01*
X29189500Y-78701045D01*
X29189499Y-78358956D01*
X29182171Y-78312688D01*
X29191271Y-78242280D01*
X29217525Y-78203885D01*
X29305484Y-78115926D01*
X29315124Y-78103499D01*
X29390396Y-77976220D01*
X29396643Y-77961784D01*
X29431619Y-77841395D01*
X29431579Y-77827295D01*
X29424309Y-77824000D01*
X27831442Y-77824000D01*
X27817911Y-77827973D01*
X27816776Y-77835871D01*
X27853357Y-77961784D01*
X27859604Y-77976220D01*
X27934876Y-78103499D01*
X27944516Y-78115926D01*
X28032474Y-78203884D01*
X28066500Y-78266196D01*
X28067828Y-78312689D01*
X28065832Y-78325289D01*
X28061275Y-78354065D01*
X28060500Y-78358955D01*
X28060501Y-78701044D01*
X28061276Y-78705935D01*
X28061276Y-78705937D01*
X28071468Y-78770289D01*
X28075132Y-78793427D01*
X28131865Y-78904771D01*
X28208595Y-78981501D01*
X28242621Y-79043813D01*
X28245500Y-79070596D01*
X28245500Y-80179616D01*
X28225498Y-80247737D01*
X28171842Y-80294230D01*
X28101568Y-80304334D01*
X28036988Y-80274840D01*
X28030405Y-80268711D01*
X26881395Y-79119701D01*
X26847369Y-79057389D01*
X26852434Y-78986574D01*
X26881395Y-78941511D01*
X26893135Y-78929771D01*
X26949868Y-78818427D01*
X26964500Y-78726045D01*
X26964499Y-78383956D01*
X26957171Y-78337688D01*
X26966271Y-78267280D01*
X26992525Y-78228885D01*
X27080484Y-78140926D01*
X27090124Y-78128499D01*
X27165396Y-78001220D01*
X27171643Y-77986784D01*
X27206619Y-77866395D01*
X27206579Y-77852295D01*
X27199309Y-77849000D01*
X26272000Y-77849000D01*
X26203879Y-77828998D01*
X26157386Y-77775342D01*
X26146000Y-77723000D01*
X26146000Y-77322885D01*
X26654000Y-77322885D01*
X26658475Y-77338124D01*
X26659865Y-77339329D01*
X26667548Y-77341000D01*
X27193558Y-77341000D01*
X27207089Y-77337027D01*
X27208224Y-77329129D01*
X27199356Y-77298605D01*
X27818381Y-77298605D01*
X27818421Y-77312705D01*
X27825691Y-77316000D01*
X28352885Y-77316000D01*
X28368124Y-77311525D01*
X28369329Y-77310135D01*
X28371000Y-77302452D01*
X28371000Y-77297885D01*
X28879000Y-77297885D01*
X28883475Y-77313124D01*
X28884865Y-77314329D01*
X28892548Y-77316000D01*
X29418558Y-77316000D01*
X29432089Y-77312027D01*
X29433224Y-77304129D01*
X29396643Y-77178216D01*
X29390396Y-77163780D01*
X29315124Y-77036501D01*
X29305484Y-77024074D01*
X29200926Y-76919516D01*
X29188499Y-76909876D01*
X29061220Y-76834604D01*
X29046784Y-76828357D01*
X28903359Y-76786688D01*
X28895391Y-76785232D01*
X28881969Y-76788052D01*
X28879000Y-76799513D01*
X28879000Y-77297885D01*
X28371000Y-77297885D01*
X28371000Y-76801576D01*
X28366656Y-76786781D01*
X28356225Y-76784937D01*
X28346641Y-76786688D01*
X28203216Y-76828357D01*
X28188780Y-76834604D01*
X28061501Y-76909876D01*
X28049074Y-76919516D01*
X27944516Y-77024074D01*
X27934876Y-77036501D01*
X27859604Y-77163780D01*
X27853357Y-77178216D01*
X27818381Y-77298605D01*
X27199356Y-77298605D01*
X27171643Y-77203216D01*
X27165396Y-77188780D01*
X27090124Y-77061501D01*
X27080484Y-77049074D01*
X26975926Y-76944516D01*
X26963499Y-76934876D01*
X26836220Y-76859604D01*
X26821784Y-76853357D01*
X26678359Y-76811688D01*
X26670391Y-76810232D01*
X26656969Y-76813052D01*
X26654000Y-76824513D01*
X26654000Y-77322885D01*
X26146000Y-77322885D01*
X26146000Y-76826576D01*
X26141656Y-76811781D01*
X26131225Y-76809937D01*
X26121641Y-76811688D01*
X25978216Y-76853357D01*
X25963780Y-76859604D01*
X25844639Y-76930063D01*
X25775822Y-76947522D01*
X25708491Y-76925005D01*
X25664022Y-76869660D01*
X25654500Y-76821609D01*
X25654500Y-74440127D01*
X25674502Y-74372006D01*
X25728158Y-74325513D01*
X25752371Y-74317307D01*
X25840928Y-74297025D01*
X25840930Y-74297024D01*
X25848332Y-74295329D01*
X25941991Y-74248224D01*
X25983072Y-74227563D01*
X25983075Y-74227561D01*
X25989855Y-74224151D01*
X25995626Y-74219222D01*
X25995629Y-74219220D01*
X26104536Y-74126204D01*
X26104536Y-74126203D01*
X26110314Y-74121269D01*
X26202755Y-73992624D01*
X26261842Y-73845641D01*
X26284162Y-73688807D01*
X26284307Y-73675000D01*
X26283559Y-73668814D01*
X26266188Y-73525273D01*
X26265276Y-73517733D01*
X26209280Y-73369546D01*
X26130029Y-73254234D01*
X26123855Y-73245251D01*
X26123854Y-73245249D01*
X26119553Y-73238992D01*
X26001275Y-73133611D01*
X25993889Y-73129700D01*
X25867988Y-73063039D01*
X25867989Y-73063039D01*
X25861274Y-73059484D01*
X25707633Y-73020892D01*
X25700034Y-73020852D01*
X25700033Y-73020852D01*
X25634181Y-73020507D01*
X25549221Y-73020062D01*
X25541841Y-73021834D01*
X25541839Y-73021834D01*
X25402563Y-73055271D01*
X25402560Y-73055272D01*
X25395184Y-73057043D01*
X25254414Y-73129700D01*
X25135039Y-73233838D01*
X25043950Y-73363444D01*
X24986406Y-73511037D01*
X24985414Y-73518570D01*
X24985414Y-73518571D01*
X24967437Y-73655123D01*
X24965729Y-73668096D01*
X24968016Y-73688807D01*
X24973253Y-73736246D01*
X24960847Y-73806150D01*
X24946965Y-73828077D01*
X24937844Y-73839647D01*
X24934812Y-73848281D01*
X24929486Y-73855734D01*
X24926501Y-73865715D01*
X24914799Y-73904844D01*
X24912964Y-73910492D01*
X24895982Y-73958851D01*
X24895500Y-73964416D01*
X24895500Y-73967124D01*
X24895386Y-73969758D01*
X24895357Y-73969856D01*
X24895193Y-73969849D01*
X24895149Y-73970553D01*
X24893287Y-73976778D01*
X24893696Y-73987183D01*
X24895403Y-74030635D01*
X24895500Y-74035582D01*
X24895500Y-79396080D01*
X24892951Y-79420028D01*
X24892872Y-79421693D01*
X24890680Y-79431876D01*
X24891904Y-79442217D01*
X24894627Y-79465223D01*
X24894977Y-79471154D01*
X24895072Y-79471146D01*
X24895500Y-79476324D01*
X24895500Y-79481524D01*
X24896354Y-79486653D01*
X24896354Y-79486656D01*
X24898669Y-79500565D01*
X24899506Y-79506443D01*
X24902150Y-79528779D01*
X24905530Y-79557341D01*
X24909493Y-79565593D01*
X24910996Y-79574626D01*
X24915943Y-79583795D01*
X24915944Y-79583797D01*
X24935334Y-79619732D01*
X24938031Y-79625025D01*
X24956785Y-79664082D01*
X24956788Y-79664086D01*
X24960219Y-79671232D01*
X24963814Y-79675508D01*
X24965737Y-79677431D01*
X24967509Y-79679363D01*
X24967552Y-79679442D01*
X24967428Y-79679555D01*
X24967904Y-79680095D01*
X24970990Y-79685814D01*
X24978635Y-79692881D01*
X25010586Y-79722416D01*
X25014152Y-79725846D01*
X25543711Y-80255405D01*
X25577737Y-80317717D01*
X25572672Y-80388532D01*
X25530125Y-80445368D01*
X25463605Y-80470179D01*
X25454616Y-80470500D01*
X25203920Y-80470500D01*
X25179972Y-80467951D01*
X25178307Y-80467872D01*
X25168124Y-80465680D01*
X25157783Y-80466904D01*
X25134777Y-80469627D01*
X25128846Y-80469977D01*
X25128854Y-80470072D01*
X25123676Y-80470500D01*
X25118476Y-80470500D01*
X25113347Y-80471354D01*
X25113344Y-80471354D01*
X25099435Y-80473669D01*
X25093557Y-80474506D01*
X25052999Y-80479306D01*
X25052998Y-80479306D01*
X25042659Y-80480530D01*
X25034407Y-80484493D01*
X25025374Y-80485996D01*
X25016205Y-80490943D01*
X25016203Y-80490944D01*
X24980268Y-80510334D01*
X24974975Y-80513031D01*
X24935918Y-80531785D01*
X24935914Y-80531788D01*
X24928768Y-80535219D01*
X24924492Y-80538814D01*
X24922569Y-80540737D01*
X24920637Y-80542509D01*
X24920558Y-80542552D01*
X24920445Y-80542428D01*
X24919905Y-80542904D01*
X24914186Y-80545990D01*
X24907119Y-80553635D01*
X24877584Y-80585586D01*
X24874154Y-80589152D01*
X24833173Y-80630133D01*
X24801281Y-80653305D01*
X24745229Y-80681865D01*
X24656865Y-80770229D01*
X24652365Y-80779061D01*
X24628305Y-80826281D01*
X24605133Y-80858173D01*
X24119784Y-81343522D01*
X24101036Y-81358664D01*
X24099811Y-81359779D01*
X24091060Y-81365429D01*
X24084613Y-81373607D01*
X24084611Y-81373609D01*
X24070271Y-81391800D01*
X24066325Y-81396241D01*
X24066398Y-81396303D01*
X24063039Y-81400267D01*
X24059362Y-81403944D01*
X24048108Y-81419692D01*
X24044612Y-81424349D01*
X24028946Y-81444221D01*
X23971065Y-81485331D01*
X23900145Y-81488623D01*
X23838704Y-81453050D01*
X23806248Y-81389906D01*
X23804000Y-81366211D01*
X23804000Y-65137425D01*
X23806421Y-65112844D01*
X23806555Y-65112172D01*
X23808976Y-65100000D01*
X23806554Y-65087826D01*
X23806554Y-65084409D01*
X23807346Y-65070297D01*
X23808152Y-65063149D01*
X23816100Y-64992609D01*
X23822379Y-64965103D01*
X23853383Y-64876499D01*
X23865625Y-64851078D01*
X23915568Y-64771594D01*
X23933160Y-64749535D01*
X23999535Y-64683160D01*
X24021594Y-64665568D01*
X24101078Y-64615625D01*
X24126499Y-64603383D01*
X24215103Y-64572379D01*
X24242609Y-64566100D01*
X24276007Y-64562337D01*
X24320303Y-64557346D01*
X24334409Y-64556554D01*
X24337826Y-64556554D01*
X24350000Y-64558976D01*
X24362847Y-64556421D01*
X24387425Y-64554000D01*
X27518585Y-64554000D01*
X27586706Y-64574002D01*
G37*
G04 #@! TD.AperFunction*
G04 #@! TA.AperFunction,Conductor*
G36*
X40320069Y-77652217D02*
G01*
X40370187Y-77702503D01*
X40379022Y-77722827D01*
X40403830Y-77797187D01*
X40410004Y-77810366D01*
X40491470Y-77942014D01*
X40500506Y-77953415D01*
X40610080Y-78062798D01*
X40621491Y-78071810D01*
X40692183Y-78115385D01*
X40739676Y-78168157D01*
X40751100Y-78238229D01*
X40726893Y-78298209D01*
X40702896Y-78330229D01*
X40662631Y-78383956D01*
X40649372Y-78401647D01*
X40646222Y-78410048D01*
X40646221Y-78410051D01*
X40634404Y-78441573D01*
X40601786Y-78528581D01*
X40600933Y-78536434D01*
X40600932Y-78536438D01*
X40597746Y-78565770D01*
X40595500Y-78586447D01*
X40595501Y-79113552D01*
X40601786Y-79171419D01*
X40615844Y-79208919D01*
X40643919Y-79283806D01*
X40649372Y-79298353D01*
X40654754Y-79305535D01*
X40659065Y-79313408D01*
X40656081Y-79315041D01*
X40675164Y-79366124D01*
X40675490Y-79375178D01*
X40675490Y-84190670D01*
X40655488Y-84258791D01*
X40601832Y-84305284D01*
X40531558Y-84315388D01*
X40514337Y-84311667D01*
X40428359Y-84286688D01*
X40420391Y-84285232D01*
X40406969Y-84288052D01*
X40404000Y-84299513D01*
X40404000Y-85198000D01*
X40383998Y-85266121D01*
X40330342Y-85312614D01*
X40278000Y-85324000D01*
X40022000Y-85324000D01*
X39953879Y-85303998D01*
X39907386Y-85250342D01*
X39896000Y-85198000D01*
X39896000Y-84301576D01*
X39891656Y-84286781D01*
X39881225Y-84284937D01*
X39871641Y-84286688D01*
X39728216Y-84328357D01*
X39713780Y-84334604D01*
X39669639Y-84360709D01*
X39600823Y-84378168D01*
X39533492Y-84355651D01*
X39489022Y-84300307D01*
X39479500Y-84252255D01*
X39479500Y-79705499D01*
X39499502Y-79637378D01*
X39553158Y-79590885D01*
X39605500Y-79579499D01*
X39751052Y-79579499D01*
X39808919Y-79573214D01*
X39870399Y-79550166D01*
X39927449Y-79528779D01*
X39927452Y-79528778D01*
X39935853Y-79525628D01*
X40044330Y-79444330D01*
X40125628Y-79335853D01*
X40130111Y-79323897D01*
X40166271Y-79227438D01*
X40173214Y-79208919D01*
X40174494Y-79197142D01*
X40179131Y-79154452D01*
X40179131Y-79154448D01*
X40179500Y-79151053D01*
X40179499Y-78623948D01*
X40173214Y-78566081D01*
X40140063Y-78477651D01*
X40128779Y-78447551D01*
X40128778Y-78447548D01*
X40125628Y-78439147D01*
X40044330Y-78330670D01*
X39935853Y-78249372D01*
X39927452Y-78246222D01*
X39927449Y-78246221D01*
X39852121Y-78217982D01*
X39795357Y-78175340D01*
X39770657Y-78108779D01*
X39785865Y-78039430D01*
X39836151Y-77989312D01*
X39852121Y-77982018D01*
X39927449Y-77953779D01*
X39927452Y-77953778D01*
X39935853Y-77950628D01*
X40044330Y-77869330D01*
X40125628Y-77760853D01*
X40141516Y-77718472D01*
X40184158Y-77661708D01*
X40250720Y-77637009D01*
X40320069Y-77652217D01*
G37*
G04 #@! TD.AperFunction*
M02*
