%FSLAX45Y45*%
G04 Gerber Fmt 4.5, Leading zero omitted, Abs format (unit mm)*
G04 Created by KiCad (PCBNEW 6.0.2+dfsg-1) date 2022-09-13 11:13:03*
%MOMM*%
%LPD*%
G01*
G04 APERTURE LIST*
%TA.AperFunction,Profile*%
%ADD10C,0.050000*%
%TD*%
%ADD11C,0.200000*%
G04 APERTURE END LIST*
D10*
X4235000Y-6430000D02*
X2435000Y-6430000D01*
X4235000Y-10265000D02*
G75*
G03*
X4315000Y-10185000I0J80000D01*
G01*
X2355000Y-6510000D02*
X2355000Y-10185000D01*
X2905000Y-10265000D02*
X3005000Y-10005000D01*
X4100000Y-10265000D02*
X4235000Y-10265000D01*
X4315000Y-10185000D02*
X4315000Y-6510000D01*
X2435000Y-6430000D02*
G75*
G03*
X2355000Y-6510000I0J-80000D01*
G01*
X4315000Y-6510000D02*
G75*
G03*
X4235000Y-6430000I-80000J0D01*
G01*
X2435000Y-10265000D02*
X2905000Y-10265000D01*
X4055000Y-10005000D02*
X4100000Y-10265000D01*
X3005000Y-10005000D02*
X4055000Y-10005000D01*
X2355000Y-10185000D02*
G75*
G03*
X2435000Y-10265000I80000J0D01*
G01*
D11*
X2610119Y-10577976D02*
X2610119Y-10377976D01*
X2657738Y-10377976D01*
X2686310Y-10387500D01*
X2705357Y-10406548D01*
X2714881Y-10425595D01*
X2724405Y-10463690D01*
X2724405Y-10492262D01*
X2714881Y-10530357D01*
X2705357Y-10549405D01*
X2686310Y-10568452D01*
X2657738Y-10577976D01*
X2610119Y-10577976D01*
X2810119Y-10577976D02*
X2810119Y-10444643D01*
X2810119Y-10482738D02*
X2819643Y-10463690D01*
X2829167Y-10454167D01*
X2848214Y-10444643D01*
X2867262Y-10444643D01*
X2933928Y-10577976D02*
X2933928Y-10444643D01*
X2933928Y-10377976D02*
X2924405Y-10387500D01*
X2933928Y-10397024D01*
X2943452Y-10387500D01*
X2933928Y-10377976D01*
X2933928Y-10397024D01*
X3057738Y-10577976D02*
X3038690Y-10568452D01*
X3029167Y-10549405D01*
X3029167Y-10377976D01*
X3162500Y-10577976D02*
X3143452Y-10568452D01*
X3133928Y-10549405D01*
X3133928Y-10377976D01*
X3391071Y-10577976D02*
X3391071Y-10377976D01*
X3457738Y-10520833D01*
X3524405Y-10377976D01*
X3524405Y-10577976D01*
X3705357Y-10577976D02*
X3705357Y-10473214D01*
X3695833Y-10454167D01*
X3676786Y-10444643D01*
X3638690Y-10444643D01*
X3619643Y-10454167D01*
X3705357Y-10568452D02*
X3686309Y-10577976D01*
X3638690Y-10577976D01*
X3619643Y-10568452D01*
X3610119Y-10549405D01*
X3610119Y-10530357D01*
X3619643Y-10511310D01*
X3638690Y-10501786D01*
X3686309Y-10501786D01*
X3705357Y-10492262D01*
X3800595Y-10444643D02*
X3800595Y-10644643D01*
X3800595Y-10454167D02*
X3819643Y-10444643D01*
X3857738Y-10444643D01*
X3876786Y-10454167D01*
X3886309Y-10463690D01*
X3895833Y-10482738D01*
X3895833Y-10539881D01*
X3886309Y-10558929D01*
X3876786Y-10568452D01*
X3857738Y-10577976D01*
X3819643Y-10577976D01*
X3800595Y-10568452D01*
X3981548Y-10558929D02*
X3991071Y-10568452D01*
X3981548Y-10577976D01*
X3972024Y-10568452D01*
X3981548Y-10558929D01*
X3981548Y-10577976D01*
X3981548Y-10454167D02*
X3991071Y-10463690D01*
X3981548Y-10473214D01*
X3972024Y-10463690D01*
X3981548Y-10454167D01*
X3981548Y-10473214D01*
M02*
