G04 #@! TF.GenerationSoftware,KiCad,Pcbnew,6.0.2+dfsg-1*
G04 #@! TF.CreationDate,2022-09-12T16:47:43+08:00*
G04 #@! TF.ProjectId,epaper-102,65706170-6572-42d3-9130-322e6b696361,rev?*
G04 #@! TF.SameCoordinates,Original*
G04 #@! TF.FileFunction,Legend,Top*
G04 #@! TF.FilePolarity,Positive*
%FSLAX46Y46*%
G04 Gerber Fmt 4.6, Leading zero omitted, Abs format (unit mm)*
G04 Created by KiCad (PCBNEW 6.0.2+dfsg-1) date 2022-09-12 16:47:43*
%MOMM*%
%LPD*%
G01*
G04 APERTURE LIST*
%ADD10C,0.153000*%
%ADD11C,0.120000*%
%ADD12C,1.200000*%
%ADD13R,1.200000X1.200000*%
%ADD14O,1.200000X1.200000*%
G04 APERTURE END LIST*
D10*
X41560666Y-64065142D02*
X41446380Y-64027047D01*
X41408285Y-63988952D01*
X41370190Y-63912761D01*
X41370190Y-63798476D01*
X41408285Y-63722285D01*
X41446380Y-63684190D01*
X41522571Y-63646095D01*
X41827333Y-63646095D01*
X41827333Y-64446095D01*
X41560666Y-64446095D01*
X41484476Y-64408000D01*
X41446380Y-64369904D01*
X41408285Y-64293714D01*
X41408285Y-64217523D01*
X41446380Y-64141333D01*
X41484476Y-64103238D01*
X41560666Y-64065142D01*
X41827333Y-64065142D01*
X41065428Y-63684190D02*
X40951142Y-63646095D01*
X40760666Y-63646095D01*
X40684476Y-63684190D01*
X40646380Y-63722285D01*
X40608285Y-63798476D01*
X40608285Y-63874666D01*
X40646380Y-63950857D01*
X40684476Y-63988952D01*
X40760666Y-64027047D01*
X40913047Y-64065142D01*
X40989238Y-64103238D01*
X41027333Y-64141333D01*
X41065428Y-64217523D01*
X41065428Y-64293714D01*
X41027333Y-64369904D01*
X40989238Y-64408000D01*
X40913047Y-64446095D01*
X40722571Y-64446095D01*
X40608285Y-64408000D01*
X40113047Y-64027047D02*
X40113047Y-63646095D01*
X40379714Y-64446095D02*
X40113047Y-64027047D01*
X39846380Y-64446095D01*
X38830190Y-63722285D02*
X38868285Y-63684190D01*
X38982571Y-63646095D01*
X39058761Y-63646095D01*
X39173047Y-63684190D01*
X39249238Y-63760380D01*
X39287333Y-63836571D01*
X39325428Y-63988952D01*
X39325428Y-64103238D01*
X39287333Y-64255619D01*
X39249238Y-64331809D01*
X39173047Y-64408000D01*
X39058761Y-64446095D01*
X38982571Y-64446095D01*
X38868285Y-64408000D01*
X38830190Y-64369904D01*
X38106380Y-63646095D02*
X38487333Y-63646095D01*
X38487333Y-64446095D01*
X37839714Y-63646095D02*
X37839714Y-64446095D01*
X37382571Y-63646095D02*
X37725428Y-64103238D01*
X37382571Y-64446095D02*
X37839714Y-63988952D01*
X36633047Y-63646095D02*
X36633047Y-64446095D01*
X36442571Y-64446095D01*
X36328285Y-64408000D01*
X36252095Y-64331809D01*
X36214000Y-64255619D01*
X36175904Y-64103238D01*
X36175904Y-63988952D01*
X36214000Y-63836571D01*
X36252095Y-63760380D01*
X36328285Y-63684190D01*
X36442571Y-63646095D01*
X36633047Y-63646095D01*
X35833047Y-63646095D02*
X35833047Y-64446095D01*
X35452095Y-63646095D02*
X35452095Y-64446095D01*
X34994952Y-63646095D01*
X34994952Y-64446095D01*
X33407333Y-63722285D02*
X33445428Y-63684190D01*
X33559714Y-63646095D01*
X33635904Y-63646095D01*
X33750190Y-63684190D01*
X33826380Y-63760380D01*
X33864476Y-63836571D01*
X33902571Y-63988952D01*
X33902571Y-64103238D01*
X33864476Y-64255619D01*
X33826380Y-64331809D01*
X33750190Y-64408000D01*
X33635904Y-64446095D01*
X33559714Y-64446095D01*
X33445428Y-64408000D01*
X33407333Y-64369904D01*
X33102571Y-63684190D02*
X32988285Y-63646095D01*
X32797809Y-63646095D01*
X32721619Y-63684190D01*
X32683523Y-63722285D01*
X32645428Y-63798476D01*
X32645428Y-63874666D01*
X32683523Y-63950857D01*
X32721619Y-63988952D01*
X32797809Y-64027047D01*
X32950190Y-64065142D01*
X33026380Y-64103238D01*
X33064476Y-64141333D01*
X33102571Y-64217523D01*
X33102571Y-64293714D01*
X33064476Y-64369904D01*
X33026380Y-64408000D01*
X32950190Y-64446095D01*
X32759714Y-64446095D01*
X32645428Y-64408000D01*
X31790476Y-64446095D02*
X31295238Y-64446095D01*
X31561904Y-64141333D01*
X31447619Y-64141333D01*
X31371428Y-64103238D01*
X31333333Y-64065142D01*
X31295238Y-63988952D01*
X31295238Y-63798476D01*
X31333333Y-63722285D01*
X31371428Y-63684190D01*
X31447619Y-63646095D01*
X31676190Y-63646095D01*
X31752380Y-63684190D01*
X31790476Y-63722285D01*
X31066666Y-64446095D02*
X30800000Y-63646095D01*
X30533333Y-64446095D01*
X30342857Y-64446095D02*
X29847619Y-64446095D01*
X30114285Y-64141333D01*
X30000000Y-64141333D01*
X29923809Y-64103238D01*
X29885714Y-64065142D01*
X29847619Y-63988952D01*
X29847619Y-63798476D01*
X29885714Y-63722285D01*
X29923809Y-63684190D01*
X30000000Y-63646095D01*
X30228571Y-63646095D01*
X30304761Y-63684190D01*
X30342857Y-63722285D01*
X28803523Y-64408000D02*
X28879714Y-64446095D01*
X28994000Y-64446095D01*
X29108285Y-64408000D01*
X29184476Y-64331809D01*
X29222571Y-64255619D01*
X29260666Y-64103238D01*
X29260666Y-63988952D01*
X29222571Y-63836571D01*
X29184476Y-63760380D01*
X29108285Y-63684190D01*
X28994000Y-63646095D01*
X28917809Y-63646095D01*
X28803523Y-63684190D01*
X28765428Y-63722285D01*
X28765428Y-63988952D01*
X28917809Y-63988952D01*
X28422571Y-63646095D02*
X28422571Y-64446095D01*
X27965428Y-63646095D01*
X27965428Y-64446095D01*
X27584476Y-63646095D02*
X27584476Y-64446095D01*
X27394000Y-64446095D01*
X27279714Y-64408000D01*
X27203523Y-64331809D01*
X27165428Y-64255619D01*
X27127333Y-64103238D01*
X27127333Y-63988952D01*
X27165428Y-63836571D01*
X27203523Y-63760380D01*
X27279714Y-63684190D01*
X27394000Y-63646095D01*
X27584476Y-63646095D01*
X26263523Y-63646095D02*
X26263523Y-64446095D01*
X26073047Y-64446095D01*
X25958761Y-64408000D01*
X25882571Y-64331809D01*
X25844476Y-64255619D01*
X25806380Y-64103238D01*
X25806380Y-63988952D01*
X25844476Y-63836571D01*
X25882571Y-63760380D01*
X25958761Y-63684190D01*
X26073047Y-63646095D01*
X26263523Y-63646095D01*
X25006380Y-63722285D02*
X25044476Y-63684190D01*
X25158761Y-63646095D01*
X25234952Y-63646095D01*
X25349238Y-63684190D01*
X25425428Y-63760380D01*
X25463523Y-63836571D01*
X25501619Y-63988952D01*
X25501619Y-64103238D01*
X25463523Y-64255619D01*
X25425428Y-64331809D01*
X25349238Y-64408000D01*
X25234952Y-64446095D01*
X25158761Y-64446095D01*
X25044476Y-64408000D01*
X25006380Y-64369904D01*
D11*
X24350000Y-67650000D02*
X42350000Y-67650000D01*
%LPC*%
D12*
X25729800Y-65450000D03*
D13*
X28269800Y-65450000D03*
D14*
X30809800Y-65450000D03*
X33349800Y-65450000D03*
X35889800Y-65450000D03*
X38429800Y-65450000D03*
X40969800Y-65450000D03*
M02*
