G04 #@! TF.GenerationSoftware,KiCad,Pcbnew,6.0.6-3a73a75311~116~ubuntu20.04.1*
G04 #@! TF.CreationDate,2022-07-02T07:09:03+08:00*
G04 #@! TF.ProjectId,epaper-102,65706170-6572-42d3-9130-322e6b696361,rev?*
G04 #@! TF.SameCoordinates,Original*
G04 #@! TF.FileFunction,Legend,Bot*
G04 #@! TF.FilePolarity,Positive*
%FSLAX46Y46*%
G04 Gerber Fmt 4.6, Leading zero omitted, Abs format (unit mm)*
G04 Created by KiCad (PCBNEW 6.0.6-3a73a75311~116~ubuntu20.04.1) date 2022-07-02 07:09:03*
%MOMM*%
%LPD*%
G01*
G04 APERTURE LIST*
G04 Aperture macros list*
%AMRoundRect*
0 Rectangle with rounded corners*
0 $1 Rounding radius*
0 $2 $3 $4 $5 $6 $7 $8 $9 X,Y pos of 4 corners*
0 Add a 4 corners polygon primitive as box body*
4,1,4,$2,$3,$4,$5,$6,$7,$8,$9,$2,$3,0*
0 Add four circle primitives for the rounded corners*
1,1,$1+$1,$2,$3*
1,1,$1+$1,$4,$5*
1,1,$1+$1,$6,$7*
1,1,$1+$1,$8,$9*
0 Add four rect primitives between the rounded corners*
20,1,$1+$1,$2,$3,$4,$5,0*
20,1,$1+$1,$4,$5,$6,$7,0*
20,1,$1+$1,$6,$7,$8,$9,0*
20,1,$1+$1,$8,$9,$2,$3,0*%
G04 Aperture macros list end*
%ADD10C,0.153000*%
%ADD11C,0.150000*%
%ADD12C,0.120000*%
%ADD13RoundRect,0.225000X-0.250000X0.225000X-0.250000X-0.225000X0.250000X-0.225000X0.250000X0.225000X0*%
%ADD14RoundRect,0.218750X0.256250X-0.218750X0.256250X0.218750X-0.256250X0.218750X-0.256250X-0.218750X0*%
%ADD15RoundRect,0.218750X-0.256250X0.218750X-0.256250X-0.218750X0.256250X-0.218750X0.256250X0.218750X0*%
%ADD16R,0.900000X1.200000*%
%ADD17R,0.300000X1.300000*%
%ADD18R,1.000000X1.500000*%
%ADD19C,1.400000*%
G04 APERTURE END LIST*
D10*
X39210904Y-63638095D02*
X38944238Y-64019047D01*
X38753761Y-63638095D02*
X38753761Y-64438095D01*
X39058523Y-64438095D01*
X39134714Y-64400000D01*
X39172809Y-64361904D01*
X39210904Y-64285714D01*
X39210904Y-64171428D01*
X39172809Y-64095238D01*
X39134714Y-64057142D01*
X39058523Y-64019047D01*
X38753761Y-64019047D01*
X39515666Y-63676190D02*
X39629952Y-63638095D01*
X39820428Y-63638095D01*
X39896619Y-63676190D01*
X39934714Y-63714285D01*
X39972809Y-63790476D01*
X39972809Y-63866666D01*
X39934714Y-63942857D01*
X39896619Y-63980952D01*
X39820428Y-64019047D01*
X39668047Y-64057142D01*
X39591857Y-64095238D01*
X39553761Y-64133333D01*
X39515666Y-64209523D01*
X39515666Y-64285714D01*
X39553761Y-64361904D01*
X39591857Y-64400000D01*
X39668047Y-64438095D01*
X39858523Y-64438095D01*
X39972809Y-64400000D01*
X40201380Y-64438095D02*
X40658523Y-64438095D01*
X40429952Y-63638095D02*
X40429952Y-64438095D01*
X31109523Y-67338095D02*
X31604761Y-67338095D01*
X31338095Y-67033333D01*
X31452380Y-67033333D01*
X31528571Y-66995238D01*
X31566666Y-66957142D01*
X31604761Y-66880952D01*
X31604761Y-66690476D01*
X31566666Y-66614285D01*
X31528571Y-66576190D01*
X31452380Y-66538095D01*
X31223809Y-66538095D01*
X31147619Y-66576190D01*
X31109523Y-66614285D01*
X31833333Y-67338095D02*
X32100000Y-66538095D01*
X32366666Y-67338095D01*
X32557142Y-67338095D02*
X33052380Y-67338095D01*
X32785714Y-67033333D01*
X32899999Y-67033333D01*
X32976190Y-66995238D01*
X33014285Y-66957142D01*
X33052380Y-66880952D01*
X33052380Y-66690476D01*
X33014285Y-66614285D01*
X32976190Y-66576190D01*
X32899999Y-66538095D01*
X32671428Y-66538095D01*
X32595238Y-66576190D01*
X32557142Y-66614285D01*
X41014333Y-66976142D02*
X41128619Y-66938047D01*
X41166714Y-66899952D01*
X41204809Y-66823761D01*
X41204809Y-66709476D01*
X41166714Y-66633285D01*
X41128619Y-66595190D01*
X41052428Y-66557095D01*
X40747666Y-66557095D01*
X40747666Y-67357095D01*
X41014333Y-67357095D01*
X41090523Y-67319000D01*
X41128619Y-67280904D01*
X41166714Y-67204714D01*
X41166714Y-67128523D01*
X41128619Y-67052333D01*
X41090523Y-67014238D01*
X41014333Y-66976142D01*
X40747666Y-66976142D01*
X41509571Y-66595190D02*
X41623857Y-66557095D01*
X41814333Y-66557095D01*
X41890523Y-66595190D01*
X41928619Y-66633285D01*
X41966714Y-66709476D01*
X41966714Y-66785666D01*
X41928619Y-66861857D01*
X41890523Y-66899952D01*
X41814333Y-66938047D01*
X41661952Y-66976142D01*
X41585761Y-67014238D01*
X41547666Y-67052333D01*
X41509571Y-67128523D01*
X41509571Y-67204714D01*
X41547666Y-67280904D01*
X41585761Y-67319000D01*
X41661952Y-67357095D01*
X41852428Y-67357095D01*
X41966714Y-67319000D01*
X42461952Y-66938047D02*
X42461952Y-66557095D01*
X42195285Y-67357095D02*
X42461952Y-66938047D01*
X42728619Y-67357095D01*
X24566666Y-63714285D02*
X24528571Y-63676190D01*
X24414285Y-63638095D01*
X24338095Y-63638095D01*
X24223809Y-63676190D01*
X24147619Y-63752380D01*
X24109523Y-63828571D01*
X24071428Y-63980952D01*
X24071428Y-64095238D01*
X24109523Y-64247619D01*
X24147619Y-64323809D01*
X24223809Y-64400000D01*
X24338095Y-64438095D01*
X24414285Y-64438095D01*
X24528571Y-64400000D01*
X24566666Y-64361904D01*
X24871428Y-63676190D02*
X24985714Y-63638095D01*
X25176190Y-63638095D01*
X25252380Y-63676190D01*
X25290476Y-63714285D01*
X25328571Y-63790476D01*
X25328571Y-63866666D01*
X25290476Y-63942857D01*
X25252380Y-63980952D01*
X25176190Y-64019047D01*
X25023809Y-64057142D01*
X24947619Y-64095238D01*
X24909523Y-64133333D01*
X24871428Y-64209523D01*
X24871428Y-64285714D01*
X24909523Y-64361904D01*
X24947619Y-64400000D01*
X25023809Y-64438095D01*
X25214285Y-64438095D01*
X25328571Y-64400000D01*
X26390476Y-66538095D02*
X26390476Y-67338095D01*
X26580952Y-67338095D01*
X26695238Y-67300000D01*
X26771428Y-67223809D01*
X26809523Y-67147619D01*
X26847619Y-66995238D01*
X26847619Y-66880952D01*
X26809523Y-66728571D01*
X26771428Y-66652380D01*
X26695238Y-66576190D01*
X26580952Y-66538095D01*
X26390476Y-66538095D01*
X27647619Y-66614285D02*
X27609523Y-66576190D01*
X27495238Y-66538095D01*
X27419047Y-66538095D01*
X27304761Y-66576190D01*
X27228571Y-66652380D01*
X27190476Y-66728571D01*
X27152380Y-66880952D01*
X27152380Y-66995238D01*
X27190476Y-67147619D01*
X27228571Y-67223809D01*
X27304761Y-67300000D01*
X27419047Y-67338095D01*
X27495238Y-67338095D01*
X27609523Y-67300000D01*
X27647619Y-67261904D01*
X28890476Y-64400000D02*
X28814285Y-64438095D01*
X28700000Y-64438095D01*
X28585714Y-64400000D01*
X28509523Y-64323809D01*
X28471428Y-64247619D01*
X28433333Y-64095238D01*
X28433333Y-63980952D01*
X28471428Y-63828571D01*
X28509523Y-63752380D01*
X28585714Y-63676190D01*
X28700000Y-63638095D01*
X28776190Y-63638095D01*
X28890476Y-63676190D01*
X28928571Y-63714285D01*
X28928571Y-63980952D01*
X28776190Y-63980952D01*
X29271428Y-63638095D02*
X29271428Y-64438095D01*
X29728571Y-63638095D01*
X29728571Y-64438095D01*
X30109523Y-63638095D02*
X30109523Y-64438095D01*
X30300000Y-64438095D01*
X30414285Y-64400000D01*
X30490476Y-64323809D01*
X30528571Y-64247619D01*
X30566666Y-64095238D01*
X30566666Y-63980952D01*
X30528571Y-63828571D01*
X30490476Y-63752380D01*
X30414285Y-63676190D01*
X30300000Y-63638095D01*
X30109523Y-63638095D01*
X36380952Y-66538095D02*
X36380952Y-67338095D01*
X36571428Y-67338095D01*
X36685714Y-67300000D01*
X36761904Y-67223809D01*
X36800000Y-67147619D01*
X36838095Y-66995238D01*
X36838095Y-66880952D01*
X36800000Y-66728571D01*
X36761904Y-66652380D01*
X36685714Y-66576190D01*
X36571428Y-66538095D01*
X36380952Y-66538095D01*
X37180952Y-66538095D02*
X37180952Y-67338095D01*
X37561904Y-66538095D02*
X37561904Y-67338095D01*
X38019047Y-66538095D01*
X38019047Y-67338095D01*
X34223809Y-63714285D02*
X34185714Y-63676190D01*
X34071428Y-63638095D01*
X33995238Y-63638095D01*
X33880952Y-63676190D01*
X33804761Y-63752380D01*
X33766666Y-63828571D01*
X33728571Y-63980952D01*
X33728571Y-64095238D01*
X33766666Y-64247619D01*
X33804761Y-64323809D01*
X33880952Y-64400000D01*
X33995238Y-64438095D01*
X34071428Y-64438095D01*
X34185714Y-64400000D01*
X34223809Y-64361904D01*
X34947619Y-63638095D02*
X34566666Y-63638095D01*
X34566666Y-64438095D01*
X35214285Y-63638095D02*
X35214285Y-64438095D01*
X35671428Y-63638095D02*
X35328571Y-64095238D01*
X35671428Y-64438095D02*
X35214285Y-63980952D01*
D11*
X28360714Y-81716666D02*
X28398809Y-81678571D01*
X28436904Y-81564285D01*
X28436904Y-81488095D01*
X28398809Y-81373809D01*
X28322619Y-81297619D01*
X28246428Y-81259523D01*
X28094047Y-81221428D01*
X27979761Y-81221428D01*
X27827380Y-81259523D01*
X27751190Y-81297619D01*
X27675000Y-81373809D01*
X27636904Y-81488095D01*
X27636904Y-81564285D01*
X27675000Y-81678571D01*
X27713095Y-81716666D01*
X28436904Y-82478571D02*
X28436904Y-82021428D01*
X28436904Y-82250000D02*
X27636904Y-82250000D01*
X27751190Y-82173809D01*
X27827380Y-82097619D01*
X27865476Y-82021428D01*
X25610714Y-87866666D02*
X25648809Y-87828571D01*
X25686904Y-87714285D01*
X25686904Y-87638095D01*
X25648809Y-87523809D01*
X25572619Y-87447619D01*
X25496428Y-87409523D01*
X25344047Y-87371428D01*
X25229761Y-87371428D01*
X25077380Y-87409523D01*
X25001190Y-87447619D01*
X24925000Y-87523809D01*
X24886904Y-87638095D01*
X24886904Y-87714285D01*
X24925000Y-87828571D01*
X24963095Y-87866666D01*
X24963095Y-88171428D02*
X24925000Y-88209523D01*
X24886904Y-88285714D01*
X24886904Y-88476190D01*
X24925000Y-88552380D01*
X24963095Y-88590476D01*
X25039285Y-88628571D01*
X25115476Y-88628571D01*
X25229761Y-88590476D01*
X25686904Y-88133333D01*
X25686904Y-88628571D01*
X28710714Y-87916666D02*
X28748809Y-87878571D01*
X28786904Y-87764285D01*
X28786904Y-87688095D01*
X28748809Y-87573809D01*
X28672619Y-87497619D01*
X28596428Y-87459523D01*
X28444047Y-87421428D01*
X28329761Y-87421428D01*
X28177380Y-87459523D01*
X28101190Y-87497619D01*
X28025000Y-87573809D01*
X27986904Y-87688095D01*
X27986904Y-87764285D01*
X28025000Y-87878571D01*
X28063095Y-87916666D01*
X27986904Y-88183333D02*
X27986904Y-88678571D01*
X28291666Y-88411904D01*
X28291666Y-88526190D01*
X28329761Y-88602380D01*
X28367857Y-88640476D01*
X28444047Y-88678571D01*
X28634523Y-88678571D01*
X28710714Y-88640476D01*
X28748809Y-88602380D01*
X28786904Y-88526190D01*
X28786904Y-88297619D01*
X28748809Y-88221428D01*
X28710714Y-88183333D01*
X26710714Y-75666666D02*
X26748809Y-75628571D01*
X26786904Y-75514285D01*
X26786904Y-75438095D01*
X26748809Y-75323809D01*
X26672619Y-75247619D01*
X26596428Y-75209523D01*
X26444047Y-75171428D01*
X26329761Y-75171428D01*
X26177380Y-75209523D01*
X26101190Y-75247619D01*
X26025000Y-75323809D01*
X25986904Y-75438095D01*
X25986904Y-75514285D01*
X26025000Y-75628571D01*
X26063095Y-75666666D01*
X26253571Y-76352380D02*
X26786904Y-76352380D01*
X25948809Y-76161904D02*
X26520238Y-75971428D01*
X26520238Y-76466666D01*
X28885714Y-75691666D02*
X28923809Y-75653571D01*
X28961904Y-75539285D01*
X28961904Y-75463095D01*
X28923809Y-75348809D01*
X28847619Y-75272619D01*
X28771428Y-75234523D01*
X28619047Y-75196428D01*
X28504761Y-75196428D01*
X28352380Y-75234523D01*
X28276190Y-75272619D01*
X28200000Y-75348809D01*
X28161904Y-75463095D01*
X28161904Y-75539285D01*
X28200000Y-75653571D01*
X28238095Y-75691666D01*
X28161904Y-76415476D02*
X28161904Y-76034523D01*
X28542857Y-75996428D01*
X28504761Y-76034523D01*
X28466666Y-76110714D01*
X28466666Y-76301190D01*
X28504761Y-76377380D01*
X28542857Y-76415476D01*
X28619047Y-76453571D01*
X28809523Y-76453571D01*
X28885714Y-76415476D01*
X28923809Y-76377380D01*
X28961904Y-76301190D01*
X28961904Y-76110714D01*
X28923809Y-76034523D01*
X28885714Y-75996428D01*
X31410714Y-75691666D02*
X31448809Y-75653571D01*
X31486904Y-75539285D01*
X31486904Y-75463095D01*
X31448809Y-75348809D01*
X31372619Y-75272619D01*
X31296428Y-75234523D01*
X31144047Y-75196428D01*
X31029761Y-75196428D01*
X30877380Y-75234523D01*
X30801190Y-75272619D01*
X30725000Y-75348809D01*
X30686904Y-75463095D01*
X30686904Y-75539285D01*
X30725000Y-75653571D01*
X30763095Y-75691666D01*
X30686904Y-76377380D02*
X30686904Y-76225000D01*
X30725000Y-76148809D01*
X30763095Y-76110714D01*
X30877380Y-76034523D01*
X31029761Y-75996428D01*
X31334523Y-75996428D01*
X31410714Y-76034523D01*
X31448809Y-76072619D01*
X31486904Y-76148809D01*
X31486904Y-76301190D01*
X31448809Y-76377380D01*
X31410714Y-76415476D01*
X31334523Y-76453571D01*
X31144047Y-76453571D01*
X31067857Y-76415476D01*
X31029761Y-76377380D01*
X30991666Y-76301190D01*
X30991666Y-76148809D01*
X31029761Y-76072619D01*
X31067857Y-76034523D01*
X31144047Y-75996428D01*
X31085714Y-86716666D02*
X31123809Y-86678571D01*
X31161904Y-86564285D01*
X31161904Y-86488095D01*
X31123809Y-86373809D01*
X31047619Y-86297619D01*
X30971428Y-86259523D01*
X30819047Y-86221428D01*
X30704761Y-86221428D01*
X30552380Y-86259523D01*
X30476190Y-86297619D01*
X30400000Y-86373809D01*
X30361904Y-86488095D01*
X30361904Y-86564285D01*
X30400000Y-86678571D01*
X30438095Y-86716666D01*
X30361904Y-86983333D02*
X30361904Y-87516666D01*
X31161904Y-87173809D01*
X33760714Y-85666666D02*
X33798809Y-85628571D01*
X33836904Y-85514285D01*
X33836904Y-85438095D01*
X33798809Y-85323809D01*
X33722619Y-85247619D01*
X33646428Y-85209523D01*
X33494047Y-85171428D01*
X33379761Y-85171428D01*
X33227380Y-85209523D01*
X33151190Y-85247619D01*
X33075000Y-85323809D01*
X33036904Y-85438095D01*
X33036904Y-85514285D01*
X33075000Y-85628571D01*
X33113095Y-85666666D01*
X33379761Y-86123809D02*
X33341666Y-86047619D01*
X33303571Y-86009523D01*
X33227380Y-85971428D01*
X33189285Y-85971428D01*
X33113095Y-86009523D01*
X33075000Y-86047619D01*
X33036904Y-86123809D01*
X33036904Y-86276190D01*
X33075000Y-86352380D01*
X33113095Y-86390476D01*
X33189285Y-86428571D01*
X33227380Y-86428571D01*
X33303571Y-86390476D01*
X33341666Y-86352380D01*
X33379761Y-86276190D01*
X33379761Y-86123809D01*
X33417857Y-86047619D01*
X33455952Y-86009523D01*
X33532142Y-85971428D01*
X33684523Y-85971428D01*
X33760714Y-86009523D01*
X33798809Y-86047619D01*
X33836904Y-86123809D01*
X33836904Y-86276190D01*
X33798809Y-86352380D01*
X33760714Y-86390476D01*
X33684523Y-86428571D01*
X33532142Y-86428571D01*
X33455952Y-86390476D01*
X33417857Y-86352380D01*
X33379761Y-86276190D01*
X34060714Y-75691666D02*
X34098809Y-75653571D01*
X34136904Y-75539285D01*
X34136904Y-75463095D01*
X34098809Y-75348809D01*
X34022619Y-75272619D01*
X33946428Y-75234523D01*
X33794047Y-75196428D01*
X33679761Y-75196428D01*
X33527380Y-75234523D01*
X33451190Y-75272619D01*
X33375000Y-75348809D01*
X33336904Y-75463095D01*
X33336904Y-75539285D01*
X33375000Y-75653571D01*
X33413095Y-75691666D01*
X34136904Y-76072619D02*
X34136904Y-76225000D01*
X34098809Y-76301190D01*
X34060714Y-76339285D01*
X33946428Y-76415476D01*
X33794047Y-76453571D01*
X33489285Y-76453571D01*
X33413095Y-76415476D01*
X33375000Y-76377380D01*
X33336904Y-76301190D01*
X33336904Y-76148809D01*
X33375000Y-76072619D01*
X33413095Y-76034523D01*
X33489285Y-75996428D01*
X33679761Y-75996428D01*
X33755952Y-76034523D01*
X33794047Y-76072619D01*
X33832142Y-76148809D01*
X33832142Y-76301190D01*
X33794047Y-76377380D01*
X33755952Y-76415476D01*
X33679761Y-76453571D01*
X36535714Y-85810714D02*
X36573809Y-85772619D01*
X36611904Y-85658333D01*
X36611904Y-85582142D01*
X36573809Y-85467857D01*
X36497619Y-85391666D01*
X36421428Y-85353571D01*
X36269047Y-85315476D01*
X36154761Y-85315476D01*
X36002380Y-85353571D01*
X35926190Y-85391666D01*
X35850000Y-85467857D01*
X35811904Y-85582142D01*
X35811904Y-85658333D01*
X35850000Y-85772619D01*
X35888095Y-85810714D01*
X36611904Y-86572619D02*
X36611904Y-86115476D01*
X36611904Y-86344047D02*
X35811904Y-86344047D01*
X35926190Y-86267857D01*
X36002380Y-86191666D01*
X36040476Y-86115476D01*
X35811904Y-87067857D02*
X35811904Y-87144047D01*
X35850000Y-87220238D01*
X35888095Y-87258333D01*
X35964285Y-87296428D01*
X36116666Y-87334523D01*
X36307142Y-87334523D01*
X36459523Y-87296428D01*
X36535714Y-87258333D01*
X36573809Y-87220238D01*
X36611904Y-87144047D01*
X36611904Y-87067857D01*
X36573809Y-86991666D01*
X36535714Y-86953571D01*
X36459523Y-86915476D01*
X36307142Y-86877380D01*
X36116666Y-86877380D01*
X35964285Y-86915476D01*
X35888095Y-86953571D01*
X35850000Y-86991666D01*
X35811904Y-87067857D01*
X36610714Y-74885714D02*
X36648809Y-74847619D01*
X36686904Y-74733333D01*
X36686904Y-74657142D01*
X36648809Y-74542857D01*
X36572619Y-74466666D01*
X36496428Y-74428571D01*
X36344047Y-74390476D01*
X36229761Y-74390476D01*
X36077380Y-74428571D01*
X36001190Y-74466666D01*
X35925000Y-74542857D01*
X35886904Y-74657142D01*
X35886904Y-74733333D01*
X35925000Y-74847619D01*
X35963095Y-74885714D01*
X36686904Y-75647619D02*
X36686904Y-75190476D01*
X36686904Y-75419047D02*
X35886904Y-75419047D01*
X36001190Y-75342857D01*
X36077380Y-75266666D01*
X36115476Y-75190476D01*
X36686904Y-76409523D02*
X36686904Y-75952380D01*
X36686904Y-76180952D02*
X35886904Y-76180952D01*
X36001190Y-76104761D01*
X36077380Y-76028571D01*
X36115476Y-75952380D01*
X39685714Y-74935714D02*
X39723809Y-74897619D01*
X39761904Y-74783333D01*
X39761904Y-74707142D01*
X39723809Y-74592857D01*
X39647619Y-74516666D01*
X39571428Y-74478571D01*
X39419047Y-74440476D01*
X39304761Y-74440476D01*
X39152380Y-74478571D01*
X39076190Y-74516666D01*
X39000000Y-74592857D01*
X38961904Y-74707142D01*
X38961904Y-74783333D01*
X39000000Y-74897619D01*
X39038095Y-74935714D01*
X39761904Y-75697619D02*
X39761904Y-75240476D01*
X39761904Y-75469047D02*
X38961904Y-75469047D01*
X39076190Y-75392857D01*
X39152380Y-75316666D01*
X39190476Y-75240476D01*
X39038095Y-76002380D02*
X39000000Y-76040476D01*
X38961904Y-76116666D01*
X38961904Y-76307142D01*
X39000000Y-76383333D01*
X39038095Y-76421428D01*
X39114285Y-76459523D01*
X39190476Y-76459523D01*
X39304761Y-76421428D01*
X39761904Y-75964285D01*
X39761904Y-76459523D01*
X40460714Y-82310714D02*
X40498809Y-82272619D01*
X40536904Y-82158333D01*
X40536904Y-82082142D01*
X40498809Y-81967857D01*
X40422619Y-81891666D01*
X40346428Y-81853571D01*
X40194047Y-81815476D01*
X40079761Y-81815476D01*
X39927380Y-81853571D01*
X39851190Y-81891666D01*
X39775000Y-81967857D01*
X39736904Y-82082142D01*
X39736904Y-82158333D01*
X39775000Y-82272619D01*
X39813095Y-82310714D01*
X40536904Y-83072619D02*
X40536904Y-82615476D01*
X40536904Y-82844047D02*
X39736904Y-82844047D01*
X39851190Y-82767857D01*
X39927380Y-82691666D01*
X39965476Y-82615476D01*
X39736904Y-83339285D02*
X39736904Y-83834523D01*
X40041666Y-83567857D01*
X40041666Y-83682142D01*
X40079761Y-83758333D01*
X40117857Y-83796428D01*
X40194047Y-83834523D01*
X40384523Y-83834523D01*
X40460714Y-83796428D01*
X40498809Y-83758333D01*
X40536904Y-83682142D01*
X40536904Y-83453571D01*
X40498809Y-83377380D01*
X40460714Y-83339285D01*
X41635714Y-74898214D02*
X41673809Y-74860119D01*
X41711904Y-74745833D01*
X41711904Y-74669642D01*
X41673809Y-74555357D01*
X41597619Y-74479166D01*
X41521428Y-74441071D01*
X41369047Y-74402976D01*
X41254761Y-74402976D01*
X41102380Y-74441071D01*
X41026190Y-74479166D01*
X40950000Y-74555357D01*
X40911904Y-74669642D01*
X40911904Y-74745833D01*
X40950000Y-74860119D01*
X40988095Y-74898214D01*
X41711904Y-75660119D02*
X41711904Y-75202976D01*
X41711904Y-75431547D02*
X40911904Y-75431547D01*
X41026190Y-75355357D01*
X41102380Y-75279166D01*
X41140476Y-75202976D01*
X41178571Y-76345833D02*
X41711904Y-76345833D01*
X40873809Y-76155357D02*
X41445238Y-75964880D01*
X41445238Y-76460119D01*
X42310714Y-82385714D02*
X42348809Y-82347619D01*
X42386904Y-82233333D01*
X42386904Y-82157142D01*
X42348809Y-82042857D01*
X42272619Y-81966666D01*
X42196428Y-81928571D01*
X42044047Y-81890476D01*
X41929761Y-81890476D01*
X41777380Y-81928571D01*
X41701190Y-81966666D01*
X41625000Y-82042857D01*
X41586904Y-82157142D01*
X41586904Y-82233333D01*
X41625000Y-82347619D01*
X41663095Y-82385714D01*
X42386904Y-83147619D02*
X42386904Y-82690476D01*
X42386904Y-82919047D02*
X41586904Y-82919047D01*
X41701190Y-82842857D01*
X41777380Y-82766666D01*
X41815476Y-82690476D01*
X41586904Y-83871428D02*
X41586904Y-83490476D01*
X41967857Y-83452380D01*
X41929761Y-83490476D01*
X41891666Y-83566666D01*
X41891666Y-83757142D01*
X41929761Y-83833333D01*
X41967857Y-83871428D01*
X42044047Y-83909523D01*
X42234523Y-83909523D01*
X42310714Y-83871428D01*
X42348809Y-83833333D01*
X42386904Y-83757142D01*
X42386904Y-83566666D01*
X42348809Y-83490476D01*
X42310714Y-83452380D01*
X33765476Y-71036904D02*
X33765476Y-70236904D01*
X33575000Y-70236904D01*
X33460714Y-70275000D01*
X33384523Y-70351190D01*
X33346428Y-70427380D01*
X33308333Y-70579761D01*
X33308333Y-70694047D01*
X33346428Y-70846428D01*
X33384523Y-70922619D01*
X33460714Y-70998809D01*
X33575000Y-71036904D01*
X33765476Y-71036904D01*
X32546428Y-71036904D02*
X33003571Y-71036904D01*
X32775000Y-71036904D02*
X32775000Y-70236904D01*
X32851190Y-70351190D01*
X32927380Y-70427380D01*
X33003571Y-70465476D01*
X33933333Y-96727380D02*
X33933333Y-97441666D01*
X33980952Y-97584523D01*
X34076190Y-97679761D01*
X34219047Y-97727380D01*
X34314285Y-97727380D01*
X32933333Y-97727380D02*
X33504761Y-97727380D01*
X33219047Y-97727380D02*
X33219047Y-96727380D01*
X33314285Y-96870238D01*
X33409523Y-96965476D01*
X33504761Y-97013095D01*
X24385714Y-81135714D02*
X24423809Y-81097619D01*
X24461904Y-80983333D01*
X24461904Y-80907142D01*
X24423809Y-80792857D01*
X24347619Y-80716666D01*
X24271428Y-80678571D01*
X24119047Y-80640476D01*
X24004761Y-80640476D01*
X23852380Y-80678571D01*
X23776190Y-80716666D01*
X23700000Y-80792857D01*
X23661904Y-80907142D01*
X23661904Y-80983333D01*
X23700000Y-81097619D01*
X23738095Y-81135714D01*
X24461904Y-81897619D02*
X24461904Y-81440476D01*
X24461904Y-81669047D02*
X23661904Y-81669047D01*
X23776190Y-81592857D01*
X23852380Y-81516666D01*
X23890476Y-81440476D01*
X23661904Y-82583333D02*
X23661904Y-82430952D01*
X23700000Y-82354761D01*
X23738095Y-82316666D01*
X23852380Y-82240476D01*
X24004761Y-82202380D01*
X24309523Y-82202380D01*
X24385714Y-82240476D01*
X24423809Y-82278571D01*
X24461904Y-82354761D01*
X24461904Y-82507142D01*
X24423809Y-82583333D01*
X24385714Y-82621428D01*
X24309523Y-82659523D01*
X24119047Y-82659523D01*
X24042857Y-82621428D01*
X24004761Y-82583333D01*
X23966666Y-82507142D01*
X23966666Y-82354761D01*
X24004761Y-82278571D01*
X24042857Y-82240476D01*
X24119047Y-82202380D01*
X27110714Y-87885714D02*
X27148809Y-87847619D01*
X27186904Y-87733333D01*
X27186904Y-87657142D01*
X27148809Y-87542857D01*
X27072619Y-87466666D01*
X26996428Y-87428571D01*
X26844047Y-87390476D01*
X26729761Y-87390476D01*
X26577380Y-87428571D01*
X26501190Y-87466666D01*
X26425000Y-87542857D01*
X26386904Y-87657142D01*
X26386904Y-87733333D01*
X26425000Y-87847619D01*
X26463095Y-87885714D01*
X27186904Y-88647619D02*
X27186904Y-88190476D01*
X27186904Y-88419047D02*
X26386904Y-88419047D01*
X26501190Y-88342857D01*
X26577380Y-88266666D01*
X26615476Y-88190476D01*
X26386904Y-88914285D02*
X26386904Y-89447619D01*
X27186904Y-89104761D01*
D12*
X26190000Y-81509420D02*
X26190000Y-81790580D01*
X27210000Y-81509420D02*
X27210000Y-81790580D01*
X24765000Y-85609420D02*
X24765000Y-85890580D01*
X25785000Y-85609420D02*
X25785000Y-85890580D01*
X28885000Y-85634420D02*
X28885000Y-85915580D01*
X27865000Y-85634420D02*
X27865000Y-85915580D01*
X25890000Y-77934420D02*
X25890000Y-78215580D01*
X26910000Y-77934420D02*
X26910000Y-78215580D01*
X28115000Y-77909420D02*
X28115000Y-78190580D01*
X29135000Y-77909420D02*
X29135000Y-78190580D01*
X31685000Y-78034420D02*
X31685000Y-78315580D01*
X30665000Y-78034420D02*
X30665000Y-78315580D01*
X30115000Y-84184420D02*
X30115000Y-84465580D01*
X31135000Y-84184420D02*
X31135000Y-84465580D01*
X32865000Y-83084420D02*
X32865000Y-83365580D01*
X33885000Y-83084420D02*
X33885000Y-83365580D01*
X34260000Y-78084420D02*
X34260000Y-78365580D01*
X33240000Y-78084420D02*
X33240000Y-78365580D01*
X35690000Y-83184420D02*
X35690000Y-83465580D01*
X36710000Y-83184420D02*
X36710000Y-83465580D01*
X35915000Y-77909420D02*
X35915000Y-78190580D01*
X36935000Y-77909420D02*
X36935000Y-78190580D01*
X39960000Y-78262779D02*
X39960000Y-77937221D01*
X38940000Y-78262779D02*
X38940000Y-77937221D01*
X39640000Y-85409420D02*
X39640000Y-85690580D01*
X40660000Y-85409420D02*
X40660000Y-85690580D01*
X41835000Y-77899721D02*
X41835000Y-78225279D01*
X40815000Y-77899721D02*
X40815000Y-78225279D01*
X42485000Y-85434420D02*
X42485000Y-85715580D01*
X41465000Y-85434420D02*
X41465000Y-85715580D01*
X31100000Y-73550000D02*
X35000000Y-73550000D01*
X31100000Y-71550000D02*
X35000000Y-71550000D01*
X31100000Y-73550000D02*
X31100000Y-71550000D01*
X42500000Y-95060000D02*
X42500000Y-95600000D01*
X24200000Y-91000000D02*
X24200000Y-92340000D01*
X24200000Y-95600000D02*
X24200000Y-95060000D01*
X25690000Y-91000000D02*
X24200000Y-91000000D01*
X42500000Y-95600000D02*
X24200000Y-95600000D01*
X41010000Y-91000000D02*
X42500000Y-91000000D01*
X41010000Y-91000000D02*
X41010000Y-89800000D01*
X42500000Y-91000000D02*
X42500000Y-92340000D01*
X24640000Y-81484420D02*
X24640000Y-81765580D01*
X25660000Y-81484420D02*
X25660000Y-81765580D01*
X26315000Y-85634420D02*
X26315000Y-85915580D01*
X27335000Y-85634420D02*
X27335000Y-85915580D01*
%LPC*%
D13*
X26700000Y-80875000D03*
X26700000Y-82425000D03*
X25275000Y-84975000D03*
X25275000Y-86525000D03*
X28375000Y-85000000D03*
X28375000Y-86550000D03*
X26400000Y-77300000D03*
X26400000Y-78850000D03*
X28625000Y-77275000D03*
X28625000Y-78825000D03*
X31175000Y-77400000D03*
X31175000Y-78950000D03*
X30625000Y-83550000D03*
X30625000Y-85100000D03*
X33375000Y-82450000D03*
X33375000Y-84000000D03*
X33750000Y-77450000D03*
X33750000Y-79000000D03*
X36200000Y-82550000D03*
X36200000Y-84100000D03*
X36425000Y-77275000D03*
X36425000Y-78825000D03*
D14*
X39450000Y-78887500D03*
X39450000Y-77312500D03*
D13*
X40150000Y-84775000D03*
X40150000Y-86325000D03*
D15*
X41325000Y-77275000D03*
X41325000Y-78850000D03*
D13*
X41975000Y-84800000D03*
X41975000Y-86350000D03*
D16*
X31700000Y-72550000D03*
X35000000Y-72550000D03*
D17*
X40600000Y-90450000D03*
D18*
X24600000Y-93650000D03*
D17*
X40100000Y-90450000D03*
X39600000Y-90450000D03*
X39100000Y-90450000D03*
X38600000Y-90450000D03*
X38100000Y-90450000D03*
X37600000Y-90450000D03*
X37100000Y-90450000D03*
X36600000Y-90450000D03*
X36100000Y-90450000D03*
X35600000Y-90450000D03*
X35100000Y-90450000D03*
X34600000Y-90450000D03*
X34100000Y-90450000D03*
X33600000Y-90450000D03*
X33100000Y-90450000D03*
X32600000Y-90450000D03*
X32100000Y-90450000D03*
X31600000Y-90450000D03*
X31100000Y-90450000D03*
X30600000Y-90450000D03*
X30100000Y-90450000D03*
X29600000Y-90450000D03*
X29100000Y-90450000D03*
X28600000Y-90450000D03*
X28100000Y-90450000D03*
X27600000Y-90450000D03*
X27100000Y-90450000D03*
X26600000Y-90450000D03*
X26100000Y-90450000D03*
D18*
X42100000Y-93650000D03*
D19*
X24459800Y-65450000D03*
X26999800Y-65450000D03*
X29539800Y-65450000D03*
X32079800Y-65450000D03*
X34619800Y-65450000D03*
X37159800Y-65450000D03*
X39699800Y-65450000D03*
X42239800Y-65450000D03*
D13*
X25150000Y-80850000D03*
X25150000Y-82400000D03*
X26825000Y-85000000D03*
X26825000Y-86550000D03*
M02*
