%FSLAX45Y45*%
G04 Gerber Fmt 4.5, Leading zero omitted, Abs format (unit mm)*
G04 Created by KiCad (PCBNEW 6.0.2+dfsg-1) date 2022-09-12 16:48:09*
%MOMM*%
%LPD*%
G01*
G04 APERTURE LIST*
%TA.AperFunction,Profile*%
%ADD10C,0.050000*%
%TD*%
%ADD11C,0.200000*%
%ADD12C,0.040000*%
%ADD13C,0.080000*%
G04 APERTURE END LIST*
D10*
X4235000Y-6305000D02*
X2435000Y-6305000D01*
X4235000Y-10165000D02*
G75*
G03*
X4315000Y-10085000I0J80000D01*
G01*
X2355000Y-6385000D02*
X2355000Y-10085000D01*
X2905000Y-10165000D02*
X3005000Y-10005000D01*
X4155000Y-10165000D02*
X4235000Y-10165000D01*
X4315000Y-10085000D02*
X4315000Y-6385000D01*
X2435000Y-6305000D02*
G75*
G03*
X2355000Y-6385000I0J-80000D01*
G01*
X4315000Y-6385000D02*
G75*
G03*
X4235000Y-6305000I-80000J0D01*
G01*
X4055000Y-10005000D02*
X4155000Y-10165000D01*
X3005000Y-10005000D02*
X4055000Y-10005000D01*
X2355000Y-10085000D02*
G75*
G03*
X2435000Y-10165000I80000J0D01*
G01*
X2435000Y-10165000D02*
X2905000Y-10165000D01*
D11*
D12*
X2422500Y-7682500D02*
X2462500Y-7722500D01*
X2462500Y-7682500D02*
X2422500Y-7722500D01*
X2542500Y-7347500D02*
X2582500Y-7387500D01*
X2582500Y-7347500D02*
X2542500Y-7387500D01*
X2580000Y-6910000D02*
X2620000Y-6950000D01*
X2620000Y-6910000D02*
X2580000Y-6950000D01*
X2580000Y-8350000D02*
X2620000Y-8390000D01*
X2620000Y-8350000D02*
X2580000Y-8390000D01*
X2620000Y-7477500D02*
X2660000Y-7517500D01*
X2660000Y-7477500D02*
X2620000Y-7517500D01*
X2740000Y-9420000D02*
X2780000Y-9460000D01*
X2780000Y-9420000D02*
X2740000Y-9460000D01*
X2840000Y-9420000D02*
X2880000Y-9460000D01*
X2880000Y-9420000D02*
X2840000Y-9460000D01*
X2940000Y-7550000D02*
X2980000Y-7590000D01*
X2980000Y-7550000D02*
X2940000Y-7590000D01*
X2940001Y-9420000D02*
X2980001Y-9460000D01*
X2980001Y-9420000D02*
X2940001Y-9460000D01*
X3040000Y-7430000D02*
X3080000Y-7470000D01*
X3080000Y-7430000D02*
X3040000Y-7470000D01*
X3040001Y-9420000D02*
X3080001Y-9460000D01*
X3080001Y-9420000D02*
X3040001Y-9460000D01*
X3110000Y-6880000D02*
X3150000Y-6920000D01*
X3150000Y-6880000D02*
X3110000Y-6920000D01*
X3240001Y-9420000D02*
X3280001Y-9460000D01*
X3280001Y-9420000D02*
X3240001Y-9460000D01*
X3360000Y-8042500D02*
X3400000Y-8082500D01*
X3400000Y-8042500D02*
X3360000Y-8082500D01*
X3450000Y-6900000D02*
X3490000Y-6940000D01*
X3490000Y-6900000D02*
X3450000Y-6940000D01*
X3450000Y-9230000D02*
X3490000Y-9270000D01*
X3490000Y-9230000D02*
X3450000Y-9270000D01*
X3607500Y-8040000D02*
X3647500Y-8080000D01*
X3647500Y-8040000D02*
X3607500Y-8080000D01*
X3680000Y-9400000D02*
X3720000Y-9440000D01*
X3720000Y-9400000D02*
X3680000Y-9440000D01*
X3920000Y-9230000D02*
X3960000Y-9270000D01*
X3960000Y-9230000D02*
X3920000Y-9270000D01*
X3992500Y-8087500D02*
X4032500Y-8127500D01*
X4032500Y-8087500D02*
X3992500Y-8127500D01*
X3995000Y-7065000D02*
X4035000Y-7105000D01*
X4035000Y-7065000D02*
X3995000Y-7105000D01*
X4202500Y-8090000D02*
X4242500Y-8130000D01*
X4242500Y-8090000D02*
X4202500Y-8130000D01*
D13*
X2612980Y-6545000D02*
G75*
G03*
X2612980Y-6545000I-40000J0D01*
G01*
X2866980Y-6545000D02*
G75*
G03*
X2866980Y-6545000I-40000J0D01*
G01*
X3120980Y-6545000D02*
G75*
G03*
X3120980Y-6545000I-40000J0D01*
G01*
X3374980Y-6545000D02*
G75*
G03*
X3374980Y-6545000I-40000J0D01*
G01*
X3628980Y-6545000D02*
G75*
G03*
X3628980Y-6545000I-40000J0D01*
G01*
X3882980Y-6545000D02*
G75*
G03*
X3882980Y-6545000I-40000J0D01*
G01*
X4136980Y-6545000D02*
G75*
G03*
X4136980Y-6545000I-40000J0D01*
G01*
D11*
X2610119Y-10477976D02*
X2610119Y-10277976D01*
X2657738Y-10277976D01*
X2686310Y-10287500D01*
X2705357Y-10306548D01*
X2714881Y-10325595D01*
X2724405Y-10363690D01*
X2724405Y-10392262D01*
X2714881Y-10430357D01*
X2705357Y-10449405D01*
X2686310Y-10468452D01*
X2657738Y-10477976D01*
X2610119Y-10477976D01*
X2810119Y-10477976D02*
X2810119Y-10344643D01*
X2810119Y-10382738D02*
X2819643Y-10363690D01*
X2829167Y-10354167D01*
X2848214Y-10344643D01*
X2867262Y-10344643D01*
X2933928Y-10477976D02*
X2933928Y-10344643D01*
X2933928Y-10277976D02*
X2924405Y-10287500D01*
X2933928Y-10297024D01*
X2943452Y-10287500D01*
X2933928Y-10277976D01*
X2933928Y-10297024D01*
X3057738Y-10477976D02*
X3038690Y-10468452D01*
X3029167Y-10449405D01*
X3029167Y-10277976D01*
X3162500Y-10477976D02*
X3143452Y-10468452D01*
X3133928Y-10449405D01*
X3133928Y-10277976D01*
X3391071Y-10477976D02*
X3391071Y-10277976D01*
X3457738Y-10420833D01*
X3524405Y-10277976D01*
X3524405Y-10477976D01*
X3705357Y-10477976D02*
X3705357Y-10373214D01*
X3695833Y-10354167D01*
X3676786Y-10344643D01*
X3638690Y-10344643D01*
X3619643Y-10354167D01*
X3705357Y-10468452D02*
X3686309Y-10477976D01*
X3638690Y-10477976D01*
X3619643Y-10468452D01*
X3610119Y-10449405D01*
X3610119Y-10430357D01*
X3619643Y-10411310D01*
X3638690Y-10401786D01*
X3686309Y-10401786D01*
X3705357Y-10392262D01*
X3800595Y-10344643D02*
X3800595Y-10544643D01*
X3800595Y-10354167D02*
X3819643Y-10344643D01*
X3857738Y-10344643D01*
X3876786Y-10354167D01*
X3886309Y-10363690D01*
X3895833Y-10382738D01*
X3895833Y-10439881D01*
X3886309Y-10458929D01*
X3876786Y-10468452D01*
X3857738Y-10477976D01*
X3819643Y-10477976D01*
X3800595Y-10468452D01*
X3981548Y-10458929D02*
X3991071Y-10468452D01*
X3981548Y-10477976D01*
X3972024Y-10468452D01*
X3981548Y-10458929D01*
X3981548Y-10477976D01*
X3981548Y-10354167D02*
X3991071Y-10363690D01*
X3981548Y-10373214D01*
X3972024Y-10363690D01*
X3981548Y-10354167D01*
X3981548Y-10373214D01*
D12*
X2312500Y-10787500D02*
X2352500Y-10827500D01*
X2352500Y-10787500D02*
X2312500Y-10827500D01*
D11*
X2648214Y-10697976D02*
X2667262Y-10697976D01*
X2686310Y-10707500D01*
X2695833Y-10717024D01*
X2705357Y-10736071D01*
X2714881Y-10774167D01*
X2714881Y-10821786D01*
X2705357Y-10859881D01*
X2695833Y-10878929D01*
X2686310Y-10888452D01*
X2667262Y-10897976D01*
X2648214Y-10897976D01*
X2629167Y-10888452D01*
X2619643Y-10878929D01*
X2610119Y-10859881D01*
X2600595Y-10821786D01*
X2600595Y-10774167D01*
X2610119Y-10736071D01*
X2619643Y-10717024D01*
X2629167Y-10707500D01*
X2648214Y-10697976D01*
X2800595Y-10878929D02*
X2810119Y-10888452D01*
X2800595Y-10897976D01*
X2791071Y-10888452D01*
X2800595Y-10878929D01*
X2800595Y-10897976D01*
X2981548Y-10764643D02*
X2981548Y-10897976D01*
X2933928Y-10688452D02*
X2886309Y-10831310D01*
X3010119Y-10831310D01*
X3124405Y-10697976D02*
X3143452Y-10697976D01*
X3162500Y-10707500D01*
X3172024Y-10717024D01*
X3181548Y-10736071D01*
X3191071Y-10774167D01*
X3191071Y-10821786D01*
X3181548Y-10859881D01*
X3172024Y-10878929D01*
X3162500Y-10888452D01*
X3143452Y-10897976D01*
X3124405Y-10897976D01*
X3105357Y-10888452D01*
X3095833Y-10878929D01*
X3086309Y-10859881D01*
X3076786Y-10821786D01*
X3076786Y-10774167D01*
X3086309Y-10736071D01*
X3095833Y-10717024D01*
X3105357Y-10707500D01*
X3124405Y-10697976D01*
X3314881Y-10697976D02*
X3333928Y-10697976D01*
X3352976Y-10707500D01*
X3362500Y-10717024D01*
X3372024Y-10736071D01*
X3381548Y-10774167D01*
X3381548Y-10821786D01*
X3372024Y-10859881D01*
X3362500Y-10878929D01*
X3352976Y-10888452D01*
X3333928Y-10897976D01*
X3314881Y-10897976D01*
X3295833Y-10888452D01*
X3286309Y-10878929D01*
X3276786Y-10859881D01*
X3267262Y-10821786D01*
X3267262Y-10774167D01*
X3276786Y-10736071D01*
X3286309Y-10717024D01*
X3295833Y-10707500D01*
X3314881Y-10697976D01*
X3467262Y-10897976D02*
X3467262Y-10764643D01*
X3467262Y-10783690D02*
X3476786Y-10774167D01*
X3495833Y-10764643D01*
X3524405Y-10764643D01*
X3543452Y-10774167D01*
X3552976Y-10793214D01*
X3552976Y-10897976D01*
X3552976Y-10793214D02*
X3562500Y-10774167D01*
X3581548Y-10764643D01*
X3610119Y-10764643D01*
X3629167Y-10774167D01*
X3638690Y-10793214D01*
X3638690Y-10897976D01*
X3733928Y-10897976D02*
X3733928Y-10764643D01*
X3733928Y-10783690D02*
X3743452Y-10774167D01*
X3762500Y-10764643D01*
X3791071Y-10764643D01*
X3810119Y-10774167D01*
X3819643Y-10793214D01*
X3819643Y-10897976D01*
X3819643Y-10793214D02*
X3829167Y-10774167D01*
X3848214Y-10764643D01*
X3876786Y-10764643D01*
X3895833Y-10774167D01*
X3905357Y-10793214D01*
X3905357Y-10897976D01*
X4295833Y-10688452D02*
X4124405Y-10945595D01*
X4552976Y-10697976D02*
X4572024Y-10697976D01*
X4591071Y-10707500D01*
X4600595Y-10717024D01*
X4610119Y-10736071D01*
X4619643Y-10774167D01*
X4619643Y-10821786D01*
X4610119Y-10859881D01*
X4600595Y-10878929D01*
X4591071Y-10888452D01*
X4572024Y-10897976D01*
X4552976Y-10897976D01*
X4533929Y-10888452D01*
X4524405Y-10878929D01*
X4514881Y-10859881D01*
X4505357Y-10821786D01*
X4505357Y-10774167D01*
X4514881Y-10736071D01*
X4524405Y-10717024D01*
X4533929Y-10707500D01*
X4552976Y-10697976D01*
X4705357Y-10878929D02*
X4714881Y-10888452D01*
X4705357Y-10897976D01*
X4695833Y-10888452D01*
X4705357Y-10878929D01*
X4705357Y-10897976D01*
X4838690Y-10697976D02*
X4857738Y-10697976D01*
X4876786Y-10707500D01*
X4886310Y-10717024D01*
X4895833Y-10736071D01*
X4905357Y-10774167D01*
X4905357Y-10821786D01*
X4895833Y-10859881D01*
X4886310Y-10878929D01*
X4876786Y-10888452D01*
X4857738Y-10897976D01*
X4838690Y-10897976D01*
X4819643Y-10888452D01*
X4810119Y-10878929D01*
X4800595Y-10859881D01*
X4791071Y-10821786D01*
X4791071Y-10774167D01*
X4800595Y-10736071D01*
X4810119Y-10717024D01*
X4819643Y-10707500D01*
X4838690Y-10697976D01*
X5095833Y-10897976D02*
X4981548Y-10897976D01*
X5038690Y-10897976D02*
X5038690Y-10697976D01*
X5019643Y-10726548D01*
X5000595Y-10745595D01*
X4981548Y-10755119D01*
X5276786Y-10697976D02*
X5181548Y-10697976D01*
X5172024Y-10793214D01*
X5181548Y-10783690D01*
X5200595Y-10774167D01*
X5248214Y-10774167D01*
X5267262Y-10783690D01*
X5276786Y-10793214D01*
X5286310Y-10812262D01*
X5286310Y-10859881D01*
X5276786Y-10878929D01*
X5267262Y-10888452D01*
X5248214Y-10897976D01*
X5200595Y-10897976D01*
X5181548Y-10888452D01*
X5172024Y-10878929D01*
X5352976Y-10697976D02*
X5486310Y-10697976D01*
X5400595Y-10897976D01*
X5552976Y-10697976D02*
X5552976Y-10736071D01*
X5629167Y-10697976D02*
X5629167Y-10736071D01*
X5924405Y-10974167D02*
X5914881Y-10964643D01*
X5895833Y-10936071D01*
X5886309Y-10917024D01*
X5876786Y-10888452D01*
X5867262Y-10840833D01*
X5867262Y-10802738D01*
X5876786Y-10755119D01*
X5886309Y-10726548D01*
X5895833Y-10707500D01*
X5914881Y-10678929D01*
X5924405Y-10669405D01*
X5991071Y-10717024D02*
X6000595Y-10707500D01*
X6019643Y-10697976D01*
X6067262Y-10697976D01*
X6086309Y-10707500D01*
X6095833Y-10717024D01*
X6105357Y-10736071D01*
X6105357Y-10755119D01*
X6095833Y-10783690D01*
X5981548Y-10897976D01*
X6105357Y-10897976D01*
X6181548Y-10717024D02*
X6191071Y-10707500D01*
X6210119Y-10697976D01*
X6257738Y-10697976D01*
X6276786Y-10707500D01*
X6286309Y-10717024D01*
X6295833Y-10736071D01*
X6295833Y-10755119D01*
X6286309Y-10783690D01*
X6172024Y-10897976D01*
X6295833Y-10897976D01*
X6533928Y-10897976D02*
X6533928Y-10697976D01*
X6619643Y-10897976D02*
X6619643Y-10793214D01*
X6610119Y-10774167D01*
X6591071Y-10764643D01*
X6562500Y-10764643D01*
X6543452Y-10774167D01*
X6533928Y-10783690D01*
X6743452Y-10897976D02*
X6724405Y-10888452D01*
X6714881Y-10878929D01*
X6705357Y-10859881D01*
X6705357Y-10802738D01*
X6714881Y-10783690D01*
X6724405Y-10774167D01*
X6743452Y-10764643D01*
X6772024Y-10764643D01*
X6791071Y-10774167D01*
X6800595Y-10783690D01*
X6810119Y-10802738D01*
X6810119Y-10859881D01*
X6800595Y-10878929D01*
X6791071Y-10888452D01*
X6772024Y-10897976D01*
X6743452Y-10897976D01*
X6924405Y-10897976D02*
X6905357Y-10888452D01*
X6895833Y-10869405D01*
X6895833Y-10697976D01*
X7076786Y-10888452D02*
X7057738Y-10897976D01*
X7019643Y-10897976D01*
X7000595Y-10888452D01*
X6991071Y-10869405D01*
X6991071Y-10793214D01*
X7000595Y-10774167D01*
X7019643Y-10764643D01*
X7057738Y-10764643D01*
X7076786Y-10774167D01*
X7086309Y-10793214D01*
X7086309Y-10812262D01*
X6991071Y-10831310D01*
X7162500Y-10888452D02*
X7181548Y-10897976D01*
X7219643Y-10897976D01*
X7238690Y-10888452D01*
X7248214Y-10869405D01*
X7248214Y-10859881D01*
X7238690Y-10840833D01*
X7219643Y-10831310D01*
X7191071Y-10831310D01*
X7172024Y-10821786D01*
X7162500Y-10802738D01*
X7162500Y-10793214D01*
X7172024Y-10774167D01*
X7191071Y-10764643D01*
X7219643Y-10764643D01*
X7238690Y-10774167D01*
X7314881Y-10974167D02*
X7324405Y-10964643D01*
X7343452Y-10936071D01*
X7352976Y-10917024D01*
X7362500Y-10888452D01*
X7372024Y-10840833D01*
X7372024Y-10802738D01*
X7362500Y-10755119D01*
X7352976Y-10726548D01*
X7343452Y-10707500D01*
X7324405Y-10678929D01*
X7314881Y-10669405D01*
D13*
X2352500Y-11071500D02*
G75*
G03*
X2352500Y-11071500I-40000J0D01*
G01*
D11*
X2648214Y-10961976D02*
X2667262Y-10961976D01*
X2686310Y-10971500D01*
X2695833Y-10981024D01*
X2705357Y-11000071D01*
X2714881Y-11038167D01*
X2714881Y-11085786D01*
X2705357Y-11123881D01*
X2695833Y-11142929D01*
X2686310Y-11152452D01*
X2667262Y-11161976D01*
X2648214Y-11161976D01*
X2629167Y-11152452D01*
X2619643Y-11142929D01*
X2610119Y-11123881D01*
X2600595Y-11085786D01*
X2600595Y-11038167D01*
X2610119Y-11000071D01*
X2619643Y-10981024D01*
X2629167Y-10971500D01*
X2648214Y-10961976D01*
X2800595Y-11142929D02*
X2810119Y-11152452D01*
X2800595Y-11161976D01*
X2791071Y-11152452D01*
X2800595Y-11142929D01*
X2800595Y-11161976D01*
X2924405Y-11047690D02*
X2905357Y-11038167D01*
X2895833Y-11028643D01*
X2886309Y-11009595D01*
X2886309Y-11000071D01*
X2895833Y-10981024D01*
X2905357Y-10971500D01*
X2924405Y-10961976D01*
X2962500Y-10961976D01*
X2981548Y-10971500D01*
X2991071Y-10981024D01*
X3000595Y-11000071D01*
X3000595Y-11009595D01*
X2991071Y-11028643D01*
X2981548Y-11038167D01*
X2962500Y-11047690D01*
X2924405Y-11047690D01*
X2905357Y-11057214D01*
X2895833Y-11066738D01*
X2886309Y-11085786D01*
X2886309Y-11123881D01*
X2895833Y-11142929D01*
X2905357Y-11152452D01*
X2924405Y-11161976D01*
X2962500Y-11161976D01*
X2981548Y-11152452D01*
X2991071Y-11142929D01*
X3000595Y-11123881D01*
X3000595Y-11085786D01*
X2991071Y-11066738D01*
X2981548Y-11057214D01*
X2962500Y-11047690D01*
X3124405Y-10961976D02*
X3143452Y-10961976D01*
X3162500Y-10971500D01*
X3172024Y-10981024D01*
X3181548Y-11000071D01*
X3191071Y-11038167D01*
X3191071Y-11085786D01*
X3181548Y-11123881D01*
X3172024Y-11142929D01*
X3162500Y-11152452D01*
X3143452Y-11161976D01*
X3124405Y-11161976D01*
X3105357Y-11152452D01*
X3095833Y-11142929D01*
X3086309Y-11123881D01*
X3076786Y-11085786D01*
X3076786Y-11038167D01*
X3086309Y-11000071D01*
X3095833Y-10981024D01*
X3105357Y-10971500D01*
X3124405Y-10961976D01*
X3314881Y-10961976D02*
X3333928Y-10961976D01*
X3352976Y-10971500D01*
X3362500Y-10981024D01*
X3372024Y-11000071D01*
X3381548Y-11038167D01*
X3381548Y-11085786D01*
X3372024Y-11123881D01*
X3362500Y-11142929D01*
X3352976Y-11152452D01*
X3333928Y-11161976D01*
X3314881Y-11161976D01*
X3295833Y-11152452D01*
X3286309Y-11142929D01*
X3276786Y-11123881D01*
X3267262Y-11085786D01*
X3267262Y-11038167D01*
X3276786Y-11000071D01*
X3286309Y-10981024D01*
X3295833Y-10971500D01*
X3314881Y-10961976D01*
X3467262Y-11161976D02*
X3467262Y-11028643D01*
X3467262Y-11047690D02*
X3476786Y-11038167D01*
X3495833Y-11028643D01*
X3524405Y-11028643D01*
X3543452Y-11038167D01*
X3552976Y-11057214D01*
X3552976Y-11161976D01*
X3552976Y-11057214D02*
X3562500Y-11038167D01*
X3581548Y-11028643D01*
X3610119Y-11028643D01*
X3629167Y-11038167D01*
X3638690Y-11057214D01*
X3638690Y-11161976D01*
X3733928Y-11161976D02*
X3733928Y-11028643D01*
X3733928Y-11047690D02*
X3743452Y-11038167D01*
X3762500Y-11028643D01*
X3791071Y-11028643D01*
X3810119Y-11038167D01*
X3819643Y-11057214D01*
X3819643Y-11161976D01*
X3819643Y-11057214D02*
X3829167Y-11038167D01*
X3848214Y-11028643D01*
X3876786Y-11028643D01*
X3895833Y-11038167D01*
X3905357Y-11057214D01*
X3905357Y-11161976D01*
X4295833Y-10952452D02*
X4124405Y-11209595D01*
X4552976Y-10961976D02*
X4572024Y-10961976D01*
X4591071Y-10971500D01*
X4600595Y-10981024D01*
X4610119Y-11000071D01*
X4619643Y-11038167D01*
X4619643Y-11085786D01*
X4610119Y-11123881D01*
X4600595Y-11142929D01*
X4591071Y-11152452D01*
X4572024Y-11161976D01*
X4552976Y-11161976D01*
X4533929Y-11152452D01*
X4524405Y-11142929D01*
X4514881Y-11123881D01*
X4505357Y-11085786D01*
X4505357Y-11038167D01*
X4514881Y-11000071D01*
X4524405Y-10981024D01*
X4533929Y-10971500D01*
X4552976Y-10961976D01*
X4705357Y-11142929D02*
X4714881Y-11152452D01*
X4705357Y-11161976D01*
X4695833Y-11152452D01*
X4705357Y-11142929D01*
X4705357Y-11161976D01*
X4838690Y-10961976D02*
X4857738Y-10961976D01*
X4876786Y-10971500D01*
X4886310Y-10981024D01*
X4895833Y-11000071D01*
X4905357Y-11038167D01*
X4905357Y-11085786D01*
X4895833Y-11123881D01*
X4886310Y-11142929D01*
X4876786Y-11152452D01*
X4857738Y-11161976D01*
X4838690Y-11161976D01*
X4819643Y-11152452D01*
X4810119Y-11142929D01*
X4800595Y-11123881D01*
X4791071Y-11085786D01*
X4791071Y-11038167D01*
X4800595Y-11000071D01*
X4810119Y-10981024D01*
X4819643Y-10971500D01*
X4838690Y-10961976D01*
X4972024Y-10961976D02*
X5095833Y-10961976D01*
X5029167Y-11038167D01*
X5057738Y-11038167D01*
X5076786Y-11047690D01*
X5086310Y-11057214D01*
X5095833Y-11076262D01*
X5095833Y-11123881D01*
X5086310Y-11142929D01*
X5076786Y-11152452D01*
X5057738Y-11161976D01*
X5000595Y-11161976D01*
X4981548Y-11152452D01*
X4972024Y-11142929D01*
X5286310Y-11161976D02*
X5172024Y-11161976D01*
X5229167Y-11161976D02*
X5229167Y-10961976D01*
X5210119Y-10990548D01*
X5191071Y-11009595D01*
X5172024Y-11019119D01*
X5467262Y-10961976D02*
X5372024Y-10961976D01*
X5362500Y-11057214D01*
X5372024Y-11047690D01*
X5391071Y-11038167D01*
X5438690Y-11038167D01*
X5457738Y-11047690D01*
X5467262Y-11057214D01*
X5476786Y-11076262D01*
X5476786Y-11123881D01*
X5467262Y-11142929D01*
X5457738Y-11152452D01*
X5438690Y-11161976D01*
X5391071Y-11161976D01*
X5372024Y-11152452D01*
X5362500Y-11142929D01*
X5552976Y-10961976D02*
X5552976Y-11000071D01*
X5629167Y-10961976D02*
X5629167Y-11000071D01*
X5924405Y-11238167D02*
X5914881Y-11228643D01*
X5895833Y-11200071D01*
X5886309Y-11181024D01*
X5876786Y-11152452D01*
X5867262Y-11104833D01*
X5867262Y-11066738D01*
X5876786Y-11019119D01*
X5886309Y-10990548D01*
X5895833Y-10971500D01*
X5914881Y-10942929D01*
X5924405Y-10933405D01*
X5981548Y-10961976D02*
X6114881Y-10961976D01*
X6029167Y-11161976D01*
X6343452Y-11161976D02*
X6343452Y-10961976D01*
X6429167Y-11161976D02*
X6429167Y-11057214D01*
X6419643Y-11038167D01*
X6400595Y-11028643D01*
X6372024Y-11028643D01*
X6352976Y-11038167D01*
X6343452Y-11047690D01*
X6552976Y-11161976D02*
X6533928Y-11152452D01*
X6524405Y-11142929D01*
X6514881Y-11123881D01*
X6514881Y-11066738D01*
X6524405Y-11047690D01*
X6533928Y-11038167D01*
X6552976Y-11028643D01*
X6581548Y-11028643D01*
X6600595Y-11038167D01*
X6610119Y-11047690D01*
X6619643Y-11066738D01*
X6619643Y-11123881D01*
X6610119Y-11142929D01*
X6600595Y-11152452D01*
X6581548Y-11161976D01*
X6552976Y-11161976D01*
X6733928Y-11161976D02*
X6714881Y-11152452D01*
X6705357Y-11133405D01*
X6705357Y-10961976D01*
X6886309Y-11152452D02*
X6867262Y-11161976D01*
X6829167Y-11161976D01*
X6810119Y-11152452D01*
X6800595Y-11133405D01*
X6800595Y-11057214D01*
X6810119Y-11038167D01*
X6829167Y-11028643D01*
X6867262Y-11028643D01*
X6886309Y-11038167D01*
X6895833Y-11057214D01*
X6895833Y-11076262D01*
X6800595Y-11095310D01*
X6972024Y-11152452D02*
X6991071Y-11161976D01*
X7029167Y-11161976D01*
X7048214Y-11152452D01*
X7057738Y-11133405D01*
X7057738Y-11123881D01*
X7048214Y-11104833D01*
X7029167Y-11095310D01*
X7000595Y-11095310D01*
X6981548Y-11085786D01*
X6972024Y-11066738D01*
X6972024Y-11057214D01*
X6981548Y-11038167D01*
X7000595Y-11028643D01*
X7029167Y-11028643D01*
X7048214Y-11038167D01*
X7124405Y-11238167D02*
X7133928Y-11228643D01*
X7152976Y-11200071D01*
X7162500Y-11181024D01*
X7172024Y-11152452D01*
X7181548Y-11104833D01*
X7181548Y-11066738D01*
X7172024Y-11019119D01*
X7162500Y-10990548D01*
X7152976Y-10971500D01*
X7133928Y-10942929D01*
X7124405Y-10933405D01*
M02*
