G04 #@! TF.GenerationSoftware,KiCad,Pcbnew,6.0.6-3a73a75311~116~ubuntu20.04.1*
G04 #@! TF.CreationDate,2022-07-02T07:09:03+08:00*
G04 #@! TF.ProjectId,epaper-102,65706170-6572-42d3-9130-322e6b696361,rev?*
G04 #@! TF.SameCoordinates,Original*
G04 #@! TF.FileFunction,Copper,L1,Top*
G04 #@! TF.FilePolarity,Positive*
%FSLAX46Y46*%
G04 Gerber Fmt 4.6, Leading zero omitted, Abs format (unit mm)*
G04 Created by KiCad (PCBNEW 6.0.6-3a73a75311~116~ubuntu20.04.1) date 2022-07-02 07:09:03*
%MOMM*%
%LPD*%
G01*
G04 APERTURE LIST*
G04 #@! TA.AperFunction,ComponentPad*
%ADD10C,1.400000*%
G04 #@! TD*
G04 #@! TA.AperFunction,ViaPad*
%ADD11C,0.800000*%
G04 #@! TD*
G04 #@! TA.AperFunction,Conductor*
%ADD12C,0.250000*%
G04 #@! TD*
G04 APERTURE END LIST*
D10*
X24459800Y-65450000D03*
X26999800Y-65450000D03*
X29539800Y-65450000D03*
X32079800Y-65450000D03*
X34619800Y-65450000D03*
X37159800Y-65450000D03*
X39699800Y-65450000D03*
X42239800Y-65450000D03*
D11*
X26000000Y-83700000D03*
X33800000Y-80625000D03*
X34700000Y-92500000D03*
X36275000Y-80600000D03*
X39400000Y-92500000D03*
X40150000Y-70850000D03*
X24425000Y-77025000D03*
X37000000Y-94200000D03*
X42225000Y-81100000D03*
X31300000Y-69000000D03*
X40125000Y-81075000D03*
X26000000Y-69300000D03*
X26400000Y-74975000D03*
X25625000Y-73675000D03*
X32600015Y-94400000D03*
X31600012Y-94400000D03*
X30600009Y-94400000D03*
X30600000Y-74500000D03*
X29600006Y-94400000D03*
X29600000Y-75700000D03*
X28600003Y-94400000D03*
X34700000Y-69200000D03*
X27600000Y-94400000D03*
D12*
X32079800Y-65450000D02*
X25625000Y-71904800D01*
X25625000Y-71904800D02*
X25625000Y-73675000D01*
X32600015Y-94400000D02*
X32600015Y-75089785D01*
X32600015Y-75089785D02*
X42239800Y-65450000D01*
X31600012Y-94400000D02*
X31600012Y-73549788D01*
X31600012Y-73549788D02*
X39699800Y-65450000D01*
X30600009Y-94400000D02*
X30600009Y-74500009D01*
X30600009Y-74500009D02*
X30600000Y-74500000D01*
X29600006Y-75700006D02*
X29600000Y-75700000D01*
X29600006Y-94400000D02*
X29600006Y-75700006D01*
X28600003Y-94400000D02*
X28600003Y-75299997D01*
X28600003Y-75299997D02*
X34700000Y-69200000D01*
X27600000Y-94400000D02*
X27600000Y-75009800D01*
X27600000Y-75009800D02*
X37159800Y-65450000D01*
G04 #@! TA.AperFunction,Conductor*
G36*
X42337306Y-63302883D02*
G01*
X42350000Y-63305408D01*
X42361977Y-63303026D01*
X42365459Y-63303026D01*
X42379340Y-63303806D01*
X42458392Y-63312713D01*
X42485463Y-63318892D01*
X42575230Y-63350303D01*
X42600247Y-63362350D01*
X42680780Y-63412952D01*
X42702489Y-63430265D01*
X42769735Y-63497511D01*
X42787048Y-63519220D01*
X42837650Y-63599753D01*
X42849697Y-63624770D01*
X42881108Y-63714537D01*
X42887287Y-63741608D01*
X42896194Y-63820660D01*
X42896974Y-63834541D01*
X42896974Y-63838023D01*
X42894592Y-63850000D01*
X42896975Y-63861979D01*
X42897117Y-63862694D01*
X42899500Y-63886885D01*
X42899500Y-64518095D01*
X42879815Y-64585134D01*
X42827011Y-64630889D01*
X42757853Y-64640833D01*
X42716522Y-64627171D01*
X42694444Y-64615233D01*
X42638777Y-64585134D01*
X42615247Y-64572411D01*
X42615243Y-64572409D01*
X42609916Y-64569529D01*
X42431849Y-64514409D01*
X42246468Y-64494924D01*
X42240435Y-64495473D01*
X42240431Y-64495473D01*
X42066874Y-64511268D01*
X42066873Y-64511268D01*
X42060832Y-64511818D01*
X42055013Y-64513531D01*
X42055011Y-64513531D01*
X41998365Y-64530203D01*
X41882014Y-64564448D01*
X41716823Y-64650807D01*
X41712095Y-64654608D01*
X41712094Y-64654609D01*
X41578395Y-64762106D01*
X41571552Y-64767608D01*
X41451735Y-64910401D01*
X41361935Y-65073746D01*
X41305572Y-65251424D01*
X41284794Y-65436665D01*
X41300392Y-65622414D01*
X41302061Y-65628234D01*
X41302061Y-65628235D01*
X41332841Y-65735578D01*
X41332397Y-65805446D01*
X41301325Y-65857438D01*
X32372176Y-74786587D01*
X32353447Y-74801714D01*
X32352413Y-74802655D01*
X32343805Y-74808213D01*
X32328846Y-74827188D01*
X32323208Y-74834340D01*
X32319295Y-74838743D01*
X32319365Y-74838802D01*
X32316058Y-74842705D01*
X32312440Y-74846323D01*
X32309466Y-74850485D01*
X32301336Y-74861862D01*
X32297845Y-74866513D01*
X32266412Y-74906385D01*
X32263410Y-74914934D01*
X32258143Y-74922304D01*
X32246246Y-74962087D01*
X32243609Y-74970903D01*
X32241803Y-74976461D01*
X32228136Y-75015381D01*
X32224992Y-75024333D01*
X32224515Y-75029840D01*
X32224515Y-75032524D01*
X32224402Y-75035126D01*
X32224380Y-75035200D01*
X32224211Y-75035193D01*
X32224165Y-75035918D01*
X32222325Y-75042072D01*
X32222727Y-75052313D01*
X32222534Y-75053844D01*
X32221270Y-75056742D01*
X32223416Y-75069839D01*
X32224419Y-75095366D01*
X32224515Y-75100234D01*
X32224515Y-93807915D01*
X32204830Y-93874954D01*
X32181974Y-93901405D01*
X32181601Y-93901730D01*
X32118125Y-93930929D01*
X32048940Y-93921175D01*
X32017679Y-93900846D01*
X32017049Y-93900285D01*
X31980073Y-93841001D01*
X31975512Y-93807679D01*
X31975512Y-75074707D01*
X31979143Y-75062341D01*
X31977095Y-75058052D01*
X31975512Y-75038304D01*
X31975512Y-73756687D01*
X31995197Y-73689648D01*
X32011831Y-73669006D01*
X39292522Y-66388315D01*
X39353845Y-66354830D01*
X39418521Y-66358065D01*
X39475603Y-66376612D01*
X39494707Y-66382819D01*
X39500721Y-66383536D01*
X39500725Y-66383537D01*
X39660789Y-66402623D01*
X39679798Y-66404890D01*
X39685841Y-66404425D01*
X39685843Y-66404425D01*
X39743282Y-66400005D01*
X39865651Y-66390589D01*
X39982140Y-66358065D01*
X40039347Y-66342093D01*
X40039351Y-66342091D01*
X40045187Y-66340462D01*
X40211568Y-66256417D01*
X40216347Y-66252683D01*
X40216352Y-66252680D01*
X40291971Y-66193599D01*
X40358455Y-66141656D01*
X40480254Y-66000550D01*
X40499095Y-65967385D01*
X40569330Y-65843748D01*
X40572326Y-65838474D01*
X40631164Y-65661601D01*
X40654527Y-65476668D01*
X40654899Y-65450000D01*
X40653975Y-65440574D01*
X40637301Y-65270523D01*
X40637301Y-65270521D01*
X40636709Y-65264487D01*
X40582833Y-65086040D01*
X40578656Y-65078183D01*
X40498171Y-64926814D01*
X40498171Y-64926813D01*
X40495322Y-64921456D01*
X40377510Y-64777005D01*
X40338056Y-64744365D01*
X40238560Y-64662054D01*
X40238557Y-64662052D01*
X40233885Y-64658187D01*
X40098777Y-64585134D01*
X40075247Y-64572411D01*
X40075243Y-64572409D01*
X40069916Y-64569529D01*
X39891849Y-64514409D01*
X39706468Y-64494924D01*
X39700435Y-64495473D01*
X39700431Y-64495473D01*
X39526874Y-64511268D01*
X39526873Y-64511268D01*
X39520832Y-64511818D01*
X39515013Y-64513531D01*
X39515011Y-64513531D01*
X39458365Y-64530203D01*
X39342014Y-64564448D01*
X39176823Y-64650807D01*
X39172095Y-64654608D01*
X39172094Y-64654609D01*
X39038395Y-64762106D01*
X39031552Y-64767608D01*
X38911735Y-64910401D01*
X38821935Y-65073746D01*
X38765572Y-65251424D01*
X38744794Y-65436665D01*
X38760392Y-65622414D01*
X38762061Y-65628234D01*
X38762061Y-65628235D01*
X38792841Y-65735578D01*
X38792397Y-65805446D01*
X38761325Y-65857438D01*
X35537620Y-69081143D01*
X35476297Y-69114628D01*
X35406605Y-69109644D01*
X35350672Y-69067772D01*
X35333944Y-69037293D01*
X35283354Y-68903408D01*
X35283352Y-68903405D01*
X35280710Y-68896412D01*
X35276473Y-68890247D01*
X35195768Y-68772821D01*
X35195765Y-68772818D01*
X35191531Y-68766657D01*
X35073976Y-68661919D01*
X34934831Y-68588245D01*
X34927578Y-68586423D01*
X34927575Y-68586422D01*
X34869606Y-68571862D01*
X34841462Y-68564793D01*
X34781238Y-68529370D01*
X34749725Y-68467011D01*
X34756929Y-68397514D01*
X34783989Y-68356848D01*
X36752523Y-66388315D01*
X36813846Y-66354830D01*
X36878521Y-66358065D01*
X36954707Y-66382819D01*
X37139798Y-66404890D01*
X37145841Y-66404425D01*
X37145843Y-66404425D01*
X37203282Y-66400005D01*
X37325651Y-66390589D01*
X37442140Y-66358065D01*
X37499347Y-66342093D01*
X37499351Y-66342091D01*
X37505187Y-66340462D01*
X37671568Y-66256417D01*
X37676347Y-66252683D01*
X37676352Y-66252680D01*
X37751971Y-66193599D01*
X37818455Y-66141656D01*
X37940254Y-66000550D01*
X37959095Y-65967385D01*
X38029330Y-65843748D01*
X38032326Y-65838474D01*
X38091164Y-65661601D01*
X38114527Y-65476668D01*
X38114899Y-65450000D01*
X38113975Y-65440574D01*
X38097301Y-65270523D01*
X38097301Y-65270521D01*
X38096709Y-65264487D01*
X38042833Y-65086040D01*
X38038656Y-65078183D01*
X37958171Y-64926814D01*
X37958171Y-64926813D01*
X37955322Y-64921456D01*
X37837510Y-64777005D01*
X37798056Y-64744365D01*
X37698560Y-64662054D01*
X37698557Y-64662052D01*
X37693885Y-64658187D01*
X37558777Y-64585134D01*
X37535247Y-64572411D01*
X37535243Y-64572409D01*
X37529916Y-64569529D01*
X37351849Y-64514409D01*
X37166468Y-64494924D01*
X37160435Y-64495473D01*
X37160431Y-64495473D01*
X36986874Y-64511268D01*
X36986873Y-64511268D01*
X36980832Y-64511818D01*
X36975013Y-64513531D01*
X36975011Y-64513531D01*
X36918365Y-64530203D01*
X36802014Y-64564448D01*
X36636823Y-64650807D01*
X36632095Y-64654608D01*
X36632094Y-64654609D01*
X36498395Y-64762106D01*
X36491552Y-64767608D01*
X36371735Y-64910401D01*
X36281935Y-65073746D01*
X36225572Y-65251424D01*
X36204794Y-65436665D01*
X36220392Y-65622414D01*
X36222061Y-65628234D01*
X36222061Y-65628235D01*
X36252841Y-65735578D01*
X36252397Y-65805446D01*
X36221325Y-65857438D01*
X27372161Y-74706602D01*
X27353432Y-74721729D01*
X27352398Y-74722670D01*
X27343790Y-74728228D01*
X27337448Y-74736273D01*
X27323193Y-74754355D01*
X27319280Y-74758758D01*
X27319350Y-74758817D01*
X27316043Y-74762720D01*
X27312425Y-74766338D01*
X27309451Y-74770500D01*
X27301321Y-74781877D01*
X27297830Y-74786528D01*
X27266397Y-74826400D01*
X27263395Y-74834949D01*
X27258128Y-74842319D01*
X27252284Y-74861862D01*
X27243594Y-74890918D01*
X27241788Y-74896476D01*
X27230658Y-74928172D01*
X27224977Y-74944348D01*
X27224500Y-74949855D01*
X27224500Y-74952539D01*
X27224387Y-74955141D01*
X27224365Y-74955215D01*
X27224196Y-74955208D01*
X27224150Y-74955933D01*
X27222310Y-74962087D01*
X27222712Y-74972326D01*
X27222712Y-74972329D01*
X27224404Y-75015381D01*
X27224500Y-75020249D01*
X27224500Y-93807915D01*
X27204815Y-93874954D01*
X27182015Y-93901357D01*
X27113034Y-93961533D01*
X27022501Y-94090348D01*
X26965309Y-94237039D01*
X26944758Y-94393138D01*
X26945578Y-94400566D01*
X26945578Y-94400568D01*
X26947474Y-94417744D01*
X26962035Y-94549633D01*
X27016143Y-94697490D01*
X27103958Y-94828172D01*
X27126183Y-94848395D01*
X27214878Y-94929102D01*
X27214882Y-94929105D01*
X27220410Y-94934135D01*
X27358776Y-95009262D01*
X27461031Y-95036088D01*
X27503841Y-95047319D01*
X27503843Y-95047319D01*
X27511069Y-95049215D01*
X27588127Y-95050425D01*
X27661025Y-95051571D01*
X27661028Y-95051571D01*
X27668495Y-95051688D01*
X27675776Y-95050020D01*
X27675780Y-95050020D01*
X27814681Y-95018207D01*
X27821968Y-95016538D01*
X27962625Y-94945795D01*
X27983160Y-94928257D01*
X28019083Y-94897576D01*
X28082845Y-94869006D01*
X28151930Y-94879444D01*
X28183064Y-94900150D01*
X28220413Y-94934135D01*
X28358779Y-95009262D01*
X28461034Y-95036088D01*
X28503844Y-95047319D01*
X28503846Y-95047319D01*
X28511072Y-95049215D01*
X28588130Y-95050425D01*
X28661028Y-95051571D01*
X28661031Y-95051571D01*
X28668498Y-95051688D01*
X28675779Y-95050020D01*
X28675783Y-95050020D01*
X28814684Y-95018207D01*
X28821971Y-95016538D01*
X28962628Y-94945795D01*
X28983163Y-94928257D01*
X29019086Y-94897576D01*
X29082848Y-94869006D01*
X29151933Y-94879444D01*
X29183067Y-94900150D01*
X29220416Y-94934135D01*
X29358782Y-95009262D01*
X29461037Y-95036088D01*
X29503847Y-95047319D01*
X29503849Y-95047319D01*
X29511075Y-95049215D01*
X29588133Y-95050425D01*
X29661031Y-95051571D01*
X29661034Y-95051571D01*
X29668501Y-95051688D01*
X29675782Y-95050020D01*
X29675786Y-95050020D01*
X29814687Y-95018207D01*
X29821974Y-95016538D01*
X29962631Y-94945795D01*
X29983166Y-94928257D01*
X30019089Y-94897576D01*
X30082851Y-94869006D01*
X30151936Y-94879444D01*
X30183070Y-94900150D01*
X30220419Y-94934135D01*
X30358785Y-95009262D01*
X30461040Y-95036088D01*
X30503850Y-95047319D01*
X30503852Y-95047319D01*
X30511078Y-95049215D01*
X30588136Y-95050425D01*
X30661034Y-95051571D01*
X30661037Y-95051571D01*
X30668504Y-95051688D01*
X30675785Y-95050020D01*
X30675789Y-95050020D01*
X30814690Y-95018207D01*
X30821977Y-95016538D01*
X30962634Y-94945795D01*
X30983169Y-94928257D01*
X31019092Y-94897576D01*
X31082854Y-94869006D01*
X31151939Y-94879444D01*
X31183073Y-94900150D01*
X31220422Y-94934135D01*
X31358788Y-95009262D01*
X31461043Y-95036088D01*
X31503853Y-95047319D01*
X31503855Y-95047319D01*
X31511081Y-95049215D01*
X31588139Y-95050425D01*
X31661037Y-95051571D01*
X31661040Y-95051571D01*
X31668507Y-95051688D01*
X31675788Y-95050020D01*
X31675792Y-95050020D01*
X31814693Y-95018207D01*
X31821980Y-95016538D01*
X31962637Y-94945795D01*
X31983172Y-94928257D01*
X32019095Y-94897576D01*
X32082857Y-94869006D01*
X32151942Y-94879444D01*
X32183076Y-94900150D01*
X32220425Y-94934135D01*
X32358791Y-95009262D01*
X32461046Y-95036088D01*
X32503856Y-95047319D01*
X32503858Y-95047319D01*
X32511084Y-95049215D01*
X32588142Y-95050425D01*
X32661040Y-95051571D01*
X32661043Y-95051571D01*
X32668510Y-95051688D01*
X32675791Y-95050020D01*
X32675795Y-95050020D01*
X32814696Y-95018207D01*
X32821983Y-95016538D01*
X32962640Y-94945795D01*
X32968321Y-94940943D01*
X32968324Y-94940941D01*
X33076681Y-94848395D01*
X33076682Y-94848394D01*
X33082363Y-94843542D01*
X33093408Y-94828172D01*
X33113813Y-94799775D01*
X33174239Y-94715683D01*
X33232965Y-94569598D01*
X33234808Y-94556649D01*
X33254577Y-94417744D01*
X33254577Y-94417740D01*
X33255149Y-94413723D01*
X33255293Y-94400000D01*
X33236378Y-94243694D01*
X33180725Y-94096412D01*
X33172352Y-94084229D01*
X33095783Y-93972821D01*
X33095780Y-93972818D01*
X33091546Y-93966657D01*
X33017026Y-93900262D01*
X32980067Y-93840968D01*
X32975515Y-93807679D01*
X32975515Y-75296684D01*
X32995200Y-75229645D01*
X33011834Y-75209003D01*
X41832523Y-66388315D01*
X41893846Y-66354830D01*
X41958521Y-66358065D01*
X42034707Y-66382819D01*
X42219798Y-66404890D01*
X42225841Y-66404425D01*
X42225843Y-66404425D01*
X42283282Y-66400005D01*
X42405651Y-66390589D01*
X42522140Y-66358065D01*
X42579347Y-66342093D01*
X42579351Y-66342091D01*
X42585187Y-66340462D01*
X42717635Y-66273558D01*
X42719591Y-66272570D01*
X42788305Y-66259914D01*
X42852953Y-66286416D01*
X42893011Y-66343663D01*
X42899500Y-66383251D01*
X42899500Y-100813115D01*
X42897117Y-100837306D01*
X42894592Y-100850000D01*
X42896974Y-100861977D01*
X42896974Y-100865459D01*
X42896194Y-100879340D01*
X42887287Y-100958392D01*
X42881108Y-100985463D01*
X42849697Y-101075230D01*
X42837650Y-101100247D01*
X42787048Y-101180780D01*
X42769735Y-101202489D01*
X42702489Y-101269735D01*
X42680780Y-101287048D01*
X42600247Y-101337650D01*
X42575230Y-101349697D01*
X42485463Y-101381108D01*
X42458392Y-101387287D01*
X42379340Y-101396194D01*
X42365459Y-101396974D01*
X42361977Y-101396974D01*
X42350000Y-101394592D01*
X42337345Y-101397109D01*
X42337306Y-101397117D01*
X42313115Y-101399500D01*
X41757566Y-101399500D01*
X41690527Y-101379815D01*
X41652414Y-101341220D01*
X40787030Y-99956607D01*
X40786705Y-99955975D01*
X40785966Y-99952260D01*
X40761421Y-99915525D01*
X40759373Y-99912355D01*
X40752582Y-99901490D01*
X40749346Y-99896312D01*
X40746877Y-99893688D01*
X40746205Y-99892753D01*
X40730601Y-99869399D01*
X40720444Y-99862613D01*
X40715582Y-99857750D01*
X40712268Y-99854945D01*
X40706666Y-99850950D01*
X40698297Y-99842055D01*
X40681244Y-99834375D01*
X40663288Y-99824422D01*
X40647740Y-99814034D01*
X40635763Y-99811651D01*
X40629408Y-99809019D01*
X40625255Y-99807690D01*
X40618565Y-99806146D01*
X40607431Y-99801132D01*
X40595228Y-99800760D01*
X40595222Y-99800759D01*
X40579371Y-99800276D01*
X40578197Y-99800201D01*
X40574674Y-99799500D01*
X40555735Y-99799500D01*
X40551961Y-99799443D01*
X40507822Y-99798099D01*
X40504281Y-99799441D01*
X40503570Y-99799500D01*
X30096429Y-99799500D01*
X30095719Y-99799441D01*
X30092178Y-99798099D01*
X30049883Y-99799387D01*
X30048053Y-99799443D01*
X30044278Y-99799500D01*
X30025326Y-99799500D01*
X30021791Y-99800203D01*
X30020626Y-99800278D01*
X30010371Y-99800591D01*
X30004774Y-99800761D01*
X30004773Y-99800761D01*
X29992569Y-99801133D01*
X29981433Y-99806148D01*
X29974736Y-99807694D01*
X29970598Y-99809018D01*
X29964242Y-99811651D01*
X29952260Y-99814034D01*
X29936719Y-99824418D01*
X29918752Y-99834376D01*
X29912839Y-99837039D01*
X29912836Y-99837041D01*
X29901703Y-99842055D01*
X29893335Y-99850948D01*
X29887730Y-99854946D01*
X29884426Y-99857743D01*
X29879557Y-99862612D01*
X29869399Y-99869399D01*
X29862613Y-99879555D01*
X29862612Y-99879556D01*
X29853810Y-99892729D01*
X29853120Y-99893689D01*
X29850653Y-99896312D01*
X29840591Y-99912412D01*
X29838543Y-99915579D01*
X29814034Y-99952260D01*
X29813295Y-99955976D01*
X29812976Y-99956596D01*
X29169934Y-100985463D01*
X28947586Y-101341220D01*
X28895362Y-101387636D01*
X28842434Y-101399500D01*
X24386885Y-101399500D01*
X24362694Y-101397117D01*
X24362655Y-101397109D01*
X24350000Y-101394592D01*
X24338023Y-101396974D01*
X24334541Y-101396974D01*
X24320660Y-101396194D01*
X24241608Y-101387287D01*
X24214537Y-101381108D01*
X24124770Y-101349697D01*
X24099753Y-101337650D01*
X24019220Y-101287048D01*
X23997511Y-101269735D01*
X23930265Y-101202489D01*
X23912952Y-101180780D01*
X23862350Y-101100247D01*
X23850303Y-101075230D01*
X23818892Y-100985463D01*
X23812713Y-100958392D01*
X23803806Y-100879340D01*
X23803026Y-100865459D01*
X23803026Y-100861977D01*
X23805408Y-100850000D01*
X23802883Y-100837306D01*
X23800500Y-100813115D01*
X23800500Y-73668138D01*
X24969758Y-73668138D01*
X24970578Y-73675566D01*
X24970578Y-73675568D01*
X24972474Y-73692744D01*
X24987035Y-73824633D01*
X25041143Y-73972490D01*
X25128958Y-74103172D01*
X25151183Y-74123395D01*
X25239878Y-74204102D01*
X25239882Y-74204105D01*
X25245410Y-74209135D01*
X25383776Y-74284262D01*
X25486031Y-74311088D01*
X25528841Y-74322319D01*
X25528843Y-74322319D01*
X25536069Y-74324215D01*
X25613127Y-74325425D01*
X25686025Y-74326571D01*
X25686028Y-74326571D01*
X25693495Y-74326688D01*
X25700776Y-74325020D01*
X25700780Y-74325020D01*
X25839681Y-74293207D01*
X25846968Y-74291538D01*
X25987625Y-74220795D01*
X25993306Y-74215943D01*
X25993309Y-74215941D01*
X26101666Y-74123395D01*
X26101667Y-74123394D01*
X26107348Y-74118542D01*
X26118393Y-74103172D01*
X26170024Y-74031319D01*
X26199224Y-73990683D01*
X26257950Y-73844598D01*
X26259793Y-73831649D01*
X26279562Y-73692744D01*
X26279562Y-73692740D01*
X26280134Y-73688723D01*
X26280278Y-73675000D01*
X26278551Y-73660727D01*
X26262262Y-73526119D01*
X26262261Y-73526115D01*
X26261363Y-73518694D01*
X26229221Y-73433632D01*
X26208354Y-73378408D01*
X26208352Y-73378405D01*
X26205710Y-73371412D01*
X26173295Y-73324248D01*
X26120768Y-73247821D01*
X26120765Y-73247818D01*
X26116531Y-73241657D01*
X26042011Y-73175262D01*
X26005052Y-73115968D01*
X26000500Y-73082679D01*
X26000500Y-72111699D01*
X26020185Y-72044660D01*
X26036819Y-72024018D01*
X31672523Y-66388315D01*
X31733846Y-66354830D01*
X31798521Y-66358065D01*
X31874707Y-66382819D01*
X32059798Y-66404890D01*
X32065841Y-66404425D01*
X32065843Y-66404425D01*
X32123282Y-66400005D01*
X32245651Y-66390589D01*
X32362140Y-66358065D01*
X32419347Y-66342093D01*
X32419351Y-66342091D01*
X32425187Y-66340462D01*
X32591568Y-66256417D01*
X32596347Y-66252683D01*
X32596352Y-66252680D01*
X32671971Y-66193599D01*
X32738455Y-66141656D01*
X32860254Y-66000550D01*
X32879095Y-65967385D01*
X32949330Y-65843748D01*
X32952326Y-65838474D01*
X33011164Y-65661601D01*
X33034527Y-65476668D01*
X33034899Y-65450000D01*
X33033975Y-65440574D01*
X33033592Y-65436665D01*
X33664794Y-65436665D01*
X33680392Y-65622414D01*
X33682061Y-65628234D01*
X33682061Y-65628235D01*
X33691629Y-65661601D01*
X33731771Y-65801595D01*
X33734543Y-65806989D01*
X33734544Y-65806991D01*
X33761539Y-65859516D01*
X33816976Y-65967385D01*
X33932759Y-66113468D01*
X33937378Y-66117399D01*
X34069593Y-66229922D01*
X34074712Y-66234279D01*
X34080010Y-66237240D01*
X34218718Y-66314761D01*
X34237427Y-66325217D01*
X34414707Y-66382819D01*
X34599798Y-66404890D01*
X34605841Y-66404425D01*
X34605843Y-66404425D01*
X34663282Y-66400005D01*
X34785651Y-66390589D01*
X34902140Y-66358065D01*
X34959347Y-66342093D01*
X34959351Y-66342091D01*
X34965187Y-66340462D01*
X35131568Y-66256417D01*
X35136347Y-66252683D01*
X35136352Y-66252680D01*
X35211971Y-66193599D01*
X35278455Y-66141656D01*
X35400254Y-66000550D01*
X35419095Y-65967385D01*
X35489330Y-65843748D01*
X35492326Y-65838474D01*
X35551164Y-65661601D01*
X35574527Y-65476668D01*
X35574899Y-65450000D01*
X35573975Y-65440574D01*
X35557301Y-65270523D01*
X35557301Y-65270521D01*
X35556709Y-65264487D01*
X35502833Y-65086040D01*
X35498656Y-65078183D01*
X35418171Y-64926814D01*
X35418171Y-64926813D01*
X35415322Y-64921456D01*
X35297510Y-64777005D01*
X35258056Y-64744365D01*
X35158560Y-64662054D01*
X35158557Y-64662052D01*
X35153885Y-64658187D01*
X35018777Y-64585134D01*
X34995247Y-64572411D01*
X34995243Y-64572409D01*
X34989916Y-64569529D01*
X34811849Y-64514409D01*
X34626468Y-64494924D01*
X34620435Y-64495473D01*
X34620431Y-64495473D01*
X34446874Y-64511268D01*
X34446873Y-64511268D01*
X34440832Y-64511818D01*
X34435013Y-64513531D01*
X34435011Y-64513531D01*
X34378365Y-64530203D01*
X34262014Y-64564448D01*
X34096823Y-64650807D01*
X34092095Y-64654608D01*
X34092094Y-64654609D01*
X33958395Y-64762106D01*
X33951552Y-64767608D01*
X33831735Y-64910401D01*
X33741935Y-65073746D01*
X33685572Y-65251424D01*
X33664794Y-65436665D01*
X33033592Y-65436665D01*
X33017301Y-65270523D01*
X33017301Y-65270521D01*
X33016709Y-65264487D01*
X32962833Y-65086040D01*
X32958656Y-65078183D01*
X32878171Y-64926814D01*
X32878171Y-64926813D01*
X32875322Y-64921456D01*
X32757510Y-64777005D01*
X32718056Y-64744365D01*
X32618560Y-64662054D01*
X32618557Y-64662052D01*
X32613885Y-64658187D01*
X32478777Y-64585134D01*
X32455247Y-64572411D01*
X32455243Y-64572409D01*
X32449916Y-64569529D01*
X32271849Y-64514409D01*
X32086468Y-64494924D01*
X32080435Y-64495473D01*
X32080431Y-64495473D01*
X31906874Y-64511268D01*
X31906873Y-64511268D01*
X31900832Y-64511818D01*
X31895013Y-64513531D01*
X31895011Y-64513531D01*
X31838365Y-64530203D01*
X31722014Y-64564448D01*
X31556823Y-64650807D01*
X31552095Y-64654608D01*
X31552094Y-64654609D01*
X31418395Y-64762106D01*
X31411552Y-64767608D01*
X31291735Y-64910401D01*
X31201935Y-65073746D01*
X31145572Y-65251424D01*
X31124794Y-65436665D01*
X31140392Y-65622414D01*
X31142061Y-65628234D01*
X31142061Y-65628235D01*
X31172841Y-65735578D01*
X31172397Y-65805446D01*
X31141325Y-65857438D01*
X30768841Y-66229922D01*
X30707518Y-66263407D01*
X30637826Y-66258423D01*
X30581893Y-66216551D01*
X30557476Y-66151087D01*
X30572328Y-66082814D01*
X30579585Y-66071118D01*
X30586844Y-66060751D01*
X30592246Y-66051393D01*
X30676998Y-65869641D01*
X30680683Y-65859516D01*
X30732590Y-65665800D01*
X30734464Y-65655169D01*
X30751942Y-65455395D01*
X30751942Y-65444605D01*
X30734464Y-65244831D01*
X30732590Y-65234200D01*
X30680683Y-65040484D01*
X30676998Y-65030359D01*
X30592243Y-64848601D01*
X30586850Y-64839259D01*
X30565324Y-64808517D01*
X30555013Y-64800274D01*
X30541780Y-64807230D01*
X28896319Y-66452691D01*
X28889993Y-66464277D01*
X28899140Y-66476101D01*
X28929059Y-66497050D01*
X28938401Y-66502443D01*
X29120159Y-66587198D01*
X29130284Y-66590883D01*
X29324000Y-66642790D01*
X29334631Y-66644664D01*
X29534405Y-66662142D01*
X29545195Y-66662142D01*
X29744969Y-66644664D01*
X29755600Y-66642790D01*
X29949316Y-66590883D01*
X29959441Y-66587198D01*
X30141193Y-66502446D01*
X30150551Y-66497044D01*
X30160918Y-66489785D01*
X30227124Y-66467458D01*
X30294891Y-66484468D01*
X30342704Y-66535416D01*
X30355382Y-66604126D01*
X30328900Y-66668783D01*
X30319722Y-66679041D01*
X25397161Y-71601602D01*
X25378432Y-71616729D01*
X25377398Y-71617670D01*
X25368790Y-71623228D01*
X25362448Y-71631273D01*
X25348193Y-71649355D01*
X25344280Y-71653758D01*
X25344350Y-71653817D01*
X25341043Y-71657720D01*
X25337425Y-71661338D01*
X25334451Y-71665500D01*
X25326321Y-71676877D01*
X25322830Y-71681528D01*
X25291397Y-71721400D01*
X25288395Y-71729949D01*
X25283128Y-71737319D01*
X25280191Y-71747140D01*
X25268594Y-71785918D01*
X25266788Y-71791476D01*
X25249977Y-71839348D01*
X25249500Y-71844855D01*
X25249500Y-71847539D01*
X25249387Y-71850141D01*
X25249365Y-71850215D01*
X25249196Y-71850208D01*
X25249150Y-71850933D01*
X25247310Y-71857087D01*
X25247712Y-71867326D01*
X25247712Y-71867329D01*
X25249404Y-71910381D01*
X25249500Y-71915249D01*
X25249500Y-73082915D01*
X25229815Y-73149954D01*
X25207015Y-73176357D01*
X25138034Y-73236533D01*
X25047501Y-73365348D01*
X24990309Y-73512039D01*
X24969758Y-73668138D01*
X23800500Y-73668138D01*
X23800500Y-66381800D01*
X23820185Y-66314761D01*
X23872989Y-66269006D01*
X23942147Y-66259062D01*
X23984992Y-66273557D01*
X24077427Y-66325217D01*
X24254707Y-66382819D01*
X24439798Y-66404890D01*
X24445841Y-66404425D01*
X24445843Y-66404425D01*
X24503282Y-66400005D01*
X24625651Y-66390589D01*
X24742140Y-66358065D01*
X24799347Y-66342093D01*
X24799351Y-66342091D01*
X24805187Y-66340462D01*
X24971568Y-66256417D01*
X24976347Y-66252683D01*
X24976352Y-66252680D01*
X25051971Y-66193599D01*
X25118455Y-66141656D01*
X25240254Y-66000550D01*
X25259095Y-65967385D01*
X25329330Y-65843748D01*
X25332326Y-65838474D01*
X25391164Y-65661601D01*
X25414527Y-65476668D01*
X25414899Y-65450000D01*
X25413975Y-65440574D01*
X25413592Y-65436665D01*
X26044794Y-65436665D01*
X26060392Y-65622414D01*
X26062061Y-65628234D01*
X26062061Y-65628235D01*
X26071629Y-65661601D01*
X26111771Y-65801595D01*
X26114543Y-65806989D01*
X26114544Y-65806991D01*
X26141539Y-65859516D01*
X26196976Y-65967385D01*
X26312759Y-66113468D01*
X26317378Y-66117399D01*
X26449593Y-66229922D01*
X26454712Y-66234279D01*
X26460010Y-66237240D01*
X26598718Y-66314761D01*
X26617427Y-66325217D01*
X26794707Y-66382819D01*
X26979798Y-66404890D01*
X26985841Y-66404425D01*
X26985843Y-66404425D01*
X27043282Y-66400005D01*
X27165651Y-66390589D01*
X27282140Y-66358065D01*
X27339347Y-66342093D01*
X27339351Y-66342091D01*
X27345187Y-66340462D01*
X27511568Y-66256417D01*
X27516347Y-66252683D01*
X27516352Y-66252680D01*
X27591971Y-66193599D01*
X27658455Y-66141656D01*
X27780254Y-66000550D01*
X27799095Y-65967385D01*
X27869330Y-65843748D01*
X27872326Y-65838474D01*
X27931164Y-65661601D01*
X27954527Y-65476668D01*
X27954824Y-65455395D01*
X28327658Y-65455395D01*
X28345136Y-65655169D01*
X28347010Y-65665800D01*
X28398917Y-65859516D01*
X28402602Y-65869641D01*
X28487357Y-66051399D01*
X28492750Y-66060741D01*
X28514276Y-66091483D01*
X28524587Y-66099726D01*
X28537820Y-66092770D01*
X29167983Y-65462607D01*
X29175475Y-65448887D01*
X29175346Y-65447081D01*
X29171164Y-65440574D01*
X28537109Y-64806519D01*
X28525523Y-64800193D01*
X28513699Y-64809340D01*
X28492750Y-64839259D01*
X28487357Y-64848601D01*
X28402602Y-65030359D01*
X28398917Y-65040484D01*
X28347010Y-65234200D01*
X28345136Y-65244831D01*
X28327658Y-65444605D01*
X28327658Y-65455395D01*
X27954824Y-65455395D01*
X27954899Y-65450000D01*
X27953975Y-65440574D01*
X27937301Y-65270523D01*
X27937301Y-65270521D01*
X27936709Y-65264487D01*
X27882833Y-65086040D01*
X27878656Y-65078183D01*
X27798171Y-64926814D01*
X27798171Y-64926813D01*
X27795322Y-64921456D01*
X27677510Y-64777005D01*
X27638056Y-64744365D01*
X27538560Y-64662054D01*
X27538557Y-64662052D01*
X27533885Y-64658187D01*
X27398777Y-64585134D01*
X27375247Y-64572411D01*
X27375243Y-64572409D01*
X27369916Y-64569529D01*
X27191849Y-64514409D01*
X27006468Y-64494924D01*
X27000435Y-64495473D01*
X27000431Y-64495473D01*
X26826874Y-64511268D01*
X26826873Y-64511268D01*
X26820832Y-64511818D01*
X26815013Y-64513531D01*
X26815011Y-64513531D01*
X26758365Y-64530203D01*
X26642014Y-64564448D01*
X26476823Y-64650807D01*
X26472095Y-64654608D01*
X26472094Y-64654609D01*
X26338395Y-64762106D01*
X26331552Y-64767608D01*
X26211735Y-64910401D01*
X26121935Y-65073746D01*
X26065572Y-65251424D01*
X26044794Y-65436665D01*
X25413592Y-65436665D01*
X25397301Y-65270523D01*
X25397301Y-65270521D01*
X25396709Y-65264487D01*
X25342833Y-65086040D01*
X25338656Y-65078183D01*
X25258171Y-64926814D01*
X25258171Y-64926813D01*
X25255322Y-64921456D01*
X25137510Y-64777005D01*
X25098056Y-64744365D01*
X24998560Y-64662054D01*
X24998557Y-64662052D01*
X24993885Y-64658187D01*
X24858777Y-64585134D01*
X24835247Y-64572411D01*
X24835243Y-64572409D01*
X24829916Y-64569529D01*
X24651849Y-64514409D01*
X24466468Y-64494924D01*
X24460435Y-64495473D01*
X24460431Y-64495473D01*
X24286874Y-64511268D01*
X24286873Y-64511268D01*
X24280832Y-64511818D01*
X24275013Y-64513531D01*
X24275011Y-64513531D01*
X24218365Y-64530203D01*
X24102014Y-64564448D01*
X23981946Y-64627217D01*
X23913418Y-64640831D01*
X23848406Y-64615233D01*
X23807553Y-64558551D01*
X23800500Y-64517327D01*
X23800500Y-64434787D01*
X28890074Y-64434787D01*
X28897030Y-64448020D01*
X29527193Y-65078183D01*
X29540913Y-65085675D01*
X29542719Y-65085546D01*
X29549226Y-65081364D01*
X30183281Y-64447309D01*
X30189607Y-64435723D01*
X30180460Y-64423899D01*
X30150541Y-64402950D01*
X30141199Y-64397557D01*
X29959441Y-64312802D01*
X29949316Y-64309117D01*
X29755600Y-64257210D01*
X29744969Y-64255336D01*
X29545195Y-64237858D01*
X29534405Y-64237858D01*
X29334631Y-64255336D01*
X29324000Y-64257210D01*
X29130284Y-64309117D01*
X29120159Y-64312802D01*
X28938401Y-64397557D01*
X28929059Y-64402950D01*
X28898317Y-64424476D01*
X28890074Y-64434787D01*
X23800500Y-64434787D01*
X23800500Y-63886885D01*
X23802883Y-63862694D01*
X23803025Y-63861979D01*
X23805408Y-63850000D01*
X23803026Y-63838023D01*
X23803026Y-63834541D01*
X23803806Y-63820660D01*
X23812713Y-63741608D01*
X23818892Y-63714537D01*
X23850303Y-63624770D01*
X23862350Y-63599753D01*
X23912952Y-63519220D01*
X23930265Y-63497511D01*
X23997511Y-63430265D01*
X24019220Y-63412952D01*
X24099753Y-63362350D01*
X24124770Y-63350303D01*
X24214537Y-63318892D01*
X24241608Y-63312713D01*
X24320660Y-63303806D01*
X24334541Y-63303026D01*
X24338023Y-63303026D01*
X24350000Y-63305408D01*
X24362694Y-63302883D01*
X24386885Y-63300500D01*
X42313115Y-63300500D01*
X42337306Y-63302883D01*
G37*
G04 #@! TD.AperFunction*
M02*
