G04 #@! TF.GenerationSoftware,KiCad,Pcbnew,6.0.2+dfsg-1*
G04 #@! TF.CreationDate,2022-09-12T16:47:43+08:00*
G04 #@! TF.ProjectId,epaper-102,65706170-6572-42d3-9130-322e6b696361,rev?*
G04 #@! TF.SameCoordinates,Original*
G04 #@! TF.FileFunction,Copper,L2,Bot*
G04 #@! TF.FilePolarity,Positive*
%FSLAX46Y46*%
G04 Gerber Fmt 4.6, Leading zero omitted, Abs format (unit mm)*
G04 Created by KiCad (PCBNEW 6.0.2+dfsg-1) date 2022-09-12 16:47:43*
%MOMM*%
%LPD*%
G01*
G04 APERTURE LIST*
G04 Aperture macros list*
%AMRoundRect*
0 Rectangle with rounded corners*
0 $1 Rounding radius*
0 $2 $3 $4 $5 $6 $7 $8 $9 X,Y pos of 4 corners*
0 Add a 4 corners polygon primitive as box body*
4,1,4,$2,$3,$4,$5,$6,$7,$8,$9,$2,$3,0*
0 Add four circle primitives for the rounded corners*
1,1,$1+$1,$2,$3*
1,1,$1+$1,$4,$5*
1,1,$1+$1,$6,$7*
1,1,$1+$1,$8,$9*
0 Add four rect primitives between the rounded corners*
20,1,$1+$1,$2,$3,$4,$5,0*
20,1,$1+$1,$4,$5,$6,$7,0*
20,1,$1+$1,$6,$7,$8,$9,0*
20,1,$1+$1,$8,$9,$2,$3,0*%
G04 Aperture macros list end*
G04 #@! TA.AperFunction,ComponentPad*
%ADD10C,1.200000*%
G04 #@! TD*
G04 #@! TA.AperFunction,ComponentPad*
%ADD11R,1.200000X1.200000*%
G04 #@! TD*
G04 #@! TA.AperFunction,ComponentPad*
%ADD12O,1.200000X1.200000*%
G04 #@! TD*
G04 #@! TA.AperFunction,SMDPad,CuDef*
%ADD13RoundRect,0.225000X-0.250000X0.225000X-0.250000X-0.225000X0.250000X-0.225000X0.250000X0.225000X0*%
G04 #@! TD*
G04 #@! TA.AperFunction,SMDPad,CuDef*
%ADD14RoundRect,0.218750X0.256250X-0.218750X0.256250X0.218750X-0.256250X0.218750X-0.256250X-0.218750X0*%
G04 #@! TD*
G04 #@! TA.AperFunction,SMDPad,CuDef*
%ADD15RoundRect,0.218750X-0.256250X0.218750X-0.256250X-0.218750X0.256250X-0.218750X0.256250X0.218750X0*%
G04 #@! TD*
G04 #@! TA.AperFunction,SMDPad,CuDef*
%ADD16R,0.900000X1.200000*%
G04 #@! TD*
G04 #@! TA.AperFunction,SMDPad,CuDef*
%ADD17R,0.300000X1.300000*%
G04 #@! TD*
G04 #@! TA.AperFunction,SMDPad,CuDef*
%ADD18R,1.000000X1.500000*%
G04 #@! TD*
G04 #@! TA.AperFunction,ViaPad*
%ADD19C,0.800000*%
G04 #@! TD*
G04 #@! TA.AperFunction,Conductor*
%ADD20C,0.250000*%
G04 #@! TD*
G04 APERTURE END LIST*
D10*
X25729800Y-65450000D03*
D11*
X28269800Y-65450000D03*
D12*
X30809800Y-65450000D03*
X33349800Y-65450000D03*
X35889800Y-65450000D03*
X38429800Y-65450000D03*
X40969800Y-65450000D03*
D13*
X26700000Y-80875000D03*
X26700000Y-82425000D03*
X25275000Y-84975000D03*
X25275000Y-86525000D03*
X28375000Y-85000000D03*
X28375000Y-86550000D03*
X26400000Y-77300000D03*
X26400000Y-78850000D03*
X28625000Y-77275000D03*
X28625000Y-78825000D03*
X31175000Y-77400000D03*
X31175000Y-78950000D03*
X30625000Y-83550000D03*
X30625000Y-85100000D03*
X33375000Y-82450000D03*
X33375000Y-84000000D03*
X33750000Y-77450000D03*
X33750000Y-79000000D03*
X36200000Y-82550000D03*
X36200000Y-84100000D03*
X36425000Y-77275000D03*
X36425000Y-78825000D03*
D14*
X39450000Y-78887500D03*
X39450000Y-77312500D03*
D13*
X40150000Y-84775000D03*
X40150000Y-86325000D03*
D15*
X41325000Y-77275000D03*
X41325000Y-78850000D03*
D13*
X41975000Y-84800000D03*
X41975000Y-86350000D03*
D16*
X31700000Y-72550000D03*
X35000000Y-72550000D03*
D17*
X40600000Y-90450000D03*
D18*
X24600000Y-93650000D03*
D17*
X40100000Y-90450000D03*
X39600000Y-90450000D03*
X39100000Y-90450000D03*
X38600000Y-90450000D03*
X38100000Y-90450000D03*
X37600000Y-90450000D03*
X37100000Y-90450000D03*
X36600000Y-90450000D03*
X36100000Y-90450000D03*
X35600000Y-90450000D03*
X35100000Y-90450000D03*
X34600000Y-90450000D03*
X34100000Y-90450000D03*
X33600000Y-90450000D03*
X33100000Y-90450000D03*
X32600000Y-90450000D03*
X32100000Y-90450000D03*
X31600000Y-90450000D03*
X31100000Y-90450000D03*
X30600000Y-90450000D03*
X30100000Y-90450000D03*
X29600000Y-90450000D03*
X29100000Y-90450000D03*
X28600000Y-90450000D03*
X28100000Y-90450000D03*
X27600000Y-90450000D03*
X27100000Y-90450000D03*
X26600000Y-90450000D03*
X26100000Y-90450000D03*
D18*
X42100000Y-93650000D03*
D13*
X25150000Y-80850000D03*
X25150000Y-82400000D03*
X26825000Y-85000000D03*
X26825000Y-86550000D03*
D19*
X26000000Y-83700000D03*
X33800000Y-80625000D03*
X34700000Y-92500000D03*
X36275000Y-80600000D03*
X39400000Y-92500000D03*
X40150000Y-70850000D03*
X24425000Y-77025000D03*
X37000000Y-94200000D03*
X42225000Y-81100000D03*
X31300000Y-69000000D03*
X40125000Y-81075000D03*
X26000000Y-69300000D03*
X26400000Y-74975000D03*
X25625000Y-73675000D03*
X32600015Y-94400000D03*
X30600009Y-94400000D03*
X30600000Y-74500000D03*
X29600006Y-94400000D03*
X29600000Y-75700000D03*
X28600003Y-94400000D03*
X34700000Y-69200000D03*
X27600000Y-94400000D03*
D20*
X34700000Y-69200000D02*
X38429800Y-65470200D01*
X38429800Y-65470200D02*
X38429800Y-65450000D01*
X29600000Y-75700000D02*
X29600000Y-74524614D01*
X31324511Y-74800103D02*
X31324511Y-74199897D01*
X29600000Y-74524614D02*
X30299897Y-75224511D01*
X30299897Y-75224511D02*
X30900103Y-75224511D01*
X30900103Y-73775489D02*
X30900103Y-71564179D01*
X30900103Y-75224511D02*
X31324511Y-74800103D01*
X31324511Y-74199897D02*
X30900103Y-73775489D01*
X30900103Y-71564179D02*
X33349800Y-69114482D01*
X33349800Y-69114482D02*
X33349800Y-65450000D01*
X30600000Y-74500000D02*
X26999800Y-70899800D01*
X26999800Y-70899800D02*
X26999800Y-66720000D01*
X26999800Y-66720000D02*
X25729800Y-65450000D01*
X29750000Y-78400000D02*
X28625000Y-77275000D01*
X26600000Y-90450000D02*
X26600000Y-91500000D01*
X29750000Y-80175000D02*
X29750000Y-78400000D01*
X30600000Y-91600000D02*
X30900000Y-91900000D01*
X26700000Y-82425000D02*
X25175000Y-82425000D01*
X30600000Y-90450000D02*
X30600000Y-91600000D01*
X26825000Y-85000000D02*
X26825000Y-82550000D01*
X26825000Y-82550000D02*
X26700000Y-82425000D01*
X30625000Y-81050000D02*
X29750000Y-80175000D01*
X26825000Y-85000000D02*
X28375000Y-85000000D01*
X25175000Y-82425000D02*
X25175000Y-84875000D01*
X25175000Y-84875000D02*
X25275000Y-84975000D01*
X30625000Y-83550000D02*
X30625000Y-81050000D01*
X25275000Y-74025000D02*
X25625000Y-73675000D01*
X25150000Y-80850000D02*
X24350000Y-81650000D01*
X24350000Y-81650000D02*
X24350000Y-87225000D01*
X26675000Y-80850000D02*
X26675000Y-80875000D01*
X26325000Y-88300000D02*
X27100000Y-89075000D01*
X27100000Y-89075000D02*
X27100000Y-90450000D01*
X24350000Y-87225000D02*
X25425000Y-88300000D01*
X25150000Y-80850000D02*
X26675000Y-80850000D01*
X26675000Y-80850000D02*
X25275000Y-79450000D01*
X25425000Y-88300000D02*
X26325000Y-88300000D01*
X25275000Y-79450000D02*
X25275000Y-74025000D01*
X26675000Y-80850000D02*
X26700000Y-80875000D01*
X29434002Y-88034002D02*
X30389805Y-88034002D01*
X31600000Y-89244197D02*
X31600000Y-90450000D01*
X28375000Y-86975000D02*
X29434002Y-88034002D01*
X28375000Y-86550000D02*
X28375000Y-86975000D01*
X30389805Y-88034002D02*
X31600000Y-89244197D01*
X29250499Y-82025499D02*
X26400000Y-79175000D01*
X32100000Y-90450000D02*
X32100000Y-89108507D01*
X26400000Y-79175000D02*
X26400000Y-78850000D01*
X32100000Y-89108507D02*
X29250499Y-86259006D01*
X29250499Y-86259006D02*
X29250499Y-82025499D01*
X32600000Y-90450000D02*
X32600000Y-88972817D01*
X29700000Y-86072817D02*
X29700000Y-81650000D01*
X29700000Y-81650000D02*
X28625000Y-80575000D01*
X32600000Y-88972817D02*
X29700000Y-86072817D01*
X28625000Y-80575000D02*
X28625000Y-78825000D01*
X31925000Y-86376973D02*
X31925000Y-79700000D01*
X33600000Y-88051973D02*
X31925000Y-86376973D01*
X33600000Y-90450000D02*
X33600000Y-88051973D01*
X31925000Y-79700000D02*
X31175000Y-78950000D01*
X33075998Y-86891575D02*
X33075998Y-86892281D01*
X32425000Y-86240577D02*
X33075998Y-86891575D01*
X31175000Y-77400000D02*
X32425000Y-78650000D01*
X33075998Y-86892281D02*
X34100000Y-87916283D01*
X34100000Y-87916283D02*
X34100000Y-90450000D01*
X32425000Y-78650000D02*
X32425000Y-86240577D01*
X34300000Y-72550000D02*
X35000000Y-72550000D01*
X30625000Y-85712663D02*
X30625000Y-85100000D01*
X30625000Y-85100000D02*
X31425000Y-84300000D01*
X30350000Y-76500000D02*
X34300000Y-72550000D01*
X33100000Y-90450000D02*
X33100000Y-88187663D01*
X30350000Y-79377817D02*
X30350000Y-76500000D01*
X31425000Y-84300000D02*
X31425000Y-80452817D01*
X31425000Y-80452817D02*
X30350000Y-79377817D01*
X33100000Y-88187663D02*
X30625000Y-85712663D01*
X33375000Y-84000000D02*
X33375000Y-86554887D01*
X33375000Y-86554887D02*
X33525499Y-86705386D01*
X34600000Y-87780593D02*
X34600000Y-90450000D01*
X33525499Y-86705386D02*
X33525499Y-86706092D01*
X33525499Y-86706092D02*
X34600000Y-87780593D01*
X34325000Y-86869903D02*
X35100000Y-87644903D01*
X34325000Y-83400000D02*
X34325000Y-86869903D01*
X35100000Y-87644903D02*
X35100000Y-90450000D01*
X33375000Y-82450000D02*
X34325000Y-83400000D01*
X34800000Y-80050000D02*
X33750000Y-79000000D01*
X35600000Y-90450000D02*
X35600000Y-87509213D01*
X34800000Y-86709213D02*
X34800000Y-80050000D01*
X35600000Y-87509213D02*
X34800000Y-86709213D01*
X36100000Y-87372817D02*
X36100000Y-90450000D01*
X35275000Y-78975000D02*
X35275000Y-86547817D01*
X33750000Y-77450000D02*
X35275000Y-78975000D01*
X35275000Y-86547817D02*
X36100000Y-87372817D01*
X36200000Y-86836421D02*
X36600000Y-87236421D01*
X36600000Y-87236421D02*
X36600000Y-90450000D01*
X36200000Y-84100000D02*
X36200000Y-86836421D01*
X36200000Y-82550000D02*
X37100000Y-83450000D01*
X37100000Y-83450000D02*
X37100000Y-90450000D01*
X37600000Y-90450000D02*
X37600000Y-80000000D01*
X37600000Y-80000000D02*
X36425000Y-78825000D01*
X38100000Y-78950000D02*
X36425000Y-77275000D01*
X38100000Y-90450000D02*
X38100000Y-78950000D01*
X38600000Y-78162500D02*
X39450000Y-77312500D01*
X38600000Y-90450000D02*
X38600000Y-78162500D01*
X39100000Y-79237500D02*
X39450000Y-78887500D01*
X39100000Y-90450000D02*
X39100000Y-79237500D01*
X39600000Y-86300000D02*
X39600000Y-90450000D01*
X39800000Y-86100000D02*
X39600000Y-86300000D01*
X40100000Y-90450000D02*
X40100000Y-88800000D01*
X41054990Y-87845010D02*
X41054990Y-79120010D01*
X41054990Y-79120010D02*
X41325000Y-78850000D01*
X40100000Y-88800000D02*
X41054990Y-87845010D01*
X40600000Y-90450000D02*
X40600000Y-89000000D01*
X41700000Y-87900000D02*
X41700000Y-86100000D01*
X40600000Y-89000000D02*
X41700000Y-87900000D01*
X30100000Y-90450000D02*
X30100000Y-91826986D01*
X32600015Y-94327001D02*
X32600015Y-94400000D01*
X30100000Y-91826986D02*
X32600015Y-94327001D01*
X29100000Y-90450000D02*
X29100000Y-92826992D01*
X30600009Y-94327001D02*
X30600009Y-94400000D01*
X29100000Y-92826992D02*
X30600009Y-94327001D01*
X29600006Y-94327001D02*
X29600006Y-94400000D01*
X28600000Y-90450000D02*
X28600000Y-93326995D01*
X28600000Y-93326995D02*
X29600006Y-94327001D01*
X28100000Y-90450000D02*
X28100000Y-93826998D01*
X28100000Y-93826998D02*
X28600003Y-94327001D01*
X28600003Y-94327001D02*
X28600003Y-94400000D01*
X27600000Y-90450000D02*
X27600000Y-94400000D01*
X25275000Y-86525000D02*
X26800000Y-86525000D01*
X30150000Y-88525000D02*
X31100000Y-89475000D01*
X26800000Y-86525000D02*
X26825000Y-86550000D01*
X28450000Y-88525000D02*
X30150000Y-88525000D01*
X26825000Y-86550000D02*
X26825000Y-86900000D01*
X26825000Y-86900000D02*
X28450000Y-88525000D01*
X31100000Y-89475000D02*
X31100000Y-90450000D01*
G04 #@! TA.AperFunction,Conductor*
G36*
X42835608Y-86704428D02*
G01*
X42884931Y-86753916D01*
X42900000Y-86813161D01*
X42900000Y-92567192D01*
X42880315Y-92634231D01*
X42827511Y-92679986D01*
X42758353Y-92689930D01*
X42719383Y-92674997D01*
X42719178Y-92675493D01*
X42707897Y-92670820D01*
X42697740Y-92664034D01*
X42663687Y-92657260D01*
X42630653Y-92650689D01*
X42630650Y-92650689D01*
X42624674Y-92649500D01*
X41575326Y-92649500D01*
X41569350Y-92650689D01*
X41569347Y-92650689D01*
X41536313Y-92657260D01*
X41502260Y-92664034D01*
X41419399Y-92719399D01*
X41364034Y-92802260D01*
X41349500Y-92875326D01*
X41349500Y-94424674D01*
X41364034Y-94497740D01*
X41419399Y-94580601D01*
X41502260Y-94635966D01*
X41536313Y-94642740D01*
X41569347Y-94649311D01*
X41569350Y-94649311D01*
X41575326Y-94650500D01*
X42624674Y-94650500D01*
X42630650Y-94649311D01*
X42630653Y-94649311D01*
X42663687Y-94642740D01*
X42697740Y-94635966D01*
X42707897Y-94629180D01*
X42719178Y-94624507D01*
X42719699Y-94625764D01*
X42773785Y-94608828D01*
X42841166Y-94627312D01*
X42887856Y-94679290D01*
X42900000Y-94732808D01*
X42900000Y-100813165D01*
X42897617Y-100837356D01*
X42895102Y-100850000D01*
X42897485Y-100861979D01*
X42897485Y-100865360D01*
X42896705Y-100879243D01*
X42887775Y-100958500D01*
X42881598Y-100985566D01*
X42850148Y-101075448D01*
X42838099Y-101100467D01*
X42787438Y-101181092D01*
X42770126Y-101202800D01*
X42702800Y-101270126D01*
X42681092Y-101287438D01*
X42600467Y-101338099D01*
X42575451Y-101350147D01*
X42485566Y-101381598D01*
X42458503Y-101387774D01*
X42402251Y-101394113D01*
X42379243Y-101396705D01*
X42365360Y-101397485D01*
X42361979Y-101397485D01*
X42350000Y-101395102D01*
X42338020Y-101397485D01*
X42337356Y-101397617D01*
X42313165Y-101400000D01*
X41757289Y-101400000D01*
X41690250Y-101380315D01*
X41652137Y-101341720D01*
X40786553Y-99956784D01*
X40786233Y-99956163D01*
X40785495Y-99952455D01*
X40761028Y-99915837D01*
X40759000Y-99912699D01*
X40748949Y-99896619D01*
X40746484Y-99893998D01*
X40745802Y-99893049D01*
X40737026Y-99879915D01*
X40737025Y-99879914D01*
X40730240Y-99869760D01*
X40720084Y-99862974D01*
X40715179Y-99858069D01*
X40712018Y-99855393D01*
X40706371Y-99851366D01*
X40698001Y-99842470D01*
X40681009Y-99834818D01*
X40663039Y-99824857D01*
X40657702Y-99821291D01*
X40657699Y-99821290D01*
X40647545Y-99814505D01*
X40635569Y-99812123D01*
X40629155Y-99809466D01*
X40625221Y-99808207D01*
X40618450Y-99806644D01*
X40607316Y-99801630D01*
X40595112Y-99801258D01*
X40595106Y-99801257D01*
X40579319Y-99800776D01*
X40578145Y-99800700D01*
X40574624Y-99800000D01*
X40555707Y-99800000D01*
X40551932Y-99799943D01*
X40551185Y-99799920D01*
X40507906Y-99798602D01*
X40504370Y-99799942D01*
X40503672Y-99800000D01*
X30096328Y-99800000D01*
X30095630Y-99799942D01*
X30092094Y-99798602D01*
X30048815Y-99799920D01*
X30048068Y-99799943D01*
X30044293Y-99800000D01*
X30025376Y-99800000D01*
X30021855Y-99800700D01*
X30020681Y-99800776D01*
X30004894Y-99801257D01*
X30004888Y-99801258D01*
X29992684Y-99801630D01*
X29981550Y-99806644D01*
X29974779Y-99808207D01*
X29970845Y-99809466D01*
X29964431Y-99812123D01*
X29952455Y-99814505D01*
X29942301Y-99821290D01*
X29942298Y-99821291D01*
X29936961Y-99824857D01*
X29918991Y-99834818D01*
X29901999Y-99842470D01*
X29893629Y-99851366D01*
X29887982Y-99855393D01*
X29884821Y-99858069D01*
X29879916Y-99862974D01*
X29869760Y-99869760D01*
X29862975Y-99879914D01*
X29862974Y-99879915D01*
X29854198Y-99893049D01*
X29853516Y-99893998D01*
X29851051Y-99896619D01*
X29841000Y-99912699D01*
X29838972Y-99915837D01*
X29814505Y-99952455D01*
X29813767Y-99956163D01*
X29813447Y-99956784D01*
X28947863Y-101341720D01*
X28895640Y-101388136D01*
X28842711Y-101400000D01*
X24386835Y-101400000D01*
X24362644Y-101397617D01*
X24361980Y-101397485D01*
X24350000Y-101395102D01*
X24338021Y-101397485D01*
X24334640Y-101397485D01*
X24320757Y-101396705D01*
X24297749Y-101394113D01*
X24241497Y-101387774D01*
X24214434Y-101381598D01*
X24124549Y-101350147D01*
X24099533Y-101338099D01*
X24018908Y-101287438D01*
X23997200Y-101270126D01*
X23929874Y-101202800D01*
X23912562Y-101181092D01*
X23861901Y-101100467D01*
X23849852Y-101075448D01*
X23818402Y-100985566D01*
X23812225Y-100958500D01*
X23803295Y-100879243D01*
X23802515Y-100865360D01*
X23802515Y-100861979D01*
X23804898Y-100850000D01*
X23802383Y-100837356D01*
X23800000Y-100813165D01*
X23800000Y-94732808D01*
X23819685Y-94665769D01*
X23872489Y-94620014D01*
X23941647Y-94610070D01*
X23980617Y-94625003D01*
X23980822Y-94624507D01*
X23992103Y-94629180D01*
X24002260Y-94635966D01*
X24036313Y-94642740D01*
X24069347Y-94649311D01*
X24069350Y-94649311D01*
X24075326Y-94650500D01*
X25124674Y-94650500D01*
X25130650Y-94649311D01*
X25130653Y-94649311D01*
X25163687Y-94642740D01*
X25197740Y-94635966D01*
X25280601Y-94580601D01*
X25335966Y-94497740D01*
X25350500Y-94424674D01*
X25350500Y-92875326D01*
X25335966Y-92802260D01*
X25280601Y-92719399D01*
X25197740Y-92664034D01*
X25163687Y-92657260D01*
X25130653Y-92650689D01*
X25130650Y-92650689D01*
X25124674Y-92649500D01*
X24075326Y-92649500D01*
X24069350Y-92650689D01*
X24069347Y-92650689D01*
X24036313Y-92657260D01*
X24002260Y-92664034D01*
X23992103Y-92670820D01*
X23980822Y-92675493D01*
X23980301Y-92674236D01*
X23926215Y-92691172D01*
X23858834Y-92672688D01*
X23812144Y-92620710D01*
X23800000Y-92567192D01*
X23800000Y-87491836D01*
X23819685Y-87424797D01*
X23872489Y-87379042D01*
X23941647Y-87369098D01*
X24005203Y-87398123D01*
X24030163Y-87430804D01*
X24030927Y-87430311D01*
X24035159Y-87436865D01*
X24038537Y-87443900D01*
X24042094Y-87448131D01*
X24043980Y-87450017D01*
X24045751Y-87451947D01*
X24045779Y-87452000D01*
X24045652Y-87452117D01*
X24046143Y-87452674D01*
X24049194Y-87458329D01*
X24056723Y-87465289D01*
X24056724Y-87465290D01*
X24088381Y-87494553D01*
X24091891Y-87497928D01*
X25121805Y-88527843D01*
X25136909Y-88546545D01*
X25137868Y-88547599D01*
X25143428Y-88556210D01*
X25151478Y-88562556D01*
X25169551Y-88576804D01*
X25173962Y-88580724D01*
X25174021Y-88580654D01*
X25177921Y-88583959D01*
X25181538Y-88587576D01*
X25185691Y-88590544D01*
X25185702Y-88590553D01*
X25197100Y-88598697D01*
X25201771Y-88602204D01*
X25241600Y-88633603D01*
X25250148Y-88636605D01*
X25257519Y-88641872D01*
X25267336Y-88644808D01*
X25267338Y-88644809D01*
X25306127Y-88656409D01*
X25311685Y-88658215D01*
X25352186Y-88672438D01*
X25352188Y-88672439D01*
X25359548Y-88675023D01*
X25365055Y-88675500D01*
X25367738Y-88675500D01*
X25370337Y-88675613D01*
X25370415Y-88675636D01*
X25370408Y-88675804D01*
X25371129Y-88675849D01*
X25377287Y-88677691D01*
X25387525Y-88677289D01*
X25387527Y-88677289D01*
X25430606Y-88675596D01*
X25435474Y-88675500D01*
X26118101Y-88675500D01*
X26185140Y-88695185D01*
X26205782Y-88711819D01*
X26574283Y-89080320D01*
X26607768Y-89141643D01*
X26602784Y-89211335D01*
X26560912Y-89267268D01*
X26495448Y-89291685D01*
X26486602Y-89292001D01*
X26405274Y-89292001D01*
X26398569Y-89292364D01*
X26347523Y-89297908D01*
X26332512Y-89301478D01*
X26211810Y-89346727D01*
X26196468Y-89355126D01*
X26094164Y-89431799D01*
X26081798Y-89444164D01*
X26040053Y-89499865D01*
X25984097Y-89541706D01*
X25940827Y-89549500D01*
X25925326Y-89549500D01*
X25919350Y-89550689D01*
X25919347Y-89550689D01*
X25886313Y-89557260D01*
X25852260Y-89564034D01*
X25769399Y-89619399D01*
X25714034Y-89702260D01*
X25699500Y-89775326D01*
X25699500Y-91124674D01*
X25700689Y-91130650D01*
X25700689Y-91130653D01*
X25702227Y-91138384D01*
X25714034Y-91197740D01*
X25769399Y-91280601D01*
X25852260Y-91335966D01*
X25874194Y-91340329D01*
X25919347Y-91349311D01*
X25919350Y-91349311D01*
X25925326Y-91350500D01*
X25940827Y-91350500D01*
X26007866Y-91370185D01*
X26040053Y-91400135D01*
X26081798Y-91455836D01*
X26094164Y-91468201D01*
X26196468Y-91544874D01*
X26211810Y-91553273D01*
X26332515Y-91598524D01*
X26347518Y-91602091D01*
X26398573Y-91607637D01*
X26405271Y-91608000D01*
X26432170Y-91608000D01*
X26447169Y-91603596D01*
X26448356Y-91602226D01*
X26450000Y-91594668D01*
X26450000Y-91289183D01*
X26470897Y-91220294D01*
X26479180Y-91207898D01*
X26479182Y-91207893D01*
X26485966Y-91197740D01*
X26487447Y-91190295D01*
X26529278Y-91138384D01*
X26595572Y-91116318D01*
X26663272Y-91133596D01*
X26710883Y-91184733D01*
X26711882Y-91186919D01*
X26714034Y-91197740D01*
X26720818Y-91207893D01*
X26720820Y-91207898D01*
X26729103Y-91220294D01*
X26750000Y-91289183D01*
X26750000Y-91590169D01*
X26754404Y-91605168D01*
X26755774Y-91606355D01*
X26763332Y-91607999D01*
X26794726Y-91607999D01*
X26801431Y-91607636D01*
X26852477Y-91602092D01*
X26867488Y-91598522D01*
X26988190Y-91553273D01*
X27003532Y-91544873D01*
X27026134Y-91527934D01*
X27091584Y-91503480D01*
X27159866Y-91518293D01*
X27209299Y-91567671D01*
X27224500Y-91627159D01*
X27224500Y-93807915D01*
X27204815Y-93874954D01*
X27182015Y-93901357D01*
X27113034Y-93961533D01*
X27022501Y-94090348D01*
X26965309Y-94237039D01*
X26944758Y-94393138D01*
X26945578Y-94400566D01*
X26945578Y-94400568D01*
X26954983Y-94485759D01*
X26962035Y-94549633D01*
X26964601Y-94556645D01*
X26964602Y-94556649D01*
X26989895Y-94625764D01*
X27016143Y-94697490D01*
X27103958Y-94828172D01*
X27126183Y-94848395D01*
X27214878Y-94929102D01*
X27214882Y-94929105D01*
X27220410Y-94934135D01*
X27358776Y-95009262D01*
X27461031Y-95036088D01*
X27503841Y-95047319D01*
X27503843Y-95047319D01*
X27511069Y-95049215D01*
X27588127Y-95050425D01*
X27661025Y-95051571D01*
X27661028Y-95051571D01*
X27668495Y-95051688D01*
X27675776Y-95050020D01*
X27675780Y-95050020D01*
X27814681Y-95018207D01*
X27821968Y-95016538D01*
X27962625Y-94945795D01*
X27983160Y-94928257D01*
X28019083Y-94897576D01*
X28082845Y-94869006D01*
X28151930Y-94879444D01*
X28183064Y-94900150D01*
X28220413Y-94934135D01*
X28358779Y-95009262D01*
X28461034Y-95036088D01*
X28503844Y-95047319D01*
X28503846Y-95047319D01*
X28511072Y-95049215D01*
X28588130Y-95050425D01*
X28661028Y-95051571D01*
X28661031Y-95051571D01*
X28668498Y-95051688D01*
X28675779Y-95050020D01*
X28675783Y-95050020D01*
X28814684Y-95018207D01*
X28821971Y-95016538D01*
X28962628Y-94945795D01*
X28983163Y-94928257D01*
X29019086Y-94897576D01*
X29082848Y-94869006D01*
X29151933Y-94879444D01*
X29183067Y-94900150D01*
X29220416Y-94934135D01*
X29358782Y-95009262D01*
X29461037Y-95036088D01*
X29503847Y-95047319D01*
X29503849Y-95047319D01*
X29511075Y-95049215D01*
X29588133Y-95050425D01*
X29661031Y-95051571D01*
X29661034Y-95051571D01*
X29668501Y-95051688D01*
X29675782Y-95050020D01*
X29675786Y-95050020D01*
X29814687Y-95018207D01*
X29821974Y-95016538D01*
X29962631Y-94945795D01*
X29983166Y-94928257D01*
X30019089Y-94897576D01*
X30082851Y-94869006D01*
X30151936Y-94879444D01*
X30183070Y-94900150D01*
X30220419Y-94934135D01*
X30358785Y-95009262D01*
X30461040Y-95036088D01*
X30503850Y-95047319D01*
X30503852Y-95047319D01*
X30511078Y-95049215D01*
X30588136Y-95050425D01*
X30661034Y-95051571D01*
X30661037Y-95051571D01*
X30668504Y-95051688D01*
X30675785Y-95050020D01*
X30675789Y-95050020D01*
X30814690Y-95018207D01*
X30821977Y-95016538D01*
X30962634Y-94945795D01*
X30968315Y-94940943D01*
X30968318Y-94940941D01*
X31076675Y-94848395D01*
X31076676Y-94848394D01*
X31082357Y-94843542D01*
X31093402Y-94828172D01*
X31161927Y-94732808D01*
X31174233Y-94715683D01*
X31232959Y-94569598D01*
X31234802Y-94556649D01*
X31254571Y-94417744D01*
X31254571Y-94417740D01*
X31255143Y-94413723D01*
X31255287Y-94400000D01*
X31236372Y-94243694D01*
X31180719Y-94096412D01*
X31172346Y-94084229D01*
X31095777Y-93972821D01*
X31095774Y-93972818D01*
X31091540Y-93966657D01*
X30973985Y-93861919D01*
X30834840Y-93788245D01*
X30682137Y-93749889D01*
X30604242Y-93749482D01*
X30537307Y-93729448D01*
X30517210Y-93713165D01*
X29511819Y-92707774D01*
X29478334Y-92646451D01*
X29475500Y-92620093D01*
X29475500Y-91848213D01*
X29485657Y-91813621D01*
X29475835Y-91787459D01*
X29475500Y-91778347D01*
X29475500Y-91474500D01*
X29495185Y-91407461D01*
X29547989Y-91361706D01*
X29599500Y-91350500D01*
X29600500Y-91350500D01*
X29667539Y-91370185D01*
X29713294Y-91422989D01*
X29724500Y-91474500D01*
X29724500Y-91773702D01*
X29721723Y-91799799D01*
X29720723Y-91804444D01*
X29717093Y-91811125D01*
X29718477Y-91813278D01*
X29722640Y-91833638D01*
X29723640Y-91842087D01*
X29723987Y-91847971D01*
X29724078Y-91847963D01*
X29724500Y-91853068D01*
X29724500Y-91858179D01*
X29725339Y-91863219D01*
X29727639Y-91877039D01*
X29728461Y-91882818D01*
X29734424Y-91933196D01*
X29738346Y-91941363D01*
X29739833Y-91950299D01*
X29763922Y-91994943D01*
X29766574Y-92000146D01*
X29788537Y-92045886D01*
X29792094Y-92050117D01*
X29793980Y-92052003D01*
X29795751Y-92053933D01*
X29795779Y-92053986D01*
X29795652Y-92054103D01*
X29796143Y-92054660D01*
X29799194Y-92060315D01*
X29806723Y-92067275D01*
X29806724Y-92067276D01*
X29838381Y-92096539D01*
X29841891Y-92099914D01*
X31923677Y-94181700D01*
X31957162Y-94243023D01*
X31958935Y-94285566D01*
X31944773Y-94393138D01*
X31945593Y-94400566D01*
X31945593Y-94400568D01*
X31954998Y-94485759D01*
X31962050Y-94549633D01*
X31964616Y-94556645D01*
X31964617Y-94556649D01*
X31989910Y-94625764D01*
X32016158Y-94697490D01*
X32103973Y-94828172D01*
X32126198Y-94848395D01*
X32214893Y-94929102D01*
X32214897Y-94929105D01*
X32220425Y-94934135D01*
X32358791Y-95009262D01*
X32461046Y-95036088D01*
X32503856Y-95047319D01*
X32503858Y-95047319D01*
X32511084Y-95049215D01*
X32588142Y-95050425D01*
X32661040Y-95051571D01*
X32661043Y-95051571D01*
X32668510Y-95051688D01*
X32675791Y-95050020D01*
X32675795Y-95050020D01*
X32814696Y-95018207D01*
X32821983Y-95016538D01*
X32962640Y-94945795D01*
X32968321Y-94940943D01*
X32968324Y-94940941D01*
X33076681Y-94848395D01*
X33076682Y-94848394D01*
X33082363Y-94843542D01*
X33093408Y-94828172D01*
X33161933Y-94732808D01*
X33174239Y-94715683D01*
X33232965Y-94569598D01*
X33234808Y-94556649D01*
X33254577Y-94417744D01*
X33254577Y-94417740D01*
X33255149Y-94413723D01*
X33255293Y-94400000D01*
X33236378Y-94243694D01*
X33180725Y-94096412D01*
X33172352Y-94084229D01*
X33095783Y-93972821D01*
X33095780Y-93972818D01*
X33091546Y-93966657D01*
X32973991Y-93861919D01*
X32834846Y-93788245D01*
X32682143Y-93749889D01*
X32604248Y-93749482D01*
X32537313Y-93729448D01*
X32517216Y-93713165D01*
X30623731Y-91819680D01*
X30590246Y-91758357D01*
X30595230Y-91688665D01*
X30637102Y-91632732D01*
X30702566Y-91608315D01*
X30711412Y-91607999D01*
X30794726Y-91607999D01*
X30801431Y-91607636D01*
X30852477Y-91602092D01*
X30867488Y-91598522D01*
X30988190Y-91553273D01*
X31003532Y-91544874D01*
X31105836Y-91468201D01*
X31118202Y-91455836D01*
X31159947Y-91400135D01*
X31215903Y-91358294D01*
X31259173Y-91350500D01*
X31274674Y-91350500D01*
X31286448Y-91348158D01*
X31325809Y-91340329D01*
X31374191Y-91340329D01*
X31413552Y-91348158D01*
X31425326Y-91350500D01*
X31774674Y-91350500D01*
X31786448Y-91348158D01*
X31825809Y-91340329D01*
X31874191Y-91340329D01*
X31913552Y-91348158D01*
X31925326Y-91350500D01*
X32274674Y-91350500D01*
X32286448Y-91348158D01*
X32325809Y-91340329D01*
X32374191Y-91340329D01*
X32413552Y-91348158D01*
X32425326Y-91350500D01*
X32774674Y-91350500D01*
X32786448Y-91348158D01*
X32825809Y-91340329D01*
X32874191Y-91340329D01*
X32913552Y-91348158D01*
X32925326Y-91350500D01*
X33274674Y-91350500D01*
X33286448Y-91348158D01*
X33325809Y-91340329D01*
X33374191Y-91340329D01*
X33413552Y-91348158D01*
X33425326Y-91350500D01*
X33774674Y-91350500D01*
X33786448Y-91348158D01*
X33825809Y-91340329D01*
X33874191Y-91340329D01*
X33913552Y-91348158D01*
X33925326Y-91350500D01*
X34274674Y-91350500D01*
X34286448Y-91348158D01*
X34325809Y-91340329D01*
X34374191Y-91340329D01*
X34413552Y-91348158D01*
X34425326Y-91350500D01*
X34774674Y-91350500D01*
X34786448Y-91348158D01*
X34825809Y-91340329D01*
X34874191Y-91340329D01*
X34913552Y-91348158D01*
X34925326Y-91350500D01*
X35274674Y-91350500D01*
X35286448Y-91348158D01*
X35325809Y-91340329D01*
X35374191Y-91340329D01*
X35413552Y-91348158D01*
X35425326Y-91350500D01*
X35774674Y-91350500D01*
X35786448Y-91348158D01*
X35825809Y-91340329D01*
X35874191Y-91340329D01*
X35913552Y-91348158D01*
X35925326Y-91350500D01*
X36274674Y-91350500D01*
X36286448Y-91348158D01*
X36325809Y-91340329D01*
X36374191Y-91340329D01*
X36413552Y-91348158D01*
X36425326Y-91350500D01*
X36774674Y-91350500D01*
X36786448Y-91348158D01*
X36825809Y-91340329D01*
X36874191Y-91340329D01*
X36913552Y-91348158D01*
X36925326Y-91350500D01*
X37274674Y-91350500D01*
X37286448Y-91348158D01*
X37325809Y-91340329D01*
X37374191Y-91340329D01*
X37413552Y-91348158D01*
X37425326Y-91350500D01*
X37774674Y-91350500D01*
X37786448Y-91348158D01*
X37825809Y-91340329D01*
X37874191Y-91340329D01*
X37913552Y-91348158D01*
X37925326Y-91350500D01*
X38274674Y-91350500D01*
X38286448Y-91348158D01*
X38325809Y-91340329D01*
X38374191Y-91340329D01*
X38413552Y-91348158D01*
X38425326Y-91350500D01*
X38774674Y-91350500D01*
X38786448Y-91348158D01*
X38825809Y-91340329D01*
X38874191Y-91340329D01*
X38913552Y-91348158D01*
X38925326Y-91350500D01*
X39274674Y-91350500D01*
X39286448Y-91348158D01*
X39325809Y-91340329D01*
X39374191Y-91340329D01*
X39413552Y-91348158D01*
X39425326Y-91350500D01*
X39774674Y-91350500D01*
X39786448Y-91348158D01*
X39825809Y-91340329D01*
X39874191Y-91340329D01*
X39913552Y-91348158D01*
X39925326Y-91350500D01*
X40274674Y-91350500D01*
X40286448Y-91348158D01*
X40325809Y-91340329D01*
X40374191Y-91340329D01*
X40413552Y-91348158D01*
X40425326Y-91350500D01*
X40774674Y-91350500D01*
X40780650Y-91349311D01*
X40780653Y-91349311D01*
X40825806Y-91340329D01*
X40847740Y-91335966D01*
X40930601Y-91280601D01*
X40985966Y-91197740D01*
X40997773Y-91138384D01*
X40999311Y-91130653D01*
X40999311Y-91130650D01*
X41000500Y-91124674D01*
X41000500Y-89775326D01*
X40985966Y-89702260D01*
X40983442Y-89698483D01*
X40975500Y-89658554D01*
X40975500Y-89206899D01*
X40995185Y-89139860D01*
X41011819Y-89119218D01*
X41927839Y-88203198D01*
X41946568Y-88188071D01*
X41947602Y-88187130D01*
X41956210Y-88181572D01*
X41976807Y-88155445D01*
X41980720Y-88151042D01*
X41980650Y-88150983D01*
X41983957Y-88147080D01*
X41987575Y-88143462D01*
X41998681Y-88127920D01*
X42002170Y-88123272D01*
X42033603Y-88083400D01*
X42036605Y-88074851D01*
X42041872Y-88067481D01*
X42056410Y-88018869D01*
X42058215Y-88013315D01*
X42072438Y-87972814D01*
X42072439Y-87972812D01*
X42075023Y-87965452D01*
X42075500Y-87959945D01*
X42075500Y-87957262D01*
X42075613Y-87954663D01*
X42075636Y-87954585D01*
X42075804Y-87954592D01*
X42075849Y-87953871D01*
X42077691Y-87947713D01*
X42076900Y-87927563D01*
X42075596Y-87894394D01*
X42075500Y-87889526D01*
X42075500Y-87174499D01*
X42095185Y-87107460D01*
X42147989Y-87061705D01*
X42199500Y-87050499D01*
X42270014Y-87050499D01*
X42273355Y-87050136D01*
X42273357Y-87050136D01*
X42320427Y-87045024D01*
X42320430Y-87045023D01*
X42328157Y-87044184D01*
X42413043Y-87012362D01*
X42447421Y-86999474D01*
X42447422Y-86999473D01*
X42455695Y-86996372D01*
X42462762Y-86991076D01*
X42462765Y-86991074D01*
X42557622Y-86919982D01*
X42564687Y-86914687D01*
X42623240Y-86836560D01*
X42641074Y-86812765D01*
X42641076Y-86812762D01*
X42646372Y-86805695D01*
X42659891Y-86769634D01*
X42701855Y-86713770D01*
X42767360Y-86689462D01*
X42835608Y-86704428D01*
G37*
G04 #@! TD.AperFunction*
G04 #@! TA.AperFunction,Conductor*
G36*
X27630703Y-80937186D02*
G01*
X27637181Y-80943218D01*
X28838680Y-82144717D01*
X28872165Y-82206040D01*
X28874999Y-82232398D01*
X28874999Y-83925270D01*
X28855314Y-83992309D01*
X28802510Y-84038064D01*
X28738362Y-84048624D01*
X28676853Y-84042323D01*
X28670543Y-84042000D01*
X28646830Y-84042000D01*
X28631831Y-84046404D01*
X28630644Y-84047774D01*
X28629000Y-84055332D01*
X28629000Y-85130000D01*
X28609315Y-85197039D01*
X28556511Y-85242794D01*
X28505000Y-85254000D01*
X25869430Y-85254000D01*
X25802391Y-85234315D01*
X25798003Y-85231031D01*
X25788668Y-85229000D01*
X25145000Y-85229000D01*
X25077961Y-85209315D01*
X25032206Y-85156511D01*
X25021000Y-85105000D01*
X25021000Y-84703170D01*
X25529000Y-84703170D01*
X25533404Y-84718169D01*
X25534774Y-84719356D01*
X25542332Y-84721000D01*
X26230570Y-84721000D01*
X26297609Y-84740685D01*
X26301997Y-84743969D01*
X26311332Y-84746000D01*
X26553170Y-84746000D01*
X26568169Y-84741596D01*
X26569356Y-84740226D01*
X26571000Y-84732668D01*
X26571000Y-84728170D01*
X27079000Y-84728170D01*
X27083404Y-84743169D01*
X27084774Y-84744356D01*
X27092332Y-84746000D01*
X28103170Y-84746000D01*
X28118169Y-84741596D01*
X28119356Y-84740226D01*
X28121000Y-84732668D01*
X28121000Y-84059830D01*
X28116596Y-84044831D01*
X28115226Y-84043644D01*
X28107668Y-84042000D01*
X28079493Y-84042000D01*
X28073118Y-84042330D01*
X27980830Y-84051906D01*
X27967652Y-84054752D01*
X27818779Y-84104419D01*
X27805819Y-84110490D01*
X27666599Y-84196642D01*
X27665132Y-84194271D01*
X27612201Y-84215676D01*
X27543548Y-84202694D01*
X27532527Y-84195623D01*
X27532391Y-84195843D01*
X27393026Y-84109937D01*
X27380048Y-84103885D01*
X27231082Y-84054475D01*
X27217916Y-84051653D01*
X27126851Y-84042322D01*
X27120543Y-84042000D01*
X27096830Y-84042000D01*
X27081831Y-84046404D01*
X27080644Y-84047774D01*
X27079000Y-84055332D01*
X27079000Y-84728170D01*
X26571000Y-84728170D01*
X26571000Y-84059830D01*
X26566596Y-84044831D01*
X26565226Y-84043644D01*
X26557668Y-84042000D01*
X26529493Y-84042000D01*
X26523118Y-84042330D01*
X26430830Y-84051906D01*
X26417652Y-84054752D01*
X26268779Y-84104419D01*
X26255819Y-84110490D01*
X26132814Y-84186608D01*
X26065448Y-84205146D01*
X25998754Y-84184321D01*
X25990713Y-84178478D01*
X25976257Y-84167062D01*
X25843026Y-84084937D01*
X25830048Y-84078885D01*
X25681082Y-84029475D01*
X25667916Y-84026653D01*
X25576851Y-84017322D01*
X25570543Y-84017000D01*
X25546830Y-84017000D01*
X25531831Y-84021404D01*
X25530644Y-84022774D01*
X25529000Y-84030332D01*
X25529000Y-84703170D01*
X25021000Y-84703170D01*
X25021000Y-84034830D01*
X25016596Y-84019831D01*
X25015226Y-84018644D01*
X25007668Y-84017000D01*
X24979493Y-84017000D01*
X24973118Y-84017330D01*
X24880825Y-84026907D01*
X24875673Y-84028019D01*
X24805989Y-84022928D01*
X24750119Y-83980971D01*
X24725803Y-83915470D01*
X24725500Y-83906813D01*
X24725500Y-83481908D01*
X24745185Y-83414869D01*
X24797989Y-83369114D01*
X24851296Y-83358938D01*
X24851296Y-83358000D01*
X24878170Y-83358000D01*
X24893169Y-83353596D01*
X24894356Y-83352226D01*
X24896000Y-83344668D01*
X24896000Y-83340170D01*
X25404000Y-83340170D01*
X25408404Y-83355169D01*
X25409774Y-83356356D01*
X25417332Y-83358000D01*
X25445507Y-83358000D01*
X25451882Y-83357670D01*
X25544170Y-83348094D01*
X25557348Y-83345248D01*
X25706221Y-83295581D01*
X25719181Y-83289510D01*
X25842186Y-83213392D01*
X25909552Y-83194854D01*
X25976246Y-83215679D01*
X25984287Y-83221522D01*
X25998743Y-83232938D01*
X26131974Y-83315063D01*
X26144952Y-83321115D01*
X26293918Y-83370525D01*
X26307084Y-83373347D01*
X26398149Y-83382678D01*
X26404457Y-83383000D01*
X26428170Y-83383000D01*
X26443169Y-83378596D01*
X26444356Y-83377226D01*
X26446000Y-83369668D01*
X26446000Y-83365170D01*
X26954000Y-83365170D01*
X26958404Y-83380169D01*
X26959774Y-83381356D01*
X26967332Y-83383000D01*
X26995507Y-83383000D01*
X27001882Y-83382670D01*
X27094170Y-83373094D01*
X27107348Y-83370248D01*
X27256221Y-83320581D01*
X27269181Y-83314510D01*
X27402276Y-83232149D01*
X27413490Y-83223260D01*
X27524069Y-83112488D01*
X27532938Y-83101257D01*
X27615063Y-82968026D01*
X27621115Y-82955048D01*
X27670525Y-82806082D01*
X27673347Y-82792916D01*
X27682678Y-82701851D01*
X27682944Y-82696639D01*
X27678596Y-82681831D01*
X27677226Y-82680644D01*
X27669668Y-82679000D01*
X26971830Y-82679000D01*
X26956831Y-82683404D01*
X26955644Y-82684774D01*
X26954000Y-82692332D01*
X26954000Y-83365170D01*
X26446000Y-83365170D01*
X26446000Y-82696830D01*
X26441596Y-82681831D01*
X26440226Y-82680644D01*
X26432668Y-82679000D01*
X25744430Y-82679000D01*
X25677391Y-82659315D01*
X25673003Y-82656031D01*
X25663668Y-82654000D01*
X25421830Y-82654000D01*
X25406831Y-82658404D01*
X25405644Y-82659774D01*
X25404000Y-82667332D01*
X25404000Y-83340170D01*
X24896000Y-83340170D01*
X24896000Y-82270000D01*
X24915685Y-82202961D01*
X24968489Y-82157206D01*
X25020000Y-82146000D01*
X26105570Y-82146000D01*
X26172609Y-82165685D01*
X26176997Y-82168969D01*
X26186332Y-82171000D01*
X27665170Y-82171000D01*
X27680169Y-82166596D01*
X27681356Y-82165226D01*
X27683000Y-82157668D01*
X27683000Y-82154493D01*
X27682670Y-82148118D01*
X27673094Y-82055830D01*
X27670248Y-82042652D01*
X27620581Y-81893779D01*
X27614510Y-81880819D01*
X27532149Y-81747724D01*
X27523260Y-81736510D01*
X27412488Y-81625931D01*
X27401263Y-81617066D01*
X27349614Y-81585230D01*
X27302874Y-81533295D01*
X27291632Y-81464336D01*
X27315454Y-81405306D01*
X27366074Y-81337765D01*
X27366076Y-81337762D01*
X27371372Y-81330695D01*
X27419184Y-81203157D01*
X27425500Y-81145015D01*
X27425500Y-81030899D01*
X27445185Y-80963860D01*
X27497989Y-80918105D01*
X27567147Y-80908161D01*
X27630703Y-80937186D01*
G37*
G04 #@! TD.AperFunction*
G04 #@! TA.AperFunction,Conductor*
G36*
X42337356Y-63302383D02*
G01*
X42350000Y-63304898D01*
X42361979Y-63302515D01*
X42365360Y-63302515D01*
X42379243Y-63303295D01*
X42402251Y-63305887D01*
X42458503Y-63312226D01*
X42485566Y-63318402D01*
X42575451Y-63349853D01*
X42600467Y-63361901D01*
X42681092Y-63412562D01*
X42702800Y-63429874D01*
X42770126Y-63497200D01*
X42787438Y-63518908D01*
X42838099Y-63599533D01*
X42850147Y-63624549D01*
X42881598Y-63714434D01*
X42887775Y-63741500D01*
X42896705Y-63820757D01*
X42897485Y-63834640D01*
X42897485Y-63838021D01*
X42895102Y-63850000D01*
X42897485Y-63861980D01*
X42897617Y-63862644D01*
X42900000Y-63886835D01*
X42900000Y-83914079D01*
X42880315Y-83981118D01*
X42827511Y-84026873D01*
X42758353Y-84036817D01*
X42694797Y-84007792D01*
X42688392Y-84001833D01*
X42687491Y-84000933D01*
X42676257Y-83992062D01*
X42543026Y-83909937D01*
X42530048Y-83903885D01*
X42381082Y-83854475D01*
X42367916Y-83851653D01*
X42276851Y-83842322D01*
X42270543Y-83842000D01*
X42246830Y-83842000D01*
X42231831Y-83846404D01*
X42230644Y-83847774D01*
X42229000Y-83855332D01*
X42229000Y-84930000D01*
X42209315Y-84997039D01*
X42156511Y-85042794D01*
X42105000Y-85054000D01*
X41554490Y-85054000D01*
X41487451Y-85034315D01*
X41441696Y-84981511D01*
X41430490Y-84930000D01*
X41430490Y-84670000D01*
X41450175Y-84602961D01*
X41502979Y-84557206D01*
X41554490Y-84546000D01*
X41703170Y-84546000D01*
X41718169Y-84541596D01*
X41719356Y-84540226D01*
X41721000Y-84532668D01*
X41721000Y-83859830D01*
X41716596Y-83844831D01*
X41715226Y-83843644D01*
X41707668Y-83842000D01*
X41679493Y-83842000D01*
X41673118Y-83842330D01*
X41580836Y-83851905D01*
X41580671Y-83851941D01*
X41580566Y-83851933D01*
X41574084Y-83852606D01*
X41573964Y-83851451D01*
X41510987Y-83846854D01*
X41455115Y-83804902D01*
X41430793Y-83739402D01*
X41430490Y-83730736D01*
X41430490Y-79661999D01*
X41450175Y-79594960D01*
X41502979Y-79549205D01*
X41554490Y-79537999D01*
X41625664Y-79537999D01*
X41629005Y-79537636D01*
X41629007Y-79537636D01*
X41675318Y-79532606D01*
X41675319Y-79532606D01*
X41683051Y-79531766D01*
X41788610Y-79492194D01*
X41800635Y-79487686D01*
X41800636Y-79487686D01*
X41808912Y-79484583D01*
X41916472Y-79403972D01*
X41997083Y-79296412D01*
X42006979Y-79270014D01*
X42041537Y-79177832D01*
X42041538Y-79177828D01*
X42044266Y-79170551D01*
X42050500Y-79113165D01*
X42050499Y-78586836D01*
X42046779Y-78552581D01*
X42045106Y-78537182D01*
X42045105Y-78537176D01*
X42044266Y-78529449D01*
X41997083Y-78403588D01*
X41918386Y-78298582D01*
X41893933Y-78233131D01*
X41908747Y-78164850D01*
X41952362Y-78118773D01*
X42029617Y-78070966D01*
X42040830Y-78062079D01*
X42150384Y-77952334D01*
X42159247Y-77941111D01*
X42240612Y-77809112D01*
X42246661Y-77796141D01*
X42295614Y-77648552D01*
X42298434Y-77635396D01*
X42307636Y-77545589D01*
X42303596Y-77531831D01*
X42302226Y-77530644D01*
X42294668Y-77529000D01*
X41195000Y-77529000D01*
X41127961Y-77509315D01*
X41082206Y-77456511D01*
X41071000Y-77405000D01*
X41071000Y-77003170D01*
X41579000Y-77003170D01*
X41583404Y-77018169D01*
X41584774Y-77019356D01*
X41592332Y-77021000D01*
X42290170Y-77021000D01*
X42305169Y-77016596D01*
X42306356Y-77015226D01*
X42307854Y-77008340D01*
X42307670Y-77004790D01*
X42298184Y-76913370D01*
X42295336Y-76900182D01*
X42246132Y-76752699D01*
X42240062Y-76739741D01*
X42158467Y-76607883D01*
X42149579Y-76596670D01*
X42039834Y-76487116D01*
X42028611Y-76478253D01*
X41896612Y-76396888D01*
X41883641Y-76390839D01*
X41736052Y-76341886D01*
X41722896Y-76339066D01*
X41632678Y-76329822D01*
X41626372Y-76329500D01*
X41596830Y-76329500D01*
X41581831Y-76333904D01*
X41580644Y-76335274D01*
X41579000Y-76342832D01*
X41579000Y-77003170D01*
X41071000Y-77003170D01*
X41071000Y-76347330D01*
X41066596Y-76332331D01*
X41065226Y-76331144D01*
X41057668Y-76329500D01*
X41023665Y-76329500D01*
X41017290Y-76329830D01*
X40925870Y-76339316D01*
X40912682Y-76342164D01*
X40765199Y-76391368D01*
X40752241Y-76397438D01*
X40620383Y-76479033D01*
X40609170Y-76487921D01*
X40499616Y-76597666D01*
X40490753Y-76608889D01*
X40409388Y-76740888D01*
X40403339Y-76753859D01*
X40362104Y-76878181D01*
X40322315Y-76935615D01*
X40257792Y-76962420D01*
X40189020Y-76950086D01*
X40137833Y-76902528D01*
X40128300Y-76882673D01*
X40126616Y-76878181D01*
X40122083Y-76866088D01*
X40041472Y-76758528D01*
X39933912Y-76677917D01*
X39925635Y-76674814D01*
X39815332Y-76633463D01*
X39815328Y-76633462D01*
X39808051Y-76630734D01*
X39750665Y-76624500D01*
X39450090Y-76624500D01*
X39149336Y-76624501D01*
X39145995Y-76624864D01*
X39145993Y-76624864D01*
X39099682Y-76629894D01*
X39099681Y-76629894D01*
X39091949Y-76630734D01*
X38966088Y-76677917D01*
X38858528Y-76758528D01*
X38777917Y-76866088D01*
X38774814Y-76874364D01*
X38774814Y-76874365D01*
X38733463Y-76984668D01*
X38733462Y-76984672D01*
X38730734Y-76991949D01*
X38724500Y-77049335D01*
X38724500Y-77052694D01*
X38724501Y-77455600D01*
X38704817Y-77522639D01*
X38688182Y-77543281D01*
X38372161Y-77859302D01*
X38353432Y-77874429D01*
X38352398Y-77875370D01*
X38343790Y-77880928D01*
X38337448Y-77888973D01*
X38323193Y-77907055D01*
X38319280Y-77911458D01*
X38319350Y-77911517D01*
X38316043Y-77915420D01*
X38312425Y-77919038D01*
X38301811Y-77933891D01*
X38301321Y-77934577D01*
X38297830Y-77939228D01*
X38266397Y-77979100D01*
X38263395Y-77987649D01*
X38258128Y-77995019D01*
X38255191Y-78004840D01*
X38243594Y-78043618D01*
X38241788Y-78049176D01*
X38233047Y-78074069D01*
X38224977Y-78097048D01*
X38224500Y-78102555D01*
X38224500Y-78105239D01*
X38224387Y-78107841D01*
X38224365Y-78107915D01*
X38224196Y-78107908D01*
X38224150Y-78108633D01*
X38222310Y-78114787D01*
X38222712Y-78125026D01*
X38222712Y-78125029D01*
X38224404Y-78168081D01*
X38224500Y-78172949D01*
X38224500Y-78244101D01*
X38204815Y-78311140D01*
X38152011Y-78356895D01*
X38082853Y-78366839D01*
X38019297Y-78337814D01*
X38012819Y-78331782D01*
X37186819Y-77505782D01*
X37153334Y-77444459D01*
X37150500Y-77418101D01*
X37150499Y-77008349D01*
X37150499Y-77004986D01*
X37149922Y-76999676D01*
X37145024Y-76954573D01*
X37145023Y-76954570D01*
X37144184Y-76946843D01*
X37096372Y-76819305D01*
X37091076Y-76812238D01*
X37091074Y-76812235D01*
X37019982Y-76717378D01*
X37014687Y-76710313D01*
X37000259Y-76699500D01*
X36912765Y-76633926D01*
X36912762Y-76633924D01*
X36905695Y-76628628D01*
X36897422Y-76625527D01*
X36897421Y-76625526D01*
X36825977Y-76598743D01*
X36778157Y-76580816D01*
X36770426Y-76579976D01*
X36770425Y-76579976D01*
X36761265Y-76578981D01*
X36720015Y-76574500D01*
X36425044Y-76574500D01*
X36129986Y-76574501D01*
X36126645Y-76574864D01*
X36126643Y-76574864D01*
X36079573Y-76579976D01*
X36079570Y-76579977D01*
X36071843Y-76580816D01*
X35999642Y-76607883D01*
X35952579Y-76625526D01*
X35952578Y-76625527D01*
X35944305Y-76628628D01*
X35937238Y-76633924D01*
X35937235Y-76633926D01*
X35849741Y-76699500D01*
X35835313Y-76710313D01*
X35830018Y-76717378D01*
X35758926Y-76812235D01*
X35758924Y-76812238D01*
X35753628Y-76819305D01*
X35705816Y-76946843D01*
X35699500Y-77004985D01*
X35699501Y-77545014D01*
X35699864Y-77548355D01*
X35699864Y-77548357D01*
X35704872Y-77594463D01*
X35705816Y-77603157D01*
X35753628Y-77730695D01*
X35758924Y-77737762D01*
X35758926Y-77737765D01*
X35828089Y-77830048D01*
X35835313Y-77839687D01*
X35842378Y-77844982D01*
X35937235Y-77916074D01*
X35937238Y-77916076D01*
X35944305Y-77921372D01*
X35952578Y-77924473D01*
X35952579Y-77924474D01*
X35977699Y-77933891D01*
X36033562Y-77975856D01*
X36057870Y-78041361D01*
X36042904Y-78109609D01*
X35993416Y-78158931D01*
X35977699Y-78166109D01*
X35952579Y-78175526D01*
X35952578Y-78175527D01*
X35944305Y-78178628D01*
X35937238Y-78183924D01*
X35937235Y-78183926D01*
X35849741Y-78249500D01*
X35835313Y-78260313D01*
X35830018Y-78267378D01*
X35758926Y-78362235D01*
X35758924Y-78362238D01*
X35753628Y-78369305D01*
X35750527Y-78377578D01*
X35750526Y-78377579D01*
X35749451Y-78380447D01*
X35705816Y-78496843D01*
X35699500Y-78554985D01*
X35699500Y-78569101D01*
X35679815Y-78636140D01*
X35627011Y-78681895D01*
X35557853Y-78691839D01*
X35494297Y-78662814D01*
X35487819Y-78656782D01*
X34511819Y-77680782D01*
X34478334Y-77619459D01*
X34475500Y-77593101D01*
X34475499Y-77183349D01*
X34475499Y-77179986D01*
X34470434Y-77133349D01*
X34470024Y-77129573D01*
X34470023Y-77129570D01*
X34469184Y-77121843D01*
X34434563Y-77029493D01*
X34424474Y-77002579D01*
X34424473Y-77002578D01*
X34421372Y-76994305D01*
X34416076Y-76987238D01*
X34416074Y-76987235D01*
X34344982Y-76892378D01*
X34339687Y-76885313D01*
X34304598Y-76859015D01*
X34237765Y-76808926D01*
X34237762Y-76808924D01*
X34230695Y-76803628D01*
X34222422Y-76800527D01*
X34222421Y-76800526D01*
X34180243Y-76784714D01*
X34103157Y-76755816D01*
X34095426Y-76754976D01*
X34095425Y-76754976D01*
X34083015Y-76753628D01*
X34045015Y-76749500D01*
X33750044Y-76749500D01*
X33454986Y-76749501D01*
X33451645Y-76749864D01*
X33451643Y-76749864D01*
X33404573Y-76754976D01*
X33404570Y-76754977D01*
X33396843Y-76755816D01*
X33311957Y-76787638D01*
X33277579Y-76800526D01*
X33277578Y-76800527D01*
X33269305Y-76803628D01*
X33262238Y-76808924D01*
X33262235Y-76808926D01*
X33195402Y-76859015D01*
X33160313Y-76885313D01*
X33155018Y-76892378D01*
X33083926Y-76987235D01*
X33083924Y-76987238D01*
X33078628Y-76994305D01*
X33075527Y-77002578D01*
X33075526Y-77002579D01*
X33064246Y-77032668D01*
X33030816Y-77121843D01*
X33024500Y-77179985D01*
X33024501Y-77720014D01*
X33024864Y-77723355D01*
X33024864Y-77723357D01*
X33028726Y-77758912D01*
X33030816Y-77778157D01*
X33078628Y-77905695D01*
X33083924Y-77912762D01*
X33083926Y-77912765D01*
X33146150Y-77995789D01*
X33160313Y-78014687D01*
X33167378Y-78019982D01*
X33262235Y-78091074D01*
X33262238Y-78091076D01*
X33269305Y-78096372D01*
X33277578Y-78099473D01*
X33277579Y-78099474D01*
X33302699Y-78108891D01*
X33358562Y-78150856D01*
X33382870Y-78216361D01*
X33367904Y-78284609D01*
X33318416Y-78333931D01*
X33302699Y-78341109D01*
X33277579Y-78350526D01*
X33277578Y-78350527D01*
X33269305Y-78353628D01*
X33262238Y-78358924D01*
X33262235Y-78358926D01*
X33187655Y-78414821D01*
X33160313Y-78435313D01*
X33155018Y-78442378D01*
X33083926Y-78537235D01*
X33083924Y-78537238D01*
X33078628Y-78544305D01*
X33075526Y-78552578D01*
X33075525Y-78552581D01*
X33039484Y-78648721D01*
X32997520Y-78704585D01*
X32932015Y-78728893D01*
X32863767Y-78713927D01*
X32814444Y-78664439D01*
X32800794Y-78618755D01*
X32800499Y-78618804D01*
X32797361Y-78599947D01*
X32796539Y-78594168D01*
X32791781Y-78553968D01*
X32791780Y-78553966D01*
X32790576Y-78543790D01*
X32786654Y-78535623D01*
X32785167Y-78526687D01*
X32761077Y-78482042D01*
X32758425Y-78476837D01*
X32736463Y-78431100D01*
X32732906Y-78426869D01*
X32731020Y-78424983D01*
X32729249Y-78423053D01*
X32729221Y-78423000D01*
X32729348Y-78422883D01*
X32728857Y-78422326D01*
X32725806Y-78416671D01*
X32710562Y-78402579D01*
X32686619Y-78380447D01*
X32683109Y-78377072D01*
X31936819Y-77630782D01*
X31903334Y-77569459D01*
X31900500Y-77543101D01*
X31900499Y-77133349D01*
X31900499Y-77129986D01*
X31898824Y-77114562D01*
X31895024Y-77079573D01*
X31895023Y-77079570D01*
X31894184Y-77071843D01*
X31850222Y-76954575D01*
X31849474Y-76952579D01*
X31849473Y-76952578D01*
X31846372Y-76944305D01*
X31841076Y-76937238D01*
X31841074Y-76937235D01*
X31769982Y-76842378D01*
X31764687Y-76835313D01*
X31718271Y-76800526D01*
X31662765Y-76758926D01*
X31662762Y-76758924D01*
X31655695Y-76753628D01*
X31647422Y-76750527D01*
X31647421Y-76750526D01*
X31594852Y-76730819D01*
X31528157Y-76705816D01*
X31520426Y-76704976D01*
X31520425Y-76704976D01*
X31511265Y-76703981D01*
X31470015Y-76699500D01*
X31450997Y-76699500D01*
X30980897Y-76699501D01*
X30913859Y-76679817D01*
X30868104Y-76627013D01*
X30858160Y-76557854D01*
X30887185Y-76494298D01*
X30893217Y-76487820D01*
X34134801Y-73246237D01*
X34196124Y-73212752D01*
X34265816Y-73217736D01*
X34325586Y-73265028D01*
X34369399Y-73330601D01*
X34452260Y-73385966D01*
X34486313Y-73392740D01*
X34519347Y-73399311D01*
X34519350Y-73399311D01*
X34525326Y-73400500D01*
X35474674Y-73400500D01*
X35480650Y-73399311D01*
X35480653Y-73399311D01*
X35513687Y-73392740D01*
X35547740Y-73385966D01*
X35630601Y-73330601D01*
X35685966Y-73247740D01*
X35692926Y-73212752D01*
X35699311Y-73180653D01*
X35699311Y-73180650D01*
X35700500Y-73174674D01*
X35700500Y-71925326D01*
X35696512Y-71905274D01*
X35688349Y-71864241D01*
X35685966Y-71852260D01*
X35630601Y-71769399D01*
X35547740Y-71714034D01*
X35513687Y-71707260D01*
X35480653Y-71700689D01*
X35480650Y-71700689D01*
X35474674Y-71699500D01*
X34525326Y-71699500D01*
X34519350Y-71700689D01*
X34519347Y-71700689D01*
X34486313Y-71707260D01*
X34452260Y-71714034D01*
X34369399Y-71769399D01*
X34314034Y-71852260D01*
X34311651Y-71864241D01*
X34303489Y-71905274D01*
X34299500Y-71925326D01*
X34299500Y-72062362D01*
X34279815Y-72129401D01*
X34227011Y-72175156D01*
X34210094Y-72181439D01*
X34203969Y-72183218D01*
X34193791Y-72184423D01*
X34185622Y-72188346D01*
X34176687Y-72189833D01*
X34167672Y-72194697D01*
X34167667Y-72194699D01*
X34132033Y-72213926D01*
X34126835Y-72216575D01*
X34081101Y-72238537D01*
X34076869Y-72242094D01*
X34074959Y-72244004D01*
X34073057Y-72245749D01*
X34072992Y-72245784D01*
X34072876Y-72245658D01*
X34072326Y-72246143D01*
X34066671Y-72249194D01*
X34059711Y-72256723D01*
X34059710Y-72256724D01*
X34030447Y-72288381D01*
X34027072Y-72291891D01*
X32811560Y-73507403D01*
X32750237Y-73540888D01*
X32680545Y-73535904D01*
X32624612Y-73494032D01*
X32600195Y-73428568D01*
X32607770Y-73376194D01*
X32648524Y-73267485D01*
X32652091Y-73252482D01*
X32657637Y-73201427D01*
X32658000Y-73194729D01*
X32658000Y-72821830D01*
X32653596Y-72806831D01*
X32652226Y-72805644D01*
X32644668Y-72804000D01*
X31971830Y-72804000D01*
X31956831Y-72808404D01*
X31955644Y-72809774D01*
X31954000Y-72817332D01*
X31954000Y-73640169D01*
X31958404Y-73655168D01*
X31959774Y-73656355D01*
X31967332Y-73657999D01*
X32194726Y-73657999D01*
X32201431Y-73657636D01*
X32252477Y-73652092D01*
X32267488Y-73648522D01*
X32376194Y-73607770D01*
X32445877Y-73602669D01*
X32507256Y-73636051D01*
X32540844Y-73697318D01*
X32535976Y-73767018D01*
X32507403Y-73811560D01*
X31911692Y-74407271D01*
X31850369Y-74440756D01*
X31780677Y-74435772D01*
X31724744Y-74393900D01*
X31700327Y-74328436D01*
X31700011Y-74319590D01*
X31700011Y-74253182D01*
X31702558Y-74229246D01*
X31702624Y-74227851D01*
X31704781Y-74217831D01*
X31703577Y-74207656D01*
X31703577Y-74207651D01*
X31700871Y-74184788D01*
X31700524Y-74178911D01*
X31700432Y-74178919D01*
X31700011Y-74173824D01*
X31700011Y-74168704D01*
X31699171Y-74163657D01*
X31699170Y-74163646D01*
X31696878Y-74149878D01*
X31696055Y-74144095D01*
X31691294Y-74103867D01*
X31691292Y-74103860D01*
X31690088Y-74093688D01*
X31686165Y-74085519D01*
X31684678Y-74076584D01*
X31660585Y-74031931D01*
X31657933Y-74026727D01*
X31639352Y-73988032D01*
X31639351Y-73988030D01*
X31635974Y-73980998D01*
X31632417Y-73976766D01*
X31630507Y-73974856D01*
X31628762Y-73972954D01*
X31628727Y-73972889D01*
X31628853Y-73972773D01*
X31628368Y-73972223D01*
X31625317Y-73966568D01*
X31609756Y-73952183D01*
X31586130Y-73930344D01*
X31582620Y-73926969D01*
X31462631Y-73806980D01*
X31429146Y-73745657D01*
X31434130Y-73675965D01*
X31442121Y-73662497D01*
X31446000Y-73644668D01*
X31446000Y-72420000D01*
X31465685Y-72352961D01*
X31518489Y-72307206D01*
X31570000Y-72296000D01*
X32640169Y-72296000D01*
X32655168Y-72291596D01*
X32656355Y-72290226D01*
X32657999Y-72282668D01*
X32657999Y-71905274D01*
X32657636Y-71898569D01*
X32652092Y-71847523D01*
X32648522Y-71832512D01*
X32603273Y-71711810D01*
X32594874Y-71696468D01*
X32518202Y-71594165D01*
X32505835Y-71581798D01*
X32403532Y-71505126D01*
X32388190Y-71496727D01*
X32267485Y-71451476D01*
X32252482Y-71447909D01*
X32201427Y-71442363D01*
X32194730Y-71442000D01*
X31852681Y-71442001D01*
X31785642Y-71422317D01*
X31739887Y-71369513D01*
X31729943Y-71300354D01*
X31758968Y-71236799D01*
X31765000Y-71230320D01*
X33577643Y-69417677D01*
X33596345Y-69402573D01*
X33597399Y-69401614D01*
X33606010Y-69396054D01*
X33626604Y-69369931D01*
X33630524Y-69365520D01*
X33630454Y-69365461D01*
X33633759Y-69361561D01*
X33637376Y-69357944D01*
X33640344Y-69353791D01*
X33640353Y-69353780D01*
X33648497Y-69342382D01*
X33652007Y-69337707D01*
X33677058Y-69305931D01*
X33677059Y-69305929D01*
X33683403Y-69297882D01*
X33686405Y-69289334D01*
X33691672Y-69281963D01*
X33706210Y-69233351D01*
X33708015Y-69227797D01*
X33720186Y-69193138D01*
X34044758Y-69193138D01*
X34045578Y-69200566D01*
X34045578Y-69200568D01*
X34047474Y-69217744D01*
X34062035Y-69349633D01*
X34064601Y-69356645D01*
X34064602Y-69356649D01*
X34094206Y-69437544D01*
X34116143Y-69497490D01*
X34203958Y-69628172D01*
X34226183Y-69648395D01*
X34314878Y-69729102D01*
X34314882Y-69729105D01*
X34320410Y-69734135D01*
X34458776Y-69809262D01*
X34561031Y-69836088D01*
X34603841Y-69847319D01*
X34603843Y-69847319D01*
X34611069Y-69849215D01*
X34688127Y-69850425D01*
X34761025Y-69851571D01*
X34761028Y-69851571D01*
X34768495Y-69851688D01*
X34775776Y-69850020D01*
X34775780Y-69850020D01*
X34914681Y-69818207D01*
X34921968Y-69816538D01*
X35062625Y-69745795D01*
X35068306Y-69740943D01*
X35068309Y-69740941D01*
X35176666Y-69648395D01*
X35176667Y-69648394D01*
X35182348Y-69643542D01*
X35193393Y-69628172D01*
X35213798Y-69599775D01*
X35274224Y-69515683D01*
X35332950Y-69369598D01*
X35335201Y-69353780D01*
X35354562Y-69217744D01*
X35354562Y-69217740D01*
X35355134Y-69213723D01*
X35355278Y-69200000D01*
X35352850Y-69179934D01*
X35349116Y-69149077D01*
X35360604Y-69080159D01*
X35384537Y-69046500D01*
X38119720Y-66311317D01*
X38181043Y-66277832D01*
X38233182Y-66277708D01*
X38334046Y-66299148D01*
X38334051Y-66299148D01*
X38340409Y-66300500D01*
X38519191Y-66300500D01*
X38525549Y-66299148D01*
X38525554Y-66299148D01*
X38687706Y-66264681D01*
X38687705Y-66264681D01*
X38694067Y-66263329D01*
X38706540Y-66257776D01*
X38851459Y-66193254D01*
X38857393Y-66190612D01*
X39002030Y-66085526D01*
X39121659Y-65952665D01*
X39211050Y-65797835D01*
X39241539Y-65704000D01*
X39264289Y-65633984D01*
X39264290Y-65633981D01*
X39266297Y-65627803D01*
X39284985Y-65450000D01*
X40114615Y-65450000D01*
X40133303Y-65627803D01*
X40135310Y-65633981D01*
X40135311Y-65633984D01*
X40158061Y-65704000D01*
X40188550Y-65797835D01*
X40277941Y-65952665D01*
X40397570Y-66085526D01*
X40542207Y-66190612D01*
X40548141Y-66193254D01*
X40693061Y-66257776D01*
X40705533Y-66263329D01*
X40711895Y-66264681D01*
X40711894Y-66264681D01*
X40874046Y-66299148D01*
X40874051Y-66299148D01*
X40880409Y-66300500D01*
X41059191Y-66300500D01*
X41065549Y-66299148D01*
X41065554Y-66299148D01*
X41227706Y-66264681D01*
X41227705Y-66264681D01*
X41234067Y-66263329D01*
X41246540Y-66257776D01*
X41391459Y-66193254D01*
X41397393Y-66190612D01*
X41542030Y-66085526D01*
X41661659Y-65952665D01*
X41751050Y-65797835D01*
X41781539Y-65704000D01*
X41804289Y-65633984D01*
X41804290Y-65633981D01*
X41806297Y-65627803D01*
X41824985Y-65450000D01*
X41806297Y-65272197D01*
X41751050Y-65102165D01*
X41661659Y-64947335D01*
X41542030Y-64814474D01*
X41397393Y-64709388D01*
X41234067Y-64636671D01*
X41207451Y-64631014D01*
X41065554Y-64600852D01*
X41065549Y-64600852D01*
X41059191Y-64599500D01*
X40880409Y-64599500D01*
X40874051Y-64600852D01*
X40874046Y-64600852D01*
X40732149Y-64631014D01*
X40705533Y-64636671D01*
X40542208Y-64709388D01*
X40397570Y-64814474D01*
X40277941Y-64947335D01*
X40188550Y-65102165D01*
X40133303Y-65272197D01*
X40114615Y-65450000D01*
X39284985Y-65450000D01*
X39266297Y-65272197D01*
X39211050Y-65102165D01*
X39121659Y-64947335D01*
X39002030Y-64814474D01*
X38857393Y-64709388D01*
X38694067Y-64636671D01*
X38667451Y-64631014D01*
X38525554Y-64600852D01*
X38525549Y-64600852D01*
X38519191Y-64599500D01*
X38340409Y-64599500D01*
X38334051Y-64600852D01*
X38334046Y-64600852D01*
X38192149Y-64631014D01*
X38165533Y-64636671D01*
X38002208Y-64709388D01*
X37857570Y-64814474D01*
X37737941Y-64947335D01*
X37648550Y-65102165D01*
X37593303Y-65272197D01*
X37574615Y-65450000D01*
X37593303Y-65627803D01*
X37606082Y-65667133D01*
X37608077Y-65736972D01*
X37575832Y-65793131D01*
X34855469Y-68513494D01*
X34794146Y-68546979D01*
X34767143Y-68549811D01*
X34659988Y-68549250D01*
X34632158Y-68549104D01*
X34632157Y-68549104D01*
X34624684Y-68549065D01*
X34617421Y-68550809D01*
X34617418Y-68550809D01*
X34548136Y-68567442D01*
X34471588Y-68585820D01*
X34331679Y-68658032D01*
X34213034Y-68761533D01*
X34122501Y-68890348D01*
X34065309Y-69037039D01*
X34044758Y-69193138D01*
X33720186Y-69193138D01*
X33722238Y-69187296D01*
X33722239Y-69187294D01*
X33724823Y-69179934D01*
X33725300Y-69174427D01*
X33725300Y-69171744D01*
X33725413Y-69169145D01*
X33725436Y-69169067D01*
X33725604Y-69169074D01*
X33725649Y-69168353D01*
X33727491Y-69162195D01*
X33725396Y-69108876D01*
X33725300Y-69104008D01*
X33725300Y-66291495D01*
X33744985Y-66224456D01*
X33778658Y-66192354D01*
X33777393Y-66190612D01*
X33839738Y-66145315D01*
X33922030Y-66085526D01*
X34041659Y-65952665D01*
X34131050Y-65797835D01*
X34161539Y-65704000D01*
X34184289Y-65633984D01*
X34184290Y-65633981D01*
X34186297Y-65627803D01*
X34204985Y-65450000D01*
X35034615Y-65450000D01*
X35053303Y-65627803D01*
X35055310Y-65633981D01*
X35055311Y-65633984D01*
X35078061Y-65704000D01*
X35108550Y-65797835D01*
X35197941Y-65952665D01*
X35317570Y-66085526D01*
X35462207Y-66190612D01*
X35468141Y-66193254D01*
X35613061Y-66257776D01*
X35625533Y-66263329D01*
X35631895Y-66264681D01*
X35631894Y-66264681D01*
X35794046Y-66299148D01*
X35794051Y-66299148D01*
X35800409Y-66300500D01*
X35979191Y-66300500D01*
X35985549Y-66299148D01*
X35985554Y-66299148D01*
X36147706Y-66264681D01*
X36147705Y-66264681D01*
X36154067Y-66263329D01*
X36166540Y-66257776D01*
X36311459Y-66193254D01*
X36317393Y-66190612D01*
X36462030Y-66085526D01*
X36581659Y-65952665D01*
X36671050Y-65797835D01*
X36701539Y-65704000D01*
X36724289Y-65633984D01*
X36724290Y-65633981D01*
X36726297Y-65627803D01*
X36744985Y-65450000D01*
X36726297Y-65272197D01*
X36671050Y-65102165D01*
X36581659Y-64947335D01*
X36462030Y-64814474D01*
X36317393Y-64709388D01*
X36154067Y-64636671D01*
X36127451Y-64631014D01*
X35985554Y-64600852D01*
X35985549Y-64600852D01*
X35979191Y-64599500D01*
X35800409Y-64599500D01*
X35794051Y-64600852D01*
X35794046Y-64600852D01*
X35652149Y-64631014D01*
X35625533Y-64636671D01*
X35462208Y-64709388D01*
X35317570Y-64814474D01*
X35197941Y-64947335D01*
X35108550Y-65102165D01*
X35053303Y-65272197D01*
X35034615Y-65450000D01*
X34204985Y-65450000D01*
X34186297Y-65272197D01*
X34131050Y-65102165D01*
X34041659Y-64947335D01*
X33922030Y-64814474D01*
X33777393Y-64709388D01*
X33614067Y-64636671D01*
X33587451Y-64631014D01*
X33445554Y-64600852D01*
X33445549Y-64600852D01*
X33439191Y-64599500D01*
X33260409Y-64599500D01*
X33254051Y-64600852D01*
X33254046Y-64600852D01*
X33112149Y-64631014D01*
X33085533Y-64636671D01*
X32922208Y-64709388D01*
X32777570Y-64814474D01*
X32657941Y-64947335D01*
X32568550Y-65102165D01*
X32513303Y-65272197D01*
X32494615Y-65450000D01*
X32513303Y-65627803D01*
X32515310Y-65633981D01*
X32515311Y-65633984D01*
X32538061Y-65704000D01*
X32568550Y-65797835D01*
X32657941Y-65952665D01*
X32777570Y-66085526D01*
X32859862Y-66145315D01*
X32922207Y-66190612D01*
X32920602Y-66192821D01*
X32960506Y-66234656D01*
X32974300Y-66291495D01*
X32974300Y-68907583D01*
X32954615Y-68974622D01*
X32937981Y-68995264D01*
X30672264Y-71260981D01*
X30653535Y-71276108D01*
X30652501Y-71277049D01*
X30643893Y-71282607D01*
X30637551Y-71290652D01*
X30623296Y-71308734D01*
X30619383Y-71313137D01*
X30619453Y-71313196D01*
X30616146Y-71317099D01*
X30612528Y-71320717D01*
X30609554Y-71324879D01*
X30601424Y-71336256D01*
X30597933Y-71340907D01*
X30566500Y-71380779D01*
X30563498Y-71389328D01*
X30558231Y-71396698D01*
X30555294Y-71406519D01*
X30543697Y-71445297D01*
X30541891Y-71450855D01*
X30525080Y-71498727D01*
X30524603Y-71504234D01*
X30524603Y-71506918D01*
X30524490Y-71509520D01*
X30524468Y-71509594D01*
X30524299Y-71509587D01*
X30524253Y-71510312D01*
X30522413Y-71516466D01*
X30522815Y-71526705D01*
X30522815Y-71526708D01*
X30524507Y-71569760D01*
X30524603Y-71574628D01*
X30524603Y-73594204D01*
X30504918Y-73661243D01*
X30452114Y-73706998D01*
X30382956Y-73716942D01*
X30319400Y-73687917D01*
X30312922Y-73681885D01*
X27411619Y-70780582D01*
X27378134Y-70719259D01*
X27375300Y-70692901D01*
X27375300Y-66773280D01*
X27377846Y-66749355D01*
X27377912Y-66747951D01*
X27380069Y-66737933D01*
X27376159Y-66704897D01*
X27375812Y-66699016D01*
X27375722Y-66699023D01*
X27375300Y-66693918D01*
X27375300Y-66688807D01*
X27373880Y-66680277D01*
X27374054Y-66678844D01*
X27374039Y-66678664D01*
X27374076Y-66678661D01*
X27382287Y-66610916D01*
X27426860Y-66557110D01*
X27493446Y-66535943D01*
X27539721Y-66543803D01*
X27552313Y-66548523D01*
X27567318Y-66552091D01*
X27618373Y-66557637D01*
X27625071Y-66558000D01*
X27997970Y-66558000D01*
X28012969Y-66553596D01*
X28014156Y-66552226D01*
X28015800Y-66544668D01*
X28015800Y-66540169D01*
X28523800Y-66540169D01*
X28528204Y-66555168D01*
X28529574Y-66556355D01*
X28537132Y-66557999D01*
X28914526Y-66557999D01*
X28921231Y-66557636D01*
X28972277Y-66552092D01*
X28987288Y-66548522D01*
X29107990Y-66503273D01*
X29123332Y-66494874D01*
X29225635Y-66418202D01*
X29238002Y-66405835D01*
X29314674Y-66303532D01*
X29323073Y-66288190D01*
X29368324Y-66167485D01*
X29371891Y-66152482D01*
X29377437Y-66101427D01*
X29377800Y-66094729D01*
X29377800Y-65721830D01*
X29373396Y-65706831D01*
X29372026Y-65705644D01*
X29364468Y-65704000D01*
X28541630Y-65704000D01*
X28526631Y-65708404D01*
X28525444Y-65709774D01*
X28523800Y-65717332D01*
X28523800Y-66540169D01*
X28015800Y-66540169D01*
X28015800Y-65721830D01*
X28011396Y-65706831D01*
X28010026Y-65705644D01*
X28002468Y-65704000D01*
X27179631Y-65704000D01*
X27164632Y-65708404D01*
X27163445Y-65709774D01*
X27161801Y-65717332D01*
X27161801Y-66051602D01*
X27142116Y-66118641D01*
X27089312Y-66164396D01*
X27020154Y-66174340D01*
X26956598Y-66145315D01*
X26950120Y-66139283D01*
X26588722Y-65777885D01*
X26555237Y-65716562D01*
X26558472Y-65651886D01*
X26564289Y-65633984D01*
X26564290Y-65633981D01*
X26566297Y-65627803D01*
X26584985Y-65450000D01*
X29954615Y-65450000D01*
X29973303Y-65627803D01*
X29975310Y-65633981D01*
X29975311Y-65633984D01*
X29998061Y-65704000D01*
X30028550Y-65797835D01*
X30117941Y-65952665D01*
X30237570Y-66085526D01*
X30382207Y-66190612D01*
X30388141Y-66193254D01*
X30533061Y-66257776D01*
X30545533Y-66263329D01*
X30551895Y-66264681D01*
X30551894Y-66264681D01*
X30714046Y-66299148D01*
X30714051Y-66299148D01*
X30720409Y-66300500D01*
X30899191Y-66300500D01*
X30905549Y-66299148D01*
X30905554Y-66299148D01*
X31067706Y-66264681D01*
X31067705Y-66264681D01*
X31074067Y-66263329D01*
X31086540Y-66257776D01*
X31231459Y-66193254D01*
X31237393Y-66190612D01*
X31382030Y-66085526D01*
X31501659Y-65952665D01*
X31591050Y-65797835D01*
X31621539Y-65704000D01*
X31644289Y-65633984D01*
X31644290Y-65633981D01*
X31646297Y-65627803D01*
X31664985Y-65450000D01*
X31646297Y-65272197D01*
X31591050Y-65102165D01*
X31501659Y-64947335D01*
X31382030Y-64814474D01*
X31237393Y-64709388D01*
X31074067Y-64636671D01*
X31047451Y-64631014D01*
X30905554Y-64600852D01*
X30905549Y-64600852D01*
X30899191Y-64599500D01*
X30720409Y-64599500D01*
X30714051Y-64600852D01*
X30714046Y-64600852D01*
X30572149Y-64631014D01*
X30545533Y-64636671D01*
X30382208Y-64709388D01*
X30237570Y-64814474D01*
X30117941Y-64947335D01*
X30028550Y-65102165D01*
X29973303Y-65272197D01*
X29954615Y-65450000D01*
X26584985Y-65450000D01*
X26566297Y-65272197D01*
X26535746Y-65178170D01*
X27161800Y-65178170D01*
X27166204Y-65193169D01*
X27167574Y-65194356D01*
X27175132Y-65196000D01*
X27997970Y-65196000D01*
X28012969Y-65191596D01*
X28014156Y-65190226D01*
X28015800Y-65182668D01*
X28015800Y-65178170D01*
X28523800Y-65178170D01*
X28528204Y-65193169D01*
X28529574Y-65194356D01*
X28537132Y-65196000D01*
X29359969Y-65196000D01*
X29374968Y-65191596D01*
X29376155Y-65190226D01*
X29377799Y-65182668D01*
X29377799Y-64805274D01*
X29377436Y-64798569D01*
X29371892Y-64747523D01*
X29368322Y-64732512D01*
X29323073Y-64611810D01*
X29314674Y-64596468D01*
X29238002Y-64494165D01*
X29225635Y-64481798D01*
X29123332Y-64405126D01*
X29107990Y-64396727D01*
X28987285Y-64351476D01*
X28972282Y-64347909D01*
X28921227Y-64342363D01*
X28914529Y-64342000D01*
X28541630Y-64342000D01*
X28526631Y-64346404D01*
X28525444Y-64347774D01*
X28523800Y-64355332D01*
X28523800Y-65178170D01*
X28015800Y-65178170D01*
X28015800Y-64359831D01*
X28011396Y-64344832D01*
X28010026Y-64343645D01*
X28002468Y-64342001D01*
X27625074Y-64342001D01*
X27618369Y-64342364D01*
X27567323Y-64347908D01*
X27552312Y-64351478D01*
X27431610Y-64396727D01*
X27416268Y-64405126D01*
X27313965Y-64481798D01*
X27301598Y-64494165D01*
X27224926Y-64596468D01*
X27216527Y-64611810D01*
X27171276Y-64732515D01*
X27167709Y-64747518D01*
X27162163Y-64798573D01*
X27161800Y-64805271D01*
X27161800Y-65178170D01*
X26535746Y-65178170D01*
X26511050Y-65102165D01*
X26421659Y-64947335D01*
X26302030Y-64814474D01*
X26157393Y-64709388D01*
X25994067Y-64636671D01*
X25967451Y-64631014D01*
X25825554Y-64600852D01*
X25825549Y-64600852D01*
X25819191Y-64599500D01*
X25640409Y-64599500D01*
X25634051Y-64600852D01*
X25634046Y-64600852D01*
X25492149Y-64631014D01*
X25465533Y-64636671D01*
X25302208Y-64709388D01*
X25157570Y-64814474D01*
X25037941Y-64947335D01*
X24948550Y-65102165D01*
X24893303Y-65272197D01*
X24874615Y-65450000D01*
X24893303Y-65627803D01*
X24895310Y-65633981D01*
X24895311Y-65633984D01*
X24918061Y-65704000D01*
X24948550Y-65797835D01*
X25037941Y-65952665D01*
X25157570Y-66085526D01*
X25302207Y-66190612D01*
X25308141Y-66193254D01*
X25453061Y-66257776D01*
X25465533Y-66263329D01*
X25471895Y-66264681D01*
X25471894Y-66264681D01*
X25634046Y-66299148D01*
X25634051Y-66299148D01*
X25640409Y-66300500D01*
X25819191Y-66300500D01*
X25825549Y-66299148D01*
X25825554Y-66299148D01*
X25918068Y-66279483D01*
X25943078Y-66274167D01*
X26012744Y-66279483D01*
X26056539Y-66307776D01*
X26587981Y-66839218D01*
X26621466Y-66900541D01*
X26624300Y-66926899D01*
X26624300Y-70846516D01*
X26621753Y-70870451D01*
X26621687Y-70871852D01*
X26619531Y-70881866D01*
X26620735Y-70892039D01*
X26623441Y-70914902D01*
X26623788Y-70920784D01*
X26623878Y-70920777D01*
X26624300Y-70925882D01*
X26624300Y-70930993D01*
X26625139Y-70936033D01*
X26627439Y-70949853D01*
X26628261Y-70955632D01*
X26634224Y-71006010D01*
X26638146Y-71014177D01*
X26639633Y-71023113D01*
X26663722Y-71067757D01*
X26666374Y-71072960D01*
X26688337Y-71118700D01*
X26691894Y-71122931D01*
X26693780Y-71124817D01*
X26695551Y-71126747D01*
X26695579Y-71126800D01*
X26695452Y-71126917D01*
X26695943Y-71127474D01*
X26698994Y-71133129D01*
X26706523Y-71140089D01*
X26706524Y-71140090D01*
X26738181Y-71169353D01*
X26741691Y-71172728D01*
X29530287Y-73961325D01*
X29563771Y-74022646D01*
X29558787Y-74092338D01*
X29516915Y-74148271D01*
X29472500Y-74169346D01*
X29458757Y-74172760D01*
X29458752Y-74172762D01*
X29448809Y-74175232D01*
X29439296Y-74181375D01*
X29416775Y-74192849D01*
X29415773Y-74193237D01*
X29415772Y-74193238D01*
X29406212Y-74196936D01*
X29398367Y-74203531D01*
X29382420Y-74216936D01*
X29369896Y-74226186D01*
X29343790Y-74243042D01*
X29337443Y-74251093D01*
X29337441Y-74251095D01*
X29336774Y-74251941D01*
X29319185Y-74270091D01*
X29318365Y-74270780D01*
X29318363Y-74270782D01*
X29310520Y-74277375D01*
X29294488Y-74304004D01*
X29285642Y-74316802D01*
X29278381Y-74326013D01*
X29266397Y-74341214D01*
X29263002Y-74350883D01*
X29263000Y-74350886D01*
X29262647Y-74351893D01*
X29251882Y-74374769D01*
X29251327Y-74375690D01*
X29251324Y-74375697D01*
X29246041Y-74384472D01*
X29243885Y-74394487D01*
X29243883Y-74394492D01*
X29239498Y-74414860D01*
X29235272Y-74429846D01*
X29224977Y-74459162D01*
X29224500Y-74464669D01*
X29224500Y-74471330D01*
X29221953Y-74495265D01*
X29221887Y-74496666D01*
X29219731Y-74506680D01*
X29220935Y-74516853D01*
X29223641Y-74539716D01*
X29224500Y-74554290D01*
X29224500Y-75107915D01*
X29204815Y-75174954D01*
X29182015Y-75201357D01*
X29113034Y-75261533D01*
X29022501Y-75390348D01*
X28965309Y-75537039D01*
X28944758Y-75693138D01*
X28945578Y-75700566D01*
X28945578Y-75700568D01*
X28954378Y-75780276D01*
X28962035Y-75849633D01*
X29016143Y-75997490D01*
X29020314Y-76003697D01*
X29103958Y-76128172D01*
X29102163Y-76129378D01*
X29126595Y-76183157D01*
X29116514Y-76252296D01*
X29070654Y-76305008D01*
X29003576Y-76324560D01*
X28991183Y-76323914D01*
X28926849Y-76317322D01*
X28920543Y-76317000D01*
X28896830Y-76317000D01*
X28881831Y-76321404D01*
X28880644Y-76322774D01*
X28879000Y-76330332D01*
X28879000Y-77003170D01*
X28883404Y-77018169D01*
X28884774Y-77019356D01*
X28892332Y-77021000D01*
X29590170Y-77021000D01*
X29605169Y-77016596D01*
X29606356Y-77015226D01*
X29608000Y-77007668D01*
X29608000Y-77004493D01*
X29607670Y-76998118D01*
X29598094Y-76905830D01*
X29595248Y-76892652D01*
X29545581Y-76743779D01*
X29539510Y-76730819D01*
X29457149Y-76597724D01*
X29448256Y-76586504D01*
X29422682Y-76560975D01*
X29389144Y-76499681D01*
X29394068Y-76429985D01*
X29435891Y-76374015D01*
X29501334Y-76349542D01*
X29512228Y-76349233D01*
X29583337Y-76350350D01*
X29661025Y-76351571D01*
X29661028Y-76351571D01*
X29668495Y-76351688D01*
X29675776Y-76350020D01*
X29675780Y-76350020D01*
X29821968Y-76316538D01*
X29822654Y-76319535D01*
X29878421Y-76316210D01*
X29939343Y-76350419D01*
X29972100Y-76412135D01*
X29974325Y-76440055D01*
X29974500Y-76440055D01*
X29974500Y-76440579D01*
X29974441Y-76441513D01*
X29974500Y-76442251D01*
X29974500Y-76442749D01*
X29974388Y-76445339D01*
X29974362Y-76445424D01*
X29974196Y-76445417D01*
X29974151Y-76446131D01*
X29972310Y-76452287D01*
X29972712Y-76462526D01*
X29972712Y-76462529D01*
X29974404Y-76505581D01*
X29974500Y-76510449D01*
X29974500Y-79324533D01*
X29971953Y-79348468D01*
X29971887Y-79349869D01*
X29969731Y-79359883D01*
X29970935Y-79370056D01*
X29973641Y-79392919D01*
X29973988Y-79398801D01*
X29974078Y-79398794D01*
X29974500Y-79403899D01*
X29974500Y-79409010D01*
X29977639Y-79427870D01*
X29978461Y-79433649D01*
X29981907Y-79462765D01*
X29984424Y-79484027D01*
X29988346Y-79492194D01*
X29989833Y-79501130D01*
X30006364Y-79531766D01*
X30013922Y-79545774D01*
X30016574Y-79550977D01*
X30038537Y-79596717D01*
X30042094Y-79600948D01*
X30043980Y-79602834D01*
X30045751Y-79604764D01*
X30045779Y-79604817D01*
X30045652Y-79604934D01*
X30046143Y-79605491D01*
X30049194Y-79611146D01*
X30056723Y-79618106D01*
X30056724Y-79618107D01*
X30088381Y-79647370D01*
X30091891Y-79650745D01*
X31013181Y-80572036D01*
X31046666Y-80633359D01*
X31049500Y-80659717D01*
X31049500Y-82468092D01*
X31029815Y-82535131D01*
X30977011Y-82580886D01*
X30923704Y-82591062D01*
X30923704Y-82592000D01*
X30896830Y-82592000D01*
X30881831Y-82596404D01*
X30880644Y-82597774D01*
X30879000Y-82605332D01*
X30879000Y-83680000D01*
X30859315Y-83747039D01*
X30806511Y-83792794D01*
X30755000Y-83804000D01*
X30495000Y-83804000D01*
X30427961Y-83784315D01*
X30382206Y-83731511D01*
X30371000Y-83680000D01*
X30371000Y-82609830D01*
X30366596Y-82594831D01*
X30365226Y-82593644D01*
X30357668Y-82592000D01*
X30329493Y-82592000D01*
X30323118Y-82592330D01*
X30230825Y-82601907D01*
X30225673Y-82603019D01*
X30155989Y-82597928D01*
X30100119Y-82555971D01*
X30075803Y-82490470D01*
X30075500Y-82481813D01*
X30075500Y-81703285D01*
X30078047Y-81679359D01*
X30078113Y-81677951D01*
X30080270Y-81667934D01*
X30079066Y-81657759D01*
X30079066Y-81657754D01*
X30076360Y-81634891D01*
X30076013Y-81629014D01*
X30075921Y-81629022D01*
X30075500Y-81623927D01*
X30075500Y-81618807D01*
X30074660Y-81613760D01*
X30074659Y-81613749D01*
X30072367Y-81599981D01*
X30071544Y-81594198D01*
X30066783Y-81553970D01*
X30066781Y-81553963D01*
X30065577Y-81543791D01*
X30061654Y-81535622D01*
X30060167Y-81526687D01*
X30055303Y-81517672D01*
X30055301Y-81517667D01*
X30036074Y-81482033D01*
X30033422Y-81476830D01*
X30030517Y-81470780D01*
X30011463Y-81431101D01*
X30007906Y-81426869D01*
X30005996Y-81424959D01*
X30004251Y-81423057D01*
X30004216Y-81422992D01*
X30004342Y-81422876D01*
X30003857Y-81422326D01*
X30000806Y-81416671D01*
X29990163Y-81406832D01*
X29961619Y-81380447D01*
X29958109Y-81377072D01*
X29036819Y-80455782D01*
X29003334Y-80394459D01*
X29000500Y-80368101D01*
X29000500Y-79596749D01*
X29020185Y-79529710D01*
X29072989Y-79483955D01*
X29080961Y-79480644D01*
X29105695Y-79471372D01*
X29112762Y-79466076D01*
X29112765Y-79466074D01*
X29207622Y-79394982D01*
X29214687Y-79389687D01*
X29219982Y-79382622D01*
X29291074Y-79287765D01*
X29291076Y-79287762D01*
X29296372Y-79280695D01*
X29344184Y-79153157D01*
X29350500Y-79095015D01*
X29350499Y-78554986D01*
X29349283Y-78543790D01*
X29345024Y-78504573D01*
X29345023Y-78504570D01*
X29344184Y-78496843D01*
X29300549Y-78380447D01*
X29299474Y-78377579D01*
X29299473Y-78377578D01*
X29296372Y-78369305D01*
X29240437Y-78294671D01*
X29215984Y-78229220D01*
X29230798Y-78160939D01*
X29274413Y-78114861D01*
X29327272Y-78082151D01*
X29338490Y-78073260D01*
X29449069Y-77962488D01*
X29457938Y-77951257D01*
X29540063Y-77818026D01*
X29546115Y-77805048D01*
X29595525Y-77656082D01*
X29598347Y-77642916D01*
X29607678Y-77551851D01*
X29607944Y-77546639D01*
X29603596Y-77531831D01*
X29602226Y-77530644D01*
X29594668Y-77529000D01*
X27659830Y-77529000D01*
X27644831Y-77533404D01*
X27643644Y-77534774D01*
X27642000Y-77542332D01*
X27642000Y-77545507D01*
X27642330Y-77551882D01*
X27651906Y-77644170D01*
X27654752Y-77657348D01*
X27704419Y-77806221D01*
X27710490Y-77819181D01*
X27792851Y-77952276D01*
X27801740Y-77963490D01*
X27912512Y-78074069D01*
X27923737Y-78082934D01*
X27975386Y-78114770D01*
X28022126Y-78166705D01*
X28033368Y-78235664D01*
X28009546Y-78294694D01*
X27958926Y-78362235D01*
X27958924Y-78362238D01*
X27953628Y-78369305D01*
X27950527Y-78377578D01*
X27950526Y-78377579D01*
X27949451Y-78380447D01*
X27905816Y-78496843D01*
X27899500Y-78554985D01*
X27899501Y-79095014D01*
X27899864Y-79098354D01*
X27899864Y-79098357D01*
X27904872Y-79144463D01*
X27905816Y-79153157D01*
X27953628Y-79280695D01*
X27958924Y-79287762D01*
X27958926Y-79287765D01*
X28030018Y-79382622D01*
X28035313Y-79389687D01*
X28042378Y-79394982D01*
X28137235Y-79466074D01*
X28137238Y-79466076D01*
X28144305Y-79471372D01*
X28169027Y-79480640D01*
X28224890Y-79522604D01*
X28249199Y-79588108D01*
X28249500Y-79596749D01*
X28249500Y-80194101D01*
X28229815Y-80261140D01*
X28177011Y-80306895D01*
X28107853Y-80316839D01*
X28044297Y-80287814D01*
X28037819Y-80281782D01*
X27125196Y-79369159D01*
X27091711Y-79307836D01*
X27096768Y-79237952D01*
X27119184Y-79178157D01*
X27125500Y-79120015D01*
X27125499Y-78579986D01*
X27121568Y-78543790D01*
X27120024Y-78529573D01*
X27120023Y-78529570D01*
X27119184Y-78521843D01*
X27082133Y-78423010D01*
X27074474Y-78402579D01*
X27074473Y-78402578D01*
X27071372Y-78394305D01*
X27015437Y-78319671D01*
X26990984Y-78254220D01*
X27005798Y-78185939D01*
X27049413Y-78139861D01*
X27102272Y-78107151D01*
X27113490Y-78098260D01*
X27224069Y-77987488D01*
X27232938Y-77976257D01*
X27315063Y-77843026D01*
X27321115Y-77830048D01*
X27370525Y-77681082D01*
X27373347Y-77667916D01*
X27382678Y-77576851D01*
X27382944Y-77571639D01*
X27378596Y-77556831D01*
X27377226Y-77555644D01*
X27369668Y-77554000D01*
X26270000Y-77554000D01*
X26202961Y-77534315D01*
X26157206Y-77481511D01*
X26146000Y-77430000D01*
X26146000Y-77028170D01*
X26654000Y-77028170D01*
X26658404Y-77043169D01*
X26659774Y-77044356D01*
X26667332Y-77046000D01*
X27365170Y-77046000D01*
X27380169Y-77041596D01*
X27381356Y-77040226D01*
X27383000Y-77032668D01*
X27383000Y-77029493D01*
X27382670Y-77023118D01*
X27380620Y-77003361D01*
X27642056Y-77003361D01*
X27646404Y-77018169D01*
X27647774Y-77019356D01*
X27655332Y-77021000D01*
X28353170Y-77021000D01*
X28368169Y-77016596D01*
X28369356Y-77015226D01*
X28371000Y-77007668D01*
X28371000Y-76334830D01*
X28366596Y-76319831D01*
X28365226Y-76318644D01*
X28357668Y-76317000D01*
X28329493Y-76317000D01*
X28323118Y-76317330D01*
X28230830Y-76326906D01*
X28217652Y-76329752D01*
X28068779Y-76379419D01*
X28055819Y-76385490D01*
X27922724Y-76467851D01*
X27911510Y-76476740D01*
X27800931Y-76587512D01*
X27792062Y-76598743D01*
X27709937Y-76731974D01*
X27703885Y-76744952D01*
X27654475Y-76893918D01*
X27651653Y-76907084D01*
X27642322Y-76998149D01*
X27642056Y-77003361D01*
X27380620Y-77003361D01*
X27373094Y-76930830D01*
X27370248Y-76917652D01*
X27320581Y-76768779D01*
X27314510Y-76755819D01*
X27232149Y-76622724D01*
X27223260Y-76611510D01*
X27112488Y-76500931D01*
X27101257Y-76492062D01*
X26968026Y-76409937D01*
X26955048Y-76403885D01*
X26806082Y-76354475D01*
X26792916Y-76351653D01*
X26701851Y-76342322D01*
X26695543Y-76342000D01*
X26671830Y-76342000D01*
X26656831Y-76346404D01*
X26655644Y-76347774D01*
X26654000Y-76355332D01*
X26654000Y-77028170D01*
X26146000Y-77028170D01*
X26146000Y-76359830D01*
X26141596Y-76344831D01*
X26140226Y-76343644D01*
X26132668Y-76342000D01*
X26104493Y-76342000D01*
X26098118Y-76342330D01*
X26005830Y-76351906D01*
X25992652Y-76354752D01*
X25843776Y-76404420D01*
X25827102Y-76412231D01*
X25758043Y-76422844D01*
X25694209Y-76394437D01*
X25655867Y-76336027D01*
X25650500Y-76299941D01*
X25650500Y-74435346D01*
X25670185Y-74368307D01*
X25722989Y-74322552D01*
X25746817Y-74314476D01*
X25839681Y-74293207D01*
X25846968Y-74291538D01*
X25987625Y-74220795D01*
X25993306Y-74215943D01*
X25993309Y-74215941D01*
X26101666Y-74123395D01*
X26101667Y-74123394D01*
X26107348Y-74118542D01*
X26125208Y-74093688D01*
X26170554Y-74030581D01*
X26199224Y-73990683D01*
X26257950Y-73844598D01*
X26259003Y-73837201D01*
X26279562Y-73692744D01*
X26279562Y-73692740D01*
X26280134Y-73688723D01*
X26280278Y-73675000D01*
X26277074Y-73648522D01*
X26262262Y-73526119D01*
X26262261Y-73526115D01*
X26261363Y-73518694D01*
X26252044Y-73494032D01*
X26208354Y-73378408D01*
X26208352Y-73378405D01*
X26205710Y-73371412D01*
X26170683Y-73320448D01*
X26120768Y-73247821D01*
X26120765Y-73247818D01*
X26116531Y-73241657D01*
X25998976Y-73136919D01*
X25859831Y-73063245D01*
X25707128Y-73024889D01*
X25625329Y-73024461D01*
X25557158Y-73024104D01*
X25557157Y-73024104D01*
X25549684Y-73024065D01*
X25542421Y-73025809D01*
X25542418Y-73025809D01*
X25473136Y-73042443D01*
X25396588Y-73060820D01*
X25256679Y-73133032D01*
X25138034Y-73236533D01*
X25047501Y-73365348D01*
X24990309Y-73512039D01*
X24969758Y-73668138D01*
X24970578Y-73675566D01*
X24970578Y-73675569D01*
X24977498Y-73738251D01*
X24965289Y-73807045D01*
X24951625Y-73828626D01*
X24941397Y-73841600D01*
X24938395Y-73850149D01*
X24933128Y-73857519D01*
X24930191Y-73867340D01*
X24918594Y-73906118D01*
X24916788Y-73911676D01*
X24910233Y-73930344D01*
X24899977Y-73959548D01*
X24899500Y-73965055D01*
X24899500Y-73967739D01*
X24899387Y-73970341D01*
X24899365Y-73970415D01*
X24899196Y-73970408D01*
X24899150Y-73971133D01*
X24897310Y-73977287D01*
X24897712Y-73987526D01*
X24897712Y-73987529D01*
X24899404Y-74030581D01*
X24899500Y-74035449D01*
X24899500Y-79396716D01*
X24896953Y-79420651D01*
X24896887Y-79422052D01*
X24894731Y-79432066D01*
X24895935Y-79442239D01*
X24898641Y-79465102D01*
X24898988Y-79470984D01*
X24899078Y-79470977D01*
X24899500Y-79476082D01*
X24899500Y-79481193D01*
X24900339Y-79486233D01*
X24902639Y-79500053D01*
X24903461Y-79505832D01*
X24908219Y-79546032D01*
X24909424Y-79556210D01*
X24913346Y-79564377D01*
X24914833Y-79573313D01*
X24930109Y-79601624D01*
X24938922Y-79617957D01*
X24941574Y-79623160D01*
X24963537Y-79668900D01*
X24967094Y-79673131D01*
X24968980Y-79675017D01*
X24970751Y-79676947D01*
X24970779Y-79677000D01*
X24970652Y-79677117D01*
X24971143Y-79677674D01*
X24974194Y-79683329D01*
X24981723Y-79690289D01*
X24981724Y-79690290D01*
X25013381Y-79719553D01*
X25016891Y-79722928D01*
X25231783Y-79937820D01*
X25265268Y-79999143D01*
X25260284Y-80068835D01*
X25218412Y-80124768D01*
X25152948Y-80149185D01*
X25144116Y-80149501D01*
X24854986Y-80149501D01*
X24851645Y-80149864D01*
X24851643Y-80149864D01*
X24804573Y-80154976D01*
X24804570Y-80154977D01*
X24796843Y-80155816D01*
X24711957Y-80187638D01*
X24677579Y-80200526D01*
X24677578Y-80200527D01*
X24669305Y-80203628D01*
X24662238Y-80208924D01*
X24662235Y-80208926D01*
X24592567Y-80261140D01*
X24560313Y-80285313D01*
X24555018Y-80292378D01*
X24483926Y-80387235D01*
X24483924Y-80387238D01*
X24478628Y-80394305D01*
X24430816Y-80521843D01*
X24424500Y-80579985D01*
X24424500Y-80583346D01*
X24424501Y-80993100D01*
X24404817Y-81060139D01*
X24388182Y-81080781D01*
X24122161Y-81346802D01*
X24103432Y-81361929D01*
X24102398Y-81362870D01*
X24093790Y-81368428D01*
X24087448Y-81376473D01*
X24073193Y-81394555D01*
X24069280Y-81398958D01*
X24069350Y-81399017D01*
X24066043Y-81402920D01*
X24062425Y-81406538D01*
X24059451Y-81410700D01*
X24051321Y-81422077D01*
X24047811Y-81426752D01*
X24021378Y-81460281D01*
X23964415Y-81500741D01*
X23894621Y-81503981D01*
X23834154Y-81468974D01*
X23802213Y-81406832D01*
X23800000Y-81383512D01*
X23800000Y-63886835D01*
X23802383Y-63862644D01*
X23802515Y-63861980D01*
X23804898Y-63850000D01*
X23802515Y-63838021D01*
X23802515Y-63834640D01*
X23803295Y-63820757D01*
X23812225Y-63741500D01*
X23818402Y-63714434D01*
X23849853Y-63624549D01*
X23861901Y-63599533D01*
X23912562Y-63518908D01*
X23929874Y-63497200D01*
X23997200Y-63429874D01*
X24018908Y-63412562D01*
X24099533Y-63361901D01*
X24124549Y-63349853D01*
X24214434Y-63318402D01*
X24241497Y-63312226D01*
X24297749Y-63305887D01*
X24320757Y-63303295D01*
X24334640Y-63302515D01*
X24338021Y-63302515D01*
X24350000Y-63304898D01*
X24361980Y-63302515D01*
X24362644Y-63302383D01*
X24386835Y-63300000D01*
X42313165Y-63300000D01*
X42337356Y-63302383D01*
G37*
G04 #@! TD.AperFunction*
G04 #@! TA.AperFunction,Conductor*
G36*
X40317205Y-77641948D02*
G01*
X40366528Y-77691436D01*
X40375223Y-77711437D01*
X40403872Y-77797309D01*
X40409938Y-77810259D01*
X40491533Y-77942117D01*
X40500421Y-77953330D01*
X40610166Y-78062884D01*
X40621389Y-78071747D01*
X40697468Y-78118643D01*
X40744207Y-78170577D01*
X40755449Y-78239537D01*
X40731627Y-78298564D01*
X40652917Y-78403588D01*
X40649814Y-78411864D01*
X40649814Y-78411865D01*
X40608463Y-78522168D01*
X40608462Y-78522172D01*
X40605734Y-78529449D01*
X40599500Y-78586835D01*
X40599501Y-79113164D01*
X40599864Y-79116502D01*
X40599864Y-79116507D01*
X40604636Y-79160441D01*
X40605734Y-79170551D01*
X40652917Y-79296412D01*
X40658213Y-79303478D01*
X40662458Y-79311233D01*
X40659884Y-79312642D01*
X40679170Y-79364271D01*
X40679490Y-79373179D01*
X40679490Y-83703292D01*
X40659805Y-83770331D01*
X40607001Y-83816086D01*
X40542852Y-83826646D01*
X40451851Y-83817322D01*
X40445543Y-83817000D01*
X40421830Y-83817000D01*
X40406831Y-83821404D01*
X40405644Y-83822774D01*
X40404000Y-83830332D01*
X40404000Y-84503170D01*
X40408404Y-84518169D01*
X40409774Y-84519356D01*
X40417332Y-84521000D01*
X40555490Y-84521000D01*
X40622529Y-84540685D01*
X40668284Y-84593489D01*
X40679490Y-84645000D01*
X40679490Y-84905000D01*
X40659805Y-84972039D01*
X40607001Y-85017794D01*
X40555490Y-85029000D01*
X40020000Y-85029000D01*
X39952961Y-85009315D01*
X39907206Y-84956511D01*
X39896000Y-84905000D01*
X39896000Y-83834830D01*
X39891596Y-83819831D01*
X39890226Y-83818644D01*
X39882668Y-83817000D01*
X39854493Y-83817000D01*
X39848118Y-83817330D01*
X39755830Y-83826906D01*
X39742651Y-83829752D01*
X39638743Y-83864418D01*
X39568919Y-83866961D01*
X39508805Y-83831351D01*
X39477486Y-83768894D01*
X39475500Y-83746791D01*
X39475500Y-79699499D01*
X39495185Y-79632460D01*
X39547989Y-79586705D01*
X39599500Y-79575499D01*
X39750664Y-79575499D01*
X39754005Y-79575136D01*
X39754007Y-79575136D01*
X39800318Y-79570106D01*
X39800319Y-79570106D01*
X39808051Y-79569266D01*
X39913567Y-79529710D01*
X39925635Y-79525186D01*
X39925636Y-79525186D01*
X39933912Y-79522083D01*
X40041472Y-79441472D01*
X40122083Y-79333912D01*
X40125599Y-79324533D01*
X40166537Y-79215332D01*
X40166538Y-79215328D01*
X40169266Y-79208051D01*
X40175500Y-79150665D01*
X40175499Y-78624336D01*
X40174899Y-78618807D01*
X40170106Y-78574682D01*
X40170106Y-78574681D01*
X40169266Y-78566949D01*
X40122083Y-78441088D01*
X40041472Y-78333528D01*
X39933912Y-78252917D01*
X39835726Y-78216109D01*
X39779862Y-78174145D01*
X39755554Y-78108640D01*
X39770520Y-78040392D01*
X39820008Y-77991069D01*
X39835726Y-77983891D01*
X39925635Y-77950186D01*
X39925636Y-77950186D01*
X39933912Y-77947083D01*
X40041472Y-77866472D01*
X40122083Y-77758912D01*
X40141487Y-77707152D01*
X40183452Y-77651288D01*
X40248957Y-77626981D01*
X40317205Y-77641948D01*
G37*
G04 #@! TD.AperFunction*
G04 #@! TA.AperFunction,Conductor*
G36*
X35848865Y-79399843D02*
G01*
X35871542Y-79416839D01*
X35937235Y-79466074D01*
X35937238Y-79466076D01*
X35944305Y-79471372D01*
X35952578Y-79474473D01*
X35952579Y-79474474D01*
X35987110Y-79487419D01*
X36071843Y-79519184D01*
X36079574Y-79520024D01*
X36079575Y-79520024D01*
X36088735Y-79521019D01*
X36129985Y-79525500D01*
X36158512Y-79525500D01*
X36543100Y-79525499D01*
X36610139Y-79545183D01*
X36630781Y-79561818D01*
X37188181Y-80119218D01*
X37221666Y-80180541D01*
X37224500Y-80206899D01*
X37224500Y-82744101D01*
X37204815Y-82811140D01*
X37152011Y-82856895D01*
X37082853Y-82866839D01*
X37019297Y-82837814D01*
X37012819Y-82831782D01*
X36961819Y-82780782D01*
X36928334Y-82719459D01*
X36925500Y-82693101D01*
X36925499Y-82283349D01*
X36925499Y-82279986D01*
X36925136Y-82276643D01*
X36920024Y-82229573D01*
X36920023Y-82229570D01*
X36919184Y-82221843D01*
X36871372Y-82094305D01*
X36866076Y-82087238D01*
X36866074Y-82087235D01*
X36794982Y-81992378D01*
X36789687Y-81985313D01*
X36749501Y-81955195D01*
X36687765Y-81908926D01*
X36687762Y-81908924D01*
X36680695Y-81903628D01*
X36672422Y-81900527D01*
X36672421Y-81900526D01*
X36619852Y-81880819D01*
X36553157Y-81855816D01*
X36545426Y-81854976D01*
X36545425Y-81854976D01*
X36536265Y-81853981D01*
X36495015Y-81849500D01*
X36200044Y-81849500D01*
X35904986Y-81849501D01*
X35901645Y-81849864D01*
X35901643Y-81849864D01*
X35854573Y-81854976D01*
X35854570Y-81854977D01*
X35846843Y-81855816D01*
X35818026Y-81866619D01*
X35748343Y-81871719D01*
X35686965Y-81838336D01*
X35653378Y-81777068D01*
X35650500Y-81750509D01*
X35650500Y-79499070D01*
X35670185Y-79432031D01*
X35722989Y-79386276D01*
X35792147Y-79376332D01*
X35848865Y-79399843D01*
G37*
G04 #@! TD.AperFunction*
G04 #@! TA.AperFunction,Conductor*
G36*
X33005703Y-79304095D02*
G01*
X33040609Y-79354280D01*
X33073584Y-79442239D01*
X33078628Y-79455695D01*
X33083924Y-79462762D01*
X33083926Y-79462765D01*
X33148710Y-79549205D01*
X33160313Y-79564687D01*
X33167378Y-79569982D01*
X33262235Y-79641074D01*
X33262238Y-79641076D01*
X33269305Y-79646372D01*
X33277578Y-79649473D01*
X33277579Y-79649474D01*
X33310638Y-79661867D01*
X33396843Y-79694184D01*
X33404574Y-79695024D01*
X33404575Y-79695024D01*
X33413735Y-79696019D01*
X33454985Y-79700500D01*
X33483512Y-79700500D01*
X33868100Y-79700499D01*
X33935139Y-79720183D01*
X33955781Y-79736818D01*
X34388181Y-80169218D01*
X34421666Y-80230541D01*
X34424500Y-80256899D01*
X34424500Y-82669101D01*
X34404815Y-82736140D01*
X34352011Y-82781895D01*
X34282853Y-82791839D01*
X34219297Y-82762814D01*
X34212819Y-82756782D01*
X34136819Y-82680782D01*
X34103334Y-82619459D01*
X34100500Y-82593101D01*
X34100499Y-82183349D01*
X34100499Y-82179986D01*
X34099523Y-82171000D01*
X34095024Y-82129573D01*
X34095023Y-82129570D01*
X34094184Y-82121843D01*
X34046372Y-81994305D01*
X34041076Y-81987238D01*
X34041074Y-81987235D01*
X33969982Y-81892378D01*
X33964687Y-81885313D01*
X33939744Y-81866619D01*
X33862765Y-81808926D01*
X33862762Y-81808924D01*
X33855695Y-81803628D01*
X33847422Y-81800527D01*
X33847421Y-81800526D01*
X33784846Y-81777068D01*
X33728157Y-81755816D01*
X33720426Y-81754976D01*
X33720425Y-81754976D01*
X33711265Y-81753981D01*
X33670015Y-81749500D01*
X33375044Y-81749500D01*
X33079986Y-81749501D01*
X33076645Y-81749864D01*
X33076643Y-81749864D01*
X33029573Y-81754976D01*
X33029570Y-81754977D01*
X33021843Y-81755816D01*
X32968026Y-81775991D01*
X32898344Y-81781091D01*
X32836965Y-81747708D01*
X32803378Y-81686441D01*
X32800500Y-81659881D01*
X32800500Y-79397808D01*
X32820185Y-79330769D01*
X32872989Y-79285014D01*
X32942147Y-79275070D01*
X33005703Y-79304095D01*
G37*
G04 #@! TD.AperFunction*
G04 #@! TA.AperFunction,Conductor*
G36*
X42830566Y-86735770D02*
G01*
X42880686Y-86786054D01*
X42896000Y-86846259D01*
X42896000Y-92555967D01*
X42875998Y-92624088D01*
X42822342Y-92670581D01*
X42752068Y-92680685D01*
X42722194Y-92669233D01*
X42721085Y-92671910D01*
X42709621Y-92667161D01*
X42699301Y-92660266D01*
X42625067Y-92645500D01*
X42100085Y-92645500D01*
X41574934Y-92645501D01*
X41539182Y-92652612D01*
X41512874Y-92657844D01*
X41512872Y-92657845D01*
X41500699Y-92660266D01*
X41490379Y-92667161D01*
X41490378Y-92667162D01*
X41483271Y-92671911D01*
X41416516Y-92716516D01*
X41360266Y-92800699D01*
X41345500Y-92874933D01*
X41345501Y-94425066D01*
X41360266Y-94499301D01*
X41416516Y-94583484D01*
X41500699Y-94639734D01*
X41574933Y-94654500D01*
X42099915Y-94654500D01*
X42625066Y-94654499D01*
X42660818Y-94647388D01*
X42687126Y-94642156D01*
X42687128Y-94642155D01*
X42699301Y-94639734D01*
X42709621Y-94632838D01*
X42721087Y-94628089D01*
X42722766Y-94632142D01*
X42767716Y-94618054D01*
X42836188Y-94636818D01*
X42883646Y-94689622D01*
X42896000Y-94744033D01*
X42896000Y-100812575D01*
X42893579Y-100837153D01*
X42891024Y-100850000D01*
X42893446Y-100862174D01*
X42893446Y-100865591D01*
X42892654Y-100879703D01*
X42883900Y-100957391D01*
X42877621Y-100984897D01*
X42846617Y-101073501D01*
X42834375Y-101098922D01*
X42784432Y-101178406D01*
X42766840Y-101200465D01*
X42700465Y-101266840D01*
X42678406Y-101284432D01*
X42598922Y-101334375D01*
X42573501Y-101346617D01*
X42484897Y-101377621D01*
X42457391Y-101383900D01*
X42423993Y-101387663D01*
X42379697Y-101392654D01*
X42365591Y-101393446D01*
X42362174Y-101393446D01*
X42350000Y-101391024D01*
X42337153Y-101393579D01*
X42312575Y-101396000D01*
X41760615Y-101396000D01*
X41692494Y-101375998D01*
X41653767Y-101336780D01*
X41008279Y-100304000D01*
X40790332Y-99955284D01*
X40790013Y-99954665D01*
X40789263Y-99950894D01*
X40764410Y-99913699D01*
X40762327Y-99910476D01*
X40755415Y-99899416D01*
X40755410Y-99899410D01*
X40752133Y-99894166D01*
X40749626Y-99891502D01*
X40748934Y-99890538D01*
X40748930Y-99890531D01*
X40733124Y-99866876D01*
X40722808Y-99859983D01*
X40717818Y-99854993D01*
X40714618Y-99852284D01*
X40708872Y-99848186D01*
X40700369Y-99839149D01*
X40689055Y-99834054D01*
X40689054Y-99834053D01*
X40683109Y-99831376D01*
X40664847Y-99821255D01*
X40649106Y-99810737D01*
X40636932Y-99808316D01*
X40630407Y-99805613D01*
X40626419Y-99804337D01*
X40619546Y-99802751D01*
X40608233Y-99797656D01*
X40595834Y-99797278D01*
X40595832Y-99797278D01*
X40584579Y-99796936D01*
X40579783Y-99796790D01*
X40578603Y-99796714D01*
X40575017Y-99796000D01*
X40555809Y-99796000D01*
X40551972Y-99795942D01*
X40516590Y-99794864D01*
X40516589Y-99794864D01*
X40507233Y-99794579D01*
X40503639Y-99795941D01*
X40502929Y-99796000D01*
X30097071Y-99796000D01*
X30096361Y-99795941D01*
X30092767Y-99794579D01*
X30083411Y-99794864D01*
X30083410Y-99794864D01*
X30048028Y-99795942D01*
X30044191Y-99796000D01*
X30024983Y-99796000D01*
X30021397Y-99796714D01*
X30020217Y-99796790D01*
X30015421Y-99796936D01*
X30004168Y-99797278D01*
X30004166Y-99797278D01*
X29991767Y-99797656D01*
X29980454Y-99802751D01*
X29973581Y-99804337D01*
X29969593Y-99805613D01*
X29963068Y-99808316D01*
X29950894Y-99810737D01*
X29935153Y-99821255D01*
X29916891Y-99831376D01*
X29910946Y-99834053D01*
X29910945Y-99834054D01*
X29899631Y-99839149D01*
X29891128Y-99848186D01*
X29885382Y-99852284D01*
X29882182Y-99854993D01*
X29877192Y-99859983D01*
X29866876Y-99866876D01*
X29851066Y-99890538D01*
X29850373Y-99891502D01*
X29847867Y-99894166D01*
X29844586Y-99899416D01*
X29837676Y-99910471D01*
X29835604Y-99913677D01*
X29810737Y-99950894D01*
X29809987Y-99954662D01*
X29809663Y-99955292D01*
X28946233Y-101336780D01*
X28893167Y-101383945D01*
X28839385Y-101396000D01*
X24387425Y-101396000D01*
X24362847Y-101393579D01*
X24350000Y-101391024D01*
X24337826Y-101393446D01*
X24334409Y-101393446D01*
X24320303Y-101392654D01*
X24276007Y-101387663D01*
X24242609Y-101383900D01*
X24215103Y-101377621D01*
X24126499Y-101346617D01*
X24101078Y-101334375D01*
X24021594Y-101284432D01*
X23999535Y-101266840D01*
X23933160Y-101200465D01*
X23915568Y-101178406D01*
X23865625Y-101098922D01*
X23853383Y-101073501D01*
X23822379Y-100984897D01*
X23816100Y-100957391D01*
X23807346Y-100879703D01*
X23806554Y-100865591D01*
X23806554Y-100862174D01*
X23808976Y-100850000D01*
X23806421Y-100837153D01*
X23804000Y-100812575D01*
X23804000Y-94744033D01*
X23824002Y-94675912D01*
X23877658Y-94629419D01*
X23947932Y-94619315D01*
X23977806Y-94630767D01*
X23978915Y-94628090D01*
X23990379Y-94632839D01*
X24000699Y-94639734D01*
X24074933Y-94654500D01*
X24599915Y-94654500D01*
X25125066Y-94654499D01*
X25160818Y-94647388D01*
X25187126Y-94642156D01*
X25187128Y-94642155D01*
X25199301Y-94639734D01*
X25209621Y-94632839D01*
X25209622Y-94632838D01*
X25273168Y-94590377D01*
X25283484Y-94583484D01*
X25339734Y-94499301D01*
X25354500Y-94425067D01*
X25354499Y-92874934D01*
X25339734Y-92800699D01*
X25283484Y-92716516D01*
X25199301Y-92660266D01*
X25125067Y-92645500D01*
X24600085Y-92645500D01*
X24074934Y-92645501D01*
X24039182Y-92652612D01*
X24012874Y-92657844D01*
X24012872Y-92657845D01*
X24000699Y-92660266D01*
X23990379Y-92667162D01*
X23978913Y-92671911D01*
X23977234Y-92667858D01*
X23932284Y-92681946D01*
X23863812Y-92663182D01*
X23816354Y-92610378D01*
X23804000Y-92555967D01*
X23804000Y-87513727D01*
X23824002Y-87445606D01*
X23877658Y-87399113D01*
X23947932Y-87389009D01*
X24012512Y-87418503D01*
X24033520Y-87442695D01*
X24035219Y-87446232D01*
X24038814Y-87450508D01*
X24040736Y-87452430D01*
X24042509Y-87454363D01*
X24042552Y-87454442D01*
X24042428Y-87454555D01*
X24042904Y-87455095D01*
X24045990Y-87460814D01*
X24053635Y-87467881D01*
X24085586Y-87497416D01*
X24089152Y-87500846D01*
X25118522Y-88530216D01*
X25133664Y-88548964D01*
X25134779Y-88550189D01*
X25140429Y-88558940D01*
X25148607Y-88565387D01*
X25148609Y-88565389D01*
X25166800Y-88579729D01*
X25171241Y-88583675D01*
X25171303Y-88583602D01*
X25175267Y-88586961D01*
X25178944Y-88590638D01*
X25194692Y-88601892D01*
X25199362Y-88605398D01*
X25239647Y-88637156D01*
X25248281Y-88640188D01*
X25255734Y-88645514D01*
X25302554Y-88659516D01*
X25304858Y-88660205D01*
X25310507Y-88662040D01*
X25358851Y-88679018D01*
X25364416Y-88679500D01*
X25367123Y-88679500D01*
X25369755Y-88679614D01*
X25369856Y-88679644D01*
X25369849Y-88679807D01*
X25370549Y-88679851D01*
X25376778Y-88681714D01*
X25427559Y-88679718D01*
X25430650Y-88679597D01*
X25435598Y-88679500D01*
X26115616Y-88679500D01*
X26183737Y-88699502D01*
X26204711Y-88716405D01*
X26565212Y-89076906D01*
X26599238Y-89139218D01*
X26594173Y-89210033D01*
X26551626Y-89266869D01*
X26485106Y-89291680D01*
X26476117Y-89292001D01*
X26405331Y-89292001D01*
X26398510Y-89292371D01*
X26347648Y-89297895D01*
X26332396Y-89301521D01*
X26211946Y-89346676D01*
X26196351Y-89355214D01*
X26094276Y-89431715D01*
X26081718Y-89444273D01*
X26043651Y-89495066D01*
X25986791Y-89537581D01*
X25942824Y-89545501D01*
X25924934Y-89545501D01*
X25889182Y-89552612D01*
X25862874Y-89557844D01*
X25862872Y-89557845D01*
X25850699Y-89560266D01*
X25840379Y-89567161D01*
X25840378Y-89567162D01*
X25779985Y-89607516D01*
X25766516Y-89616516D01*
X25710266Y-89700699D01*
X25695500Y-89774933D01*
X25695501Y-91125066D01*
X25710266Y-91199301D01*
X25766516Y-91283484D01*
X25850699Y-91339734D01*
X25924933Y-91354500D01*
X25942825Y-91354500D01*
X26010946Y-91374502D01*
X26043652Y-91404935D01*
X26081719Y-91455728D01*
X26094276Y-91468285D01*
X26196351Y-91544786D01*
X26211946Y-91553324D01*
X26332394Y-91598478D01*
X26347649Y-91602105D01*
X26398514Y-91607631D01*
X26405328Y-91608000D01*
X26431885Y-91608000D01*
X26447124Y-91603525D01*
X26448329Y-91602135D01*
X26450000Y-91594452D01*
X26450000Y-91296989D01*
X26471236Y-91226986D01*
X26482839Y-91209621D01*
X26482840Y-91209618D01*
X26486283Y-91204466D01*
X26486290Y-91204457D01*
X26489735Y-91199301D01*
X26490196Y-91199609D01*
X26528138Y-91152525D01*
X26595501Y-91130103D01*
X26664293Y-91147661D01*
X26709694Y-91196423D01*
X26710266Y-91199301D01*
X26717160Y-91209618D01*
X26717161Y-91209621D01*
X26728764Y-91226986D01*
X26750000Y-91296989D01*
X26750000Y-91589884D01*
X26754475Y-91605123D01*
X26755865Y-91606328D01*
X26763548Y-91607999D01*
X26794669Y-91607999D01*
X26801490Y-91607629D01*
X26852352Y-91602105D01*
X26867604Y-91598479D01*
X26988054Y-91553324D01*
X27003652Y-91544784D01*
X27018937Y-91533329D01*
X27085443Y-91508482D01*
X27154826Y-91523536D01*
X27205055Y-91573711D01*
X27220500Y-91634156D01*
X27220500Y-93805187D01*
X27200498Y-93873308D01*
X27177330Y-93900135D01*
X27110039Y-93958838D01*
X27018950Y-94088444D01*
X27016190Y-94095524D01*
X26964474Y-94228169D01*
X26961406Y-94236037D01*
X26940729Y-94393096D01*
X26943576Y-94418880D01*
X26952455Y-94499301D01*
X26958113Y-94550553D01*
X26960723Y-94557684D01*
X26960723Y-94557686D01*
X26996152Y-94654500D01*
X27012553Y-94699319D01*
X27016789Y-94705622D01*
X27016789Y-94705623D01*
X27042600Y-94744033D01*
X27100908Y-94830805D01*
X27106527Y-94835918D01*
X27106528Y-94835919D01*
X27117903Y-94846269D01*
X27218076Y-94937419D01*
X27357293Y-95013008D01*
X27510522Y-95053207D01*
X27594477Y-95054526D01*
X27661319Y-95055576D01*
X27661322Y-95055576D01*
X27668916Y-95055695D01*
X27823332Y-95020329D01*
X27893742Y-94984917D01*
X27958072Y-94952563D01*
X27958075Y-94952561D01*
X27964855Y-94949151D01*
X27970628Y-94944220D01*
X27970633Y-94944217D01*
X28017658Y-94904054D01*
X28082447Y-94875023D01*
X28152648Y-94885628D01*
X28184288Y-94906671D01*
X28218079Y-94937419D01*
X28357296Y-95013008D01*
X28510525Y-95053207D01*
X28594480Y-95054526D01*
X28661322Y-95055576D01*
X28661325Y-95055576D01*
X28668919Y-95055695D01*
X28823335Y-95020329D01*
X28893745Y-94984917D01*
X28958075Y-94952563D01*
X28958078Y-94952561D01*
X28964858Y-94949151D01*
X28970631Y-94944220D01*
X28970636Y-94944217D01*
X29017661Y-94904054D01*
X29082450Y-94875023D01*
X29152651Y-94885628D01*
X29184291Y-94906671D01*
X29218082Y-94937419D01*
X29357299Y-95013008D01*
X29510528Y-95053207D01*
X29594483Y-95054526D01*
X29661325Y-95055576D01*
X29661328Y-95055576D01*
X29668922Y-95055695D01*
X29823338Y-95020329D01*
X29893748Y-94984917D01*
X29958078Y-94952563D01*
X29958081Y-94952561D01*
X29964861Y-94949151D01*
X29970634Y-94944220D01*
X29970639Y-94944217D01*
X30017664Y-94904054D01*
X30082453Y-94875023D01*
X30152654Y-94885628D01*
X30184294Y-94906671D01*
X30218085Y-94937419D01*
X30357302Y-95013008D01*
X30510531Y-95053207D01*
X30594486Y-95054526D01*
X30661328Y-95055576D01*
X30661331Y-95055576D01*
X30668925Y-95055695D01*
X30823341Y-95020329D01*
X30893751Y-94984917D01*
X30958081Y-94952563D01*
X30958084Y-94952561D01*
X30964864Y-94949151D01*
X30970635Y-94944222D01*
X30970638Y-94944220D01*
X31079545Y-94851204D01*
X31079545Y-94851203D01*
X31085323Y-94846269D01*
X31177764Y-94717624D01*
X31236851Y-94570641D01*
X31258449Y-94418880D01*
X31258590Y-94417891D01*
X31258590Y-94417888D01*
X31259171Y-94413807D01*
X31259316Y-94400000D01*
X31240285Y-94242733D01*
X31184289Y-94094546D01*
X31094562Y-93963992D01*
X30976284Y-93858611D01*
X30836283Y-93784484D01*
X30682642Y-93745892D01*
X30675044Y-93745852D01*
X30675042Y-93745852D01*
X30606727Y-93745494D01*
X30538712Y-93725135D01*
X30518293Y-93708591D01*
X29516405Y-92706703D01*
X29482379Y-92644391D01*
X29479500Y-92617608D01*
X29479500Y-91949470D01*
X29499502Y-91881349D01*
X29553158Y-91834856D01*
X29623432Y-91824752D01*
X29688012Y-91854246D01*
X29726495Y-91914312D01*
X29729306Y-91923986D01*
X29730530Y-91934327D01*
X29734493Y-91942579D01*
X29735996Y-91951612D01*
X29740943Y-91960781D01*
X29740944Y-91960783D01*
X29760334Y-91996718D01*
X29763031Y-92002011D01*
X29781785Y-92041068D01*
X29781788Y-92041072D01*
X29785219Y-92048218D01*
X29788814Y-92052494D01*
X29790737Y-92054417D01*
X29792509Y-92056349D01*
X29792552Y-92056428D01*
X29792428Y-92056541D01*
X29792904Y-92057081D01*
X29795990Y-92062800D01*
X29803635Y-92069867D01*
X29835586Y-92099402D01*
X29839152Y-92102832D01*
X31918756Y-94182436D01*
X31952782Y-94244748D01*
X31954583Y-94287977D01*
X31940744Y-94393096D01*
X31943591Y-94418880D01*
X31952470Y-94499301D01*
X31958128Y-94550553D01*
X31960738Y-94557684D01*
X31960738Y-94557686D01*
X31996167Y-94654500D01*
X32012568Y-94699319D01*
X32016804Y-94705622D01*
X32016804Y-94705623D01*
X32042615Y-94744033D01*
X32100923Y-94830805D01*
X32106542Y-94835918D01*
X32106543Y-94835919D01*
X32117918Y-94846269D01*
X32218091Y-94937419D01*
X32357308Y-95013008D01*
X32510537Y-95053207D01*
X32594492Y-95054526D01*
X32661334Y-95055576D01*
X32661337Y-95055576D01*
X32668931Y-95055695D01*
X32823347Y-95020329D01*
X32893757Y-94984917D01*
X32958087Y-94952563D01*
X32958090Y-94952561D01*
X32964870Y-94949151D01*
X32970641Y-94944222D01*
X32970644Y-94944220D01*
X33079551Y-94851204D01*
X33079551Y-94851203D01*
X33085329Y-94846269D01*
X33177770Y-94717624D01*
X33236857Y-94570641D01*
X33258455Y-94418880D01*
X33258596Y-94417891D01*
X33258596Y-94417888D01*
X33259177Y-94413807D01*
X33259322Y-94400000D01*
X33240291Y-94242733D01*
X33184295Y-94094546D01*
X33094568Y-93963992D01*
X32976290Y-93858611D01*
X32836289Y-93784484D01*
X32682648Y-93745892D01*
X32675050Y-93745852D01*
X32675048Y-93745852D01*
X32606733Y-93745494D01*
X32538718Y-93725135D01*
X32518299Y-93708591D01*
X30632802Y-91823094D01*
X30598776Y-91760782D01*
X30603841Y-91689967D01*
X30646388Y-91633131D01*
X30712908Y-91608320D01*
X30721897Y-91607999D01*
X30794669Y-91607999D01*
X30801490Y-91607629D01*
X30852352Y-91602105D01*
X30867604Y-91598479D01*
X30988054Y-91553324D01*
X31003649Y-91544786D01*
X31105724Y-91468285D01*
X31118282Y-91455727D01*
X31156349Y-91404934D01*
X31213209Y-91362419D01*
X31257176Y-91354499D01*
X31275066Y-91354499D01*
X31325419Y-91344484D01*
X31374579Y-91344484D01*
X31424933Y-91354500D01*
X31599971Y-91354500D01*
X31775066Y-91354499D01*
X31825419Y-91344484D01*
X31874579Y-91344484D01*
X31924933Y-91354500D01*
X32099971Y-91354500D01*
X32275066Y-91354499D01*
X32325419Y-91344484D01*
X32374579Y-91344484D01*
X32424933Y-91354500D01*
X32599971Y-91354500D01*
X32775066Y-91354499D01*
X32825419Y-91344484D01*
X32874579Y-91344484D01*
X32924933Y-91354500D01*
X33099971Y-91354500D01*
X33275066Y-91354499D01*
X33325419Y-91344484D01*
X33374579Y-91344484D01*
X33424933Y-91354500D01*
X33599971Y-91354500D01*
X33775066Y-91354499D01*
X33825419Y-91344484D01*
X33874579Y-91344484D01*
X33924933Y-91354500D01*
X34099971Y-91354500D01*
X34275066Y-91354499D01*
X34325419Y-91344484D01*
X34374579Y-91344484D01*
X34424933Y-91354500D01*
X34599971Y-91354500D01*
X34775066Y-91354499D01*
X34825419Y-91344484D01*
X34874579Y-91344484D01*
X34924933Y-91354500D01*
X35099971Y-91354500D01*
X35275066Y-91354499D01*
X35325419Y-91344484D01*
X35374579Y-91344484D01*
X35424933Y-91354500D01*
X35599971Y-91354500D01*
X35775066Y-91354499D01*
X35825419Y-91344484D01*
X35874579Y-91344484D01*
X35924933Y-91354500D01*
X36099971Y-91354500D01*
X36275066Y-91354499D01*
X36325419Y-91344484D01*
X36374579Y-91344484D01*
X36424933Y-91354500D01*
X36599971Y-91354500D01*
X36775066Y-91354499D01*
X36825419Y-91344484D01*
X36874579Y-91344484D01*
X36924933Y-91354500D01*
X37099971Y-91354500D01*
X37275066Y-91354499D01*
X37325419Y-91344484D01*
X37374579Y-91344484D01*
X37424933Y-91354500D01*
X37599971Y-91354500D01*
X37775066Y-91354499D01*
X37825419Y-91344484D01*
X37874579Y-91344484D01*
X37924933Y-91354500D01*
X38099971Y-91354500D01*
X38275066Y-91354499D01*
X38325419Y-91344484D01*
X38374579Y-91344484D01*
X38424933Y-91354500D01*
X38599971Y-91354500D01*
X38775066Y-91354499D01*
X38825419Y-91344484D01*
X38874579Y-91344484D01*
X38924933Y-91354500D01*
X39099971Y-91354500D01*
X39275066Y-91354499D01*
X39325419Y-91344484D01*
X39374579Y-91344484D01*
X39424933Y-91354500D01*
X39599971Y-91354500D01*
X39775066Y-91354499D01*
X39825419Y-91344484D01*
X39874579Y-91344484D01*
X39924933Y-91354500D01*
X40099971Y-91354500D01*
X40275066Y-91354499D01*
X40325419Y-91344484D01*
X40374579Y-91344484D01*
X40424933Y-91354500D01*
X40599971Y-91354500D01*
X40775066Y-91354499D01*
X40810818Y-91347388D01*
X40837126Y-91342156D01*
X40837128Y-91342155D01*
X40849301Y-91339734D01*
X40859621Y-91332839D01*
X40859622Y-91332838D01*
X40923168Y-91290377D01*
X40933484Y-91283484D01*
X40989734Y-91199301D01*
X41004500Y-91125067D01*
X41004499Y-89774934D01*
X40989734Y-89700699D01*
X40987466Y-89697305D01*
X40979500Y-89657257D01*
X40979500Y-89209384D01*
X40999502Y-89141263D01*
X41016405Y-89120289D01*
X41930216Y-88206478D01*
X41948964Y-88191336D01*
X41950189Y-88190221D01*
X41958940Y-88184571D01*
X41965387Y-88176393D01*
X41965389Y-88176391D01*
X41979729Y-88158200D01*
X41983675Y-88153759D01*
X41983602Y-88153697D01*
X41986961Y-88149733D01*
X41990638Y-88146056D01*
X42001892Y-88130308D01*
X42005398Y-88125638D01*
X42037156Y-88085353D01*
X42040188Y-88076719D01*
X42045514Y-88069266D01*
X42060203Y-88020150D01*
X42062036Y-88014508D01*
X42076390Y-87973633D01*
X42076390Y-87973632D01*
X42079018Y-87966149D01*
X42079500Y-87960584D01*
X42079500Y-87957876D01*
X42079614Y-87955242D01*
X42079643Y-87955144D01*
X42079807Y-87955151D01*
X42079851Y-87954447D01*
X42081713Y-87948222D01*
X42079597Y-87894365D01*
X42079500Y-87889418D01*
X42079500Y-87180499D01*
X42099502Y-87112378D01*
X42153158Y-87065885D01*
X42205500Y-87054499D01*
X42270388Y-87054499D01*
X42273782Y-87054130D01*
X42273788Y-87054130D01*
X42321166Y-87048984D01*
X42321170Y-87048983D01*
X42329024Y-87048130D01*
X42457635Y-86999917D01*
X42464814Y-86994537D01*
X42464817Y-86994535D01*
X42560367Y-86922923D01*
X42567544Y-86917544D01*
X42587555Y-86890844D01*
X42644535Y-86814817D01*
X42644537Y-86814814D01*
X42649917Y-86807635D01*
X42653067Y-86799231D01*
X42657378Y-86791357D01*
X42659262Y-86792388D01*
X42694656Y-86745268D01*
X42761217Y-86720566D01*
X42830566Y-86735770D01*
G37*
G04 #@! TD.AperFunction*
G04 #@! TA.AperFunction,Conductor*
G36*
X27638012Y-80950160D02*
G01*
X27644595Y-80956289D01*
X28834094Y-82145788D01*
X28868120Y-82208100D01*
X28870999Y-82234883D01*
X28870999Y-83922645D01*
X28850997Y-83990766D01*
X28797341Y-84037259D01*
X28732156Y-84047989D01*
X28676901Y-84042328D01*
X28670486Y-84042000D01*
X28647115Y-84042000D01*
X28631876Y-84046475D01*
X28630671Y-84047865D01*
X28629000Y-84055548D01*
X28629000Y-85128000D01*
X28608998Y-85196121D01*
X28555342Y-85242614D01*
X28503000Y-85254000D01*
X25870053Y-85254000D01*
X25801932Y-85233998D01*
X25798043Y-85231086D01*
X25788452Y-85229000D01*
X25147000Y-85229000D01*
X25078879Y-85208998D01*
X25032386Y-85155342D01*
X25021000Y-85103000D01*
X25021000Y-84702885D01*
X25529000Y-84702885D01*
X25533475Y-84718124D01*
X25534865Y-84719329D01*
X25542548Y-84721000D01*
X26229947Y-84721000D01*
X26298068Y-84741002D01*
X26301957Y-84743914D01*
X26311548Y-84746000D01*
X26552885Y-84746000D01*
X26568124Y-84741525D01*
X26569329Y-84740135D01*
X26571000Y-84732452D01*
X26571000Y-84727885D01*
X27079000Y-84727885D01*
X27083475Y-84743124D01*
X27084865Y-84744329D01*
X27092548Y-84746000D01*
X28102885Y-84746000D01*
X28118124Y-84741525D01*
X28119329Y-84740135D01*
X28121000Y-84732452D01*
X28121000Y-84060115D01*
X28116525Y-84044876D01*
X28115135Y-84043671D01*
X28107452Y-84042000D01*
X28079562Y-84042000D01*
X28073047Y-84042337D01*
X27980943Y-84051894D01*
X27967544Y-84054788D01*
X27818893Y-84104381D01*
X27805714Y-84110555D01*
X27666599Y-84196642D01*
X27664914Y-84193918D01*
X27612273Y-84215146D01*
X27542526Y-84201885D01*
X27532598Y-84195508D01*
X27532391Y-84195843D01*
X27393120Y-84109996D01*
X27379939Y-84103849D01*
X27231186Y-84054509D01*
X27217810Y-84051642D01*
X27126903Y-84042328D01*
X27120486Y-84042000D01*
X27097115Y-84042000D01*
X27081876Y-84046475D01*
X27080671Y-84047865D01*
X27079000Y-84055548D01*
X27079000Y-84727885D01*
X26571000Y-84727885D01*
X26571000Y-84060115D01*
X26566525Y-84044876D01*
X26565135Y-84043671D01*
X26557452Y-84042000D01*
X26529562Y-84042000D01*
X26523047Y-84042337D01*
X26430943Y-84051894D01*
X26417544Y-84054788D01*
X26268893Y-84104381D01*
X26255715Y-84110555D01*
X26133994Y-84185878D01*
X26065542Y-84204716D01*
X25997773Y-84183555D01*
X25989598Y-84177615D01*
X25976161Y-84167003D01*
X25843120Y-84084996D01*
X25829939Y-84078849D01*
X25681186Y-84029509D01*
X25667810Y-84026642D01*
X25576903Y-84017328D01*
X25570486Y-84017000D01*
X25547115Y-84017000D01*
X25531876Y-84021475D01*
X25530671Y-84022865D01*
X25529000Y-84030548D01*
X25529000Y-84702885D01*
X25021000Y-84702885D01*
X25021000Y-84035115D01*
X25016525Y-84019876D01*
X25015135Y-84018671D01*
X25007452Y-84017000D01*
X24979562Y-84017000D01*
X24973047Y-84017337D01*
X24874084Y-84027606D01*
X24873922Y-84026047D01*
X24811293Y-84021474D01*
X24754520Y-83978844D01*
X24729808Y-83912287D01*
X24729500Y-83903484D01*
X24729500Y-83484000D01*
X24749502Y-83415879D01*
X24803158Y-83369386D01*
X24855500Y-83358000D01*
X24877885Y-83358000D01*
X24893124Y-83353525D01*
X24894329Y-83352135D01*
X24896000Y-83344452D01*
X24896000Y-83339885D01*
X25404000Y-83339885D01*
X25408475Y-83355124D01*
X25409865Y-83356329D01*
X25417548Y-83358000D01*
X25445438Y-83358000D01*
X25451953Y-83357663D01*
X25544057Y-83348106D01*
X25557456Y-83345212D01*
X25706107Y-83295619D01*
X25719285Y-83289445D01*
X25841006Y-83214122D01*
X25909458Y-83195284D01*
X25977227Y-83216445D01*
X25985402Y-83222385D01*
X25998839Y-83232997D01*
X26131880Y-83315004D01*
X26145061Y-83321151D01*
X26293814Y-83370491D01*
X26307190Y-83373358D01*
X26398097Y-83382672D01*
X26404513Y-83383000D01*
X26427885Y-83383000D01*
X26443124Y-83378525D01*
X26444329Y-83377135D01*
X26446000Y-83369452D01*
X26446000Y-83364885D01*
X26954000Y-83364885D01*
X26958475Y-83380124D01*
X26959865Y-83381329D01*
X26967548Y-83383000D01*
X26995438Y-83383000D01*
X27001953Y-83382663D01*
X27094057Y-83373106D01*
X27107456Y-83370212D01*
X27256107Y-83320619D01*
X27269286Y-83314445D01*
X27402173Y-83232212D01*
X27413574Y-83223176D01*
X27523986Y-83112571D01*
X27532998Y-83101160D01*
X27615004Y-82968120D01*
X27621151Y-82954939D01*
X27670491Y-82806186D01*
X27673358Y-82792810D01*
X27682672Y-82701903D01*
X27682929Y-82696874D01*
X27678525Y-82681876D01*
X27677135Y-82680671D01*
X27669452Y-82679000D01*
X26972115Y-82679000D01*
X26956876Y-82683475D01*
X26955671Y-82684865D01*
X26954000Y-82692548D01*
X26954000Y-83364885D01*
X26446000Y-83364885D01*
X26446000Y-82697115D01*
X26441525Y-82681876D01*
X26440135Y-82680671D01*
X26432452Y-82679000D01*
X25745053Y-82679000D01*
X25676932Y-82658998D01*
X25673043Y-82656086D01*
X25663452Y-82654000D01*
X25422115Y-82654000D01*
X25406876Y-82658475D01*
X25405671Y-82659865D01*
X25404000Y-82667548D01*
X25404000Y-83339885D01*
X24896000Y-83339885D01*
X24896000Y-82272000D01*
X24916002Y-82203879D01*
X24969658Y-82157386D01*
X25022000Y-82146000D01*
X26104947Y-82146000D01*
X26173068Y-82166002D01*
X26176957Y-82168914D01*
X26186548Y-82171000D01*
X27664885Y-82171000D01*
X27680124Y-82166525D01*
X27681329Y-82165135D01*
X27683000Y-82157452D01*
X27683000Y-82154562D01*
X27682663Y-82148047D01*
X27673106Y-82055943D01*
X27670212Y-82042544D01*
X27620619Y-81893893D01*
X27614445Y-81880714D01*
X27532212Y-81747827D01*
X27523176Y-81736426D01*
X27412571Y-81626014D01*
X27401160Y-81617002D01*
X27354898Y-81588486D01*
X27307405Y-81535714D01*
X27295981Y-81465642D01*
X27320188Y-81405661D01*
X27369532Y-81339821D01*
X27369534Y-81339818D01*
X27374917Y-81332635D01*
X27423130Y-81204024D01*
X27429500Y-81145389D01*
X27429500Y-81045384D01*
X27449502Y-80977263D01*
X27503158Y-80930770D01*
X27573432Y-80920666D01*
X27638012Y-80950160D01*
G37*
G04 #@! TD.AperFunction*
G04 #@! TA.AperFunction,Conductor*
G36*
X42337153Y-63306421D02*
G01*
X42350000Y-63308976D01*
X42362174Y-63306554D01*
X42365591Y-63306554D01*
X42379697Y-63307346D01*
X42423993Y-63312337D01*
X42457391Y-63316100D01*
X42484897Y-63322379D01*
X42573501Y-63353383D01*
X42598922Y-63365625D01*
X42678406Y-63415568D01*
X42700465Y-63433160D01*
X42766840Y-63499535D01*
X42784432Y-63521594D01*
X42834375Y-63601078D01*
X42846617Y-63626499D01*
X42877621Y-63715103D01*
X42883900Y-63742609D01*
X42892654Y-63820297D01*
X42893446Y-63834409D01*
X42893446Y-63837826D01*
X42891024Y-63850000D01*
X42893445Y-63862172D01*
X42893579Y-63862844D01*
X42896000Y-63887425D01*
X42896000Y-83905557D01*
X42875998Y-83973678D01*
X42822342Y-84020171D01*
X42752068Y-84030275D01*
X42691908Y-84004439D01*
X42676160Y-83992002D01*
X42543120Y-83909996D01*
X42529939Y-83903849D01*
X42381186Y-83854509D01*
X42367810Y-83851642D01*
X42276903Y-83842328D01*
X42270486Y-83842000D01*
X42247115Y-83842000D01*
X42231876Y-83846475D01*
X42230671Y-83847865D01*
X42229000Y-83855548D01*
X42229000Y-84928000D01*
X42208998Y-84996121D01*
X42155342Y-85042614D01*
X42103000Y-85054000D01*
X41560490Y-85054000D01*
X41492369Y-85033998D01*
X41445876Y-84980342D01*
X41434490Y-84928000D01*
X41434490Y-84672000D01*
X41454492Y-84603879D01*
X41508148Y-84557386D01*
X41560490Y-84546000D01*
X41702885Y-84546000D01*
X41718124Y-84541525D01*
X41719329Y-84540135D01*
X41721000Y-84532452D01*
X41721000Y-83860115D01*
X41716525Y-83844876D01*
X41715135Y-83843671D01*
X41707452Y-83842000D01*
X41679562Y-83842000D01*
X41673047Y-83842337D01*
X41574084Y-83852606D01*
X41573772Y-83849601D01*
X41516241Y-83845381D01*
X41459484Y-83802730D01*
X41434795Y-83736165D01*
X41434490Y-83727406D01*
X41434490Y-79667999D01*
X41454492Y-79599878D01*
X41508148Y-79553385D01*
X41560490Y-79541999D01*
X41626052Y-79541999D01*
X41683919Y-79535714D01*
X41748205Y-79511614D01*
X41802449Y-79491279D01*
X41802452Y-79491278D01*
X41810853Y-79488128D01*
X41919330Y-79406830D01*
X42000628Y-79298353D01*
X42006082Y-79283806D01*
X42042591Y-79186419D01*
X42048214Y-79171419D01*
X42049067Y-79163566D01*
X42049068Y-79163562D01*
X42054131Y-79116952D01*
X42054131Y-79116948D01*
X42054500Y-79113553D01*
X42054499Y-78586448D01*
X42048214Y-78528581D01*
X42017837Y-78447551D01*
X42003779Y-78410051D01*
X42003778Y-78410048D01*
X42000628Y-78401647D01*
X41981235Y-78375770D01*
X41923113Y-78298217D01*
X41898266Y-78231710D01*
X41913319Y-78162328D01*
X41957637Y-78115509D01*
X42029514Y-78071030D01*
X42040915Y-78061994D01*
X42150298Y-77952420D01*
X42159310Y-77941009D01*
X42240553Y-77809209D01*
X42246697Y-77796032D01*
X42295579Y-77648657D01*
X42298445Y-77635290D01*
X42307614Y-77545800D01*
X42303525Y-77531876D01*
X42302135Y-77530671D01*
X42294452Y-77529000D01*
X41197000Y-77529000D01*
X41128879Y-77508998D01*
X41082386Y-77455342D01*
X41071000Y-77403000D01*
X41071000Y-77002885D01*
X41579000Y-77002885D01*
X41583475Y-77018124D01*
X41584865Y-77019329D01*
X41592548Y-77021000D01*
X42289885Y-77021000D01*
X42305124Y-77016525D01*
X42306329Y-77015135D01*
X42307842Y-77008179D01*
X42307663Y-77004718D01*
X42298196Y-76913479D01*
X42295303Y-76900083D01*
X42246170Y-76752813D01*
X42239996Y-76739634D01*
X42158530Y-76607986D01*
X42149494Y-76596585D01*
X42039920Y-76487202D01*
X42028509Y-76478190D01*
X41896709Y-76396947D01*
X41883532Y-76390803D01*
X41736157Y-76341921D01*
X41722790Y-76339055D01*
X41632730Y-76329828D01*
X41626315Y-76329500D01*
X41597115Y-76329500D01*
X41581876Y-76333975D01*
X41580671Y-76335365D01*
X41579000Y-76343048D01*
X41579000Y-77002885D01*
X41071000Y-77002885D01*
X41071000Y-76347615D01*
X41066525Y-76332376D01*
X41065135Y-76331171D01*
X41057452Y-76329500D01*
X41023734Y-76329500D01*
X41017218Y-76329837D01*
X40925979Y-76339304D01*
X40912583Y-76342197D01*
X40765313Y-76391330D01*
X40752134Y-76397504D01*
X40620486Y-76478970D01*
X40609085Y-76488006D01*
X40499702Y-76597580D01*
X40490690Y-76608991D01*
X40409447Y-76740791D01*
X40403303Y-76753969D01*
X40365892Y-76866758D01*
X40325461Y-76925118D01*
X40259897Y-76952355D01*
X40190016Y-76939822D01*
X40138004Y-76891497D01*
X40129833Y-76874477D01*
X40128779Y-76872551D01*
X40125628Y-76864147D01*
X40044330Y-76755670D01*
X39935853Y-76674372D01*
X39927452Y-76671222D01*
X39927449Y-76671221D01*
X39851525Y-76642758D01*
X39808919Y-76626786D01*
X39801066Y-76625933D01*
X39801062Y-76625932D01*
X39754452Y-76620869D01*
X39754448Y-76620869D01*
X39751053Y-76620500D01*
X39450045Y-76620500D01*
X39148948Y-76620501D01*
X39091081Y-76626786D01*
X39036245Y-76647343D01*
X38972551Y-76671221D01*
X38972548Y-76671222D01*
X38964147Y-76674372D01*
X38855670Y-76755670D01*
X38774372Y-76864147D01*
X38771222Y-76872548D01*
X38771221Y-76872551D01*
X38755878Y-76913479D01*
X38726786Y-76991081D01*
X38725933Y-76998934D01*
X38725932Y-76998938D01*
X38720869Y-77045548D01*
X38720500Y-77048947D01*
X38720500Y-77052365D01*
X38720501Y-77453115D01*
X38700499Y-77521235D01*
X38683596Y-77542210D01*
X38369784Y-77856022D01*
X38351036Y-77871164D01*
X38349811Y-77872279D01*
X38341060Y-77877929D01*
X38334613Y-77886107D01*
X38334611Y-77886109D01*
X38320271Y-77904300D01*
X38316325Y-77908741D01*
X38316398Y-77908803D01*
X38313039Y-77912767D01*
X38309362Y-77916444D01*
X38298108Y-77932192D01*
X38294602Y-77936862D01*
X38262844Y-77977147D01*
X38259812Y-77985781D01*
X38254486Y-77993234D01*
X38251501Y-78003215D01*
X38239799Y-78042344D01*
X38237964Y-78047992D01*
X38229874Y-78071030D01*
X38220982Y-78096351D01*
X38220500Y-78101916D01*
X38220500Y-78104624D01*
X38220386Y-78107258D01*
X38220357Y-78107356D01*
X38220193Y-78107349D01*
X38220149Y-78108053D01*
X38218287Y-78114278D01*
X38218696Y-78124683D01*
X38220403Y-78168135D01*
X38220500Y-78173082D01*
X38220500Y-78229616D01*
X38200498Y-78297737D01*
X38146842Y-78344230D01*
X38076568Y-78354334D01*
X38011988Y-78324840D01*
X38005405Y-78318711D01*
X37191405Y-77504711D01*
X37157379Y-77442399D01*
X37154500Y-77415616D01*
X37154499Y-77008030D01*
X37154499Y-77004612D01*
X37153883Y-76998938D01*
X37148984Y-76953834D01*
X37148983Y-76953830D01*
X37148130Y-76945976D01*
X37099917Y-76817365D01*
X37094537Y-76810186D01*
X37094535Y-76810183D01*
X37022923Y-76714633D01*
X37017544Y-76707456D01*
X36980583Y-76679755D01*
X36914817Y-76630465D01*
X36914814Y-76630463D01*
X36907635Y-76625083D01*
X36898995Y-76621844D01*
X36786419Y-76579642D01*
X36786418Y-76579642D01*
X36779024Y-76576870D01*
X36771174Y-76576017D01*
X36771173Y-76576017D01*
X36723786Y-76570869D01*
X36723785Y-76570869D01*
X36720389Y-76570500D01*
X36425044Y-76570500D01*
X36129612Y-76570501D01*
X36126218Y-76570870D01*
X36126212Y-76570870D01*
X36078834Y-76576016D01*
X36078830Y-76576017D01*
X36070976Y-76576870D01*
X36012370Y-76598840D01*
X35953601Y-76620871D01*
X35942365Y-76625083D01*
X35935186Y-76630463D01*
X35935183Y-76630465D01*
X35869417Y-76679755D01*
X35832456Y-76707456D01*
X35827077Y-76714633D01*
X35755465Y-76810183D01*
X35755463Y-76810186D01*
X35750083Y-76817365D01*
X35746933Y-76825769D01*
X35746932Y-76825770D01*
X35722992Y-76889633D01*
X35701870Y-76945976D01*
X35695500Y-77004611D01*
X35695501Y-77545388D01*
X35695870Y-77548782D01*
X35695870Y-77548788D01*
X35700652Y-77592806D01*
X35701870Y-77604024D01*
X35723494Y-77661708D01*
X35744211Y-77716970D01*
X35750083Y-77732635D01*
X35755463Y-77739814D01*
X35755465Y-77739817D01*
X35814151Y-77818120D01*
X35832456Y-77842544D01*
X35839633Y-77847923D01*
X35935183Y-77919535D01*
X35935186Y-77919537D01*
X35942365Y-77924917D01*
X35957207Y-77930481D01*
X35961307Y-77932018D01*
X36018072Y-77974659D01*
X36042772Y-78041221D01*
X36027565Y-78110570D01*
X35977279Y-78160688D01*
X35961307Y-78167982D01*
X35957207Y-78169519D01*
X35942365Y-78175083D01*
X35935186Y-78180463D01*
X35935183Y-78180465D01*
X35869602Y-78229616D01*
X35832456Y-78257456D01*
X35827077Y-78264633D01*
X35755465Y-78360183D01*
X35755463Y-78360186D01*
X35750083Y-78367365D01*
X35746933Y-78375769D01*
X35746932Y-78375770D01*
X35707759Y-78480268D01*
X35701870Y-78495976D01*
X35701017Y-78503826D01*
X35701017Y-78503827D01*
X35697998Y-78531619D01*
X35695500Y-78554611D01*
X35695500Y-78558027D01*
X35695316Y-78561425D01*
X35693529Y-78561328D01*
X35675498Y-78622737D01*
X35621842Y-78669230D01*
X35551568Y-78679334D01*
X35486988Y-78649840D01*
X35480405Y-78643711D01*
X34516405Y-77679711D01*
X34482379Y-77617399D01*
X34479500Y-77590616D01*
X34479499Y-77183030D01*
X34479499Y-77179612D01*
X34479130Y-77176212D01*
X34473984Y-77128834D01*
X34473983Y-77128830D01*
X34473130Y-77120976D01*
X34430845Y-77008179D01*
X34428068Y-77000770D01*
X34428067Y-77000769D01*
X34424917Y-76992365D01*
X34419537Y-76985186D01*
X34419535Y-76985183D01*
X34347923Y-76889633D01*
X34342544Y-76882456D01*
X34329328Y-76872551D01*
X34239817Y-76805465D01*
X34239814Y-76805463D01*
X34232635Y-76800083D01*
X34133314Y-76762850D01*
X34111419Y-76754642D01*
X34111418Y-76754642D01*
X34104024Y-76751870D01*
X34096174Y-76751017D01*
X34096173Y-76751017D01*
X34048786Y-76745869D01*
X34048785Y-76745869D01*
X34045389Y-76745500D01*
X33750044Y-76745500D01*
X33454612Y-76745501D01*
X33451218Y-76745870D01*
X33451212Y-76745870D01*
X33403834Y-76751016D01*
X33403830Y-76751017D01*
X33395976Y-76751870D01*
X33267365Y-76800083D01*
X33260186Y-76805463D01*
X33260183Y-76805465D01*
X33170672Y-76872551D01*
X33157456Y-76882456D01*
X33152077Y-76889633D01*
X33080465Y-76985183D01*
X33080463Y-76985186D01*
X33075083Y-76992365D01*
X33071933Y-77000769D01*
X33071932Y-77000770D01*
X33052591Y-77052365D01*
X33026870Y-77120976D01*
X33020500Y-77179611D01*
X33020501Y-77720388D01*
X33020870Y-77723782D01*
X33020870Y-77723788D01*
X33023984Y-77752451D01*
X33026870Y-77779024D01*
X33075083Y-77907635D01*
X33080463Y-77914814D01*
X33080465Y-77914817D01*
X33134992Y-77987571D01*
X33157456Y-78017544D01*
X33164633Y-78022923D01*
X33260183Y-78094535D01*
X33260186Y-78094537D01*
X33267365Y-78099917D01*
X33282207Y-78105481D01*
X33286307Y-78107018D01*
X33343072Y-78149659D01*
X33367772Y-78216221D01*
X33352565Y-78285570D01*
X33302279Y-78335688D01*
X33286307Y-78342982D01*
X33267365Y-78350083D01*
X33260186Y-78355463D01*
X33260183Y-78355465D01*
X33181833Y-78414186D01*
X33157456Y-78432456D01*
X33152077Y-78439633D01*
X33080465Y-78535183D01*
X33080463Y-78535186D01*
X33075083Y-78542365D01*
X33043990Y-78625308D01*
X33001351Y-78682070D01*
X32934790Y-78706771D01*
X32865441Y-78691564D01*
X32815322Y-78641279D01*
X32801720Y-78601774D01*
X32801332Y-78599444D01*
X32800494Y-78593557D01*
X32795694Y-78552999D01*
X32795694Y-78552998D01*
X32794470Y-78542659D01*
X32790507Y-78534407D01*
X32789004Y-78525374D01*
X32764665Y-78480266D01*
X32761969Y-78474975D01*
X32743215Y-78435918D01*
X32743212Y-78435914D01*
X32739781Y-78428768D01*
X32736186Y-78424492D01*
X32734263Y-78422569D01*
X32732491Y-78420637D01*
X32732448Y-78420558D01*
X32732572Y-78420445D01*
X32732096Y-78419905D01*
X32729010Y-78414186D01*
X32689413Y-78377583D01*
X32685848Y-78374154D01*
X31941405Y-77629711D01*
X31907379Y-77567399D01*
X31904500Y-77540616D01*
X31904499Y-77133030D01*
X31904499Y-77129612D01*
X31898130Y-77070976D01*
X31863401Y-76978335D01*
X31853068Y-76950770D01*
X31853067Y-76950769D01*
X31849917Y-76942365D01*
X31844537Y-76935186D01*
X31844535Y-76935183D01*
X31772923Y-76839633D01*
X31767544Y-76832456D01*
X31758623Y-76825770D01*
X31664817Y-76755465D01*
X31664814Y-76755463D01*
X31657635Y-76750083D01*
X31646394Y-76745869D01*
X31536419Y-76704642D01*
X31536418Y-76704642D01*
X31529024Y-76701870D01*
X31521174Y-76701017D01*
X31521173Y-76701017D01*
X31473786Y-76695869D01*
X31473785Y-76695869D01*
X31470389Y-76695500D01*
X31453457Y-76695500D01*
X30995382Y-76695501D01*
X30927262Y-76675499D01*
X30880769Y-76621844D01*
X30870665Y-76551570D01*
X30900158Y-76486989D01*
X30906288Y-76480406D01*
X34132460Y-73254234D01*
X34194772Y-73220208D01*
X34265587Y-73225273D01*
X34326320Y-73273327D01*
X34366516Y-73333484D01*
X34450699Y-73389734D01*
X34524933Y-73404500D01*
X34999923Y-73404500D01*
X35475066Y-73404499D01*
X35510818Y-73397388D01*
X35537126Y-73392156D01*
X35537128Y-73392155D01*
X35549301Y-73389734D01*
X35559621Y-73382839D01*
X35559622Y-73382838D01*
X35623168Y-73340377D01*
X35633484Y-73333484D01*
X35689734Y-73249301D01*
X35704500Y-73175067D01*
X35704499Y-71924934D01*
X35689734Y-71850699D01*
X35633484Y-71766516D01*
X35549301Y-71710266D01*
X35475067Y-71695500D01*
X35000077Y-71695500D01*
X34524934Y-71695501D01*
X34489182Y-71702612D01*
X34462874Y-71707844D01*
X34462872Y-71707845D01*
X34450699Y-71710266D01*
X34440379Y-71717161D01*
X34440378Y-71717162D01*
X34434076Y-71721373D01*
X34366516Y-71766516D01*
X34310266Y-71850699D01*
X34295500Y-71924933D01*
X34295500Y-72057829D01*
X34275498Y-72125950D01*
X34221842Y-72172443D01*
X34204654Y-72178826D01*
X34203004Y-72179305D01*
X34192659Y-72180530D01*
X34184407Y-72184493D01*
X34175374Y-72185996D01*
X34166205Y-72190943D01*
X34166203Y-72190944D01*
X34130255Y-72210341D01*
X34125002Y-72213018D01*
X34078769Y-72235219D01*
X34074493Y-72238813D01*
X34072553Y-72240753D01*
X34070641Y-72242507D01*
X34070552Y-72242555D01*
X34070440Y-72242432D01*
X34069904Y-72242905D01*
X34064186Y-72245990D01*
X34057119Y-72253635D01*
X34027584Y-72285586D01*
X34024154Y-72289152D01*
X32821480Y-73491826D01*
X32759168Y-73525852D01*
X32688353Y-73520787D01*
X32631517Y-73478240D01*
X32606706Y-73411720D01*
X32614403Y-73358501D01*
X32648478Y-73267606D01*
X32652105Y-73252351D01*
X32657631Y-73201486D01*
X32658000Y-73194672D01*
X32658000Y-72822115D01*
X32653525Y-72806876D01*
X32652135Y-72805671D01*
X32644452Y-72804000D01*
X31972115Y-72804000D01*
X31956876Y-72808475D01*
X31955671Y-72809865D01*
X31954000Y-72817548D01*
X31954000Y-73639884D01*
X31958475Y-73655123D01*
X31959865Y-73656328D01*
X31967548Y-73657999D01*
X32194669Y-73657999D01*
X32201490Y-73657629D01*
X32252352Y-73652105D01*
X32267604Y-73648479D01*
X32358501Y-73614403D01*
X32429308Y-73609220D01*
X32491677Y-73643141D01*
X32525807Y-73705396D01*
X32520860Y-73776220D01*
X32491826Y-73821480D01*
X31919106Y-74394200D01*
X31856794Y-74428226D01*
X31785979Y-74423161D01*
X31729143Y-74380614D01*
X31704332Y-74314094D01*
X31704011Y-74305105D01*
X31704011Y-74253822D01*
X31706561Y-74229864D01*
X31706639Y-74228205D01*
X31708832Y-74218021D01*
X31707608Y-74207679D01*
X31707608Y-74207676D01*
X31704885Y-74184676D01*
X31704535Y-74178745D01*
X31704439Y-74178753D01*
X31704011Y-74173577D01*
X31704011Y-74168373D01*
X31700838Y-74149309D01*
X31700007Y-74143463D01*
X31695205Y-74102898D01*
X31693981Y-74092556D01*
X31690018Y-74084304D01*
X31688515Y-74075271D01*
X31664167Y-74030145D01*
X31661493Y-74024899D01*
X31639292Y-73978666D01*
X31635698Y-73974390D01*
X31633758Y-73972450D01*
X31632004Y-73970538D01*
X31631956Y-73970449D01*
X31632079Y-73970337D01*
X31631606Y-73969801D01*
X31628521Y-73964083D01*
X31588924Y-73927480D01*
X31585359Y-73924051D01*
X31466517Y-73805209D01*
X31432491Y-73742897D01*
X31437556Y-73672082D01*
X31441398Y-73665607D01*
X31446000Y-73644452D01*
X31446000Y-72422000D01*
X31466002Y-72353879D01*
X31519658Y-72307386D01*
X31572000Y-72296000D01*
X32639884Y-72296000D01*
X32655123Y-72291525D01*
X32656328Y-72290135D01*
X32657999Y-72282452D01*
X32657999Y-71905331D01*
X32657629Y-71898510D01*
X32652105Y-71847648D01*
X32648479Y-71832396D01*
X32603324Y-71711946D01*
X32594786Y-71696351D01*
X32518285Y-71594276D01*
X32505724Y-71581715D01*
X32403649Y-71505214D01*
X32388054Y-71496676D01*
X32267606Y-71451522D01*
X32252351Y-71447895D01*
X32201486Y-71442369D01*
X32194673Y-71442000D01*
X31863165Y-71442001D01*
X31795045Y-71421999D01*
X31748552Y-71368344D01*
X31738447Y-71298070D01*
X31767940Y-71233489D01*
X31774070Y-71226906D01*
X33580016Y-69420960D01*
X33598764Y-69405818D01*
X33599989Y-69404703D01*
X33608740Y-69399053D01*
X33615187Y-69390875D01*
X33615189Y-69390873D01*
X33629529Y-69372682D01*
X33633475Y-69368241D01*
X33633402Y-69368179D01*
X33636761Y-69364215D01*
X33640438Y-69360538D01*
X33651692Y-69344790D01*
X33655198Y-69340120D01*
X33686956Y-69299835D01*
X33689988Y-69291201D01*
X33695314Y-69283748D01*
X33710003Y-69234632D01*
X33711836Y-69228990D01*
X33724441Y-69193096D01*
X34040729Y-69193096D01*
X34049421Y-69271825D01*
X34057215Y-69342415D01*
X34058113Y-69350553D01*
X34112553Y-69499319D01*
X34200908Y-69630805D01*
X34206527Y-69635918D01*
X34206528Y-69635919D01*
X34217903Y-69646269D01*
X34318076Y-69737419D01*
X34457293Y-69813008D01*
X34610522Y-69853207D01*
X34694477Y-69854526D01*
X34761319Y-69855576D01*
X34761322Y-69855576D01*
X34768916Y-69855695D01*
X34923332Y-69820329D01*
X34993742Y-69784917D01*
X35058072Y-69752563D01*
X35058075Y-69752561D01*
X35064855Y-69749151D01*
X35070626Y-69744222D01*
X35070629Y-69744220D01*
X35179536Y-69651204D01*
X35179536Y-69651203D01*
X35185314Y-69646269D01*
X35277755Y-69517624D01*
X35336842Y-69370641D01*
X35347016Y-69299151D01*
X35358581Y-69217891D01*
X35358581Y-69217888D01*
X35359162Y-69213807D01*
X35359307Y-69200000D01*
X35353437Y-69151496D01*
X35365109Y-69081468D01*
X35389429Y-69047265D01*
X38120244Y-66316450D01*
X38182556Y-66282424D01*
X38235536Y-66282298D01*
X38333531Y-66303128D01*
X38333536Y-66303128D01*
X38339988Y-66304500D01*
X38519612Y-66304500D01*
X38526064Y-66303128D01*
X38526069Y-66303128D01*
X38615308Y-66284159D01*
X38695310Y-66267154D01*
X38701341Y-66264469D01*
X38853374Y-66196780D01*
X38853376Y-66196779D01*
X38859404Y-66194095D01*
X38895863Y-66167606D01*
X38999378Y-66092398D01*
X38999380Y-66092396D01*
X39004722Y-66088515D01*
X39124913Y-65955029D01*
X39214725Y-65799471D01*
X39239553Y-65723059D01*
X39268191Y-65634918D01*
X39268191Y-65634917D01*
X39270231Y-65628639D01*
X39289007Y-65450000D01*
X40110593Y-65450000D01*
X40129369Y-65628639D01*
X40131409Y-65634917D01*
X40131409Y-65634918D01*
X40160048Y-65723059D01*
X40184875Y-65799471D01*
X40274687Y-65955029D01*
X40394878Y-66088515D01*
X40400220Y-66092396D01*
X40400222Y-66092398D01*
X40503737Y-66167606D01*
X40540196Y-66194095D01*
X40546224Y-66196779D01*
X40546226Y-66196780D01*
X40698259Y-66264469D01*
X40704290Y-66267154D01*
X40784292Y-66284159D01*
X40873531Y-66303128D01*
X40873536Y-66303128D01*
X40879988Y-66304500D01*
X41059612Y-66304500D01*
X41066064Y-66303128D01*
X41066069Y-66303128D01*
X41155308Y-66284159D01*
X41235310Y-66267154D01*
X41241341Y-66264469D01*
X41393374Y-66196780D01*
X41393376Y-66196779D01*
X41399404Y-66194095D01*
X41435863Y-66167606D01*
X41539378Y-66092398D01*
X41539380Y-66092396D01*
X41544722Y-66088515D01*
X41664913Y-65955029D01*
X41754725Y-65799471D01*
X41779553Y-65723059D01*
X41808191Y-65634918D01*
X41808191Y-65634917D01*
X41810231Y-65628639D01*
X41829007Y-65450000D01*
X41810231Y-65271361D01*
X41784291Y-65191525D01*
X41756767Y-65106813D01*
X41756766Y-65106811D01*
X41754725Y-65100529D01*
X41664913Y-64944971D01*
X41544722Y-64811485D01*
X41526864Y-64798510D01*
X41404746Y-64709786D01*
X41404745Y-64709785D01*
X41399404Y-64705905D01*
X41393376Y-64703221D01*
X41393374Y-64703220D01*
X41241341Y-64635531D01*
X41241340Y-64635531D01*
X41235310Y-64632846D01*
X41136984Y-64611946D01*
X41066069Y-64596872D01*
X41066064Y-64596872D01*
X41059612Y-64595500D01*
X40879988Y-64595500D01*
X40873536Y-64596872D01*
X40873531Y-64596872D01*
X40802616Y-64611946D01*
X40704290Y-64632846D01*
X40698260Y-64635531D01*
X40698259Y-64635531D01*
X40546227Y-64703220D01*
X40546225Y-64703221D01*
X40540197Y-64705905D01*
X40534856Y-64709785D01*
X40534855Y-64709786D01*
X40400222Y-64807602D01*
X40400220Y-64807604D01*
X40394878Y-64811485D01*
X40274687Y-64944971D01*
X40184875Y-65100529D01*
X40182834Y-65106811D01*
X40182833Y-65106813D01*
X40155309Y-65191525D01*
X40129369Y-65271361D01*
X40110593Y-65450000D01*
X39289007Y-65450000D01*
X39270231Y-65271361D01*
X39244291Y-65191525D01*
X39216767Y-65106813D01*
X39216766Y-65106811D01*
X39214725Y-65100529D01*
X39124913Y-64944971D01*
X39004722Y-64811485D01*
X38986864Y-64798510D01*
X38864746Y-64709786D01*
X38864745Y-64709785D01*
X38859404Y-64705905D01*
X38853376Y-64703221D01*
X38853374Y-64703220D01*
X38701341Y-64635531D01*
X38701340Y-64635531D01*
X38695310Y-64632846D01*
X38596984Y-64611946D01*
X38526069Y-64596872D01*
X38526064Y-64596872D01*
X38519612Y-64595500D01*
X38339988Y-64595500D01*
X38333536Y-64596872D01*
X38333531Y-64596872D01*
X38262616Y-64611946D01*
X38164290Y-64632846D01*
X38158260Y-64635531D01*
X38158259Y-64635531D01*
X38006227Y-64703220D01*
X38006225Y-64703221D01*
X38000197Y-64705905D01*
X37994856Y-64709785D01*
X37994855Y-64709786D01*
X37860222Y-64807602D01*
X37860220Y-64807604D01*
X37854878Y-64811485D01*
X37734687Y-64944971D01*
X37644875Y-65100529D01*
X37642834Y-65106811D01*
X37642833Y-65106813D01*
X37615309Y-65191525D01*
X37589369Y-65271361D01*
X37570593Y-65450000D01*
X37589369Y-65628639D01*
X37596188Y-65649625D01*
X37601142Y-65664874D01*
X37603168Y-65735842D01*
X37570403Y-65792903D01*
X34854411Y-68508895D01*
X34792099Y-68542921D01*
X34764658Y-68545798D01*
X34624221Y-68545062D01*
X34616841Y-68546834D01*
X34616839Y-68546834D01*
X34477563Y-68580271D01*
X34477560Y-68580272D01*
X34470184Y-68582043D01*
X34329414Y-68654700D01*
X34210039Y-68758838D01*
X34118950Y-68888444D01*
X34061406Y-69036037D01*
X34060414Y-69043570D01*
X34060414Y-69043571D01*
X34043103Y-69175066D01*
X34040729Y-69193096D01*
X33724441Y-69193096D01*
X33726190Y-69188115D01*
X33726190Y-69188114D01*
X33728818Y-69180631D01*
X33729300Y-69175066D01*
X33729300Y-69172358D01*
X33729414Y-69169724D01*
X33729443Y-69169626D01*
X33729607Y-69169633D01*
X33729651Y-69168929D01*
X33731513Y-69162704D01*
X33729397Y-69108847D01*
X33729300Y-69103900D01*
X33729300Y-66294698D01*
X33749302Y-66226577D01*
X33781239Y-66192762D01*
X33832207Y-66155731D01*
X33924722Y-66088515D01*
X34044913Y-65955029D01*
X34134725Y-65799471D01*
X34159553Y-65723059D01*
X34188191Y-65634918D01*
X34188191Y-65634917D01*
X34190231Y-65628639D01*
X34209007Y-65450000D01*
X35030593Y-65450000D01*
X35049369Y-65628639D01*
X35051409Y-65634917D01*
X35051409Y-65634918D01*
X35080048Y-65723059D01*
X35104875Y-65799471D01*
X35194687Y-65955029D01*
X35314878Y-66088515D01*
X35320220Y-66092396D01*
X35320222Y-66092398D01*
X35423737Y-66167606D01*
X35460196Y-66194095D01*
X35466224Y-66196779D01*
X35466226Y-66196780D01*
X35618259Y-66264469D01*
X35624290Y-66267154D01*
X35704292Y-66284159D01*
X35793531Y-66303128D01*
X35793536Y-66303128D01*
X35799988Y-66304500D01*
X35979612Y-66304500D01*
X35986064Y-66303128D01*
X35986069Y-66303128D01*
X36075308Y-66284159D01*
X36155310Y-66267154D01*
X36161341Y-66264469D01*
X36313374Y-66196780D01*
X36313376Y-66196779D01*
X36319404Y-66194095D01*
X36355863Y-66167606D01*
X36459378Y-66092398D01*
X36459380Y-66092396D01*
X36464722Y-66088515D01*
X36584913Y-65955029D01*
X36674725Y-65799471D01*
X36699553Y-65723059D01*
X36728191Y-65634918D01*
X36728191Y-65634917D01*
X36730231Y-65628639D01*
X36749007Y-65450000D01*
X36730231Y-65271361D01*
X36704291Y-65191525D01*
X36676767Y-65106813D01*
X36676766Y-65106811D01*
X36674725Y-65100529D01*
X36584913Y-64944971D01*
X36464722Y-64811485D01*
X36446864Y-64798510D01*
X36324746Y-64709786D01*
X36324745Y-64709785D01*
X36319404Y-64705905D01*
X36313376Y-64703221D01*
X36313374Y-64703220D01*
X36161341Y-64635531D01*
X36161340Y-64635531D01*
X36155310Y-64632846D01*
X36056984Y-64611946D01*
X35986069Y-64596872D01*
X35986064Y-64596872D01*
X35979612Y-64595500D01*
X35799988Y-64595500D01*
X35793536Y-64596872D01*
X35793531Y-64596872D01*
X35722616Y-64611946D01*
X35624290Y-64632846D01*
X35618260Y-64635531D01*
X35618259Y-64635531D01*
X35466227Y-64703220D01*
X35466225Y-64703221D01*
X35460197Y-64705905D01*
X35454856Y-64709785D01*
X35454855Y-64709786D01*
X35320222Y-64807602D01*
X35320220Y-64807604D01*
X35314878Y-64811485D01*
X35194687Y-64944971D01*
X35104875Y-65100529D01*
X35102834Y-65106811D01*
X35102833Y-65106813D01*
X35075309Y-65191525D01*
X35049369Y-65271361D01*
X35030593Y-65450000D01*
X34209007Y-65450000D01*
X34190231Y-65271361D01*
X34164291Y-65191525D01*
X34136767Y-65106813D01*
X34136766Y-65106811D01*
X34134725Y-65100529D01*
X34044913Y-64944971D01*
X33924722Y-64811485D01*
X33906864Y-64798510D01*
X33784746Y-64709786D01*
X33784745Y-64709785D01*
X33779404Y-64705905D01*
X33773376Y-64703221D01*
X33773374Y-64703220D01*
X33621341Y-64635531D01*
X33621340Y-64635531D01*
X33615310Y-64632846D01*
X33516984Y-64611946D01*
X33446069Y-64596872D01*
X33446064Y-64596872D01*
X33439612Y-64595500D01*
X33259988Y-64595500D01*
X33253536Y-64596872D01*
X33253531Y-64596872D01*
X33182616Y-64611946D01*
X33084290Y-64632846D01*
X33078260Y-64635531D01*
X33078259Y-64635531D01*
X32926227Y-64703220D01*
X32926225Y-64703221D01*
X32920197Y-64705905D01*
X32914856Y-64709785D01*
X32914855Y-64709786D01*
X32780222Y-64807602D01*
X32780220Y-64807604D01*
X32774878Y-64811485D01*
X32654687Y-64944971D01*
X32564875Y-65100529D01*
X32562834Y-65106811D01*
X32562833Y-65106813D01*
X32535309Y-65191525D01*
X32509369Y-65271361D01*
X32490593Y-65450000D01*
X32509369Y-65628639D01*
X32511409Y-65634917D01*
X32511409Y-65634918D01*
X32540048Y-65723059D01*
X32564875Y-65799471D01*
X32654687Y-65955029D01*
X32774878Y-66088515D01*
X32867393Y-66155731D01*
X32918361Y-66192762D01*
X32961715Y-66248984D01*
X32970300Y-66294698D01*
X32970300Y-68905098D01*
X32950298Y-68973219D01*
X32933395Y-68994193D01*
X30669887Y-71257701D01*
X30651139Y-71272843D01*
X30649914Y-71273958D01*
X30641163Y-71279608D01*
X30634716Y-71287786D01*
X30634714Y-71287788D01*
X30620374Y-71305979D01*
X30616428Y-71310420D01*
X30616501Y-71310482D01*
X30613142Y-71314446D01*
X30609465Y-71318123D01*
X30598211Y-71333871D01*
X30594705Y-71338541D01*
X30562947Y-71378826D01*
X30559915Y-71387460D01*
X30554589Y-71394913D01*
X30540397Y-71442369D01*
X30539902Y-71444023D01*
X30538067Y-71449671D01*
X30521085Y-71498030D01*
X30520603Y-71503595D01*
X30520603Y-71506303D01*
X30520489Y-71508937D01*
X30520460Y-71509035D01*
X30520296Y-71509028D01*
X30520252Y-71509732D01*
X30518390Y-71515957D01*
X30518799Y-71526362D01*
X30520506Y-71569814D01*
X30520603Y-71574761D01*
X30520603Y-73579719D01*
X30500601Y-73647840D01*
X30446945Y-73694333D01*
X30376671Y-73704437D01*
X30312091Y-73674943D01*
X30305508Y-73668814D01*
X27416205Y-70779511D01*
X27382179Y-70717199D01*
X27379300Y-70690416D01*
X27379300Y-66773920D01*
X27381849Y-66749973D01*
X27381928Y-66748307D01*
X27384120Y-66738124D01*
X27382896Y-66727782D01*
X27382896Y-66727779D01*
X27380174Y-66704787D01*
X27379823Y-66698846D01*
X27379728Y-66698854D01*
X27379300Y-66693675D01*
X27379300Y-66688476D01*
X27378447Y-66683349D01*
X27378018Y-66678164D01*
X27379660Y-66678028D01*
X27387311Y-66614849D01*
X27432596Y-66560170D01*
X27500254Y-66538654D01*
X27547292Y-66546641D01*
X27552191Y-66548478D01*
X27567449Y-66552105D01*
X27618314Y-66557631D01*
X27625128Y-66558000D01*
X27997685Y-66558000D01*
X28012924Y-66553525D01*
X28014129Y-66552135D01*
X28015800Y-66544452D01*
X28015800Y-66539884D01*
X28523800Y-66539884D01*
X28528275Y-66555123D01*
X28529665Y-66556328D01*
X28537348Y-66557999D01*
X28914469Y-66557999D01*
X28921290Y-66557629D01*
X28972152Y-66552105D01*
X28987404Y-66548479D01*
X29107854Y-66503324D01*
X29123449Y-66494786D01*
X29225524Y-66418285D01*
X29238085Y-66405724D01*
X29314586Y-66303649D01*
X29323124Y-66288054D01*
X29368278Y-66167606D01*
X29371905Y-66152351D01*
X29377431Y-66101486D01*
X29377800Y-66094672D01*
X29377800Y-65722115D01*
X29373325Y-65706876D01*
X29371935Y-65705671D01*
X29364252Y-65704000D01*
X28541915Y-65704000D01*
X28526676Y-65708475D01*
X28525471Y-65709865D01*
X28523800Y-65717548D01*
X28523800Y-66539884D01*
X28015800Y-66539884D01*
X28015800Y-65722115D01*
X28011325Y-65706876D01*
X28009935Y-65705671D01*
X28002252Y-65704000D01*
X27179916Y-65704000D01*
X27164677Y-65708475D01*
X27163472Y-65709865D01*
X27161801Y-65717548D01*
X27161801Y-66041117D01*
X27141799Y-66109238D01*
X27088143Y-66155731D01*
X27017869Y-66165835D01*
X26953289Y-66136341D01*
X26946706Y-66130212D01*
X26594150Y-65777656D01*
X26560124Y-65715344D01*
X26563412Y-65649625D01*
X26570231Y-65628639D01*
X26589007Y-65450000D01*
X29950593Y-65450000D01*
X29969369Y-65628639D01*
X29971409Y-65634917D01*
X29971409Y-65634918D01*
X30000048Y-65723059D01*
X30024875Y-65799471D01*
X30114687Y-65955029D01*
X30234878Y-66088515D01*
X30240220Y-66092396D01*
X30240222Y-66092398D01*
X30343737Y-66167606D01*
X30380196Y-66194095D01*
X30386224Y-66196779D01*
X30386226Y-66196780D01*
X30538259Y-66264469D01*
X30544290Y-66267154D01*
X30624292Y-66284159D01*
X30713531Y-66303128D01*
X30713536Y-66303128D01*
X30719988Y-66304500D01*
X30899612Y-66304500D01*
X30906064Y-66303128D01*
X30906069Y-66303128D01*
X30995308Y-66284159D01*
X31075310Y-66267154D01*
X31081341Y-66264469D01*
X31233374Y-66196780D01*
X31233376Y-66196779D01*
X31239404Y-66194095D01*
X31275863Y-66167606D01*
X31379378Y-66092398D01*
X31379380Y-66092396D01*
X31384722Y-66088515D01*
X31504913Y-65955029D01*
X31594725Y-65799471D01*
X31619553Y-65723059D01*
X31648191Y-65634918D01*
X31648191Y-65634917D01*
X31650231Y-65628639D01*
X31669007Y-65450000D01*
X31650231Y-65271361D01*
X31624291Y-65191525D01*
X31596767Y-65106813D01*
X31596766Y-65106811D01*
X31594725Y-65100529D01*
X31504913Y-64944971D01*
X31384722Y-64811485D01*
X31366864Y-64798510D01*
X31244746Y-64709786D01*
X31244745Y-64709785D01*
X31239404Y-64705905D01*
X31233376Y-64703221D01*
X31233374Y-64703220D01*
X31081341Y-64635531D01*
X31081340Y-64635531D01*
X31075310Y-64632846D01*
X30976984Y-64611946D01*
X30906069Y-64596872D01*
X30906064Y-64596872D01*
X30899612Y-64595500D01*
X30719988Y-64595500D01*
X30713536Y-64596872D01*
X30713531Y-64596872D01*
X30642616Y-64611946D01*
X30544290Y-64632846D01*
X30538260Y-64635531D01*
X30538259Y-64635531D01*
X30386227Y-64703220D01*
X30386225Y-64703221D01*
X30380197Y-64705905D01*
X30374856Y-64709785D01*
X30374855Y-64709786D01*
X30240222Y-64807602D01*
X30240220Y-64807604D01*
X30234878Y-64811485D01*
X30114687Y-64944971D01*
X30024875Y-65100529D01*
X30022834Y-65106811D01*
X30022833Y-65106813D01*
X29995309Y-65191525D01*
X29969369Y-65271361D01*
X29950593Y-65450000D01*
X26589007Y-65450000D01*
X26570231Y-65271361D01*
X26544291Y-65191525D01*
X26539859Y-65177885D01*
X27161800Y-65177885D01*
X27166275Y-65193124D01*
X27167665Y-65194329D01*
X27175348Y-65196000D01*
X27997685Y-65196000D01*
X28012924Y-65191525D01*
X28014129Y-65190135D01*
X28015800Y-65182452D01*
X28015800Y-65177885D01*
X28523800Y-65177885D01*
X28528275Y-65193124D01*
X28529665Y-65194329D01*
X28537348Y-65196000D01*
X29359684Y-65196000D01*
X29374923Y-65191525D01*
X29376128Y-65190135D01*
X29377799Y-65182452D01*
X29377799Y-64805331D01*
X29377429Y-64798510D01*
X29371905Y-64747648D01*
X29368279Y-64732396D01*
X29323124Y-64611946D01*
X29314586Y-64596351D01*
X29238085Y-64494276D01*
X29225524Y-64481715D01*
X29123449Y-64405214D01*
X29107854Y-64396676D01*
X28987406Y-64351522D01*
X28972151Y-64347895D01*
X28921286Y-64342369D01*
X28914472Y-64342000D01*
X28541915Y-64342000D01*
X28526676Y-64346475D01*
X28525471Y-64347865D01*
X28523800Y-64355548D01*
X28523800Y-65177885D01*
X28015800Y-65177885D01*
X28015800Y-64360116D01*
X28011325Y-64344877D01*
X28009935Y-64343672D01*
X28002252Y-64342001D01*
X27625131Y-64342001D01*
X27618310Y-64342371D01*
X27567448Y-64347895D01*
X27552196Y-64351521D01*
X27431746Y-64396676D01*
X27416151Y-64405214D01*
X27314076Y-64481715D01*
X27301515Y-64494276D01*
X27225014Y-64596351D01*
X27216476Y-64611946D01*
X27171322Y-64732394D01*
X27167695Y-64747649D01*
X27162169Y-64798514D01*
X27161800Y-64805328D01*
X27161800Y-65177885D01*
X26539859Y-65177885D01*
X26516767Y-65106813D01*
X26516766Y-65106811D01*
X26514725Y-65100529D01*
X26424913Y-64944971D01*
X26304722Y-64811485D01*
X26286864Y-64798510D01*
X26164746Y-64709786D01*
X26164745Y-64709785D01*
X26159404Y-64705905D01*
X26153376Y-64703221D01*
X26153374Y-64703220D01*
X26001341Y-64635531D01*
X26001340Y-64635531D01*
X25995310Y-64632846D01*
X25896984Y-64611946D01*
X25826069Y-64596872D01*
X25826064Y-64596872D01*
X25819612Y-64595500D01*
X25639988Y-64595500D01*
X25633536Y-64596872D01*
X25633531Y-64596872D01*
X25562616Y-64611946D01*
X25464290Y-64632846D01*
X25458260Y-64635531D01*
X25458259Y-64635531D01*
X25306227Y-64703220D01*
X25306225Y-64703221D01*
X25300197Y-64705905D01*
X25294856Y-64709785D01*
X25294855Y-64709786D01*
X25160222Y-64807602D01*
X25160220Y-64807604D01*
X25154878Y-64811485D01*
X25034687Y-64944971D01*
X24944875Y-65100529D01*
X24942834Y-65106811D01*
X24942833Y-65106813D01*
X24915309Y-65191525D01*
X24889369Y-65271361D01*
X24870593Y-65450000D01*
X24889369Y-65628639D01*
X24891409Y-65634917D01*
X24891409Y-65634918D01*
X24920048Y-65723059D01*
X24944875Y-65799471D01*
X25034687Y-65955029D01*
X25154878Y-66088515D01*
X25160220Y-66092396D01*
X25160222Y-66092398D01*
X25263737Y-66167606D01*
X25300196Y-66194095D01*
X25306224Y-66196779D01*
X25306226Y-66196780D01*
X25458259Y-66264469D01*
X25464290Y-66267154D01*
X25544292Y-66284159D01*
X25633531Y-66303128D01*
X25633536Y-66303128D01*
X25639988Y-66304500D01*
X25819612Y-66304500D01*
X25826064Y-66303128D01*
X25826069Y-66303128D01*
X25940723Y-66278757D01*
X26011514Y-66284159D01*
X26056015Y-66312909D01*
X26583395Y-66840289D01*
X26617421Y-66902601D01*
X26620300Y-66929384D01*
X26620300Y-70845880D01*
X26617751Y-70869828D01*
X26617672Y-70871493D01*
X26615480Y-70881676D01*
X26616704Y-70892017D01*
X26619427Y-70915023D01*
X26619777Y-70920954D01*
X26619872Y-70920946D01*
X26620300Y-70926124D01*
X26620300Y-70931324D01*
X26621154Y-70936453D01*
X26621154Y-70936456D01*
X26623469Y-70950365D01*
X26624306Y-70956243D01*
X26630330Y-71007141D01*
X26634293Y-71015393D01*
X26635796Y-71024426D01*
X26640743Y-71033595D01*
X26640744Y-71033597D01*
X26660134Y-71069532D01*
X26662831Y-71074825D01*
X26681585Y-71113882D01*
X26681588Y-71113886D01*
X26685019Y-71121032D01*
X26688614Y-71125308D01*
X26690537Y-71127231D01*
X26692309Y-71129163D01*
X26692352Y-71129242D01*
X26692228Y-71129355D01*
X26692704Y-71129895D01*
X26695790Y-71135614D01*
X26703435Y-71142681D01*
X26735386Y-71172216D01*
X26738952Y-71175646D01*
X29519952Y-73956646D01*
X29553978Y-74018958D01*
X29548913Y-74089773D01*
X29506366Y-74146609D01*
X29461234Y-74168024D01*
X29457307Y-74168999D01*
X29457300Y-74169002D01*
X29447199Y-74171511D01*
X29438455Y-74177157D01*
X29438452Y-74177158D01*
X29437641Y-74177682D01*
X29414757Y-74189342D01*
X29404148Y-74193446D01*
X29396175Y-74200148D01*
X29396173Y-74200149D01*
X29380143Y-74213624D01*
X29367416Y-74223025D01*
X29341060Y-74240043D01*
X29334614Y-74248221D01*
X29334610Y-74248224D01*
X29334015Y-74248979D01*
X29316146Y-74267419D01*
X29315409Y-74268039D01*
X29307436Y-74274741D01*
X29291256Y-74301617D01*
X29282265Y-74314626D01*
X29262844Y-74339261D01*
X29259392Y-74349091D01*
X29259074Y-74349995D01*
X29248139Y-74373233D01*
X29242272Y-74382979D01*
X29240080Y-74393162D01*
X29235671Y-74413637D01*
X29231377Y-74428862D01*
X29223609Y-74450982D01*
X29223608Y-74450988D01*
X29220982Y-74458465D01*
X29220500Y-74464030D01*
X29220500Y-74470694D01*
X29217951Y-74494642D01*
X29217872Y-74496307D01*
X29215680Y-74506490D01*
X29216904Y-74516831D01*
X29219627Y-74539837D01*
X29220500Y-74554647D01*
X29220500Y-75105187D01*
X29200498Y-75173308D01*
X29177330Y-75200135D01*
X29110039Y-75258838D01*
X29018950Y-75388444D01*
X28961406Y-75536037D01*
X28960414Y-75543570D01*
X28960414Y-75543571D01*
X28952318Y-75605071D01*
X28940729Y-75693096D01*
X28948498Y-75763461D01*
X28955842Y-75829981D01*
X28958113Y-75850553D01*
X28960723Y-75857684D01*
X28960723Y-75857686D01*
X28966155Y-75872528D01*
X29012553Y-75999319D01*
X29016789Y-76005622D01*
X29016789Y-76005623D01*
X29098526Y-76127261D01*
X29119918Y-76194959D01*
X29101314Y-76263474D01*
X29048621Y-76311055D01*
X28981101Y-76322881D01*
X28926901Y-76317328D01*
X28920486Y-76317000D01*
X28897115Y-76317000D01*
X28881876Y-76321475D01*
X28880671Y-76322865D01*
X28879000Y-76330548D01*
X28879000Y-77002885D01*
X28883475Y-77018124D01*
X28884865Y-77019329D01*
X28892548Y-77021000D01*
X29589885Y-77021000D01*
X29605124Y-77016525D01*
X29606329Y-77015135D01*
X29608000Y-77007452D01*
X29608000Y-77004562D01*
X29607663Y-76998047D01*
X29598106Y-76905943D01*
X29595212Y-76892544D01*
X29545619Y-76743893D01*
X29539445Y-76730714D01*
X29457212Y-76597827D01*
X29448176Y-76586426D01*
X29430251Y-76568532D01*
X29396172Y-76506249D01*
X29401175Y-76435429D01*
X29443673Y-76378556D01*
X29510171Y-76353688D01*
X29521237Y-76353375D01*
X29604167Y-76354678D01*
X29661319Y-76355576D01*
X29661322Y-76355576D01*
X29668916Y-76355695D01*
X29676320Y-76353999D01*
X29676322Y-76353999D01*
X29815751Y-76322066D01*
X29886618Y-76326355D01*
X29943916Y-76368278D01*
X29969453Y-76434522D01*
X29969141Y-76448923D01*
X29968287Y-76451778D01*
X29968696Y-76462186D01*
X29970403Y-76505635D01*
X29970500Y-76510582D01*
X29970500Y-79323897D01*
X29967951Y-79347845D01*
X29967872Y-79349510D01*
X29965680Y-79359693D01*
X29966904Y-79370034D01*
X29969627Y-79393040D01*
X29969977Y-79398971D01*
X29970072Y-79398963D01*
X29970500Y-79404141D01*
X29970500Y-79409341D01*
X29971354Y-79414470D01*
X29971354Y-79414473D01*
X29973669Y-79428382D01*
X29974506Y-79434260D01*
X29979044Y-79472599D01*
X29980530Y-79485158D01*
X29984493Y-79493410D01*
X29985996Y-79502443D01*
X29990943Y-79511612D01*
X29990944Y-79511614D01*
X30010334Y-79547549D01*
X30013031Y-79552842D01*
X30031785Y-79591899D01*
X30031788Y-79591903D01*
X30035219Y-79599049D01*
X30038814Y-79603325D01*
X30040737Y-79605248D01*
X30042509Y-79607180D01*
X30042552Y-79607259D01*
X30042428Y-79607372D01*
X30042904Y-79607912D01*
X30045990Y-79613631D01*
X30053635Y-79620698D01*
X30085586Y-79650233D01*
X30089152Y-79653663D01*
X31008595Y-80573106D01*
X31042621Y-80635418D01*
X31045500Y-80662201D01*
X31045500Y-82466000D01*
X31025498Y-82534121D01*
X30971842Y-82580614D01*
X30919500Y-82592000D01*
X30897115Y-82592000D01*
X30881876Y-82596475D01*
X30880671Y-82597865D01*
X30879000Y-82605548D01*
X30879000Y-83678000D01*
X30858998Y-83746121D01*
X30805342Y-83792614D01*
X30753000Y-83804000D01*
X30497000Y-83804000D01*
X30428879Y-83783998D01*
X30382386Y-83730342D01*
X30371000Y-83678000D01*
X30371000Y-82610115D01*
X30366525Y-82594876D01*
X30365135Y-82593671D01*
X30357452Y-82592000D01*
X30329562Y-82592000D01*
X30323047Y-82592337D01*
X30224084Y-82602606D01*
X30223922Y-82601047D01*
X30161293Y-82596474D01*
X30104520Y-82553844D01*
X30079808Y-82487287D01*
X30079500Y-82478484D01*
X30079500Y-81703925D01*
X30082050Y-81679967D01*
X30082128Y-81678308D01*
X30084321Y-81668124D01*
X30083097Y-81657782D01*
X30083097Y-81657779D01*
X30080374Y-81634779D01*
X30080024Y-81628848D01*
X30079928Y-81628856D01*
X30079500Y-81623680D01*
X30079500Y-81618476D01*
X30076327Y-81599412D01*
X30075496Y-81593566D01*
X30071935Y-81563486D01*
X30069470Y-81542659D01*
X30065507Y-81534407D01*
X30064004Y-81525374D01*
X30039656Y-81480248D01*
X30036982Y-81475002D01*
X30014781Y-81428769D01*
X30011187Y-81424493D01*
X30009247Y-81422553D01*
X30007493Y-81420641D01*
X30007445Y-81420552D01*
X30007568Y-81420440D01*
X30007095Y-81419904D01*
X30004010Y-81414186D01*
X29964413Y-81377583D01*
X29960848Y-81374154D01*
X29041405Y-80454711D01*
X29007379Y-80392399D01*
X29004500Y-80365616D01*
X29004500Y-79600908D01*
X29024502Y-79532787D01*
X29078158Y-79486294D01*
X29086271Y-79482926D01*
X29090712Y-79481261D01*
X29107635Y-79474917D01*
X29114814Y-79469537D01*
X29114817Y-79469535D01*
X29210367Y-79397923D01*
X29217544Y-79392544D01*
X29232389Y-79372737D01*
X29294535Y-79289817D01*
X29294537Y-79289814D01*
X29299917Y-79282635D01*
X29304508Y-79270388D01*
X29345358Y-79161419D01*
X29345358Y-79161418D01*
X29348130Y-79154024D01*
X29354500Y-79095389D01*
X29354499Y-78554612D01*
X29354130Y-78551212D01*
X29348984Y-78503834D01*
X29348983Y-78503830D01*
X29348130Y-78495976D01*
X29303748Y-78377584D01*
X29303068Y-78375770D01*
X29303067Y-78375769D01*
X29299917Y-78367365D01*
X29294537Y-78360186D01*
X29294535Y-78360183D01*
X29248093Y-78298217D01*
X29245163Y-78294307D01*
X29220315Y-78227802D01*
X29235367Y-78158419D01*
X29279686Y-78111598D01*
X29327173Y-78082212D01*
X29338574Y-78073176D01*
X29448986Y-77962571D01*
X29457998Y-77951160D01*
X29540004Y-77818120D01*
X29546151Y-77804939D01*
X29595491Y-77656186D01*
X29598358Y-77642810D01*
X29607672Y-77551903D01*
X29607929Y-77546874D01*
X29603525Y-77531876D01*
X29602135Y-77530671D01*
X29594452Y-77529000D01*
X27660115Y-77529000D01*
X27644876Y-77533475D01*
X27643671Y-77534865D01*
X27642000Y-77542548D01*
X27642000Y-77545438D01*
X27642337Y-77551953D01*
X27651894Y-77644057D01*
X27654788Y-77657456D01*
X27704381Y-77806107D01*
X27710555Y-77819286D01*
X27792788Y-77952173D01*
X27801824Y-77963574D01*
X27912429Y-78073986D01*
X27923840Y-78082998D01*
X27970102Y-78111514D01*
X28017595Y-78164286D01*
X28029019Y-78234358D01*
X28004812Y-78294339D01*
X27955468Y-78360179D01*
X27955466Y-78360182D01*
X27950083Y-78367365D01*
X27946933Y-78375769D01*
X27946932Y-78375770D01*
X27907759Y-78480268D01*
X27901870Y-78495976D01*
X27901017Y-78503826D01*
X27901017Y-78503827D01*
X27897998Y-78531619D01*
X27895500Y-78554611D01*
X27895501Y-79095388D01*
X27895870Y-79098782D01*
X27895870Y-79098788D01*
X27900652Y-79142806D01*
X27901870Y-79154024D01*
X27950083Y-79282635D01*
X27955463Y-79289814D01*
X27955465Y-79289817D01*
X28017611Y-79372737D01*
X28032456Y-79392544D01*
X28039633Y-79397923D01*
X28135183Y-79469535D01*
X28135186Y-79469537D01*
X28142365Y-79474917D01*
X28159288Y-79481261D01*
X28163729Y-79482926D01*
X28220494Y-79525567D01*
X28245194Y-79592129D01*
X28245500Y-79600908D01*
X28245500Y-80179616D01*
X28225498Y-80247737D01*
X28171842Y-80294230D01*
X28101568Y-80304334D01*
X28036988Y-80274840D01*
X28030405Y-80268711D01*
X27130756Y-79369062D01*
X27096730Y-79306750D01*
X27101869Y-79235738D01*
X27104129Y-79229711D01*
X27114869Y-79201062D01*
X27120358Y-79186419D01*
X27120358Y-79186418D01*
X27123130Y-79179024D01*
X27125800Y-79154452D01*
X27129131Y-79123786D01*
X27129131Y-79123785D01*
X27129500Y-79120389D01*
X27129499Y-78579612D01*
X27129130Y-78576212D01*
X27123984Y-78528834D01*
X27123983Y-78528830D01*
X27123130Y-78520976D01*
X27085646Y-78420984D01*
X27078068Y-78400770D01*
X27078067Y-78400769D01*
X27074917Y-78392365D01*
X27069537Y-78385186D01*
X27069535Y-78385183D01*
X27034060Y-78337850D01*
X27020163Y-78319307D01*
X26995315Y-78252802D01*
X27010367Y-78183419D01*
X27054686Y-78136598D01*
X27102173Y-78107212D01*
X27113574Y-78098176D01*
X27223986Y-77987571D01*
X27232998Y-77976160D01*
X27315004Y-77843120D01*
X27321151Y-77829939D01*
X27370491Y-77681186D01*
X27373358Y-77667810D01*
X27382672Y-77576903D01*
X27382929Y-77571874D01*
X27378525Y-77556876D01*
X27377135Y-77555671D01*
X27369452Y-77554000D01*
X26272000Y-77554000D01*
X26203879Y-77533998D01*
X26157386Y-77480342D01*
X26146000Y-77428000D01*
X26146000Y-77027885D01*
X26654000Y-77027885D01*
X26658475Y-77043124D01*
X26659865Y-77044329D01*
X26667548Y-77046000D01*
X27364885Y-77046000D01*
X27380124Y-77041525D01*
X27381329Y-77040135D01*
X27383000Y-77032452D01*
X27383000Y-77029562D01*
X27382663Y-77023047D01*
X27380596Y-77003126D01*
X27642071Y-77003126D01*
X27646475Y-77018124D01*
X27647865Y-77019329D01*
X27655548Y-77021000D01*
X28352885Y-77021000D01*
X28368124Y-77016525D01*
X28369329Y-77015135D01*
X28371000Y-77007452D01*
X28371000Y-76335115D01*
X28366525Y-76319876D01*
X28365135Y-76318671D01*
X28357452Y-76317000D01*
X28329562Y-76317000D01*
X28323047Y-76317337D01*
X28230943Y-76326894D01*
X28217544Y-76329788D01*
X28068893Y-76379381D01*
X28055714Y-76385555D01*
X27922827Y-76467788D01*
X27911426Y-76476824D01*
X27801014Y-76587429D01*
X27792002Y-76598840D01*
X27709996Y-76731880D01*
X27703849Y-76745061D01*
X27654509Y-76893814D01*
X27651642Y-76907190D01*
X27642328Y-76998097D01*
X27642071Y-77003126D01*
X27380596Y-77003126D01*
X27373106Y-76930943D01*
X27370212Y-76917544D01*
X27320619Y-76768893D01*
X27314445Y-76755714D01*
X27232212Y-76622827D01*
X27223176Y-76611426D01*
X27112571Y-76501014D01*
X27101160Y-76492002D01*
X26968120Y-76409996D01*
X26954939Y-76403849D01*
X26806186Y-76354509D01*
X26792810Y-76351642D01*
X26701903Y-76342328D01*
X26695486Y-76342000D01*
X26672115Y-76342000D01*
X26656876Y-76346475D01*
X26655671Y-76347865D01*
X26654000Y-76355548D01*
X26654000Y-77027885D01*
X26146000Y-77027885D01*
X26146000Y-76360115D01*
X26141525Y-76344876D01*
X26140135Y-76343671D01*
X26132452Y-76342000D01*
X26104562Y-76342000D01*
X26098047Y-76342337D01*
X26005943Y-76351894D01*
X25992544Y-76354788D01*
X25843885Y-76404384D01*
X25833952Y-76409037D01*
X25763779Y-76419823D01*
X25698915Y-76390958D01*
X25659954Y-76331607D01*
X25654500Y-76294937D01*
X25654500Y-74440127D01*
X25674502Y-74372006D01*
X25728158Y-74325513D01*
X25752371Y-74317307D01*
X25840928Y-74297025D01*
X25840930Y-74297024D01*
X25848332Y-74295329D01*
X25941991Y-74248224D01*
X25983072Y-74227563D01*
X25983075Y-74227561D01*
X25989855Y-74224151D01*
X25995626Y-74219222D01*
X25995629Y-74219220D01*
X26104536Y-74126204D01*
X26104536Y-74126203D01*
X26110314Y-74121269D01*
X26202755Y-73992624D01*
X26261842Y-73845641D01*
X26284162Y-73688807D01*
X26284307Y-73675000D01*
X26283559Y-73668814D01*
X26266188Y-73525273D01*
X26265276Y-73517733D01*
X26209280Y-73369546D01*
X26130029Y-73254234D01*
X26123855Y-73245251D01*
X26123854Y-73245249D01*
X26119553Y-73238992D01*
X26001275Y-73133611D01*
X25993889Y-73129700D01*
X25867988Y-73063039D01*
X25867989Y-73063039D01*
X25861274Y-73059484D01*
X25707633Y-73020892D01*
X25700034Y-73020852D01*
X25700033Y-73020852D01*
X25634181Y-73020507D01*
X25549221Y-73020062D01*
X25541841Y-73021834D01*
X25541839Y-73021834D01*
X25402563Y-73055271D01*
X25402560Y-73055272D01*
X25395184Y-73057043D01*
X25254414Y-73129700D01*
X25135039Y-73233838D01*
X25043950Y-73363444D01*
X24986406Y-73511037D01*
X24985414Y-73518570D01*
X24985414Y-73518571D01*
X24967437Y-73655123D01*
X24965729Y-73668096D01*
X24968016Y-73688807D01*
X24973253Y-73736246D01*
X24960847Y-73806150D01*
X24946965Y-73828077D01*
X24937844Y-73839647D01*
X24934812Y-73848281D01*
X24929486Y-73855734D01*
X24926501Y-73865715D01*
X24914799Y-73904844D01*
X24912964Y-73910492D01*
X24895982Y-73958851D01*
X24895500Y-73964416D01*
X24895500Y-73967124D01*
X24895386Y-73969758D01*
X24895357Y-73969856D01*
X24895193Y-73969849D01*
X24895149Y-73970553D01*
X24893287Y-73976778D01*
X24893696Y-73987183D01*
X24895403Y-74030635D01*
X24895500Y-74035582D01*
X24895500Y-79396080D01*
X24892951Y-79420028D01*
X24892872Y-79421693D01*
X24890680Y-79431876D01*
X24891904Y-79442217D01*
X24894627Y-79465223D01*
X24894977Y-79471154D01*
X24895072Y-79471146D01*
X24895500Y-79476324D01*
X24895500Y-79481524D01*
X24896354Y-79486653D01*
X24896354Y-79486656D01*
X24898669Y-79500565D01*
X24899506Y-79506443D01*
X24902150Y-79528779D01*
X24905530Y-79557341D01*
X24909493Y-79565593D01*
X24910996Y-79574626D01*
X24915943Y-79583795D01*
X24915944Y-79583797D01*
X24935334Y-79619732D01*
X24938031Y-79625025D01*
X24956785Y-79664082D01*
X24956788Y-79664086D01*
X24960219Y-79671232D01*
X24963814Y-79675508D01*
X24965737Y-79677431D01*
X24967509Y-79679363D01*
X24967552Y-79679442D01*
X24967428Y-79679555D01*
X24967904Y-79680095D01*
X24970990Y-79685814D01*
X24978635Y-79692881D01*
X25010586Y-79722416D01*
X25014152Y-79725846D01*
X25218712Y-79930406D01*
X25252738Y-79992718D01*
X25247673Y-80063533D01*
X25205126Y-80120369D01*
X25138606Y-80145180D01*
X25129630Y-80145501D01*
X24854612Y-80145501D01*
X24851218Y-80145870D01*
X24851212Y-80145870D01*
X24803834Y-80151016D01*
X24803830Y-80151017D01*
X24795976Y-80151870D01*
X24667365Y-80200083D01*
X24660186Y-80205463D01*
X24660183Y-80205465D01*
X24575796Y-80268711D01*
X24557456Y-80282456D01*
X24552077Y-80289633D01*
X24480465Y-80385183D01*
X24480463Y-80385186D01*
X24475083Y-80392365D01*
X24426870Y-80520976D01*
X24420500Y-80579611D01*
X24420500Y-80583027D01*
X24420501Y-80990615D01*
X24400499Y-81058735D01*
X24383596Y-81079710D01*
X24119784Y-81343522D01*
X24101036Y-81358664D01*
X24099811Y-81359779D01*
X24091060Y-81365429D01*
X24084613Y-81373607D01*
X24084611Y-81373609D01*
X24070271Y-81391800D01*
X24066325Y-81396241D01*
X24066398Y-81396303D01*
X24063039Y-81400267D01*
X24059362Y-81403944D01*
X24048108Y-81419692D01*
X24044612Y-81424349D01*
X24028946Y-81444221D01*
X23971065Y-81485331D01*
X23900145Y-81488623D01*
X23838704Y-81453050D01*
X23806248Y-81389906D01*
X23804000Y-81366211D01*
X23804000Y-63887425D01*
X23806421Y-63862844D01*
X23806555Y-63862172D01*
X23808976Y-63850000D01*
X23806554Y-63837826D01*
X23806554Y-63834409D01*
X23807346Y-63820297D01*
X23816100Y-63742609D01*
X23822379Y-63715103D01*
X23853383Y-63626499D01*
X23865625Y-63601078D01*
X23915568Y-63521594D01*
X23933160Y-63499535D01*
X23999535Y-63433160D01*
X24021594Y-63415568D01*
X24101078Y-63365625D01*
X24126499Y-63353383D01*
X24215103Y-63322379D01*
X24242609Y-63316100D01*
X24276007Y-63312337D01*
X24320303Y-63307346D01*
X24334409Y-63306554D01*
X24337826Y-63306554D01*
X24350000Y-63308976D01*
X24362847Y-63306421D01*
X24387425Y-63304000D01*
X42312575Y-63304000D01*
X42337153Y-63306421D01*
G37*
G04 #@! TD.AperFunction*
G04 #@! TA.AperFunction,Conductor*
G36*
X40320069Y-77652217D02*
G01*
X40370187Y-77702503D01*
X40379022Y-77722827D01*
X40403830Y-77797187D01*
X40410004Y-77810366D01*
X40491470Y-77942014D01*
X40500506Y-77953415D01*
X40610080Y-78062798D01*
X40621491Y-78071810D01*
X40692183Y-78115385D01*
X40739676Y-78168157D01*
X40751100Y-78238229D01*
X40726893Y-78298209D01*
X40702566Y-78330670D01*
X40669977Y-78374154D01*
X40649372Y-78401647D01*
X40646222Y-78410048D01*
X40646221Y-78410051D01*
X40632163Y-78447551D01*
X40601786Y-78528581D01*
X40600933Y-78536434D01*
X40600932Y-78536438D01*
X40596242Y-78579612D01*
X40595500Y-78586447D01*
X40595501Y-79113552D01*
X40601786Y-79171419D01*
X40609804Y-79192806D01*
X40643919Y-79283806D01*
X40649372Y-79298353D01*
X40654754Y-79305535D01*
X40659065Y-79313408D01*
X40656081Y-79315041D01*
X40675164Y-79366124D01*
X40675490Y-79375178D01*
X40675490Y-83700666D01*
X40655488Y-83768787D01*
X40601832Y-83815280D01*
X40536648Y-83826010D01*
X40451904Y-83817328D01*
X40445486Y-83817000D01*
X40422115Y-83817000D01*
X40406876Y-83821475D01*
X40405671Y-83822865D01*
X40404000Y-83830548D01*
X40404000Y-84502885D01*
X40408475Y-84518124D01*
X40409865Y-84519329D01*
X40417548Y-84521000D01*
X40549490Y-84521000D01*
X40617611Y-84541002D01*
X40664104Y-84594658D01*
X40675490Y-84647000D01*
X40675490Y-84903000D01*
X40655488Y-84971121D01*
X40601832Y-85017614D01*
X40549490Y-85029000D01*
X40022000Y-85029000D01*
X39953879Y-85008998D01*
X39907386Y-84955342D01*
X39896000Y-84903000D01*
X39896000Y-83835115D01*
X39891525Y-83819876D01*
X39890135Y-83818671D01*
X39882452Y-83817000D01*
X39854562Y-83817000D01*
X39848047Y-83817337D01*
X39755943Y-83826894D01*
X39742541Y-83829789D01*
X39645375Y-83862205D01*
X39574426Y-83864789D01*
X39513342Y-83828605D01*
X39481518Y-83765141D01*
X39479500Y-83742681D01*
X39479500Y-79705499D01*
X39499502Y-79637378D01*
X39553158Y-79590885D01*
X39605500Y-79579499D01*
X39751052Y-79579499D01*
X39808919Y-79573214D01*
X39875830Y-79548130D01*
X39927449Y-79528779D01*
X39927452Y-79528778D01*
X39935853Y-79525628D01*
X40044330Y-79444330D01*
X40125628Y-79335853D01*
X40130111Y-79323897D01*
X40170440Y-79216318D01*
X40173214Y-79208919D01*
X40174965Y-79192806D01*
X40179131Y-79154452D01*
X40179131Y-79154448D01*
X40179500Y-79151053D01*
X40179499Y-78623948D01*
X40173214Y-78566081D01*
X40149876Y-78503827D01*
X40128779Y-78447551D01*
X40128778Y-78447548D01*
X40125628Y-78439147D01*
X40044330Y-78330670D01*
X39935853Y-78249372D01*
X39927452Y-78246222D01*
X39927449Y-78246221D01*
X39852121Y-78217982D01*
X39795357Y-78175340D01*
X39770657Y-78108779D01*
X39785865Y-78039430D01*
X39836151Y-77989312D01*
X39852121Y-77982018D01*
X39858841Y-77979499D01*
X39886932Y-77968968D01*
X39927449Y-77953779D01*
X39927452Y-77953778D01*
X39935853Y-77950628D01*
X40044330Y-77869330D01*
X40125628Y-77760853D01*
X40141516Y-77718472D01*
X40184158Y-77661708D01*
X40250720Y-77637009D01*
X40320069Y-77652217D01*
G37*
G04 #@! TD.AperFunction*
G04 #@! TA.AperFunction,Conductor*
G36*
X35856065Y-79410239D02*
G01*
X35935180Y-79469533D01*
X35935185Y-79469535D01*
X35942365Y-79474917D01*
X35950769Y-79478067D01*
X35950770Y-79478068D01*
X36063581Y-79520358D01*
X36063582Y-79520358D01*
X36070976Y-79523130D01*
X36078826Y-79523983D01*
X36078827Y-79523983D01*
X36122974Y-79528779D01*
X36129611Y-79529500D01*
X36158066Y-79529500D01*
X36540615Y-79529499D01*
X36608735Y-79549501D01*
X36629710Y-79566404D01*
X37183595Y-80120289D01*
X37217621Y-80182601D01*
X37220500Y-80209384D01*
X37220500Y-82729616D01*
X37200498Y-82797737D01*
X37146842Y-82844230D01*
X37076568Y-82854334D01*
X37011988Y-82824840D01*
X37005405Y-82818711D01*
X36966405Y-82779711D01*
X36932379Y-82717399D01*
X36929500Y-82690616D01*
X36929499Y-82283030D01*
X36929499Y-82279612D01*
X36929130Y-82276212D01*
X36923984Y-82228834D01*
X36923983Y-82228830D01*
X36923130Y-82220976D01*
X36874917Y-82092365D01*
X36869537Y-82085186D01*
X36869535Y-82085183D01*
X36797923Y-81989633D01*
X36792544Y-81982456D01*
X36745500Y-81947198D01*
X36689817Y-81905465D01*
X36689814Y-81905463D01*
X36682635Y-81900083D01*
X36635614Y-81882456D01*
X36561419Y-81854642D01*
X36561418Y-81854642D01*
X36554024Y-81851870D01*
X36546174Y-81851017D01*
X36546173Y-81851017D01*
X36498786Y-81845869D01*
X36498785Y-81845869D01*
X36495389Y-81845500D01*
X36200044Y-81845500D01*
X35904612Y-81845501D01*
X35901218Y-81845870D01*
X35901212Y-81845870D01*
X35853834Y-81851016D01*
X35853830Y-81851017D01*
X35845976Y-81851870D01*
X35824729Y-81859835D01*
X35753922Y-81865018D01*
X35691553Y-81831097D01*
X35657424Y-81768841D01*
X35654500Y-81741853D01*
X35654500Y-79511065D01*
X35674502Y-79442944D01*
X35728158Y-79396451D01*
X35798432Y-79386347D01*
X35856065Y-79410239D01*
G37*
G04 #@! TD.AperFunction*
G04 #@! TA.AperFunction,Conductor*
G36*
X33013012Y-79335680D02*
G01*
X33048482Y-79386676D01*
X33069576Y-79442944D01*
X33075083Y-79457635D01*
X33080463Y-79464814D01*
X33080465Y-79464817D01*
X33138311Y-79541999D01*
X33157456Y-79567544D01*
X33164633Y-79572923D01*
X33260183Y-79644535D01*
X33260186Y-79644537D01*
X33267365Y-79649917D01*
X33275769Y-79653067D01*
X33275770Y-79653068D01*
X33388581Y-79695358D01*
X33388582Y-79695358D01*
X33395976Y-79698130D01*
X33403826Y-79698983D01*
X33403827Y-79698983D01*
X33451214Y-79704131D01*
X33454611Y-79704500D01*
X33483066Y-79704500D01*
X33865615Y-79704499D01*
X33933735Y-79724501D01*
X33954710Y-79741404D01*
X34383595Y-80170289D01*
X34417621Y-80232601D01*
X34420500Y-80259384D01*
X34420500Y-82654616D01*
X34400498Y-82722737D01*
X34346842Y-82769230D01*
X34276568Y-82779334D01*
X34211988Y-82749840D01*
X34205405Y-82743711D01*
X34141405Y-82679711D01*
X34107379Y-82617399D01*
X34104500Y-82590616D01*
X34104499Y-82183030D01*
X34104499Y-82179612D01*
X34103337Y-82168914D01*
X34098984Y-82128834D01*
X34098983Y-82128830D01*
X34098130Y-82120976D01*
X34049917Y-81992365D01*
X34044537Y-81985186D01*
X34044535Y-81985183D01*
X33972923Y-81889633D01*
X33967544Y-81882456D01*
X33960367Y-81877077D01*
X33864817Y-81805465D01*
X33864814Y-81805463D01*
X33857635Y-81800083D01*
X33849230Y-81796932D01*
X33736419Y-81754642D01*
X33736418Y-81754642D01*
X33729024Y-81751870D01*
X33721174Y-81751017D01*
X33721173Y-81751017D01*
X33673786Y-81745869D01*
X33673785Y-81745869D01*
X33670389Y-81745500D01*
X33375044Y-81745500D01*
X33079612Y-81745501D01*
X33076218Y-81745870D01*
X33076212Y-81745870D01*
X33028834Y-81751016D01*
X33028830Y-81751017D01*
X33020976Y-81751870D01*
X32975705Y-81768841D01*
X32974729Y-81769207D01*
X32903922Y-81774390D01*
X32841553Y-81740469D01*
X32807424Y-81678213D01*
X32804500Y-81651225D01*
X32804500Y-79430904D01*
X32824502Y-79362783D01*
X32878158Y-79316290D01*
X32948432Y-79306186D01*
X33013012Y-79335680D01*
G37*
G04 #@! TD.AperFunction*
M02*
