G04 #@! TF.GenerationSoftware,KiCad,Pcbnew,6.0.2+dfsg-1*
G04 #@! TF.CreationDate,2022-09-12T16:47:43+08:00*
G04 #@! TF.ProjectId,epaper-102,65706170-6572-42d3-9130-322e6b696361,rev?*
G04 #@! TF.SameCoordinates,Original*
G04 #@! TF.FileFunction,Legend,Bot*
G04 #@! TF.FilePolarity,Positive*
%FSLAX46Y46*%
G04 Gerber Fmt 4.6, Leading zero omitted, Abs format (unit mm)*
G04 Created by KiCad (PCBNEW 6.0.2+dfsg-1) date 2022-09-12 16:47:43*
%MOMM*%
%LPD*%
G01*
G04 APERTURE LIST*
G04 Aperture macros list*
%AMRoundRect*
0 Rectangle with rounded corners*
0 $1 Rounding radius*
0 $2 $3 $4 $5 $6 $7 $8 $9 X,Y pos of 4 corners*
0 Add a 4 corners polygon primitive as box body*
4,1,4,$2,$3,$4,$5,$6,$7,$8,$9,$2,$3,0*
0 Add four circle primitives for the rounded corners*
1,1,$1+$1,$2,$3*
1,1,$1+$1,$4,$5*
1,1,$1+$1,$6,$7*
1,1,$1+$1,$8,$9*
0 Add four rect primitives between the rounded corners*
20,1,$1+$1,$2,$3,$4,$5,0*
20,1,$1+$1,$4,$5,$6,$7,0*
20,1,$1+$1,$6,$7,$8,$9,0*
20,1,$1+$1,$8,$9,$2,$3,0*%
G04 Aperture macros list end*
%ADD10C,0.153000*%
%ADD11C,0.150000*%
%ADD12C,0.120000*%
%ADD13C,1.200000*%
%ADD14R,1.200000X1.200000*%
%ADD15O,1.200000X1.200000*%
%ADD16RoundRect,0.225000X-0.250000X0.225000X-0.250000X-0.225000X0.250000X-0.225000X0.250000X0.225000X0*%
%ADD17RoundRect,0.218750X0.256250X-0.218750X0.256250X0.218750X-0.256250X0.218750X-0.256250X-0.218750X0*%
%ADD18RoundRect,0.218750X-0.256250X0.218750X-0.256250X-0.218750X0.256250X-0.218750X0.256250X0.218750X0*%
%ADD19R,0.900000X1.200000*%
%ADD20R,0.300000X1.300000*%
%ADD21R,1.000000X1.500000*%
G04 APERTURE END LIST*
D10*
X29809523Y-64446095D02*
X30304761Y-64446095D01*
X30038095Y-64141333D01*
X30152380Y-64141333D01*
X30228571Y-64103238D01*
X30266666Y-64065142D01*
X30304761Y-63988952D01*
X30304761Y-63798476D01*
X30266666Y-63722285D01*
X30228571Y-63684190D01*
X30152380Y-63646095D01*
X29923809Y-63646095D01*
X29847619Y-63684190D01*
X29809523Y-63722285D01*
X30533333Y-64446095D02*
X30800000Y-63646095D01*
X31066666Y-64446095D01*
X31257142Y-64446095D02*
X31752380Y-64446095D01*
X31485714Y-64141333D01*
X31599999Y-64141333D01*
X31676190Y-64103238D01*
X31714285Y-64065142D01*
X31752380Y-63988952D01*
X31752380Y-63798476D01*
X31714285Y-63722285D01*
X31676190Y-63684190D01*
X31599999Y-63646095D01*
X31371428Y-63646095D01*
X31295238Y-63684190D01*
X31257142Y-63722285D01*
X40227333Y-64065142D02*
X40341619Y-64027047D01*
X40379714Y-63988952D01*
X40417809Y-63912761D01*
X40417809Y-63798476D01*
X40379714Y-63722285D01*
X40341619Y-63684190D01*
X40265428Y-63646095D01*
X39960666Y-63646095D01*
X39960666Y-64446095D01*
X40227333Y-64446095D01*
X40303523Y-64408000D01*
X40341619Y-64369904D01*
X40379714Y-64293714D01*
X40379714Y-64217523D01*
X40341619Y-64141333D01*
X40303523Y-64103238D01*
X40227333Y-64065142D01*
X39960666Y-64065142D01*
X40722571Y-63684190D02*
X40836857Y-63646095D01*
X41027333Y-63646095D01*
X41103523Y-63684190D01*
X41141619Y-63722285D01*
X41179714Y-63798476D01*
X41179714Y-63874666D01*
X41141619Y-63950857D01*
X41103523Y-63988952D01*
X41027333Y-64027047D01*
X40874952Y-64065142D01*
X40798761Y-64103238D01*
X40760666Y-64141333D01*
X40722571Y-64217523D01*
X40722571Y-64293714D01*
X40760666Y-64369904D01*
X40798761Y-64408000D01*
X40874952Y-64446095D01*
X41065428Y-64446095D01*
X41179714Y-64408000D01*
X41674952Y-64027047D02*
X41674952Y-63646095D01*
X41408285Y-64446095D02*
X41674952Y-64027047D01*
X41941619Y-64446095D01*
X33140666Y-63714285D02*
X33102571Y-63676190D01*
X32988285Y-63638095D01*
X32912095Y-63638095D01*
X32797809Y-63676190D01*
X32721619Y-63752380D01*
X32683523Y-63828571D01*
X32645428Y-63980952D01*
X32645428Y-64095238D01*
X32683523Y-64247619D01*
X32721619Y-64323809D01*
X32797809Y-64400000D01*
X32912095Y-64438095D01*
X32988285Y-64438095D01*
X33102571Y-64400000D01*
X33140666Y-64361904D01*
X33445428Y-63676190D02*
X33559714Y-63638095D01*
X33750190Y-63638095D01*
X33826380Y-63676190D01*
X33864476Y-63714285D01*
X33902571Y-63790476D01*
X33902571Y-63866666D01*
X33864476Y-63942857D01*
X33826380Y-63980952D01*
X33750190Y-64019047D01*
X33597809Y-64057142D01*
X33521619Y-64095238D01*
X33483523Y-64133333D01*
X33445428Y-64209523D01*
X33445428Y-64285714D01*
X33483523Y-64361904D01*
X33521619Y-64400000D01*
X33597809Y-64438095D01*
X33788285Y-64438095D01*
X33902571Y-64400000D01*
X25044476Y-63646095D02*
X25044476Y-64446095D01*
X25234952Y-64446095D01*
X25349238Y-64408000D01*
X25425428Y-64331809D01*
X25463523Y-64255619D01*
X25501619Y-64103238D01*
X25501619Y-63988952D01*
X25463523Y-63836571D01*
X25425428Y-63760380D01*
X25349238Y-63684190D01*
X25234952Y-63646095D01*
X25044476Y-63646095D01*
X26301619Y-63722285D02*
X26263523Y-63684190D01*
X26149238Y-63646095D01*
X26073047Y-63646095D01*
X25958761Y-63684190D01*
X25882571Y-63760380D01*
X25844476Y-63836571D01*
X25806380Y-63988952D01*
X25806380Y-64103238D01*
X25844476Y-64255619D01*
X25882571Y-64331809D01*
X25958761Y-64408000D01*
X26073047Y-64446095D01*
X26149238Y-64446095D01*
X26263523Y-64408000D01*
X26301619Y-64369904D01*
X27584476Y-64400000D02*
X27508285Y-64438095D01*
X27394000Y-64438095D01*
X27279714Y-64400000D01*
X27203523Y-64323809D01*
X27165428Y-64247619D01*
X27127333Y-64095238D01*
X27127333Y-63980952D01*
X27165428Y-63828571D01*
X27203523Y-63752380D01*
X27279714Y-63676190D01*
X27394000Y-63638095D01*
X27470190Y-63638095D01*
X27584476Y-63676190D01*
X27622571Y-63714285D01*
X27622571Y-63980952D01*
X27470190Y-63980952D01*
X27965428Y-63638095D02*
X27965428Y-64438095D01*
X28422571Y-63638095D01*
X28422571Y-64438095D01*
X28803523Y-63638095D02*
X28803523Y-64438095D01*
X28994000Y-64438095D01*
X29108285Y-64400000D01*
X29184476Y-64323809D01*
X29222571Y-64247619D01*
X29260666Y-64095238D01*
X29260666Y-63980952D01*
X29222571Y-63828571D01*
X29184476Y-63752380D01*
X29108285Y-63676190D01*
X28994000Y-63638095D01*
X28803523Y-63638095D01*
X34994952Y-63646095D02*
X34994952Y-64446095D01*
X35185428Y-64446095D01*
X35299714Y-64408000D01*
X35375904Y-64331809D01*
X35414000Y-64255619D01*
X35452095Y-64103238D01*
X35452095Y-63988952D01*
X35414000Y-63836571D01*
X35375904Y-63760380D01*
X35299714Y-63684190D01*
X35185428Y-63646095D01*
X34994952Y-63646095D01*
X35794952Y-63646095D02*
X35794952Y-64446095D01*
X36175904Y-63646095D02*
X36175904Y-64446095D01*
X36633047Y-63646095D01*
X36633047Y-64446095D01*
X37877809Y-63714285D02*
X37839714Y-63676190D01*
X37725428Y-63638095D01*
X37649238Y-63638095D01*
X37534952Y-63676190D01*
X37458761Y-63752380D01*
X37420666Y-63828571D01*
X37382571Y-63980952D01*
X37382571Y-64095238D01*
X37420666Y-64247619D01*
X37458761Y-64323809D01*
X37534952Y-64400000D01*
X37649238Y-64438095D01*
X37725428Y-64438095D01*
X37839714Y-64400000D01*
X37877809Y-64361904D01*
X38601619Y-63638095D02*
X38220666Y-63638095D01*
X38220666Y-64438095D01*
X38868285Y-63638095D02*
X38868285Y-64438095D01*
X39325428Y-63638095D02*
X38982571Y-64095238D01*
X39325428Y-64438095D02*
X38868285Y-63980952D01*
D11*
X28360714Y-81716666D02*
X28398809Y-81678571D01*
X28436904Y-81564285D01*
X28436904Y-81488095D01*
X28398809Y-81373809D01*
X28322619Y-81297619D01*
X28246428Y-81259523D01*
X28094047Y-81221428D01*
X27979761Y-81221428D01*
X27827380Y-81259523D01*
X27751190Y-81297619D01*
X27675000Y-81373809D01*
X27636904Y-81488095D01*
X27636904Y-81564285D01*
X27675000Y-81678571D01*
X27713095Y-81716666D01*
X28436904Y-82478571D02*
X28436904Y-82021428D01*
X28436904Y-82250000D02*
X27636904Y-82250000D01*
X27751190Y-82173809D01*
X27827380Y-82097619D01*
X27865476Y-82021428D01*
X25610714Y-87866666D02*
X25648809Y-87828571D01*
X25686904Y-87714285D01*
X25686904Y-87638095D01*
X25648809Y-87523809D01*
X25572619Y-87447619D01*
X25496428Y-87409523D01*
X25344047Y-87371428D01*
X25229761Y-87371428D01*
X25077380Y-87409523D01*
X25001190Y-87447619D01*
X24925000Y-87523809D01*
X24886904Y-87638095D01*
X24886904Y-87714285D01*
X24925000Y-87828571D01*
X24963095Y-87866666D01*
X24963095Y-88171428D02*
X24925000Y-88209523D01*
X24886904Y-88285714D01*
X24886904Y-88476190D01*
X24925000Y-88552380D01*
X24963095Y-88590476D01*
X25039285Y-88628571D01*
X25115476Y-88628571D01*
X25229761Y-88590476D01*
X25686904Y-88133333D01*
X25686904Y-88628571D01*
X28710714Y-87916666D02*
X28748809Y-87878571D01*
X28786904Y-87764285D01*
X28786904Y-87688095D01*
X28748809Y-87573809D01*
X28672619Y-87497619D01*
X28596428Y-87459523D01*
X28444047Y-87421428D01*
X28329761Y-87421428D01*
X28177380Y-87459523D01*
X28101190Y-87497619D01*
X28025000Y-87573809D01*
X27986904Y-87688095D01*
X27986904Y-87764285D01*
X28025000Y-87878571D01*
X28063095Y-87916666D01*
X27986904Y-88183333D02*
X27986904Y-88678571D01*
X28291666Y-88411904D01*
X28291666Y-88526190D01*
X28329761Y-88602380D01*
X28367857Y-88640476D01*
X28444047Y-88678571D01*
X28634523Y-88678571D01*
X28710714Y-88640476D01*
X28748809Y-88602380D01*
X28786904Y-88526190D01*
X28786904Y-88297619D01*
X28748809Y-88221428D01*
X28710714Y-88183333D01*
X26710714Y-75666666D02*
X26748809Y-75628571D01*
X26786904Y-75514285D01*
X26786904Y-75438095D01*
X26748809Y-75323809D01*
X26672619Y-75247619D01*
X26596428Y-75209523D01*
X26444047Y-75171428D01*
X26329761Y-75171428D01*
X26177380Y-75209523D01*
X26101190Y-75247619D01*
X26025000Y-75323809D01*
X25986904Y-75438095D01*
X25986904Y-75514285D01*
X26025000Y-75628571D01*
X26063095Y-75666666D01*
X26253571Y-76352380D02*
X26786904Y-76352380D01*
X25948809Y-76161904D02*
X26520238Y-75971428D01*
X26520238Y-76466666D01*
X28885714Y-75691666D02*
X28923809Y-75653571D01*
X28961904Y-75539285D01*
X28961904Y-75463095D01*
X28923809Y-75348809D01*
X28847619Y-75272619D01*
X28771428Y-75234523D01*
X28619047Y-75196428D01*
X28504761Y-75196428D01*
X28352380Y-75234523D01*
X28276190Y-75272619D01*
X28200000Y-75348809D01*
X28161904Y-75463095D01*
X28161904Y-75539285D01*
X28200000Y-75653571D01*
X28238095Y-75691666D01*
X28161904Y-76415476D02*
X28161904Y-76034523D01*
X28542857Y-75996428D01*
X28504761Y-76034523D01*
X28466666Y-76110714D01*
X28466666Y-76301190D01*
X28504761Y-76377380D01*
X28542857Y-76415476D01*
X28619047Y-76453571D01*
X28809523Y-76453571D01*
X28885714Y-76415476D01*
X28923809Y-76377380D01*
X28961904Y-76301190D01*
X28961904Y-76110714D01*
X28923809Y-76034523D01*
X28885714Y-75996428D01*
X31410714Y-75691666D02*
X31448809Y-75653571D01*
X31486904Y-75539285D01*
X31486904Y-75463095D01*
X31448809Y-75348809D01*
X31372619Y-75272619D01*
X31296428Y-75234523D01*
X31144047Y-75196428D01*
X31029761Y-75196428D01*
X30877380Y-75234523D01*
X30801190Y-75272619D01*
X30725000Y-75348809D01*
X30686904Y-75463095D01*
X30686904Y-75539285D01*
X30725000Y-75653571D01*
X30763095Y-75691666D01*
X30686904Y-76377380D02*
X30686904Y-76225000D01*
X30725000Y-76148809D01*
X30763095Y-76110714D01*
X30877380Y-76034523D01*
X31029761Y-75996428D01*
X31334523Y-75996428D01*
X31410714Y-76034523D01*
X31448809Y-76072619D01*
X31486904Y-76148809D01*
X31486904Y-76301190D01*
X31448809Y-76377380D01*
X31410714Y-76415476D01*
X31334523Y-76453571D01*
X31144047Y-76453571D01*
X31067857Y-76415476D01*
X31029761Y-76377380D01*
X30991666Y-76301190D01*
X30991666Y-76148809D01*
X31029761Y-76072619D01*
X31067857Y-76034523D01*
X31144047Y-75996428D01*
X31085714Y-86716666D02*
X31123809Y-86678571D01*
X31161904Y-86564285D01*
X31161904Y-86488095D01*
X31123809Y-86373809D01*
X31047619Y-86297619D01*
X30971428Y-86259523D01*
X30819047Y-86221428D01*
X30704761Y-86221428D01*
X30552380Y-86259523D01*
X30476190Y-86297619D01*
X30400000Y-86373809D01*
X30361904Y-86488095D01*
X30361904Y-86564285D01*
X30400000Y-86678571D01*
X30438095Y-86716666D01*
X30361904Y-86983333D02*
X30361904Y-87516666D01*
X31161904Y-87173809D01*
X33760714Y-85666666D02*
X33798809Y-85628571D01*
X33836904Y-85514285D01*
X33836904Y-85438095D01*
X33798809Y-85323809D01*
X33722619Y-85247619D01*
X33646428Y-85209523D01*
X33494047Y-85171428D01*
X33379761Y-85171428D01*
X33227380Y-85209523D01*
X33151190Y-85247619D01*
X33075000Y-85323809D01*
X33036904Y-85438095D01*
X33036904Y-85514285D01*
X33075000Y-85628571D01*
X33113095Y-85666666D01*
X33379761Y-86123809D02*
X33341666Y-86047619D01*
X33303571Y-86009523D01*
X33227380Y-85971428D01*
X33189285Y-85971428D01*
X33113095Y-86009523D01*
X33075000Y-86047619D01*
X33036904Y-86123809D01*
X33036904Y-86276190D01*
X33075000Y-86352380D01*
X33113095Y-86390476D01*
X33189285Y-86428571D01*
X33227380Y-86428571D01*
X33303571Y-86390476D01*
X33341666Y-86352380D01*
X33379761Y-86276190D01*
X33379761Y-86123809D01*
X33417857Y-86047619D01*
X33455952Y-86009523D01*
X33532142Y-85971428D01*
X33684523Y-85971428D01*
X33760714Y-86009523D01*
X33798809Y-86047619D01*
X33836904Y-86123809D01*
X33836904Y-86276190D01*
X33798809Y-86352380D01*
X33760714Y-86390476D01*
X33684523Y-86428571D01*
X33532142Y-86428571D01*
X33455952Y-86390476D01*
X33417857Y-86352380D01*
X33379761Y-86276190D01*
X34060714Y-75691666D02*
X34098809Y-75653571D01*
X34136904Y-75539285D01*
X34136904Y-75463095D01*
X34098809Y-75348809D01*
X34022619Y-75272619D01*
X33946428Y-75234523D01*
X33794047Y-75196428D01*
X33679761Y-75196428D01*
X33527380Y-75234523D01*
X33451190Y-75272619D01*
X33375000Y-75348809D01*
X33336904Y-75463095D01*
X33336904Y-75539285D01*
X33375000Y-75653571D01*
X33413095Y-75691666D01*
X34136904Y-76072619D02*
X34136904Y-76225000D01*
X34098809Y-76301190D01*
X34060714Y-76339285D01*
X33946428Y-76415476D01*
X33794047Y-76453571D01*
X33489285Y-76453571D01*
X33413095Y-76415476D01*
X33375000Y-76377380D01*
X33336904Y-76301190D01*
X33336904Y-76148809D01*
X33375000Y-76072619D01*
X33413095Y-76034523D01*
X33489285Y-75996428D01*
X33679761Y-75996428D01*
X33755952Y-76034523D01*
X33794047Y-76072619D01*
X33832142Y-76148809D01*
X33832142Y-76301190D01*
X33794047Y-76377380D01*
X33755952Y-76415476D01*
X33679761Y-76453571D01*
X36535714Y-85810714D02*
X36573809Y-85772619D01*
X36611904Y-85658333D01*
X36611904Y-85582142D01*
X36573809Y-85467857D01*
X36497619Y-85391666D01*
X36421428Y-85353571D01*
X36269047Y-85315476D01*
X36154761Y-85315476D01*
X36002380Y-85353571D01*
X35926190Y-85391666D01*
X35850000Y-85467857D01*
X35811904Y-85582142D01*
X35811904Y-85658333D01*
X35850000Y-85772619D01*
X35888095Y-85810714D01*
X36611904Y-86572619D02*
X36611904Y-86115476D01*
X36611904Y-86344047D02*
X35811904Y-86344047D01*
X35926190Y-86267857D01*
X36002380Y-86191666D01*
X36040476Y-86115476D01*
X35811904Y-87067857D02*
X35811904Y-87144047D01*
X35850000Y-87220238D01*
X35888095Y-87258333D01*
X35964285Y-87296428D01*
X36116666Y-87334523D01*
X36307142Y-87334523D01*
X36459523Y-87296428D01*
X36535714Y-87258333D01*
X36573809Y-87220238D01*
X36611904Y-87144047D01*
X36611904Y-87067857D01*
X36573809Y-86991666D01*
X36535714Y-86953571D01*
X36459523Y-86915476D01*
X36307142Y-86877380D01*
X36116666Y-86877380D01*
X35964285Y-86915476D01*
X35888095Y-86953571D01*
X35850000Y-86991666D01*
X35811904Y-87067857D01*
X36610714Y-74885714D02*
X36648809Y-74847619D01*
X36686904Y-74733333D01*
X36686904Y-74657142D01*
X36648809Y-74542857D01*
X36572619Y-74466666D01*
X36496428Y-74428571D01*
X36344047Y-74390476D01*
X36229761Y-74390476D01*
X36077380Y-74428571D01*
X36001190Y-74466666D01*
X35925000Y-74542857D01*
X35886904Y-74657142D01*
X35886904Y-74733333D01*
X35925000Y-74847619D01*
X35963095Y-74885714D01*
X36686904Y-75647619D02*
X36686904Y-75190476D01*
X36686904Y-75419047D02*
X35886904Y-75419047D01*
X36001190Y-75342857D01*
X36077380Y-75266666D01*
X36115476Y-75190476D01*
X36686904Y-76409523D02*
X36686904Y-75952380D01*
X36686904Y-76180952D02*
X35886904Y-76180952D01*
X36001190Y-76104761D01*
X36077380Y-76028571D01*
X36115476Y-75952380D01*
X39685714Y-74935714D02*
X39723809Y-74897619D01*
X39761904Y-74783333D01*
X39761904Y-74707142D01*
X39723809Y-74592857D01*
X39647619Y-74516666D01*
X39571428Y-74478571D01*
X39419047Y-74440476D01*
X39304761Y-74440476D01*
X39152380Y-74478571D01*
X39076190Y-74516666D01*
X39000000Y-74592857D01*
X38961904Y-74707142D01*
X38961904Y-74783333D01*
X39000000Y-74897619D01*
X39038095Y-74935714D01*
X39761904Y-75697619D02*
X39761904Y-75240476D01*
X39761904Y-75469047D02*
X38961904Y-75469047D01*
X39076190Y-75392857D01*
X39152380Y-75316666D01*
X39190476Y-75240476D01*
X39038095Y-76002380D02*
X39000000Y-76040476D01*
X38961904Y-76116666D01*
X38961904Y-76307142D01*
X39000000Y-76383333D01*
X39038095Y-76421428D01*
X39114285Y-76459523D01*
X39190476Y-76459523D01*
X39304761Y-76421428D01*
X39761904Y-75964285D01*
X39761904Y-76459523D01*
X40460714Y-82310714D02*
X40498809Y-82272619D01*
X40536904Y-82158333D01*
X40536904Y-82082142D01*
X40498809Y-81967857D01*
X40422619Y-81891666D01*
X40346428Y-81853571D01*
X40194047Y-81815476D01*
X40079761Y-81815476D01*
X39927380Y-81853571D01*
X39851190Y-81891666D01*
X39775000Y-81967857D01*
X39736904Y-82082142D01*
X39736904Y-82158333D01*
X39775000Y-82272619D01*
X39813095Y-82310714D01*
X40536904Y-83072619D02*
X40536904Y-82615476D01*
X40536904Y-82844047D02*
X39736904Y-82844047D01*
X39851190Y-82767857D01*
X39927380Y-82691666D01*
X39965476Y-82615476D01*
X39736904Y-83339285D02*
X39736904Y-83834523D01*
X40041666Y-83567857D01*
X40041666Y-83682142D01*
X40079761Y-83758333D01*
X40117857Y-83796428D01*
X40194047Y-83834523D01*
X40384523Y-83834523D01*
X40460714Y-83796428D01*
X40498809Y-83758333D01*
X40536904Y-83682142D01*
X40536904Y-83453571D01*
X40498809Y-83377380D01*
X40460714Y-83339285D01*
X41635714Y-74898214D02*
X41673809Y-74860119D01*
X41711904Y-74745833D01*
X41711904Y-74669642D01*
X41673809Y-74555357D01*
X41597619Y-74479166D01*
X41521428Y-74441071D01*
X41369047Y-74402976D01*
X41254761Y-74402976D01*
X41102380Y-74441071D01*
X41026190Y-74479166D01*
X40950000Y-74555357D01*
X40911904Y-74669642D01*
X40911904Y-74745833D01*
X40950000Y-74860119D01*
X40988095Y-74898214D01*
X41711904Y-75660119D02*
X41711904Y-75202976D01*
X41711904Y-75431547D02*
X40911904Y-75431547D01*
X41026190Y-75355357D01*
X41102380Y-75279166D01*
X41140476Y-75202976D01*
X41178571Y-76345833D02*
X41711904Y-76345833D01*
X40873809Y-76155357D02*
X41445238Y-75964880D01*
X41445238Y-76460119D01*
X42310714Y-82385714D02*
X42348809Y-82347619D01*
X42386904Y-82233333D01*
X42386904Y-82157142D01*
X42348809Y-82042857D01*
X42272619Y-81966666D01*
X42196428Y-81928571D01*
X42044047Y-81890476D01*
X41929761Y-81890476D01*
X41777380Y-81928571D01*
X41701190Y-81966666D01*
X41625000Y-82042857D01*
X41586904Y-82157142D01*
X41586904Y-82233333D01*
X41625000Y-82347619D01*
X41663095Y-82385714D01*
X42386904Y-83147619D02*
X42386904Y-82690476D01*
X42386904Y-82919047D02*
X41586904Y-82919047D01*
X41701190Y-82842857D01*
X41777380Y-82766666D01*
X41815476Y-82690476D01*
X41586904Y-83871428D02*
X41586904Y-83490476D01*
X41967857Y-83452380D01*
X41929761Y-83490476D01*
X41891666Y-83566666D01*
X41891666Y-83757142D01*
X41929761Y-83833333D01*
X41967857Y-83871428D01*
X42044047Y-83909523D01*
X42234523Y-83909523D01*
X42310714Y-83871428D01*
X42348809Y-83833333D01*
X42386904Y-83757142D01*
X42386904Y-83566666D01*
X42348809Y-83490476D01*
X42310714Y-83452380D01*
X33765476Y-71036904D02*
X33765476Y-70236904D01*
X33575000Y-70236904D01*
X33460714Y-70275000D01*
X33384523Y-70351190D01*
X33346428Y-70427380D01*
X33308333Y-70579761D01*
X33308333Y-70694047D01*
X33346428Y-70846428D01*
X33384523Y-70922619D01*
X33460714Y-70998809D01*
X33575000Y-71036904D01*
X33765476Y-71036904D01*
X32546428Y-71036904D02*
X33003571Y-71036904D01*
X32775000Y-71036904D02*
X32775000Y-70236904D01*
X32851190Y-70351190D01*
X32927380Y-70427380D01*
X33003571Y-70465476D01*
X33933333Y-96727380D02*
X33933333Y-97441666D01*
X33980952Y-97584523D01*
X34076190Y-97679761D01*
X34219047Y-97727380D01*
X34314285Y-97727380D01*
X32933333Y-97727380D02*
X33504761Y-97727380D01*
X33219047Y-97727380D02*
X33219047Y-96727380D01*
X33314285Y-96870238D01*
X33409523Y-96965476D01*
X33504761Y-97013095D01*
X24385714Y-81135714D02*
X24423809Y-81097619D01*
X24461904Y-80983333D01*
X24461904Y-80907142D01*
X24423809Y-80792857D01*
X24347619Y-80716666D01*
X24271428Y-80678571D01*
X24119047Y-80640476D01*
X24004761Y-80640476D01*
X23852380Y-80678571D01*
X23776190Y-80716666D01*
X23700000Y-80792857D01*
X23661904Y-80907142D01*
X23661904Y-80983333D01*
X23700000Y-81097619D01*
X23738095Y-81135714D01*
X24461904Y-81897619D02*
X24461904Y-81440476D01*
X24461904Y-81669047D02*
X23661904Y-81669047D01*
X23776190Y-81592857D01*
X23852380Y-81516666D01*
X23890476Y-81440476D01*
X23661904Y-82583333D02*
X23661904Y-82430952D01*
X23700000Y-82354761D01*
X23738095Y-82316666D01*
X23852380Y-82240476D01*
X24004761Y-82202380D01*
X24309523Y-82202380D01*
X24385714Y-82240476D01*
X24423809Y-82278571D01*
X24461904Y-82354761D01*
X24461904Y-82507142D01*
X24423809Y-82583333D01*
X24385714Y-82621428D01*
X24309523Y-82659523D01*
X24119047Y-82659523D01*
X24042857Y-82621428D01*
X24004761Y-82583333D01*
X23966666Y-82507142D01*
X23966666Y-82354761D01*
X24004761Y-82278571D01*
X24042857Y-82240476D01*
X24119047Y-82202380D01*
X27110714Y-87885714D02*
X27148809Y-87847619D01*
X27186904Y-87733333D01*
X27186904Y-87657142D01*
X27148809Y-87542857D01*
X27072619Y-87466666D01*
X26996428Y-87428571D01*
X26844047Y-87390476D01*
X26729761Y-87390476D01*
X26577380Y-87428571D01*
X26501190Y-87466666D01*
X26425000Y-87542857D01*
X26386904Y-87657142D01*
X26386904Y-87733333D01*
X26425000Y-87847619D01*
X26463095Y-87885714D01*
X27186904Y-88647619D02*
X27186904Y-88190476D01*
X27186904Y-88419047D02*
X26386904Y-88419047D01*
X26501190Y-88342857D01*
X26577380Y-88266666D01*
X26615476Y-88190476D01*
X26386904Y-88914285D02*
X26386904Y-89447619D01*
X27186904Y-89104761D01*
D12*
X26190000Y-81509420D02*
X26190000Y-81790580D01*
X27210000Y-81509420D02*
X27210000Y-81790580D01*
X24765000Y-85609420D02*
X24765000Y-85890580D01*
X25785000Y-85609420D02*
X25785000Y-85890580D01*
X28885000Y-85634420D02*
X28885000Y-85915580D01*
X27865000Y-85634420D02*
X27865000Y-85915580D01*
X25890000Y-77934420D02*
X25890000Y-78215580D01*
X26910000Y-77934420D02*
X26910000Y-78215580D01*
X28115000Y-77909420D02*
X28115000Y-78190580D01*
X29135000Y-77909420D02*
X29135000Y-78190580D01*
X31685000Y-78034420D02*
X31685000Y-78315580D01*
X30665000Y-78034420D02*
X30665000Y-78315580D01*
X30115000Y-84184420D02*
X30115000Y-84465580D01*
X31135000Y-84184420D02*
X31135000Y-84465580D01*
X32865000Y-83084420D02*
X32865000Y-83365580D01*
X33885000Y-83084420D02*
X33885000Y-83365580D01*
X34260000Y-78084420D02*
X34260000Y-78365580D01*
X33240000Y-78084420D02*
X33240000Y-78365580D01*
X35690000Y-83184420D02*
X35690000Y-83465580D01*
X36710000Y-83184420D02*
X36710000Y-83465580D01*
X35915000Y-77909420D02*
X35915000Y-78190580D01*
X36935000Y-77909420D02*
X36935000Y-78190580D01*
X39960000Y-78262779D02*
X39960000Y-77937221D01*
X38940000Y-78262779D02*
X38940000Y-77937221D01*
X39640000Y-85409420D02*
X39640000Y-85690580D01*
X40660000Y-85409420D02*
X40660000Y-85690580D01*
X41835000Y-77899721D02*
X41835000Y-78225279D01*
X40815000Y-77899721D02*
X40815000Y-78225279D01*
X42485000Y-85434420D02*
X42485000Y-85715580D01*
X41465000Y-85434420D02*
X41465000Y-85715580D01*
X31100000Y-73550000D02*
X35000000Y-73550000D01*
X31100000Y-71550000D02*
X35000000Y-71550000D01*
X31100000Y-73550000D02*
X31100000Y-71550000D01*
X42500000Y-95060000D02*
X42500000Y-95600000D01*
X24200000Y-91000000D02*
X24200000Y-92340000D01*
X24200000Y-95600000D02*
X24200000Y-95060000D01*
X25690000Y-91000000D02*
X24200000Y-91000000D01*
X42500000Y-95600000D02*
X24200000Y-95600000D01*
X41010000Y-91000000D02*
X42500000Y-91000000D01*
X41010000Y-91000000D02*
X41010000Y-89800000D01*
X42500000Y-91000000D02*
X42500000Y-92340000D01*
X24640000Y-81484420D02*
X24640000Y-81765580D01*
X25660000Y-81484420D02*
X25660000Y-81765580D01*
X26315000Y-85634420D02*
X26315000Y-85915580D01*
X27335000Y-85634420D02*
X27335000Y-85915580D01*
%LPC*%
D13*
X25729800Y-65450000D03*
D14*
X28269800Y-65450000D03*
D15*
X30809800Y-65450000D03*
X33349800Y-65450000D03*
X35889800Y-65450000D03*
X38429800Y-65450000D03*
X40969800Y-65450000D03*
D16*
X26700000Y-80875000D03*
X26700000Y-82425000D03*
X25275000Y-84975000D03*
X25275000Y-86525000D03*
X28375000Y-85000000D03*
X28375000Y-86550000D03*
X26400000Y-77300000D03*
X26400000Y-78850000D03*
X28625000Y-77275000D03*
X28625000Y-78825000D03*
X31175000Y-77400000D03*
X31175000Y-78950000D03*
X30625000Y-83550000D03*
X30625000Y-85100000D03*
X33375000Y-82450000D03*
X33375000Y-84000000D03*
X33750000Y-77450000D03*
X33750000Y-79000000D03*
X36200000Y-82550000D03*
X36200000Y-84100000D03*
X36425000Y-77275000D03*
X36425000Y-78825000D03*
D17*
X39450000Y-78887500D03*
X39450000Y-77312500D03*
D16*
X40150000Y-84775000D03*
X40150000Y-86325000D03*
D18*
X41325000Y-77275000D03*
X41325000Y-78850000D03*
D16*
X41975000Y-84800000D03*
X41975000Y-86350000D03*
D19*
X31700000Y-72550000D03*
X35000000Y-72550000D03*
D20*
X40600000Y-90450000D03*
D21*
X24600000Y-93650000D03*
D20*
X40100000Y-90450000D03*
X39600000Y-90450000D03*
X39100000Y-90450000D03*
X38600000Y-90450000D03*
X38100000Y-90450000D03*
X37600000Y-90450000D03*
X37100000Y-90450000D03*
X36600000Y-90450000D03*
X36100000Y-90450000D03*
X35600000Y-90450000D03*
X35100000Y-90450000D03*
X34600000Y-90450000D03*
X34100000Y-90450000D03*
X33600000Y-90450000D03*
X33100000Y-90450000D03*
X32600000Y-90450000D03*
X32100000Y-90450000D03*
X31600000Y-90450000D03*
X31100000Y-90450000D03*
X30600000Y-90450000D03*
X30100000Y-90450000D03*
X29600000Y-90450000D03*
X29100000Y-90450000D03*
X28600000Y-90450000D03*
X28100000Y-90450000D03*
X27600000Y-90450000D03*
X27100000Y-90450000D03*
X26600000Y-90450000D03*
X26100000Y-90450000D03*
D21*
X42100000Y-93650000D03*
D16*
X25150000Y-80850000D03*
X25150000Y-82400000D03*
X26825000Y-85000000D03*
X26825000Y-86550000D03*
M02*
