G04 #@! TF.GenerationSoftware,KiCad,Pcbnew,6.0.2+dfsg-1*
G04 #@! TF.CreationDate,2022-09-13T11:12:49+08:00*
G04 #@! TF.ProjectId,epaper-102,65706170-6572-42d3-9130-322e6b696361,rev?*
G04 #@! TF.SameCoordinates,Original*
G04 #@! TF.FileFunction,Legend,Bot*
G04 #@! TF.FilePolarity,Positive*
%FSLAX46Y46*%
G04 Gerber Fmt 4.6, Leading zero omitted, Abs format (unit mm)*
G04 Created by KiCad (PCBNEW 6.0.2+dfsg-1) date 2022-09-13 11:12:49*
%MOMM*%
%LPD*%
G01*
G04 APERTURE LIST*
G04 Aperture macros list*
%AMRoundRect*
0 Rectangle with rounded corners*
0 $1 Rounding radius*
0 $2 $3 $4 $5 $6 $7 $8 $9 X,Y pos of 4 corners*
0 Add a 4 corners polygon primitive as box body*
4,1,4,$2,$3,$4,$5,$6,$7,$8,$9,$2,$3,0*
0 Add four circle primitives for the rounded corners*
1,1,$1+$1,$2,$3*
1,1,$1+$1,$4,$5*
1,1,$1+$1,$6,$7*
1,1,$1+$1,$8,$9*
0 Add four rect primitives between the rounded corners*
20,1,$1+$1,$2,$3,$4,$5,0*
20,1,$1+$1,$4,$5,$6,$7,0*
20,1,$1+$1,$6,$7,$8,$9,0*
20,1,$1+$1,$8,$9,$2,$3,0*%
G04 Aperture macros list end*
%ADD10C,0.153000*%
%ADD11C,0.100000*%
%ADD12C,0.120000*%
%ADD13C,0.150000*%
%ADD14C,1.000000*%
%ADD15RoundRect,0.140000X-0.170000X0.140000X-0.170000X-0.140000X0.170000X-0.140000X0.170000X0.140000X0*%
%ADD16R,1.200000X1.000000*%
%ADD17RoundRect,0.218750X0.256250X-0.218750X0.256250X0.218750X-0.256250X0.218750X-0.256250X-0.218750X0*%
%ADD18RoundRect,0.218750X-0.256250X0.218750X-0.256250X-0.218750X0.256250X-0.218750X0.256250X0.218750X0*%
%ADD19R,0.900000X1.200000*%
%ADD20R,0.300000X1.300000*%
%ADD21R,1.000000X1.500000*%
G04 APERTURE END LIST*
D10*
X29809523Y-65208095D02*
X30304761Y-65208095D01*
X30038095Y-64903333D01*
X30152380Y-64903333D01*
X30228571Y-64865238D01*
X30266666Y-64827142D01*
X30304761Y-64750952D01*
X30304761Y-64560476D01*
X30266666Y-64484285D01*
X30228571Y-64446190D01*
X30152380Y-64408095D01*
X29923809Y-64408095D01*
X29847619Y-64446190D01*
X29809523Y-64484285D01*
X30533333Y-65208095D02*
X30800000Y-64408095D01*
X31066666Y-65208095D01*
X31257142Y-65208095D02*
X31752380Y-65208095D01*
X31485714Y-64903333D01*
X31599999Y-64903333D01*
X31676190Y-64865238D01*
X31714285Y-64827142D01*
X31752380Y-64750952D01*
X31752380Y-64560476D01*
X31714285Y-64484285D01*
X31676190Y-64446190D01*
X31599999Y-64408095D01*
X31371428Y-64408095D01*
X31295238Y-64446190D01*
X31257142Y-64484285D01*
X40227333Y-64827142D02*
X40341619Y-64789047D01*
X40379714Y-64750952D01*
X40417809Y-64674761D01*
X40417809Y-64560476D01*
X40379714Y-64484285D01*
X40341619Y-64446190D01*
X40265428Y-64408095D01*
X39960666Y-64408095D01*
X39960666Y-65208095D01*
X40227333Y-65208095D01*
X40303523Y-65170000D01*
X40341619Y-65131904D01*
X40379714Y-65055714D01*
X40379714Y-64979523D01*
X40341619Y-64903333D01*
X40303523Y-64865238D01*
X40227333Y-64827142D01*
X39960666Y-64827142D01*
X40722571Y-64446190D02*
X40836857Y-64408095D01*
X41027333Y-64408095D01*
X41103523Y-64446190D01*
X41141619Y-64484285D01*
X41179714Y-64560476D01*
X41179714Y-64636666D01*
X41141619Y-64712857D01*
X41103523Y-64750952D01*
X41027333Y-64789047D01*
X40874952Y-64827142D01*
X40798761Y-64865238D01*
X40760666Y-64903333D01*
X40722571Y-64979523D01*
X40722571Y-65055714D01*
X40760666Y-65131904D01*
X40798761Y-65170000D01*
X40874952Y-65208095D01*
X41065428Y-65208095D01*
X41179714Y-65170000D01*
X41674952Y-64789047D02*
X41674952Y-64408095D01*
X41408285Y-65208095D02*
X41674952Y-64789047D01*
X41941619Y-65208095D01*
X33140666Y-64476285D02*
X33102571Y-64438190D01*
X32988285Y-64400095D01*
X32912095Y-64400095D01*
X32797809Y-64438190D01*
X32721619Y-64514380D01*
X32683523Y-64590571D01*
X32645428Y-64742952D01*
X32645428Y-64857238D01*
X32683523Y-65009619D01*
X32721619Y-65085809D01*
X32797809Y-65162000D01*
X32912095Y-65200095D01*
X32988285Y-65200095D01*
X33102571Y-65162000D01*
X33140666Y-65123904D01*
X33445428Y-64438190D02*
X33559714Y-64400095D01*
X33750190Y-64400095D01*
X33826380Y-64438190D01*
X33864476Y-64476285D01*
X33902571Y-64552476D01*
X33902571Y-64628666D01*
X33864476Y-64704857D01*
X33826380Y-64742952D01*
X33750190Y-64781047D01*
X33597809Y-64819142D01*
X33521619Y-64857238D01*
X33483523Y-64895333D01*
X33445428Y-64971523D01*
X33445428Y-65047714D01*
X33483523Y-65123904D01*
X33521619Y-65162000D01*
X33597809Y-65200095D01*
X33788285Y-65200095D01*
X33902571Y-65162000D01*
X25044476Y-64408095D02*
X25044476Y-65208095D01*
X25234952Y-65208095D01*
X25349238Y-65170000D01*
X25425428Y-65093809D01*
X25463523Y-65017619D01*
X25501619Y-64865238D01*
X25501619Y-64750952D01*
X25463523Y-64598571D01*
X25425428Y-64522380D01*
X25349238Y-64446190D01*
X25234952Y-64408095D01*
X25044476Y-64408095D01*
X26301619Y-64484285D02*
X26263523Y-64446190D01*
X26149238Y-64408095D01*
X26073047Y-64408095D01*
X25958761Y-64446190D01*
X25882571Y-64522380D01*
X25844476Y-64598571D01*
X25806380Y-64750952D01*
X25806380Y-64865238D01*
X25844476Y-65017619D01*
X25882571Y-65093809D01*
X25958761Y-65170000D01*
X26073047Y-65208095D01*
X26149238Y-65208095D01*
X26263523Y-65170000D01*
X26301619Y-65131904D01*
X27584476Y-65162000D02*
X27508285Y-65200095D01*
X27394000Y-65200095D01*
X27279714Y-65162000D01*
X27203523Y-65085809D01*
X27165428Y-65009619D01*
X27127333Y-64857238D01*
X27127333Y-64742952D01*
X27165428Y-64590571D01*
X27203523Y-64514380D01*
X27279714Y-64438190D01*
X27394000Y-64400095D01*
X27470190Y-64400095D01*
X27584476Y-64438190D01*
X27622571Y-64476285D01*
X27622571Y-64742952D01*
X27470190Y-64742952D01*
X27965428Y-64400095D02*
X27965428Y-65200095D01*
X28422571Y-64400095D01*
X28422571Y-65200095D01*
X28803523Y-64400095D02*
X28803523Y-65200095D01*
X28994000Y-65200095D01*
X29108285Y-65162000D01*
X29184476Y-65085809D01*
X29222571Y-65009619D01*
X29260666Y-64857238D01*
X29260666Y-64742952D01*
X29222571Y-64590571D01*
X29184476Y-64514380D01*
X29108285Y-64438190D01*
X28994000Y-64400095D01*
X28803523Y-64400095D01*
X34994952Y-64408095D02*
X34994952Y-65208095D01*
X35185428Y-65208095D01*
X35299714Y-65170000D01*
X35375904Y-65093809D01*
X35414000Y-65017619D01*
X35452095Y-64865238D01*
X35452095Y-64750952D01*
X35414000Y-64598571D01*
X35375904Y-64522380D01*
X35299714Y-64446190D01*
X35185428Y-64408095D01*
X34994952Y-64408095D01*
X35794952Y-64408095D02*
X35794952Y-65208095D01*
X36175904Y-64408095D02*
X36175904Y-65208095D01*
X36633047Y-64408095D01*
X36633047Y-65208095D01*
X37877809Y-64476285D02*
X37839714Y-64438190D01*
X37725428Y-64400095D01*
X37649238Y-64400095D01*
X37534952Y-64438190D01*
X37458761Y-64514380D01*
X37420666Y-64590571D01*
X37382571Y-64742952D01*
X37382571Y-64857238D01*
X37420666Y-65009619D01*
X37458761Y-65085809D01*
X37534952Y-65162000D01*
X37649238Y-65200095D01*
X37725428Y-65200095D01*
X37839714Y-65162000D01*
X37877809Y-65123904D01*
X38601619Y-64400095D02*
X38220666Y-64400095D01*
X38220666Y-65200095D01*
X38868285Y-64400095D02*
X38868285Y-65200095D01*
X39325428Y-64400095D02*
X38982571Y-64857238D01*
X39325428Y-65200095D02*
X38868285Y-64742952D01*
D11*
X27209714Y-87369714D02*
X27247809Y-87331619D01*
X27285904Y-87217333D01*
X27285904Y-87141142D01*
X27247809Y-87026857D01*
X27171619Y-86950666D01*
X27095428Y-86912571D01*
X26943047Y-86874476D01*
X26828761Y-86874476D01*
X26676380Y-86912571D01*
X26600190Y-86950666D01*
X26524000Y-87026857D01*
X26485904Y-87141142D01*
X26485904Y-87217333D01*
X26524000Y-87331619D01*
X26562095Y-87369714D01*
X27285904Y-88131619D02*
X27285904Y-87674476D01*
X27285904Y-87903047D02*
X26485904Y-87903047D01*
X26600190Y-87826857D01*
X26676380Y-87750666D01*
X26714476Y-87674476D01*
X26485904Y-88398285D02*
X26485904Y-88931619D01*
X27285904Y-88588761D01*
X25431714Y-83051714D02*
X25469809Y-83013619D01*
X25507904Y-82899333D01*
X25507904Y-82823142D01*
X25469809Y-82708857D01*
X25393619Y-82632666D01*
X25317428Y-82594571D01*
X25165047Y-82556476D01*
X25050761Y-82556476D01*
X24898380Y-82594571D01*
X24822190Y-82632666D01*
X24746000Y-82708857D01*
X24707904Y-82823142D01*
X24707904Y-82899333D01*
X24746000Y-83013619D01*
X24784095Y-83051714D01*
X25507904Y-83813619D02*
X25507904Y-83356476D01*
X25507904Y-83585047D02*
X24707904Y-83585047D01*
X24822190Y-83508857D01*
X24898380Y-83432666D01*
X24936476Y-83356476D01*
X24707904Y-84499333D02*
X24707904Y-84346952D01*
X24746000Y-84270761D01*
X24784095Y-84232666D01*
X24898380Y-84156476D01*
X25050761Y-84118380D01*
X25355523Y-84118380D01*
X25431714Y-84156476D01*
X25469809Y-84194571D01*
X25507904Y-84270761D01*
X25507904Y-84423142D01*
X25469809Y-84499333D01*
X25431714Y-84537428D01*
X25355523Y-84575523D01*
X25165047Y-84575523D01*
X25088857Y-84537428D01*
X25050761Y-84499333D01*
X25012666Y-84423142D01*
X25012666Y-84270761D01*
X25050761Y-84194571D01*
X25088857Y-84156476D01*
X25165047Y-84118380D01*
D12*
X42195714Y-83051714D02*
X42233809Y-83013619D01*
X42271904Y-82899333D01*
X42271904Y-82823142D01*
X42233809Y-82708857D01*
X42157619Y-82632666D01*
X42081428Y-82594571D01*
X41929047Y-82556476D01*
X41814761Y-82556476D01*
X41662380Y-82594571D01*
X41586190Y-82632666D01*
X41510000Y-82708857D01*
X41471904Y-82823142D01*
X41471904Y-82899333D01*
X41510000Y-83013619D01*
X41548095Y-83051714D01*
X42271904Y-83813619D02*
X42271904Y-83356476D01*
X42271904Y-83585047D02*
X41471904Y-83585047D01*
X41586190Y-83508857D01*
X41662380Y-83432666D01*
X41700476Y-83356476D01*
X41471904Y-84537428D02*
X41471904Y-84156476D01*
X41852857Y-84118380D01*
X41814761Y-84156476D01*
X41776666Y-84232666D01*
X41776666Y-84423142D01*
X41814761Y-84499333D01*
X41852857Y-84537428D01*
X41929047Y-84575523D01*
X42119523Y-84575523D01*
X42195714Y-84537428D01*
X42233809Y-84499333D01*
X42271904Y-84423142D01*
X42271904Y-84232666D01*
X42233809Y-84156476D01*
X42195714Y-84118380D01*
X40417714Y-83051714D02*
X40455809Y-83013619D01*
X40493904Y-82899333D01*
X40493904Y-82823142D01*
X40455809Y-82708857D01*
X40379619Y-82632666D01*
X40303428Y-82594571D01*
X40151047Y-82556476D01*
X40036761Y-82556476D01*
X39884380Y-82594571D01*
X39808190Y-82632666D01*
X39732000Y-82708857D01*
X39693904Y-82823142D01*
X39693904Y-82899333D01*
X39732000Y-83013619D01*
X39770095Y-83051714D01*
X40493904Y-83813619D02*
X40493904Y-83356476D01*
X40493904Y-83585047D02*
X39693904Y-83585047D01*
X39808190Y-83508857D01*
X39884380Y-83432666D01*
X39922476Y-83356476D01*
X39693904Y-84080285D02*
X39693904Y-84575523D01*
X39998666Y-84308857D01*
X39998666Y-84423142D01*
X40036761Y-84499333D01*
X40074857Y-84537428D01*
X40151047Y-84575523D01*
X40341523Y-84575523D01*
X40417714Y-84537428D01*
X40455809Y-84499333D01*
X40493904Y-84423142D01*
X40493904Y-84194571D01*
X40455809Y-84118380D01*
X40417714Y-84080285D01*
D13*
X35622142Y-77407142D02*
X35669761Y-77359523D01*
X35717380Y-77216666D01*
X35717380Y-77121428D01*
X35669761Y-76978571D01*
X35574523Y-76883333D01*
X35479285Y-76835714D01*
X35288809Y-76788095D01*
X35145952Y-76788095D01*
X34955476Y-76835714D01*
X34860238Y-76883333D01*
X34765000Y-76978571D01*
X34717380Y-77121428D01*
X34717380Y-77216666D01*
X34765000Y-77359523D01*
X34812619Y-77407142D01*
X35717380Y-78359523D02*
X35717380Y-77788095D01*
X35717380Y-78073809D02*
X34717380Y-78073809D01*
X34860238Y-77978571D01*
X34955476Y-77883333D01*
X35003095Y-77788095D01*
X35717380Y-79311904D02*
X35717380Y-78740476D01*
X35717380Y-79026190D02*
X34717380Y-79026190D01*
X34860238Y-78930952D01*
X34955476Y-78835714D01*
X35003095Y-78740476D01*
X35397142Y-82682142D02*
X35444761Y-82634523D01*
X35492380Y-82491666D01*
X35492380Y-82396428D01*
X35444761Y-82253571D01*
X35349523Y-82158333D01*
X35254285Y-82110714D01*
X35063809Y-82063095D01*
X34920952Y-82063095D01*
X34730476Y-82110714D01*
X34635238Y-82158333D01*
X34540000Y-82253571D01*
X34492380Y-82396428D01*
X34492380Y-82491666D01*
X34540000Y-82634523D01*
X34587619Y-82682142D01*
X35492380Y-83634523D02*
X35492380Y-83063095D01*
X35492380Y-83348809D02*
X34492380Y-83348809D01*
X34635238Y-83253571D01*
X34730476Y-83158333D01*
X34778095Y-83063095D01*
X34492380Y-84253571D02*
X34492380Y-84348809D01*
X34540000Y-84444047D01*
X34587619Y-84491666D01*
X34682857Y-84539285D01*
X34873333Y-84586904D01*
X35111428Y-84586904D01*
X35301904Y-84539285D01*
X35397142Y-84491666D01*
X35444761Y-84444047D01*
X35492380Y-84348809D01*
X35492380Y-84253571D01*
X35444761Y-84158333D01*
X35397142Y-84110714D01*
X35301904Y-84063095D01*
X35111428Y-84015476D01*
X34873333Y-84015476D01*
X34682857Y-84063095D01*
X34587619Y-84110714D01*
X34540000Y-84158333D01*
X34492380Y-84253571D01*
X32947142Y-78058333D02*
X32994761Y-78010714D01*
X33042380Y-77867857D01*
X33042380Y-77772619D01*
X32994761Y-77629761D01*
X32899523Y-77534523D01*
X32804285Y-77486904D01*
X32613809Y-77439285D01*
X32470952Y-77439285D01*
X32280476Y-77486904D01*
X32185238Y-77534523D01*
X32090000Y-77629761D01*
X32042380Y-77772619D01*
X32042380Y-77867857D01*
X32090000Y-78010714D01*
X32137619Y-78058333D01*
X33042380Y-78534523D02*
X33042380Y-78725000D01*
X32994761Y-78820238D01*
X32947142Y-78867857D01*
X32804285Y-78963095D01*
X32613809Y-79010714D01*
X32232857Y-79010714D01*
X32137619Y-78963095D01*
X32090000Y-78915476D01*
X32042380Y-78820238D01*
X32042380Y-78629761D01*
X32090000Y-78534523D01*
X32137619Y-78486904D01*
X32232857Y-78439285D01*
X32470952Y-78439285D01*
X32566190Y-78486904D01*
X32613809Y-78534523D01*
X32661428Y-78629761D01*
X32661428Y-78820238D01*
X32613809Y-78915476D01*
X32566190Y-78963095D01*
X32470952Y-79010714D01*
X32572142Y-83058333D02*
X32619761Y-83010714D01*
X32667380Y-82867857D01*
X32667380Y-82772619D01*
X32619761Y-82629761D01*
X32524523Y-82534523D01*
X32429285Y-82486904D01*
X32238809Y-82439285D01*
X32095952Y-82439285D01*
X31905476Y-82486904D01*
X31810238Y-82534523D01*
X31715000Y-82629761D01*
X31667380Y-82772619D01*
X31667380Y-82867857D01*
X31715000Y-83010714D01*
X31762619Y-83058333D01*
X32095952Y-83629761D02*
X32048333Y-83534523D01*
X32000714Y-83486904D01*
X31905476Y-83439285D01*
X31857857Y-83439285D01*
X31762619Y-83486904D01*
X31715000Y-83534523D01*
X31667380Y-83629761D01*
X31667380Y-83820238D01*
X31715000Y-83915476D01*
X31762619Y-83963095D01*
X31857857Y-84010714D01*
X31905476Y-84010714D01*
X32000714Y-83963095D01*
X32048333Y-83915476D01*
X32095952Y-83820238D01*
X32095952Y-83629761D01*
X32143571Y-83534523D01*
X32191190Y-83486904D01*
X32286428Y-83439285D01*
X32476904Y-83439285D01*
X32572142Y-83486904D01*
X32619761Y-83534523D01*
X32667380Y-83629761D01*
X32667380Y-83820238D01*
X32619761Y-83915476D01*
X32572142Y-83963095D01*
X32476904Y-84010714D01*
X32286428Y-84010714D01*
X32191190Y-83963095D01*
X32143571Y-83915476D01*
X32095952Y-83820238D01*
X29822142Y-84158333D02*
X29869761Y-84110714D01*
X29917380Y-83967857D01*
X29917380Y-83872619D01*
X29869761Y-83729761D01*
X29774523Y-83634523D01*
X29679285Y-83586904D01*
X29488809Y-83539285D01*
X29345952Y-83539285D01*
X29155476Y-83586904D01*
X29060238Y-83634523D01*
X28965000Y-83729761D01*
X28917380Y-83872619D01*
X28917380Y-83967857D01*
X28965000Y-84110714D01*
X29012619Y-84158333D01*
X28917380Y-84491666D02*
X28917380Y-85158333D01*
X29917380Y-84729761D01*
X30372142Y-78008333D02*
X30419761Y-77960714D01*
X30467380Y-77817857D01*
X30467380Y-77722619D01*
X30419761Y-77579761D01*
X30324523Y-77484523D01*
X30229285Y-77436904D01*
X30038809Y-77389285D01*
X29895952Y-77389285D01*
X29705476Y-77436904D01*
X29610238Y-77484523D01*
X29515000Y-77579761D01*
X29467380Y-77722619D01*
X29467380Y-77817857D01*
X29515000Y-77960714D01*
X29562619Y-78008333D01*
X29467380Y-78865476D02*
X29467380Y-78675000D01*
X29515000Y-78579761D01*
X29562619Y-78532142D01*
X29705476Y-78436904D01*
X29895952Y-78389285D01*
X30276904Y-78389285D01*
X30372142Y-78436904D01*
X30419761Y-78484523D01*
X30467380Y-78579761D01*
X30467380Y-78770238D01*
X30419761Y-78865476D01*
X30372142Y-78913095D01*
X30276904Y-78960714D01*
X30038809Y-78960714D01*
X29943571Y-78913095D01*
X29895952Y-78865476D01*
X29848333Y-78770238D01*
X29848333Y-78579761D01*
X29895952Y-78484523D01*
X29943571Y-78436904D01*
X30038809Y-78389285D01*
X27822142Y-77883333D02*
X27869761Y-77835714D01*
X27917380Y-77692857D01*
X27917380Y-77597619D01*
X27869761Y-77454761D01*
X27774523Y-77359523D01*
X27679285Y-77311904D01*
X27488809Y-77264285D01*
X27345952Y-77264285D01*
X27155476Y-77311904D01*
X27060238Y-77359523D01*
X26965000Y-77454761D01*
X26917380Y-77597619D01*
X26917380Y-77692857D01*
X26965000Y-77835714D01*
X27012619Y-77883333D01*
X26917380Y-78788095D02*
X26917380Y-78311904D01*
X27393571Y-78264285D01*
X27345952Y-78311904D01*
X27298333Y-78407142D01*
X27298333Y-78645238D01*
X27345952Y-78740476D01*
X27393571Y-78788095D01*
X27488809Y-78835714D01*
X27726904Y-78835714D01*
X27822142Y-78788095D01*
X27869761Y-78740476D01*
X27917380Y-78645238D01*
X27917380Y-78407142D01*
X27869761Y-78311904D01*
X27822142Y-78264285D01*
X25597142Y-77908333D02*
X25644761Y-77860714D01*
X25692380Y-77717857D01*
X25692380Y-77622619D01*
X25644761Y-77479761D01*
X25549523Y-77384523D01*
X25454285Y-77336904D01*
X25263809Y-77289285D01*
X25120952Y-77289285D01*
X24930476Y-77336904D01*
X24835238Y-77384523D01*
X24740000Y-77479761D01*
X24692380Y-77622619D01*
X24692380Y-77717857D01*
X24740000Y-77860714D01*
X24787619Y-77908333D01*
X25025714Y-78765476D02*
X25692380Y-78765476D01*
X24644761Y-78527380D02*
X25359047Y-78289285D01*
X25359047Y-78908333D01*
D11*
X28733714Y-87750666D02*
X28771809Y-87712571D01*
X28809904Y-87598285D01*
X28809904Y-87522095D01*
X28771809Y-87407809D01*
X28695619Y-87331619D01*
X28619428Y-87293523D01*
X28467047Y-87255428D01*
X28352761Y-87255428D01*
X28200380Y-87293523D01*
X28124190Y-87331619D01*
X28048000Y-87407809D01*
X28009904Y-87522095D01*
X28009904Y-87598285D01*
X28048000Y-87712571D01*
X28086095Y-87750666D01*
X28009904Y-88017333D02*
X28009904Y-88512571D01*
X28314666Y-88245904D01*
X28314666Y-88360190D01*
X28352761Y-88436380D01*
X28390857Y-88474476D01*
X28467047Y-88512571D01*
X28657523Y-88512571D01*
X28733714Y-88474476D01*
X28771809Y-88436380D01*
X28809904Y-88360190D01*
X28809904Y-88131619D01*
X28771809Y-88055428D01*
X28733714Y-88017333D01*
X25685714Y-87496666D02*
X25723809Y-87458571D01*
X25761904Y-87344285D01*
X25761904Y-87268095D01*
X25723809Y-87153809D01*
X25647619Y-87077619D01*
X25571428Y-87039523D01*
X25419047Y-87001428D01*
X25304761Y-87001428D01*
X25152380Y-87039523D01*
X25076190Y-87077619D01*
X25000000Y-87153809D01*
X24961904Y-87268095D01*
X24961904Y-87344285D01*
X25000000Y-87458571D01*
X25038095Y-87496666D01*
X25038095Y-87801428D02*
X25000000Y-87839523D01*
X24961904Y-87915714D01*
X24961904Y-88106190D01*
X25000000Y-88182380D01*
X25038095Y-88220476D01*
X25114285Y-88258571D01*
X25190476Y-88258571D01*
X25304761Y-88220476D01*
X25761904Y-87763333D01*
X25761904Y-88258571D01*
X27209714Y-83686666D02*
X27247809Y-83648571D01*
X27285904Y-83534285D01*
X27285904Y-83458095D01*
X27247809Y-83343809D01*
X27171619Y-83267619D01*
X27095428Y-83229523D01*
X26943047Y-83191428D01*
X26828761Y-83191428D01*
X26676380Y-83229523D01*
X26600190Y-83267619D01*
X26524000Y-83343809D01*
X26485904Y-83458095D01*
X26485904Y-83534285D01*
X26524000Y-83648571D01*
X26562095Y-83686666D01*
X27285904Y-84448571D02*
X27285904Y-83991428D01*
X27285904Y-84220000D02*
X26485904Y-84220000D01*
X26600190Y-84143809D01*
X26676380Y-84067619D01*
X26714476Y-83991428D01*
D13*
X39685714Y-74935714D02*
X39723809Y-74897619D01*
X39761904Y-74783333D01*
X39761904Y-74707142D01*
X39723809Y-74592857D01*
X39647619Y-74516666D01*
X39571428Y-74478571D01*
X39419047Y-74440476D01*
X39304761Y-74440476D01*
X39152380Y-74478571D01*
X39076190Y-74516666D01*
X39000000Y-74592857D01*
X38961904Y-74707142D01*
X38961904Y-74783333D01*
X39000000Y-74897619D01*
X39038095Y-74935714D01*
X39761904Y-75697619D02*
X39761904Y-75240476D01*
X39761904Y-75469047D02*
X38961904Y-75469047D01*
X39076190Y-75392857D01*
X39152380Y-75316666D01*
X39190476Y-75240476D01*
X39038095Y-76002380D02*
X39000000Y-76040476D01*
X38961904Y-76116666D01*
X38961904Y-76307142D01*
X39000000Y-76383333D01*
X39038095Y-76421428D01*
X39114285Y-76459523D01*
X39190476Y-76459523D01*
X39304761Y-76421428D01*
X39761904Y-75964285D01*
X39761904Y-76459523D01*
X41635714Y-74898214D02*
X41673809Y-74860119D01*
X41711904Y-74745833D01*
X41711904Y-74669642D01*
X41673809Y-74555357D01*
X41597619Y-74479166D01*
X41521428Y-74441071D01*
X41369047Y-74402976D01*
X41254761Y-74402976D01*
X41102380Y-74441071D01*
X41026190Y-74479166D01*
X40950000Y-74555357D01*
X40911904Y-74669642D01*
X40911904Y-74745833D01*
X40950000Y-74860119D01*
X40988095Y-74898214D01*
X41711904Y-75660119D02*
X41711904Y-75202976D01*
X41711904Y-75431547D02*
X40911904Y-75431547D01*
X41026190Y-75355357D01*
X41102380Y-75279166D01*
X41140476Y-75202976D01*
X41178571Y-76345833D02*
X41711904Y-76345833D01*
X40873809Y-76155357D02*
X41445238Y-75964880D01*
X41445238Y-76460119D01*
X33765476Y-71036904D02*
X33765476Y-70236904D01*
X33575000Y-70236904D01*
X33460714Y-70275000D01*
X33384523Y-70351190D01*
X33346428Y-70427380D01*
X33308333Y-70579761D01*
X33308333Y-70694047D01*
X33346428Y-70846428D01*
X33384523Y-70922619D01*
X33460714Y-70998809D01*
X33575000Y-71036904D01*
X33765476Y-71036904D01*
X32546428Y-71036904D02*
X33003571Y-71036904D01*
X32775000Y-71036904D02*
X32775000Y-70236904D01*
X32851190Y-70351190D01*
X32927380Y-70427380D01*
X33003571Y-70465476D01*
X33933333Y-96727380D02*
X33933333Y-97441666D01*
X33980952Y-97584523D01*
X34076190Y-97679761D01*
X34219047Y-97727380D01*
X34314285Y-97727380D01*
X32933333Y-97727380D02*
X33504761Y-97727380D01*
X33219047Y-97727380D02*
X33219047Y-96727380D01*
X33314285Y-96870238D01*
X33409523Y-96965476D01*
X33504761Y-97013095D01*
D12*
X27185000Y-85667164D02*
X27185000Y-85882836D01*
X26465000Y-85667164D02*
X26465000Y-85882836D01*
X25510000Y-81517164D02*
X25510000Y-81732836D01*
X24790000Y-81517164D02*
X24790000Y-81732836D01*
X42335000Y-85467164D02*
X42335000Y-85682836D01*
X41615000Y-85467164D02*
X41615000Y-85682836D01*
X40510000Y-85442164D02*
X40510000Y-85657836D01*
X39790000Y-85442164D02*
X39790000Y-85657836D01*
X36785000Y-77942164D02*
X36785000Y-78157836D01*
X36065000Y-77942164D02*
X36065000Y-78157836D01*
X36560000Y-83217164D02*
X36560000Y-83432836D01*
X35840000Y-83217164D02*
X35840000Y-83432836D01*
X34110000Y-78117164D02*
X34110000Y-78332836D01*
X33390000Y-78117164D02*
X33390000Y-78332836D01*
X33735000Y-83117164D02*
X33735000Y-83332836D01*
X33015000Y-83117164D02*
X33015000Y-83332836D01*
X30985000Y-84217164D02*
X30985000Y-84432836D01*
X30265000Y-84217164D02*
X30265000Y-84432836D01*
X31535000Y-78067164D02*
X31535000Y-78282836D01*
X30815000Y-78067164D02*
X30815000Y-78282836D01*
X28985000Y-77942164D02*
X28985000Y-78157836D01*
X28265000Y-77942164D02*
X28265000Y-78157836D01*
X26760000Y-77967164D02*
X26760000Y-78182836D01*
X26040000Y-77967164D02*
X26040000Y-78182836D01*
X28735000Y-85667164D02*
X28735000Y-85882836D01*
X28015000Y-85667164D02*
X28015000Y-85882836D01*
X25635000Y-85642164D02*
X25635000Y-85857836D01*
X24915000Y-85642164D02*
X24915000Y-85857836D01*
X27060000Y-81542164D02*
X27060000Y-81757836D01*
X26340000Y-81542164D02*
X26340000Y-81757836D01*
X39960000Y-78262779D02*
X39960000Y-77937221D01*
X38940000Y-78262779D02*
X38940000Y-77937221D01*
X41835000Y-77899721D02*
X41835000Y-78225279D01*
X40815000Y-77899721D02*
X40815000Y-78225279D01*
X31100000Y-73550000D02*
X35000000Y-73550000D01*
X31100000Y-71550000D02*
X35000000Y-71550000D01*
X31100000Y-73550000D02*
X31100000Y-71550000D01*
X42500000Y-95060000D02*
X42500000Y-95600000D01*
X24200000Y-91000000D02*
X24200000Y-92340000D01*
X24200000Y-95600000D02*
X24200000Y-95060000D01*
X25690000Y-91000000D02*
X24200000Y-91000000D01*
X42500000Y-95600000D02*
X24200000Y-95600000D01*
X41010000Y-91000000D02*
X42500000Y-91000000D01*
X41010000Y-91000000D02*
X41010000Y-89800000D01*
X42500000Y-91000000D02*
X42500000Y-92340000D01*
%LPC*%
D14*
X24550000Y-101650000D03*
X42150000Y-101650000D03*
D15*
X26825000Y-85295000D03*
X26825000Y-86255000D03*
X25150000Y-81145000D03*
X25150000Y-82105000D03*
X41975000Y-85095000D03*
X41975000Y-86055000D03*
X40150000Y-85070000D03*
X40150000Y-86030000D03*
X36425000Y-77570000D03*
X36425000Y-78530000D03*
X36200000Y-82845000D03*
X36200000Y-83805000D03*
X33750000Y-77745000D03*
X33750000Y-78705000D03*
X33375000Y-82745000D03*
X33375000Y-83705000D03*
X30625000Y-83845000D03*
X30625000Y-84805000D03*
X31175000Y-77695000D03*
X31175000Y-78655000D03*
X28625000Y-77570000D03*
X28625000Y-78530000D03*
X26400000Y-77595000D03*
X26400000Y-78555000D03*
X28375000Y-85295000D03*
X28375000Y-86255000D03*
X25275000Y-85270000D03*
X25275000Y-86230000D03*
X26700000Y-81170000D03*
X26700000Y-82130000D03*
D14*
X25729800Y-65800000D03*
D16*
X28269800Y-65800000D03*
D14*
X30809800Y-65800000D03*
X33349800Y-65800000D03*
X35889800Y-65800000D03*
X38429800Y-65800000D03*
X40969800Y-65800000D03*
D17*
X39450000Y-78887500D03*
X39450000Y-77312500D03*
D18*
X41325000Y-77275000D03*
X41325000Y-78850000D03*
D19*
X31700000Y-72550000D03*
X35000000Y-72550000D03*
D20*
X40600000Y-90450000D03*
D21*
X24600000Y-93650000D03*
D20*
X40100000Y-90450000D03*
X39600000Y-90450000D03*
X39100000Y-90450000D03*
X38600000Y-90450000D03*
X38100000Y-90450000D03*
X37600000Y-90450000D03*
X37100000Y-90450000D03*
X36600000Y-90450000D03*
X36100000Y-90450000D03*
X35600000Y-90450000D03*
X35100000Y-90450000D03*
X34600000Y-90450000D03*
X34100000Y-90450000D03*
X33600000Y-90450000D03*
X33100000Y-90450000D03*
X32600000Y-90450000D03*
X32100000Y-90450000D03*
X31600000Y-90450000D03*
X31100000Y-90450000D03*
X30600000Y-90450000D03*
X30100000Y-90450000D03*
X29600000Y-90450000D03*
X29100000Y-90450000D03*
X28600000Y-90450000D03*
X28100000Y-90450000D03*
X27600000Y-90450000D03*
X27100000Y-90450000D03*
X26600000Y-90450000D03*
X26100000Y-90450000D03*
D21*
X42100000Y-93650000D03*
M02*
