M48
; DRILL file {KiCad 6.0.2+dfsg-1} date 2022年09月12日 星期一 16时48分07秒
; FORMAT={-:-/ absolute / metric / decimal}
; #@! TF.CreationDate,2022-09-12T16:48:07+08:00
; #@! TF.GenerationSoftware,Kicad,Pcbnew,6.0.2+dfsg-1
; #@! TF.FileFunction,Plated,1,2,PTH
FMAT,2
METRIC
; #@! TA.AperFunction,Plated,PTH,ViaDrill
T1C0.400
; #@! TA.AperFunction,Plated,PTH,ComponentDrill
T2C0.800
%
G90
G05
T1
X24.425Y-77.025
X25.625Y-73.675
X26.0Y-69.3
X26.0Y-83.7
X26.4Y-74.975
X27.6Y-94.4
X28.6Y-94.4
X29.6Y-75.7
X29.6Y-94.4
X30.6Y-74.5
X30.6Y-94.4
X31.3Y-69.0
X32.6Y-94.4
X33.8Y-80.625
X34.7Y-69.2
X34.7Y-92.5
X36.275Y-80.6
X37.0Y-94.2
X39.4Y-92.5
X40.125Y-81.075
X40.15Y-70.85
X42.225Y-81.1
T2
X25.73Y-65.45
X28.27Y-65.45
X30.81Y-65.45
X33.35Y-65.45
X35.89Y-65.45
X38.43Y-65.45
X40.97Y-65.45
T0
M30
