G04 #@! TF.GenerationSoftware,KiCad,Pcbnew,6.0.2+dfsg-1*
G04 #@! TF.CreationDate,2022-09-13T11:12:48+08:00*
G04 #@! TF.ProjectId,epaper-102,65706170-6572-42d3-9130-322e6b696361,rev?*
G04 #@! TF.SameCoordinates,Original*
G04 #@! TF.FileFunction,Copper,L1,Top*
G04 #@! TF.FilePolarity,Positive*
%FSLAX46Y46*%
G04 Gerber Fmt 4.6, Leading zero omitted, Abs format (unit mm)*
G04 Created by KiCad (PCBNEW 6.0.2+dfsg-1) date 2022-09-13 11:12:48*
%MOMM*%
%LPD*%
G01*
G04 APERTURE LIST*
G04 #@! TA.AperFunction,ComponentPad*
%ADD10C,1.000000*%
G04 #@! TD*
G04 #@! TA.AperFunction,ComponentPad*
%ADD11R,1.200000X1.000000*%
G04 #@! TD*
G04 #@! TA.AperFunction,ViaPad*
%ADD12C,0.800000*%
G04 #@! TD*
G04 #@! TA.AperFunction,Conductor*
%ADD13C,0.250000*%
G04 #@! TD*
G04 APERTURE END LIST*
D10*
X24550000Y-101650000D03*
X42150000Y-101650000D03*
X25729800Y-65800000D03*
D11*
X28269800Y-65800000D03*
D10*
X30809800Y-65800000D03*
X33349800Y-65800000D03*
X35889800Y-65800000D03*
X38429800Y-65800000D03*
X40969800Y-65800000D03*
D12*
X26000000Y-83700000D03*
X33800000Y-80625000D03*
X34700000Y-92500000D03*
X36275000Y-80600000D03*
X39400000Y-92500000D03*
X40150000Y-70850000D03*
X24425000Y-77025000D03*
X37000000Y-94200000D03*
X42225000Y-81100000D03*
X31300000Y-69000000D03*
X40125000Y-81075000D03*
X26000000Y-69300000D03*
X26400000Y-74975000D03*
X25625000Y-73675000D03*
X32600015Y-94400000D03*
X30600009Y-94400000D03*
X30600000Y-74500000D03*
X29600006Y-94400000D03*
X29600000Y-75700000D03*
X28600003Y-94400000D03*
X34700000Y-69200000D03*
X27600000Y-94400000D03*
D13*
X30809800Y-65800000D02*
X25625000Y-70984800D01*
X25625000Y-70984800D02*
X25625000Y-73675000D01*
X30600009Y-94400000D02*
X30600009Y-95599991D01*
X30600009Y-95599991D02*
X24550000Y-101650000D01*
X35736015Y-97536000D02*
X41148000Y-97536000D01*
X32600015Y-94400000D02*
X35736015Y-97536000D01*
X41148000Y-97536000D02*
X42150000Y-98538000D01*
X42150000Y-98538000D02*
X42150000Y-101650000D01*
X32600015Y-94400000D02*
X32600015Y-75089785D01*
X40969800Y-66720000D02*
X40969800Y-65450000D01*
X32600015Y-75089785D02*
X40969800Y-66720000D01*
X30600009Y-94400000D02*
X30600009Y-74500009D01*
X30600009Y-74500009D02*
X30600000Y-74500000D01*
X29600006Y-75700006D02*
X29600000Y-75700000D01*
X29600006Y-94400000D02*
X29600006Y-75700006D01*
X28600003Y-94400000D02*
X28600003Y-75299997D01*
X28600003Y-75299997D02*
X34700000Y-69200000D01*
X35807800Y-66802000D02*
X35889800Y-66720000D01*
X27600000Y-75009800D02*
X35807800Y-66802000D01*
X35807800Y-66802000D02*
X35814000Y-66802000D01*
X35889800Y-66720000D02*
X35889800Y-65450000D01*
X27600000Y-94400000D02*
X27600000Y-75009800D01*
G04 #@! TA.AperFunction,Conductor*
G36*
X27626805Y-64569685D02*
G01*
X27672560Y-64622489D01*
X27682504Y-64691647D01*
X27653479Y-64755203D01*
X27594701Y-64792977D01*
X27573155Y-64797275D01*
X27567323Y-64797908D01*
X27552312Y-64801478D01*
X27431610Y-64846727D01*
X27416268Y-64855126D01*
X27313965Y-64931798D01*
X27301598Y-64944165D01*
X27224926Y-65046468D01*
X27216527Y-65061810D01*
X27171276Y-65182515D01*
X27167709Y-65197518D01*
X27162163Y-65248573D01*
X27161800Y-65255271D01*
X27161800Y-65528170D01*
X27166204Y-65543169D01*
X27167574Y-65544356D01*
X27175132Y-65546000D01*
X29359969Y-65546000D01*
X29374968Y-65541596D01*
X29376155Y-65540226D01*
X29377799Y-65532668D01*
X29377799Y-65255274D01*
X29377436Y-65248569D01*
X29371892Y-65197523D01*
X29368322Y-65182512D01*
X29323073Y-65061810D01*
X29314674Y-65046468D01*
X29238002Y-64944165D01*
X29225635Y-64931798D01*
X29123332Y-64855126D01*
X29107990Y-64846727D01*
X28987285Y-64801476D01*
X28972281Y-64797909D01*
X28966448Y-64797275D01*
X28901926Y-64770466D01*
X28862141Y-64713029D01*
X28859725Y-64643201D01*
X28895443Y-64583152D01*
X28957957Y-64551946D01*
X28979839Y-64550000D01*
X42313165Y-64550000D01*
X42337356Y-64552383D01*
X42350000Y-64554898D01*
X42361979Y-64552515D01*
X42365360Y-64552515D01*
X42379243Y-64553295D01*
X42402251Y-64555887D01*
X42458503Y-64562226D01*
X42485566Y-64568402D01*
X42575451Y-64599853D01*
X42600467Y-64611901D01*
X42681092Y-64662562D01*
X42702800Y-64679874D01*
X42770126Y-64747200D01*
X42787438Y-64768908D01*
X42838099Y-64849533D01*
X42850147Y-64874549D01*
X42881598Y-64964434D01*
X42887775Y-64991500D01*
X42896705Y-65070757D01*
X42897485Y-65084640D01*
X42897485Y-65088021D01*
X42895102Y-65100000D01*
X42897485Y-65111980D01*
X42897617Y-65112644D01*
X42900000Y-65136835D01*
X42900000Y-101039256D01*
X42880315Y-101106295D01*
X42827511Y-101152050D01*
X42758353Y-101161994D01*
X42694797Y-101132969D01*
X42688013Y-101126630D01*
X42628130Y-101066327D01*
X42628124Y-101066322D01*
X42623242Y-101061406D01*
X42617394Y-101057694D01*
X42617388Y-101057690D01*
X42583058Y-101035904D01*
X42537002Y-100983362D01*
X42525500Y-100931207D01*
X42525500Y-98591284D01*
X42528047Y-98567349D01*
X42528113Y-98565948D01*
X42530269Y-98555934D01*
X42526359Y-98522898D01*
X42526012Y-98517016D01*
X42525922Y-98517023D01*
X42525500Y-98511918D01*
X42525500Y-98506807D01*
X42522361Y-98487947D01*
X42521539Y-98482168D01*
X42516781Y-98441968D01*
X42516780Y-98441966D01*
X42515576Y-98431790D01*
X42511654Y-98423623D01*
X42510167Y-98414687D01*
X42486077Y-98370042D01*
X42483425Y-98364837D01*
X42464840Y-98326133D01*
X42461463Y-98319100D01*
X42457906Y-98314869D01*
X42456020Y-98312983D01*
X42454249Y-98311053D01*
X42454221Y-98311000D01*
X42454348Y-98310883D01*
X42453857Y-98310326D01*
X42450806Y-98304671D01*
X42411619Y-98268447D01*
X42408109Y-98265072D01*
X41451198Y-97308161D01*
X41436071Y-97289432D01*
X41435130Y-97288398D01*
X41429572Y-97279790D01*
X41403445Y-97259193D01*
X41399042Y-97255280D01*
X41398983Y-97255350D01*
X41395080Y-97252043D01*
X41391462Y-97248425D01*
X41375920Y-97237319D01*
X41371272Y-97233830D01*
X41331400Y-97202397D01*
X41322851Y-97199395D01*
X41315481Y-97194128D01*
X41266877Y-97179592D01*
X41261324Y-97177788D01*
X41220817Y-97163563D01*
X41220814Y-97163562D01*
X41213452Y-97160977D01*
X41207945Y-97160500D01*
X41205261Y-97160500D01*
X41202659Y-97160387D01*
X41202585Y-97160365D01*
X41202592Y-97160196D01*
X41201867Y-97160150D01*
X41195713Y-97158310D01*
X41185474Y-97158712D01*
X41185471Y-97158712D01*
X41142419Y-97160404D01*
X41137551Y-97160500D01*
X35942914Y-97160500D01*
X35875875Y-97140815D01*
X35855233Y-97124181D01*
X33285210Y-94554158D01*
X33251725Y-94492835D01*
X33250128Y-94449007D01*
X33254576Y-94417748D01*
X33255149Y-94413723D01*
X33255293Y-94400000D01*
X33236378Y-94243694D01*
X33180725Y-94096412D01*
X33172352Y-94084229D01*
X33095783Y-93972821D01*
X33095780Y-93972818D01*
X33091546Y-93966657D01*
X33017026Y-93900262D01*
X32980067Y-93840968D01*
X32975515Y-93807679D01*
X32975515Y-75296684D01*
X32995200Y-75229645D01*
X33011834Y-75209003D01*
X41197639Y-67023198D01*
X41216368Y-67008071D01*
X41217402Y-67007130D01*
X41226010Y-67001572D01*
X41246607Y-66975445D01*
X41250520Y-66971042D01*
X41250450Y-66970983D01*
X41253757Y-66967080D01*
X41257375Y-66963462D01*
X41268487Y-66947912D01*
X41271970Y-66943272D01*
X41303403Y-66903400D01*
X41306405Y-66894851D01*
X41311672Y-66887481D01*
X41326209Y-66838873D01*
X41328011Y-66833328D01*
X41342238Y-66792817D01*
X41342240Y-66792807D01*
X41344823Y-66785452D01*
X41345300Y-66779945D01*
X41345300Y-66777262D01*
X41345413Y-66774660D01*
X41345435Y-66774585D01*
X41345604Y-66774592D01*
X41345650Y-66773868D01*
X41347490Y-66767714D01*
X41345395Y-66714394D01*
X41345300Y-66709552D01*
X41345300Y-66520379D01*
X41364985Y-66453340D01*
X41405805Y-66413869D01*
X41420467Y-66405129D01*
X41420470Y-66405127D01*
X41426423Y-66401578D01*
X41431445Y-66396796D01*
X41543335Y-66290245D01*
X41543337Y-66290243D01*
X41548354Y-66285465D01*
X41595189Y-66214973D01*
X41637694Y-66150999D01*
X41637696Y-66150995D01*
X41641531Y-66145223D01*
X41643991Y-66138747D01*
X41643993Y-66138743D01*
X41698860Y-65994301D01*
X41701321Y-65987823D01*
X41724755Y-65821088D01*
X41725049Y-65800000D01*
X41706281Y-65632676D01*
X41650908Y-65473668D01*
X41561684Y-65330879D01*
X41486602Y-65255271D01*
X41447923Y-65216321D01*
X41447922Y-65216320D01*
X41443042Y-65211406D01*
X41437195Y-65207695D01*
X41437192Y-65207693D01*
X41306733Y-65124902D01*
X41300879Y-65121187D01*
X41288082Y-65116630D01*
X41148791Y-65067031D01*
X41148792Y-65067031D01*
X41142262Y-65064706D01*
X40975073Y-65044769D01*
X40968184Y-65045493D01*
X40968181Y-65045493D01*
X40814518Y-65061644D01*
X40814517Y-65061644D01*
X40807621Y-65062369D01*
X40801054Y-65064604D01*
X40801052Y-65064605D01*
X40654798Y-65114394D01*
X40654795Y-65114395D01*
X40648231Y-65116630D01*
X40504822Y-65204856D01*
X40499870Y-65209706D01*
X40499868Y-65209707D01*
X40389480Y-65317807D01*
X40389477Y-65317811D01*
X40384524Y-65322661D01*
X40293315Y-65464190D01*
X40235727Y-65622409D01*
X40214625Y-65789455D01*
X40231055Y-65957025D01*
X40284202Y-66116791D01*
X40287795Y-66122724D01*
X40287796Y-66122726D01*
X40301421Y-66145223D01*
X40371424Y-66260812D01*
X40488386Y-66381929D01*
X40535068Y-66412477D01*
X40580383Y-66465657D01*
X40589755Y-66534895D01*
X40560205Y-66598209D01*
X40554848Y-66603915D01*
X32372176Y-74786587D01*
X32353447Y-74801714D01*
X32352413Y-74802655D01*
X32343805Y-74808213D01*
X32328846Y-74827188D01*
X32323208Y-74834340D01*
X32319295Y-74838743D01*
X32319365Y-74838802D01*
X32316058Y-74842705D01*
X32312440Y-74846323D01*
X32309466Y-74850485D01*
X32301336Y-74861862D01*
X32297845Y-74866513D01*
X32266412Y-74906385D01*
X32263410Y-74914934D01*
X32258143Y-74922304D01*
X32246246Y-74962087D01*
X32243609Y-74970903D01*
X32241803Y-74976461D01*
X32228136Y-75015381D01*
X32224992Y-75024333D01*
X32224515Y-75029840D01*
X32224515Y-75032524D01*
X32224402Y-75035126D01*
X32224380Y-75035200D01*
X32224211Y-75035193D01*
X32224165Y-75035918D01*
X32222325Y-75042072D01*
X32222727Y-75052311D01*
X32222727Y-75052314D01*
X32224419Y-75095366D01*
X32224515Y-75100234D01*
X32224515Y-93807915D01*
X32204830Y-93874954D01*
X32182030Y-93901357D01*
X32113049Y-93961533D01*
X32022516Y-94090348D01*
X31965324Y-94237039D01*
X31944773Y-94393138D01*
X31945593Y-94400566D01*
X31945593Y-94400568D01*
X31957713Y-94510346D01*
X31962050Y-94549633D01*
X32016158Y-94697490D01*
X32103973Y-94828172D01*
X32126198Y-94848395D01*
X32214893Y-94929102D01*
X32214897Y-94929105D01*
X32220425Y-94934135D01*
X32226995Y-94937702D01*
X32226996Y-94937703D01*
X32352223Y-95005696D01*
X32358791Y-95009262D01*
X32461046Y-95036088D01*
X32503856Y-95047319D01*
X32503858Y-95047319D01*
X32511084Y-95049215D01*
X32668510Y-95051688D01*
X32668468Y-95054357D01*
X32724816Y-95064671D01*
X32756711Y-95087733D01*
X35432820Y-97763843D01*
X35447924Y-97782545D01*
X35448883Y-97783599D01*
X35454443Y-97792210D01*
X35462493Y-97798556D01*
X35480566Y-97812804D01*
X35484977Y-97816724D01*
X35485036Y-97816654D01*
X35488936Y-97819959D01*
X35492553Y-97823576D01*
X35496706Y-97826544D01*
X35496717Y-97826553D01*
X35508115Y-97834697D01*
X35512786Y-97838204D01*
X35552615Y-97869603D01*
X35561163Y-97872605D01*
X35568534Y-97877872D01*
X35578351Y-97880808D01*
X35578353Y-97880809D01*
X35617142Y-97892409D01*
X35622700Y-97894215D01*
X35663201Y-97908438D01*
X35663203Y-97908439D01*
X35670563Y-97911023D01*
X35676070Y-97911500D01*
X35678753Y-97911500D01*
X35681352Y-97911613D01*
X35681430Y-97911636D01*
X35681423Y-97911804D01*
X35682144Y-97911849D01*
X35688302Y-97913691D01*
X35698540Y-97913289D01*
X35698542Y-97913289D01*
X35741621Y-97911596D01*
X35746489Y-97911500D01*
X40941101Y-97911500D01*
X41008140Y-97931185D01*
X41028782Y-97947819D01*
X41738181Y-98657218D01*
X41771666Y-98718541D01*
X41774500Y-98744899D01*
X41774500Y-100930508D01*
X41754815Y-100997547D01*
X41715474Y-101036122D01*
X41685022Y-101054856D01*
X41680070Y-101059706D01*
X41680068Y-101059707D01*
X41569680Y-101167807D01*
X41569677Y-101167811D01*
X41564724Y-101172661D01*
X41473515Y-101314190D01*
X41415927Y-101472409D01*
X41415058Y-101479290D01*
X41399405Y-101603203D01*
X41394825Y-101639455D01*
X41411255Y-101807025D01*
X41464402Y-101966791D01*
X41467995Y-101972724D01*
X41467996Y-101972726D01*
X41548033Y-102104883D01*
X41551624Y-102110812D01*
X41556438Y-102115797D01*
X41627962Y-102189862D01*
X41660372Y-102251760D01*
X41654172Y-102321354D01*
X41611331Y-102376549D01*
X41538764Y-102400000D01*
X41314829Y-102400000D01*
X41247790Y-102380315D01*
X41202035Y-102327511D01*
X41192646Y-102297147D01*
X41189680Y-102280007D01*
X40804332Y-100053557D01*
X40804289Y-100053059D01*
X40804898Y-100050000D01*
X40796111Y-100005824D01*
X40795545Y-100002780D01*
X40793179Y-99989107D01*
X40793175Y-99989092D01*
X40792138Y-99983101D01*
X40791066Y-99980317D01*
X40790890Y-99979577D01*
X40787878Y-99964432D01*
X40787877Y-99964429D01*
X40785495Y-99952455D01*
X40778710Y-99942301D01*
X40776714Y-99937482D01*
X40772589Y-99929528D01*
X40769801Y-99925121D01*
X40765410Y-99913722D01*
X40753273Y-99900963D01*
X40740021Y-99884397D01*
X40730240Y-99869760D01*
X40720086Y-99862975D01*
X40716398Y-99859287D01*
X40709538Y-99853512D01*
X40705277Y-99850508D01*
X40696861Y-99841662D01*
X40680772Y-99834522D01*
X40662180Y-99824284D01*
X40657698Y-99821289D01*
X40647545Y-99814505D01*
X40635567Y-99812122D01*
X40630747Y-99810126D01*
X40622196Y-99807415D01*
X40617114Y-99806272D01*
X40605954Y-99801319D01*
X40593745Y-99801014D01*
X40593744Y-99801014D01*
X40579726Y-99800664D01*
X40578308Y-99800629D01*
X40577549Y-99800582D01*
X40574624Y-99800000D01*
X40554672Y-99800000D01*
X40551576Y-99799961D01*
X40514390Y-99799032D01*
X40514387Y-99799032D01*
X40506529Y-99798836D01*
X40503618Y-99799958D01*
X40503126Y-99800000D01*
X30082023Y-99800000D01*
X30060944Y-99798195D01*
X30059077Y-99797873D01*
X30043495Y-99795185D01*
X30031580Y-99797873D01*
X30031579Y-99797873D01*
X30026442Y-99799032D01*
X29999614Y-99805084D01*
X29996622Y-99805720D01*
X29952455Y-99814505D01*
X29949705Y-99816343D01*
X29946476Y-99817071D01*
X29937925Y-99823106D01*
X29909713Y-99843017D01*
X29907102Y-99844809D01*
X29869760Y-99869760D01*
X29867921Y-99872512D01*
X29865219Y-99874419D01*
X29859640Y-99883248D01*
X29841192Y-99912443D01*
X29839468Y-99915095D01*
X29814505Y-99952455D01*
X29812123Y-99964431D01*
X29811051Y-99969820D01*
X29805169Y-99990142D01*
X28991807Y-102104883D01*
X28908872Y-102320513D01*
X28866434Y-102376018D01*
X28800724Y-102399768D01*
X28793137Y-102400000D01*
X25160787Y-102400000D01*
X25093748Y-102380315D01*
X25047993Y-102327511D01*
X25038049Y-102258353D01*
X25067074Y-102194797D01*
X25075274Y-102186203D01*
X25123534Y-102140245D01*
X25128554Y-102135465D01*
X25196614Y-102033027D01*
X25217894Y-102000999D01*
X25217896Y-102000995D01*
X25221731Y-101995223D01*
X25224191Y-101988747D01*
X25224193Y-101988743D01*
X25279060Y-101844301D01*
X25281521Y-101837823D01*
X25283271Y-101825376D01*
X25304413Y-101674942D01*
X25304955Y-101671088D01*
X25305249Y-101650000D01*
X25289288Y-101507704D01*
X25301377Y-101438890D01*
X25324834Y-101406203D01*
X28073820Y-98657218D01*
X30827852Y-95903186D01*
X30846554Y-95888082D01*
X30847608Y-95887123D01*
X30856219Y-95881563D01*
X30876813Y-95855440D01*
X30880733Y-95851029D01*
X30880663Y-95850970D01*
X30883968Y-95847070D01*
X30887585Y-95843453D01*
X30890553Y-95839300D01*
X30890562Y-95839289D01*
X30898706Y-95827891D01*
X30902216Y-95823216D01*
X30927267Y-95791440D01*
X30927268Y-95791438D01*
X30933612Y-95783391D01*
X30936614Y-95774843D01*
X30941881Y-95767472D01*
X30956419Y-95718860D01*
X30958224Y-95713306D01*
X30972447Y-95672805D01*
X30972448Y-95672803D01*
X30975032Y-95665443D01*
X30975509Y-95659936D01*
X30975509Y-95657253D01*
X30975622Y-95654654D01*
X30975645Y-95654576D01*
X30975813Y-95654583D01*
X30975858Y-95653862D01*
X30977700Y-95647704D01*
X30975605Y-95594385D01*
X30975509Y-95589517D01*
X30975509Y-94991964D01*
X30995194Y-94924925D01*
X31018977Y-94897674D01*
X31076675Y-94848395D01*
X31082357Y-94843542D01*
X31093402Y-94828172D01*
X31113807Y-94799775D01*
X31174233Y-94715683D01*
X31232959Y-94569598D01*
X31234802Y-94556649D01*
X31254571Y-94417744D01*
X31254571Y-94417740D01*
X31255143Y-94413723D01*
X31255287Y-94400000D01*
X31236372Y-94243694D01*
X31180719Y-94096412D01*
X31172346Y-94084229D01*
X31095777Y-93972821D01*
X31095774Y-93972818D01*
X31091540Y-93966657D01*
X31017020Y-93900262D01*
X30980061Y-93840968D01*
X30975509Y-93807679D01*
X30975509Y-75091955D01*
X30995194Y-75024916D01*
X31018978Y-74997665D01*
X31076659Y-74948401D01*
X31076660Y-74948400D01*
X31082348Y-74943542D01*
X31174224Y-74815683D01*
X31232950Y-74669598D01*
X31234003Y-74662201D01*
X31254562Y-74517744D01*
X31254562Y-74517740D01*
X31255134Y-74513723D01*
X31255278Y-74500000D01*
X31236363Y-74343694D01*
X31189924Y-74220795D01*
X31183354Y-74203408D01*
X31183352Y-74203405D01*
X31180710Y-74196412D01*
X31176473Y-74190247D01*
X31095768Y-74072821D01*
X31095765Y-74072818D01*
X31091531Y-74066657D01*
X30973976Y-73961919D01*
X30834831Y-73888245D01*
X30813553Y-73882900D01*
X30753331Y-73847479D01*
X30721817Y-73785120D01*
X30729020Y-73715623D01*
X30756081Y-73674956D01*
X34545146Y-69885891D01*
X34606469Y-69852406D01*
X34634772Y-69849587D01*
X34702218Y-69850647D01*
X34761025Y-69851571D01*
X34761028Y-69851571D01*
X34768495Y-69851688D01*
X34775776Y-69850020D01*
X34775780Y-69850020D01*
X34914681Y-69818207D01*
X34921968Y-69816538D01*
X35062625Y-69745795D01*
X35068306Y-69740943D01*
X35068309Y-69740941D01*
X35176666Y-69648395D01*
X35176667Y-69648394D01*
X35182348Y-69643542D01*
X35274224Y-69515683D01*
X35332950Y-69369598D01*
X35355134Y-69213723D01*
X35355278Y-69200000D01*
X35354448Y-69193138D01*
X35337262Y-69051119D01*
X35337261Y-69051115D01*
X35336363Y-69043694D01*
X35280710Y-68896412D01*
X35276473Y-68890247D01*
X35195768Y-68772821D01*
X35195765Y-68772818D01*
X35191531Y-68766657D01*
X35073976Y-68661919D01*
X34934831Y-68588245D01*
X34927578Y-68586423D01*
X34927575Y-68586422D01*
X34869606Y-68571862D01*
X34841462Y-68564793D01*
X34781238Y-68529370D01*
X34749725Y-68467011D01*
X34756929Y-68397514D01*
X34783989Y-68356848D01*
X36014304Y-67126533D01*
X36030570Y-67114420D01*
X36030210Y-67113955D01*
X36038308Y-67107673D01*
X36047329Y-67102806D01*
X36123515Y-67020388D01*
X36131097Y-67012866D01*
X36137397Y-67007134D01*
X36146010Y-67001572D01*
X36166607Y-66975445D01*
X36170521Y-66971040D01*
X36170451Y-66970981D01*
X36173753Y-66967084D01*
X36177376Y-66963461D01*
X36188487Y-66947912D01*
X36191996Y-66943239D01*
X36202240Y-66930245D01*
X36223403Y-66903400D01*
X36226405Y-66894851D01*
X36231672Y-66887481D01*
X36234610Y-66877660D01*
X36246209Y-66838873D01*
X36248015Y-66833315D01*
X36262238Y-66792814D01*
X36262239Y-66792812D01*
X36264823Y-66785452D01*
X36265300Y-66779945D01*
X36265300Y-66777262D01*
X36265413Y-66774663D01*
X36265436Y-66774585D01*
X36265604Y-66774592D01*
X36265649Y-66773871D01*
X36267491Y-66767713D01*
X36265396Y-66714394D01*
X36265300Y-66709526D01*
X36265300Y-66520379D01*
X36284985Y-66453340D01*
X36325805Y-66413869D01*
X36340467Y-66405129D01*
X36340470Y-66405127D01*
X36346423Y-66401578D01*
X36351445Y-66396796D01*
X36463335Y-66290245D01*
X36463337Y-66290243D01*
X36468354Y-66285465D01*
X36515189Y-66214973D01*
X36557694Y-66150999D01*
X36557696Y-66150995D01*
X36561531Y-66145223D01*
X36563991Y-66138747D01*
X36563993Y-66138743D01*
X36618860Y-65994301D01*
X36621321Y-65987823D01*
X36644755Y-65821088D01*
X36645049Y-65800000D01*
X36643866Y-65789455D01*
X37674625Y-65789455D01*
X37691055Y-65957025D01*
X37744202Y-66116791D01*
X37747795Y-66122724D01*
X37747796Y-66122726D01*
X37761421Y-66145223D01*
X37831424Y-66260812D01*
X37948386Y-66381929D01*
X37954189Y-66385727D01*
X37954191Y-66385728D01*
X38002725Y-66417488D01*
X38089275Y-66474125D01*
X38095770Y-66476540D01*
X38095773Y-66476542D01*
X38240589Y-66530398D01*
X38240592Y-66530399D01*
X38247089Y-66532815D01*
X38413983Y-66555083D01*
X38420884Y-66554455D01*
X38420886Y-66554455D01*
X38518435Y-66545577D01*
X38581664Y-66539823D01*
X38588255Y-66537681D01*
X38588257Y-66537681D01*
X38735206Y-66489935D01*
X38735210Y-66489933D01*
X38741797Y-66487793D01*
X38886423Y-66401578D01*
X38944488Y-66346283D01*
X39003335Y-66290245D01*
X39003337Y-66290243D01*
X39008354Y-66285465D01*
X39055189Y-66214973D01*
X39097694Y-66150999D01*
X39097696Y-66150995D01*
X39101531Y-66145223D01*
X39103991Y-66138747D01*
X39103993Y-66138743D01*
X39158860Y-65994301D01*
X39161321Y-65987823D01*
X39184755Y-65821088D01*
X39185049Y-65800000D01*
X39166281Y-65632676D01*
X39110908Y-65473668D01*
X39021684Y-65330879D01*
X38946602Y-65255271D01*
X38907923Y-65216321D01*
X38907922Y-65216320D01*
X38903042Y-65211406D01*
X38897195Y-65207695D01*
X38897192Y-65207693D01*
X38766733Y-65124902D01*
X38760879Y-65121187D01*
X38748082Y-65116630D01*
X38608791Y-65067031D01*
X38608792Y-65067031D01*
X38602262Y-65064706D01*
X38435073Y-65044769D01*
X38428184Y-65045493D01*
X38428181Y-65045493D01*
X38274518Y-65061644D01*
X38274517Y-65061644D01*
X38267621Y-65062369D01*
X38261054Y-65064604D01*
X38261052Y-65064605D01*
X38114798Y-65114394D01*
X38114795Y-65114395D01*
X38108231Y-65116630D01*
X37964822Y-65204856D01*
X37959870Y-65209706D01*
X37959868Y-65209707D01*
X37849480Y-65317807D01*
X37849477Y-65317811D01*
X37844524Y-65322661D01*
X37753315Y-65464190D01*
X37695727Y-65622409D01*
X37674625Y-65789455D01*
X36643866Y-65789455D01*
X36626281Y-65632676D01*
X36570908Y-65473668D01*
X36481684Y-65330879D01*
X36406602Y-65255271D01*
X36367923Y-65216321D01*
X36367922Y-65216320D01*
X36363042Y-65211406D01*
X36357195Y-65207695D01*
X36357192Y-65207693D01*
X36226733Y-65124902D01*
X36220879Y-65121187D01*
X36208082Y-65116630D01*
X36068791Y-65067031D01*
X36068792Y-65067031D01*
X36062262Y-65064706D01*
X35895073Y-65044769D01*
X35888184Y-65045493D01*
X35888181Y-65045493D01*
X35734518Y-65061644D01*
X35734517Y-65061644D01*
X35727621Y-65062369D01*
X35721054Y-65064604D01*
X35721052Y-65064605D01*
X35574798Y-65114394D01*
X35574795Y-65114395D01*
X35568231Y-65116630D01*
X35424822Y-65204856D01*
X35419870Y-65209706D01*
X35419868Y-65209707D01*
X35309480Y-65317807D01*
X35309477Y-65317811D01*
X35304524Y-65322661D01*
X35213315Y-65464190D01*
X35155727Y-65622409D01*
X35134625Y-65789455D01*
X35151055Y-65957025D01*
X35204202Y-66116791D01*
X35207795Y-66122724D01*
X35207796Y-66122726D01*
X35221421Y-66145223D01*
X35291424Y-66260812D01*
X35408386Y-66381929D01*
X35455068Y-66412477D01*
X35500383Y-66465657D01*
X35509755Y-66534895D01*
X35480205Y-66598209D01*
X35474848Y-66603915D01*
X27372161Y-74706602D01*
X27353432Y-74721729D01*
X27352398Y-74722670D01*
X27343790Y-74728228D01*
X27337448Y-74736273D01*
X27323193Y-74754355D01*
X27319280Y-74758758D01*
X27319350Y-74758817D01*
X27316043Y-74762720D01*
X27312425Y-74766338D01*
X27309451Y-74770500D01*
X27301321Y-74781877D01*
X27297830Y-74786528D01*
X27266397Y-74826400D01*
X27263395Y-74834949D01*
X27258128Y-74842319D01*
X27252284Y-74861862D01*
X27243594Y-74890918D01*
X27241788Y-74896476D01*
X27230658Y-74928172D01*
X27224977Y-74944348D01*
X27224500Y-74949855D01*
X27224500Y-74952539D01*
X27224387Y-74955141D01*
X27224365Y-74955215D01*
X27224196Y-74955208D01*
X27224150Y-74955933D01*
X27222310Y-74962087D01*
X27222712Y-74972326D01*
X27222712Y-74972329D01*
X27224404Y-75015381D01*
X27224500Y-75020249D01*
X27224500Y-93807915D01*
X27204815Y-93874954D01*
X27182015Y-93901357D01*
X27113034Y-93961533D01*
X27022501Y-94090348D01*
X26965309Y-94237039D01*
X26944758Y-94393138D01*
X26945578Y-94400566D01*
X26945578Y-94400568D01*
X26957698Y-94510346D01*
X26962035Y-94549633D01*
X27016143Y-94697490D01*
X27103958Y-94828172D01*
X27126183Y-94848395D01*
X27214878Y-94929102D01*
X27214882Y-94929105D01*
X27220410Y-94934135D01*
X27226980Y-94937702D01*
X27226981Y-94937703D01*
X27352208Y-95005696D01*
X27358776Y-95009262D01*
X27461031Y-95036088D01*
X27503841Y-95047319D01*
X27503843Y-95047319D01*
X27511069Y-95049215D01*
X27588127Y-95050425D01*
X27661025Y-95051571D01*
X27661028Y-95051571D01*
X27668495Y-95051688D01*
X27675776Y-95050020D01*
X27675780Y-95050020D01*
X27814681Y-95018207D01*
X27821968Y-95016538D01*
X27962625Y-94945795D01*
X27987061Y-94924925D01*
X28019083Y-94897576D01*
X28082845Y-94869006D01*
X28151930Y-94879444D01*
X28183064Y-94900150D01*
X28220413Y-94934135D01*
X28226983Y-94937702D01*
X28226984Y-94937703D01*
X28352211Y-95005696D01*
X28358779Y-95009262D01*
X28461034Y-95036088D01*
X28503844Y-95047319D01*
X28503846Y-95047319D01*
X28511072Y-95049215D01*
X28588130Y-95050425D01*
X28661028Y-95051571D01*
X28661031Y-95051571D01*
X28668498Y-95051688D01*
X28675779Y-95050020D01*
X28675783Y-95050020D01*
X28814684Y-95018207D01*
X28821971Y-95016538D01*
X28962628Y-94945795D01*
X28987064Y-94924925D01*
X29019086Y-94897576D01*
X29082848Y-94869006D01*
X29151933Y-94879444D01*
X29183067Y-94900150D01*
X29220416Y-94934135D01*
X29226986Y-94937702D01*
X29226987Y-94937703D01*
X29352214Y-95005696D01*
X29358782Y-95009262D01*
X29461037Y-95036088D01*
X29503847Y-95047319D01*
X29503849Y-95047319D01*
X29511075Y-95049215D01*
X29588133Y-95050425D01*
X29661031Y-95051571D01*
X29661034Y-95051571D01*
X29668501Y-95051688D01*
X29675782Y-95050020D01*
X29675786Y-95050020D01*
X29814687Y-95018207D01*
X29821974Y-95016538D01*
X29962631Y-94945795D01*
X29987067Y-94924925D01*
X30019089Y-94897576D01*
X30082851Y-94869006D01*
X30151936Y-94879444D01*
X30183072Y-94900152D01*
X30183969Y-94900968D01*
X30220300Y-94960645D01*
X30224509Y-94992676D01*
X30224509Y-95393092D01*
X30204824Y-95460131D01*
X30188190Y-95480773D01*
X24793446Y-100875517D01*
X24732123Y-100909002D01*
X24691082Y-100910964D01*
X24555273Y-100894769D01*
X24548384Y-100895493D01*
X24548381Y-100895493D01*
X24394718Y-100911644D01*
X24394717Y-100911644D01*
X24387821Y-100912369D01*
X24381254Y-100914604D01*
X24381252Y-100914605D01*
X24234998Y-100964394D01*
X24234995Y-100964395D01*
X24228431Y-100966630D01*
X24085022Y-101054856D01*
X24080070Y-101059706D01*
X24080068Y-101059707D01*
X24010758Y-101127581D01*
X23949088Y-101160423D01*
X23879452Y-101154709D01*
X23823960Y-101112254D01*
X23800230Y-101046538D01*
X23800000Y-101038987D01*
X23800000Y-73668138D01*
X24969758Y-73668138D01*
X24970578Y-73675566D01*
X24970578Y-73675568D01*
X24972474Y-73692744D01*
X24987035Y-73824633D01*
X25041143Y-73972490D01*
X25128958Y-74103172D01*
X25151183Y-74123395D01*
X25239878Y-74204102D01*
X25239882Y-74204105D01*
X25245410Y-74209135D01*
X25383776Y-74284262D01*
X25486031Y-74311088D01*
X25528841Y-74322319D01*
X25528843Y-74322319D01*
X25536069Y-74324215D01*
X25613127Y-74325425D01*
X25686025Y-74326571D01*
X25686028Y-74326571D01*
X25693495Y-74326688D01*
X25700776Y-74325020D01*
X25700780Y-74325020D01*
X25839681Y-74293207D01*
X25846968Y-74291538D01*
X25987625Y-74220795D01*
X25993306Y-74215943D01*
X25993309Y-74215941D01*
X26101666Y-74123395D01*
X26101667Y-74123394D01*
X26107348Y-74118542D01*
X26118393Y-74103172D01*
X26148206Y-74061682D01*
X26199224Y-73990683D01*
X26257950Y-73844598D01*
X26259793Y-73831649D01*
X26279562Y-73692744D01*
X26279562Y-73692740D01*
X26280134Y-73688723D01*
X26280278Y-73675000D01*
X26261363Y-73518694D01*
X26205710Y-73371412D01*
X26197337Y-73359229D01*
X26120768Y-73247821D01*
X26120765Y-73247818D01*
X26116531Y-73241657D01*
X26042011Y-73175262D01*
X26005052Y-73115968D01*
X26000500Y-73082679D01*
X26000500Y-71191699D01*
X26020185Y-71124660D01*
X26036819Y-71104018D01*
X30566932Y-66573905D01*
X30628255Y-66540420D01*
X30671010Y-66538675D01*
X30793983Y-66555083D01*
X30800884Y-66554455D01*
X30800886Y-66554455D01*
X30898435Y-66545577D01*
X30961664Y-66539823D01*
X30968255Y-66537681D01*
X30968257Y-66537681D01*
X31115206Y-66489935D01*
X31115210Y-66489933D01*
X31121797Y-66487793D01*
X31266423Y-66401578D01*
X31324488Y-66346283D01*
X31383335Y-66290245D01*
X31383337Y-66290243D01*
X31388354Y-66285465D01*
X31435189Y-66214973D01*
X31477694Y-66150999D01*
X31477696Y-66150995D01*
X31481531Y-66145223D01*
X31483991Y-66138747D01*
X31483993Y-66138743D01*
X31538860Y-65994301D01*
X31541321Y-65987823D01*
X31564755Y-65821088D01*
X31565049Y-65800000D01*
X31563866Y-65789455D01*
X32594625Y-65789455D01*
X32611055Y-65957025D01*
X32664202Y-66116791D01*
X32667795Y-66122724D01*
X32667796Y-66122726D01*
X32681421Y-66145223D01*
X32751424Y-66260812D01*
X32868386Y-66381929D01*
X32874189Y-66385727D01*
X32874191Y-66385728D01*
X32922725Y-66417488D01*
X33009275Y-66474125D01*
X33015770Y-66476540D01*
X33015773Y-66476542D01*
X33160589Y-66530398D01*
X33160592Y-66530399D01*
X33167089Y-66532815D01*
X33333983Y-66555083D01*
X33340884Y-66554455D01*
X33340886Y-66554455D01*
X33438435Y-66545577D01*
X33501664Y-66539823D01*
X33508255Y-66537681D01*
X33508257Y-66537681D01*
X33655206Y-66489935D01*
X33655210Y-66489933D01*
X33661797Y-66487793D01*
X33806423Y-66401578D01*
X33864488Y-66346283D01*
X33923335Y-66290245D01*
X33923337Y-66290243D01*
X33928354Y-66285465D01*
X33975189Y-66214973D01*
X34017694Y-66150999D01*
X34017696Y-66150995D01*
X34021531Y-66145223D01*
X34023991Y-66138747D01*
X34023993Y-66138743D01*
X34078860Y-65994301D01*
X34081321Y-65987823D01*
X34104755Y-65821088D01*
X34105049Y-65800000D01*
X34086281Y-65632676D01*
X34030908Y-65473668D01*
X33941684Y-65330879D01*
X33866602Y-65255271D01*
X33827923Y-65216321D01*
X33827922Y-65216320D01*
X33823042Y-65211406D01*
X33817195Y-65207695D01*
X33817192Y-65207693D01*
X33686733Y-65124902D01*
X33680879Y-65121187D01*
X33668082Y-65116630D01*
X33528791Y-65067031D01*
X33528792Y-65067031D01*
X33522262Y-65064706D01*
X33355073Y-65044769D01*
X33348184Y-65045493D01*
X33348181Y-65045493D01*
X33194518Y-65061644D01*
X33194517Y-65061644D01*
X33187621Y-65062369D01*
X33181054Y-65064604D01*
X33181052Y-65064605D01*
X33034798Y-65114394D01*
X33034795Y-65114395D01*
X33028231Y-65116630D01*
X32884822Y-65204856D01*
X32879870Y-65209706D01*
X32879868Y-65209707D01*
X32769480Y-65317807D01*
X32769477Y-65317811D01*
X32764524Y-65322661D01*
X32673315Y-65464190D01*
X32615727Y-65622409D01*
X32594625Y-65789455D01*
X31563866Y-65789455D01*
X31546281Y-65632676D01*
X31490908Y-65473668D01*
X31401684Y-65330879D01*
X31326602Y-65255271D01*
X31287923Y-65216321D01*
X31287922Y-65216320D01*
X31283042Y-65211406D01*
X31277195Y-65207695D01*
X31277192Y-65207693D01*
X31146733Y-65124902D01*
X31140879Y-65121187D01*
X31128082Y-65116630D01*
X30988791Y-65067031D01*
X30988792Y-65067031D01*
X30982262Y-65064706D01*
X30815073Y-65044769D01*
X30808184Y-65045493D01*
X30808181Y-65045493D01*
X30654518Y-65061644D01*
X30654517Y-65061644D01*
X30647621Y-65062369D01*
X30641054Y-65064604D01*
X30641052Y-65064605D01*
X30494798Y-65114394D01*
X30494795Y-65114395D01*
X30488231Y-65116630D01*
X30344822Y-65204856D01*
X30339870Y-65209706D01*
X30339868Y-65209707D01*
X30229480Y-65317807D01*
X30229477Y-65317811D01*
X30224524Y-65322661D01*
X30133315Y-65464190D01*
X30075727Y-65622409D01*
X30054625Y-65789455D01*
X30067114Y-65916835D01*
X30069861Y-65944848D01*
X30056812Y-66013488D01*
X30034134Y-66044629D01*
X29583778Y-66494985D01*
X29522455Y-66528470D01*
X29452763Y-66523486D01*
X29396830Y-66481614D01*
X29372413Y-66416150D01*
X29372822Y-66393912D01*
X29377437Y-66351426D01*
X29377800Y-66344729D01*
X29377800Y-66071830D01*
X29373396Y-66056831D01*
X29372026Y-66055644D01*
X29364468Y-66054000D01*
X28541630Y-66054000D01*
X28526631Y-66058404D01*
X28525444Y-66059774D01*
X28523800Y-66067332D01*
X28523800Y-66790169D01*
X28528204Y-66805168D01*
X28529574Y-66806355D01*
X28537132Y-66807999D01*
X28914526Y-66807999D01*
X28921226Y-66807636D01*
X28963714Y-66803021D01*
X29032488Y-66815351D01*
X29083677Y-66862905D01*
X29101031Y-66930586D01*
X29079039Y-66996904D01*
X29064786Y-67013977D01*
X25397161Y-70681602D01*
X25378432Y-70696729D01*
X25377398Y-70697670D01*
X25368790Y-70703228D01*
X25362448Y-70711273D01*
X25348193Y-70729355D01*
X25344280Y-70733758D01*
X25344350Y-70733817D01*
X25341043Y-70737720D01*
X25337425Y-70741338D01*
X25334451Y-70745500D01*
X25326321Y-70756877D01*
X25322830Y-70761528D01*
X25291397Y-70801400D01*
X25288395Y-70809949D01*
X25283128Y-70817319D01*
X25280191Y-70827140D01*
X25268594Y-70865918D01*
X25266788Y-70871476D01*
X25249977Y-70919348D01*
X25249500Y-70924855D01*
X25249500Y-70927539D01*
X25249387Y-70930141D01*
X25249365Y-70930215D01*
X25249196Y-70930208D01*
X25249150Y-70930933D01*
X25247310Y-70937087D01*
X25247712Y-70947326D01*
X25247712Y-70947329D01*
X25249404Y-70990381D01*
X25249500Y-70995249D01*
X25249500Y-73082915D01*
X25229815Y-73149954D01*
X25207015Y-73176357D01*
X25138034Y-73236533D01*
X25047501Y-73365348D01*
X24990309Y-73512039D01*
X24969758Y-73668138D01*
X23800000Y-73668138D01*
X23800000Y-65789455D01*
X24974625Y-65789455D01*
X24991055Y-65957025D01*
X25044202Y-66116791D01*
X25047795Y-66122724D01*
X25047796Y-66122726D01*
X25061421Y-66145223D01*
X25131424Y-66260812D01*
X25248386Y-66381929D01*
X25254189Y-66385727D01*
X25254191Y-66385728D01*
X25302725Y-66417488D01*
X25389275Y-66474125D01*
X25395770Y-66476540D01*
X25395773Y-66476542D01*
X25540589Y-66530398D01*
X25540592Y-66530399D01*
X25547089Y-66532815D01*
X25713983Y-66555083D01*
X25720884Y-66554455D01*
X25720886Y-66554455D01*
X25818435Y-66545577D01*
X25881664Y-66539823D01*
X25888255Y-66537681D01*
X25888257Y-66537681D01*
X26035206Y-66489935D01*
X26035210Y-66489933D01*
X26041797Y-66487793D01*
X26186423Y-66401578D01*
X26244488Y-66346283D01*
X26246123Y-66344726D01*
X27161801Y-66344726D01*
X27162164Y-66351431D01*
X27167708Y-66402477D01*
X27171278Y-66417488D01*
X27216527Y-66538190D01*
X27224926Y-66553532D01*
X27301598Y-66655835D01*
X27313965Y-66668202D01*
X27416268Y-66744874D01*
X27431610Y-66753273D01*
X27552315Y-66798524D01*
X27567318Y-66802091D01*
X27618373Y-66807637D01*
X27625071Y-66808000D01*
X27997970Y-66808000D01*
X28012969Y-66803596D01*
X28014156Y-66802226D01*
X28015800Y-66794668D01*
X28015800Y-66071830D01*
X28011396Y-66056831D01*
X28010026Y-66055644D01*
X28002468Y-66054000D01*
X27179631Y-66054000D01*
X27164632Y-66058404D01*
X27163445Y-66059774D01*
X27161801Y-66067332D01*
X27161801Y-66344726D01*
X26246123Y-66344726D01*
X26303335Y-66290245D01*
X26303337Y-66290243D01*
X26308354Y-66285465D01*
X26355189Y-66214973D01*
X26397694Y-66150999D01*
X26397696Y-66150995D01*
X26401531Y-66145223D01*
X26403991Y-66138747D01*
X26403993Y-66138743D01*
X26458860Y-65994301D01*
X26461321Y-65987823D01*
X26484755Y-65821088D01*
X26485049Y-65800000D01*
X26466281Y-65632676D01*
X26410908Y-65473668D01*
X26321684Y-65330879D01*
X26246602Y-65255271D01*
X26207923Y-65216321D01*
X26207922Y-65216320D01*
X26203042Y-65211406D01*
X26197195Y-65207695D01*
X26197192Y-65207693D01*
X26066733Y-65124902D01*
X26060879Y-65121187D01*
X26048082Y-65116630D01*
X25908791Y-65067031D01*
X25908792Y-65067031D01*
X25902262Y-65064706D01*
X25735073Y-65044769D01*
X25728184Y-65045493D01*
X25728181Y-65045493D01*
X25574518Y-65061644D01*
X25574517Y-65061644D01*
X25567621Y-65062369D01*
X25561054Y-65064604D01*
X25561052Y-65064605D01*
X25414798Y-65114394D01*
X25414795Y-65114395D01*
X25408231Y-65116630D01*
X25264822Y-65204856D01*
X25259870Y-65209706D01*
X25259868Y-65209707D01*
X25149480Y-65317807D01*
X25149477Y-65317811D01*
X25144524Y-65322661D01*
X25053315Y-65464190D01*
X24995727Y-65622409D01*
X24974625Y-65789455D01*
X23800000Y-65789455D01*
X23800000Y-65136835D01*
X23802383Y-65112644D01*
X23802515Y-65111980D01*
X23804898Y-65100000D01*
X23802515Y-65088021D01*
X23802515Y-65084640D01*
X23803295Y-65070757D01*
X23812225Y-64991500D01*
X23818402Y-64964434D01*
X23849853Y-64874549D01*
X23861901Y-64849533D01*
X23912562Y-64768908D01*
X23929874Y-64747200D01*
X23997200Y-64679874D01*
X24018908Y-64662562D01*
X24099533Y-64611901D01*
X24124549Y-64599853D01*
X24214434Y-64568402D01*
X24241497Y-64562226D01*
X24297749Y-64555887D01*
X24320757Y-64553295D01*
X24334640Y-64552515D01*
X24338021Y-64552515D01*
X24350000Y-64554898D01*
X24361980Y-64552515D01*
X24362644Y-64552383D01*
X24386835Y-64550000D01*
X27559766Y-64550000D01*
X27626805Y-64569685D01*
G37*
G04 #@! TD.AperFunction*
M02*
