G04 #@! TF.GenerationSoftware,KiCad,Pcbnew,6.0.6-3a73a75311~116~ubuntu20.04.1*
G04 #@! TF.CreationDate,2022-07-02T07:09:03+08:00*
G04 #@! TF.ProjectId,epaper-102,65706170-6572-42d3-9130-322e6b696361,rev?*
G04 #@! TF.SameCoordinates,Original*
G04 #@! TF.FileFunction,Soldermask,Bot*
G04 #@! TF.FilePolarity,Negative*
%FSLAX46Y46*%
G04 Gerber Fmt 4.6, Leading zero omitted, Abs format (unit mm)*
G04 Created by KiCad (PCBNEW 6.0.6-3a73a75311~116~ubuntu20.04.1) date 2022-07-02 07:09:03*
%MOMM*%
%LPD*%
G01*
G04 APERTURE LIST*
G04 Aperture macros list*
%AMRoundRect*
0 Rectangle with rounded corners*
0 $1 Rounding radius*
0 $2 $3 $4 $5 $6 $7 $8 $9 X,Y pos of 4 corners*
0 Add a 4 corners polygon primitive as box body*
4,1,4,$2,$3,$4,$5,$6,$7,$8,$9,$2,$3,0*
0 Add four circle primitives for the rounded corners*
1,1,$1+$1,$2,$3*
1,1,$1+$1,$4,$5*
1,1,$1+$1,$6,$7*
1,1,$1+$1,$8,$9*
0 Add four rect primitives between the rounded corners*
20,1,$1+$1,$2,$3,$4,$5,0*
20,1,$1+$1,$4,$5,$6,$7,0*
20,1,$1+$1,$6,$7,$8,$9,0*
20,1,$1+$1,$8,$9,$2,$3,0*%
G04 Aperture macros list end*
%ADD10RoundRect,0.225000X-0.250000X0.225000X-0.250000X-0.225000X0.250000X-0.225000X0.250000X0.225000X0*%
%ADD11RoundRect,0.218750X0.256250X-0.218750X0.256250X0.218750X-0.256250X0.218750X-0.256250X-0.218750X0*%
%ADD12RoundRect,0.218750X-0.256250X0.218750X-0.256250X-0.218750X0.256250X-0.218750X0.256250X0.218750X0*%
%ADD13R,0.900000X1.200000*%
%ADD14R,0.300000X1.300000*%
%ADD15R,1.000000X1.500000*%
%ADD16C,1.400000*%
G04 APERTURE END LIST*
D10*
X26700000Y-80875000D03*
X26700000Y-82425000D03*
X25275000Y-84975000D03*
X25275000Y-86525000D03*
X28375000Y-85000000D03*
X28375000Y-86550000D03*
X26400000Y-77300000D03*
X26400000Y-78850000D03*
X28625000Y-77275000D03*
X28625000Y-78825000D03*
X31175000Y-77400000D03*
X31175000Y-78950000D03*
X30625000Y-83550000D03*
X30625000Y-85100000D03*
X33375000Y-82450000D03*
X33375000Y-84000000D03*
X33750000Y-77450000D03*
X33750000Y-79000000D03*
X36200000Y-82550000D03*
X36200000Y-84100000D03*
X36425000Y-77275000D03*
X36425000Y-78825000D03*
D11*
X39450000Y-78887500D03*
X39450000Y-77312500D03*
D10*
X40150000Y-84775000D03*
X40150000Y-86325000D03*
D12*
X41325000Y-77275000D03*
X41325000Y-78850000D03*
D10*
X41975000Y-84800000D03*
X41975000Y-86350000D03*
D13*
X31700000Y-72550000D03*
X35000000Y-72550000D03*
D14*
X40600000Y-90450000D03*
D15*
X24600000Y-93650000D03*
D14*
X40100000Y-90450000D03*
X39600000Y-90450000D03*
X39100000Y-90450000D03*
X38600000Y-90450000D03*
X38100000Y-90450000D03*
X37600000Y-90450000D03*
X37100000Y-90450000D03*
X36600000Y-90450000D03*
X36100000Y-90450000D03*
X35600000Y-90450000D03*
X35100000Y-90450000D03*
X34600000Y-90450000D03*
X34100000Y-90450000D03*
X33600000Y-90450000D03*
X33100000Y-90450000D03*
X32600000Y-90450000D03*
X32100000Y-90450000D03*
X31600000Y-90450000D03*
X31100000Y-90450000D03*
X30600000Y-90450000D03*
X30100000Y-90450000D03*
X29600000Y-90450000D03*
X29100000Y-90450000D03*
X28600000Y-90450000D03*
X28100000Y-90450000D03*
X27600000Y-90450000D03*
X27100000Y-90450000D03*
X26600000Y-90450000D03*
X26100000Y-90450000D03*
D15*
X42100000Y-93650000D03*
D16*
X24459800Y-65450000D03*
X26999800Y-65450000D03*
X29539800Y-65450000D03*
X32079800Y-65450000D03*
X34619800Y-65450000D03*
X37159800Y-65450000D03*
X39699800Y-65450000D03*
X42239800Y-65450000D03*
D10*
X25150000Y-80850000D03*
X25150000Y-82400000D03*
X26825000Y-85000000D03*
X26825000Y-86550000D03*
M02*
